<svg width="48" height="48" viewBox="0 0 48 48" fill="none" xmlns="http://www.w3.org/2000/svg">
<rect x="1.52174" y="1.52174" width="44.9565" height="44.9565" rx="22.4783" fill="black" stroke="black" stroke-width="1.04348"/>
<g clip-path="url(#clip0_1_5)">
<path d="M34.7 18.65L38.2584 15.0833C39.2417 14.1 39.2417 12.5 38.2584 11.5167C37.275 10.5333 35.675 10.5333 34.6917 11.5167L31.1334 15.0833L25.7833 9.74165C24.8 8.75832 23.2 8.75832 22.2167 9.74165L15.0834 16.8667C14.1 17.85 14.1 19.45 15.0834 20.4333L24 29.35L31.1334 22.2167L32.9167 24L24 32.9167L13.3 22.2167C12.3167 21.2333 10.7167 21.2333 9.73335 22.2167C8.75002 23.2 8.75002 24.8 9.73335 25.7833L22.2084 38.2583C23.1917 39.2417 24.7917 39.2417 25.775 38.2583L38.25 25.7833C39.2333 24.8 39.2333 23.2 38.25 22.2167L34.7 18.65ZM24 22.2167L20.4333 18.65L24 15.0833L27.5667 18.65L24 22.2167Z" fill="white"/>
</g>
<defs>
<clipPath id="clip0_1_5">
<rect width="30" height="30" fill="white" transform="translate(9 9)"/>
</clipPath>
</defs>
</svg>
