<svg width="16" height="16" viewBox="0 0 16 16" fill="none" xmlns="http://www.w3.org/2000/svg"><mask id="path-1-inside-1_16_2915" fill="#fff"><path fill-rule="evenodd" clip-rule="evenodd" d="M15.333 3.667H.667a.667.667 0 010-1.333h14.666a.667.667 0 110 1.333zM10 7H.667a.667.667 0 010-1.333H10A.667.667 0 1110 7zm0 5.334H.667a.667.667 0 100 1.333H10a.666.666 0 100-1.333zM.667 9h14.666a.667.667 0 110 1.334H.667A.666.666 0 11.667 9z"/></mask><path fill-rule="evenodd" clip-rule="evenodd" d="M15.333 3.667H.667a.667.667 0 010-1.333h14.666a.667.667 0 110 1.333zM10 7H.667a.667.667 0 010-1.333H10A.667.667 0 1110 7zm0 5.334H.667a.667.667 0 100 1.333H10a.666.666 0 100-1.333zM.667 9h14.666a.667.667 0 110 1.334H.667A.666.666 0 11.667 9z" fill="#7C7B88"/><path d="M.195 3.472L15.28-11.613.195 3.472zm0-.943L15.28 17.614.195 2.529zm15.61 0L30.89-12.556 15.805 2.529zm0 .943L30.89 18.557 15.805 3.471zM.195 6.805L15.28-8.28.195 6.805zm0-.943L15.28 20.947.195 5.862zm10.276 0L25.556-9.223 10.471 5.862zm0 .943L25.556 21.89 10.471 6.805zM.195 12.529L15.28 27.614.195 12.529zm0 .943L15.28-1.614.195 13.472zm10.276 0l15.085 15.085-15.085-15.085zm0-.943L25.556-2.556 10.471 12.529zm5.334-3.334L30.89-5.889 15.805 9.194zm0 .943L30.89 25.223 15.805 10.138zm-15.61 0L-14.89 25.223.195 10.138zm0-.943L-14.89-5.889.195 9.195zM.667 25h14.666v-42.666H.667V25zm-15.557-6.444A22 22 0 00.667 25v-42.666a20.667 20.667 0 0114.613 6.053l-30.17 30.17zM-21.333 3a22 22 0 006.443 15.556l30.17-30.17A20.667 20.667 0 0121.333 3h-42.666zm6.443-15.556A22 22 0 00-21.333 3h42.666a20.667 20.667 0 01-6.053 14.614l-30.17-30.17zM.667-19a22 22 0 00-15.557 6.444l30.17 30.17A20.667 20.667 0 01.667 23.667V-19zm14.666 0H.667v42.667h14.666V-19zm15.557 6.444A22 22 0 0015.333-19v42.667A20.667 20.667 0 01.72 17.614l30.17-30.17zM37.333 3a22 22 0 00-6.443-15.556L.72 17.614A20.667 20.667 0 01-5.333 3h42.666zM30.89 18.556A22 22 0 0037.333 3H-5.333A20.667 20.667 0 01.72-11.613l30.17 30.17zM15.333 25a22 22 0 0015.557-6.443L.72-11.613a20.667 20.667 0 0114.613-6.053V25zM.667 28.334H10v-42.667H.667v42.666zM-14.89 21.89A22 22 0 00.667 28.334v-42.667A20.667 20.667 0 0115.28-8.28l-30.17 30.17zm-6.443-15.557A22 22 0 00-14.89 21.89L15.28-8.28a20.666 20.666 0 016.053 14.613h-42.666zm6.443-15.556a22 22 0 00-6.443 15.556h42.666a20.667 20.667 0 01-6.053 14.614l-30.17-30.17zM.667-15.666A22 22 0 00-14.89-9.223l30.17 30.17A20.667 20.667 0 01.667 27v-42.666zm9.333 0H.667V27H10v-42.666zm15.556 6.443A22 22 0 0010-15.666V27a20.667 20.667 0 01-14.614-6.053l30.17-30.17zM32 6.333a22 22 0 00-6.444-15.556l-30.17 30.17a20.667 20.667 0 01-6.053-14.614H32zM25.556 21.89A22 22 0 0032 6.333h-42.667A20.667 20.667 0 01-4.614-8.28l30.17 30.17zM10 28.334a22 22 0 0015.556-6.444L-4.614-8.28A20.667 20.667 0 0110-14.333v42.666zM.667 33.666H10V-9H.667v42.667zm14.613-6.053A20.666 20.666 0 01.667 33.667V-9A22 22 0 00-14.89-2.556l30.17 30.17zM21.333 13a20.666 20.666 0 01-6.053 14.614l-30.17-30.17A22 22 0 00-21.333 13h42.666zM15.28-1.613A20.667 20.667 0 0121.333 13h-42.666a22 22 0 006.443 15.556l30.17-30.17zM.667-7.667A20.667 20.667 0 0115.28-1.613l-30.17 30.17A22 22 0 00.667 35V-7.667zm9.333 0H.667V35H10V-7.667zM-4.614-1.613A20.667 20.667 0 0110-7.667V35a22 22 0 0015.556-6.444l-30.17-30.17zM-10.667 13A20.667 20.667 0 01-4.614-1.613l30.17 30.17A22 22 0 0032 13h-42.667zm6.053 14.614A20.667 20.667 0 01-10.667 13H32a22 22 0 00-6.444-15.556l-30.17 30.17zM10 33.667a20.667 20.667 0 01-14.614-6.053l30.17-30.17A22 22 0 0010-9v42.667zm5.333-46H.667v42.666h14.666v-42.666zM30.89-5.89a22 22 0 00-15.557-6.443v42.666A20.667 20.667 0 01.72 24.28L30.89-5.89zm6.443 15.557A22 22 0 0030.89-5.89L.72 24.28A20.667 20.667 0 01-5.333 9.666h42.666zM30.89 25.223a22 22 0 006.443-15.556H-5.333A20.667 20.667 0 01.72-4.947l30.17 30.17zm-15.557 6.444a22 22 0 0015.557-6.444L.72-4.947A20.667 20.667 0 0115.333-11v42.667zm-14.666 0h14.666V-11H.667v42.667zm-15.557-6.444A22 22 0 00.667 31.667V-11A20.667 20.667 0 0115.28-4.947l-30.17 30.17zm-6.443-15.556a22 22 0 006.443 15.556l30.17-30.17a20.667 20.667 0 016.053 14.614h-42.666zM-14.89-5.89a22 22 0 00-6.443 15.556h42.666A20.666 20.666 0 0115.28 24.28L-14.89-5.89zM.667-12.333A22 22 0 00-14.89-5.89l30.17 30.17A20.666 20.666 0 01.667 30.333v-42.667z" fill="#7C7B88" mask="url(#path-1-inside-1_16_2915)"/></svg>