<svg width="16" height="16" viewBox="0 0 16 16" fill="none" xmlns="http://www.w3.org/2000/svg"><path d="M12.667 2.667h-.734A3.34 3.34 0 008.667 0H7.333a3.34 3.34 0 00-3.266 2.667h-.734A3.337 3.337 0 000 6v6.667A3.337 3.337 0 003.333 16h9.334A3.337 3.337 0 0016 12.667V6a3.337 3.337 0 00-3.333-3.333zM7.333 1.333h1.334a2 2 0 011.877 1.334H5.456a2 2 0 011.877-1.334zM3.333 4h9.334a2 2 0 012 2v2H1.333V6a2 2 0 012-2zm9.334 10.667H3.333a2 2 0 01-2-2V9.333h6V10a.667.667 0 101.334 0v-.667h6v3.334a2 2 0 01-2 2z" fill="#7C7B88"/></svg>