<svg width="16" height="16" viewBox="0 0 16 16" fill="none" xmlns="http://www.w3.org/2000/svg"><g clip-path="url(#clip0_23_3052)"><path d="M4.667 9.333A.667.667 0 014 10h-.667a.667.667 0 010-1.333H4a.667.667 0 01.667.666zm2.666-.666h-.666a.667.667 0 100 1.333h.666a.667.667 0 000-1.333zM4 11.333h-.667a.667.667 0 000 1.334H4a.667.667 0 000-1.334zm3.333 0h-.666a.667.667 0 000 1.334h.666a.667.667 0 000-1.334zM4 3.333h-.667a.667.667 0 100 1.334H4a.667.667 0 100-1.334zm3.333 0h-.666a.667.667 0 000 1.334h.666a.667.667 0 000-1.334zM4 6h-.667a.667.667 0 000 1.333H4A.667.667 0 104 6zm3.333 0h-.666a.667.667 0 000 1.333h.666a.667.667 0 100-1.333zM16 6.667v6A3.337 3.337 0 0112.667 16H3.333A3.337 3.337 0 010 12.667V3.333A3.337 3.337 0 013.333 0h4a3.337 3.337 0 013.334 3.333h2A3.337 3.337 0 0116 6.667zm-12.667 8h6V3.333a2 2 0 00-2-2h-4a2 2 0 00-2 2v9.334a2 2 0 002 2zm11.334-8a2 2 0 00-2-2h-2v10h2a2 2 0 002-2v-6zm-2 2a.667.667 0 100 1.333.667.667 0 000-1.333zm0 2.666a.666.666 0 100 1.333.666.666 0 000-1.333zm0-5.333a.667.667 0 100 1.333.667.667 0 000-1.333z" fill="#7C7B88"/></g><defs><clipPath id="clip0_23_3052"><path fill="#fff" d="M0 0h16v16H0z"/></clipPath></defs></svg>