<svg width="16" height="16" viewBox="0 0 16 16" fill="none" xmlns="http://www.w3.org/2000/svg"><g clip-path="url(#clip0_16_2918)"><mask id="path-1-inside-1_16_2918" fill="#fff"><path d="M15.333 3.333H13.61l1.529-1.528a.667.667 0 00-.943-.943l-1.528 1.529V.667a.666.666 0 10-1.334 0v2.97A6.76 6.76 0 009.431 2.22a2.51 2.51 0 00-2.95.699C5.31 4.09 2.044 10.08.2 13.546A1.674 1.674 0 002.454 15.8c3.467-1.843 9.455-5.11 10.627-6.282a2.511 2.511 0 00.7-2.948 6.778 6.778 0 00-1.418-1.903h2.97a.667.667 0 100-1.334zM12.14 8.575c-.477.408-.989.773-1.53 1.092L9.139 8.195a.667.667 0 00-.943.943l1.247 1.246c-1.83 1.095-4.46 2.561-7.614 4.239a.333.333 0 01-.45-.451A239.877 239.877 0 014.15 9.093l1.378 1.378a.666.666 0 00.942-.942L4.834 7.89C5.56 6.632 6.17 5.625 6.64 4.916l1.555 1.555a.667.667 0 00.943-.942L7.449 3.84c.565-.526.91-.615 1.456-.395A7.748 7.748 0 0110.91 5.09a7.751 7.751 0 011.645 2.006c.166.387.23.834-.416 1.48z"/></mask><path d="M15.333 3.333H13.61l1.529-1.528a.667.667 0 00-.943-.943l-1.528 1.529V.667a.666.666 0 10-1.334 0v2.97A6.76 6.76 0 009.431 2.22a2.51 2.51 0 00-2.95.699C5.31 4.09 2.044 10.08.2 13.546A1.674 1.674 0 002.454 15.8c3.467-1.843 9.455-5.11 10.627-6.282a2.511 2.511 0 00.7-2.948 6.778 6.778 0 00-1.418-1.903h2.97a.667.667 0 100-1.334zM12.14 8.575c-.477.408-.989.773-1.53 1.092L9.139 8.195a.667.667 0 00-.943.943l1.247 1.246c-1.83 1.095-4.46 2.561-7.614 4.239a.333.333 0 01-.45-.451A239.877 239.877 0 014.15 9.093l1.378 1.378a.666.666 0 00.942-.942L4.834 7.89C5.56 6.632 6.17 5.625 6.64 4.916l1.555 1.555a.667.667 0 00.943-.942L7.449 3.84c.565-.526.91-.615 1.456-.395A7.748 7.748 0 0110.91 5.09a7.751 7.751 0 011.645 2.006c.166.387.23.834-.416 1.48z" fill="#7C7B88"/><path d="M13.61 3.333L-1.477-11.752l-36.418 36.419h51.503V3.333zm1.528-1.528L30.223 16.89l.131-.131.129-.134-15.345-14.82zm-.943-.943L-.625-14.483l-.134.129-.13.131L14.194.862zm-1.528 1.529H-8.667v51.503l36.419-36.418L12.667 2.39zM12 0v-21.333V0zm-.667 3.637L-4.216 18.244l36.883 39.263V3.637H11.333zM9.431 2.22l9.544-19.08-.462-.23-.473-.209L9.43 2.22zm-2.95.699l15.086 15.085.72-.72.647-.785L6.482 2.92zM.2 13.546L-18.634 3.527l-.072.134-.07.135L.2 13.546zM2.454 15.8l9.75 18.975.132-.068.13-.07L2.455 15.8zM13.08 9.518L-.5-6.933l-.785.647-.719.72L13.081 9.517zm.7-2.948l19.524-8.598-.213-.483-.237-.472L13.781 6.57zm-1.418-1.903v-21.334h-53.841L-2.25 20.21 12.363 4.667zm-.224 3.908l13.87 16.21.625-.535.582-.582L12.139 8.575zm-1.53 1.092L-4.47 24.755 7.206 36.429l14.229-8.38L10.61 9.667zM9.139 8.195L24.22-6.893l-.13-.13-.131-.126L9.138 8.195zm-.943.943L-7.15 23.958l.131.136.133.133L8.195 9.138zm1.247 1.246l10.953 18.307 23.483-14.05L24.523-4.706 9.442 10.384zm-7.614 4.239l9.996 18.846.01-.005.01-.005L1.827 14.623zm-.45-.451l-18.835-10.02-.006.012-.006.012 18.846 9.996zM4.15 9.093L19.236-5.992-.633-25.86l-13.8 24.476L4.151 9.093zm1.378 1.378L-9.556 25.556l.13.131.134.13L5.528 10.47zm.942-.942l15.345-14.82-.129-.134-.13-.131L6.47 9.529zM4.834 7.89L-13.644-2.77l-8.18 14.175 11.573 11.572L4.834 7.891zM6.64 4.916l15.085-15.085-18.47-18.47-14.41 21.787L6.64 4.916zm1.555 1.555L-6.89 21.556l.131.131.134.13L8.195 6.47zm.943-.942l15.345-14.82-.129-.134-.131-.131L9.138 5.529zM7.449 3.84L-7.09-11.77-23.266 3.296l15.63 15.629L7.448 3.84zm1.456-.395l10.574-18.528-1.25-.713-1.335-.54-7.99 19.781zM10.91 5.09L-5.185 19.091l.974 1.12 1.12.974 14-16.096zm1.645 2.006L32.158-1.32l-.477-1.11-.599-1.049L12.555 7.095zM15.333-18H13.61v42.667h1.724V-18zm13.361 36.418l1.529-1.528L.053-13.28l-1.529 1.528 30.17 30.17zm1.789-1.793A22 22 0 0036.658 1.15l-42.665.371a20.667 20.667 0 015.8-14.537l30.69 29.641zM36.658 1.15a22 22 0 00-6.443-15.365L.045 15.955A20.667 20.667 0 01-6.007 1.521l42.665-.37zm-6.443-15.365a22 22 0 00-15.365-6.443l-.371 42.665A20.667 20.667 0 01.045 15.955l30.17-30.17zM14.85-20.658A22 22 0 00-.625-14.483l29.64 30.69a20.667 20.667 0 01-14.536 5.8l.37-42.665zM-.89-14.223l-1.528 1.529 30.17 30.17 1.528-1.53L-.89-14.222zM34 2.391V.667H-8.667V2.39H34zm0-1.724a22 22 0 00-6.444-15.557l-30.17 30.17A20.667 20.667 0 01-8.667.667H34zM27.556-14.89A22 22 0 0012-21.333v42.666A20.666 20.666 0 01-2.614 15.28l30.17-30.17zM12-21.333A22 22 0 00-3.556-14.89l30.17 30.17A20.667 20.667 0 0112 21.333v-42.666zM-3.556-14.89A22 22 0 00-10 .667h42.667a20.667 20.667 0 01-6.054 14.613l-30.17-30.17zM-10 .667v2.97h42.667V.667H-10zM26.882-10.97a28.093 28.093 0 00-7.907-5.89L-.113 21.299a14.575 14.575 0 01-4.103-3.055L26.882-10.97zm-8.842-6.33a23.843 23.843 0 00-15.12-1.385l9.838 41.517A18.823 18.823 0 01.82 21.739L18.041-17.3zM2.92-18.684a23.843 23.843 0 00-12.89 8.022l32.904 27.161a18.824 18.824 0 01-10.177 6.334L2.92-18.684zm-11.523 6.518c-2.156 2.156-3.716 4.653-4.097 5.247a91.178 91.178 0 00-2.204 3.663 248.793 248.793 0 00-3.73 6.783l37.668 20.038c.884-1.661 2.035-3.787 3.056-5.564.52-.904.903-1.54 1.14-1.91.12-.187.11-.16-.01.005a12.83 12.83 0 01-.433.56c-.197.243-.614.742-1.22 1.348l-30.17-30.17zM-18.775 3.796a23.007 23.007 0 00-2.266 14.076l42.152-6.603a19.66 19.66 0 01-1.936 12.027l-37.95-19.5zm-2.266 14.076A23.007 23.007 0 00-14.58 30.58L15.59.41a19.66 19.66 0 015.521 10.859l-42.152 6.603zm6.461 12.708A23.007 23.007 0 00-1.872 37.04L4.731-5.11a19.66 19.66 0 0110.86 5.52l-30.17 30.17zm12.708 6.461c4.814.754 9.742-.04 14.076-2.266l-19.5-37.95A19.66 19.66 0 014.731-5.111L-1.872 37.04zm14.339-2.403c1.81-.963 4.413-2.367 6.791-3.734a91.134 91.134 0 003.663-2.205c.595-.381 3.09-1.941 5.245-4.096l-30.17-30.17a17.761 17.761 0 011.347-1.22c.27-.22.47-.367.56-.431.165-.12.191-.13.004-.01-.37.236-1.006.62-1.909 1.14-1.776 1.02-3.9 2.17-5.557 3.05l20.026 37.676zm14.196-8.669a23.844 23.844 0 008.02-12.884L-6.832 3.237c.947-3.989 3.17-7.56 6.332-10.17l27.163 32.902zm8.02-12.884a23.844 23.844 0 00-1.378-15.113L-5.743 15.168a18.823 18.823 0 01-1.089-11.93l41.515 9.848zM32.855-2.983a28.112 28.112 0 00-5.88-7.894L-2.25 20.21a14.555 14.555 0 01-3.045-4.087l38.15-19.106zM12.363 26h2.97v-42.667h-2.97V26zm2.97 0a22 22 0 0015.557-6.444L.72-10.614a20.667 20.667 0 0114.613-6.053V26zm15.557-6.444A22 22 0 0037.333 4H-5.333A20.667 20.667 0 01.72-10.614l30.17 30.17zM37.333 4a22 22 0 00-6.443-15.556L.72 18.614A20.666 20.666 0 01-5.333 4h42.666zM30.89-11.556A22 22 0 0015.333-18v42.667A20.667 20.667 0 01.72 18.613l30.17-30.17zM-1.731-7.634c.472-.404.98-.766 1.515-1.082L21.436 28.05a32.047 32.047 0 004.572-3.264L-1.73-7.635zm27.423 2.212l-1.473-1.471-30.163 30.177 1.472 1.471L25.691-5.422zm-1.733-1.727a22 22 0 00-15.475-6.175l.37 42.665a20.667 20.667 0 01-14.537-5.8L23.96-7.15zM8.484-13.324A22 22 0 00-6.882-6.881l30.17 30.17A20.666 20.666 0 018.854 29.34l-.37-42.665zM-6.882-6.881a22 22 0 00-6.442 15.365l42.665.37a20.667 20.667 0 01-6.053 14.434l-30.17-30.17zm-6.442 15.365A22 22 0 00-7.15 23.959L23.54-5.683a20.667 20.667 0 015.8 14.537l-42.664-.37zm6.438 15.743l1.247 1.246L24.523-4.705l-1.247-1.246-30.162 30.178zm5.375-32.15c-1.398.837-3.677 2.115-6.676 3.71l20.03 37.672c3.31-1.76 6.289-3.414 8.552-4.768L-1.51-7.923zm-6.657 3.7A21 21 0 014.786-6.44l-6.328 42.195c4.585.688 9.27-.114 13.366-2.286L-8.168-4.224zM4.786-6.44A21 21 0 0116.521-.52l-30.17 30.17a21.666 21.666 0 0012.107 6.106L4.786-6.44zM16.521-.52a21 21 0 015.918 11.735l-42.194 6.328a21.666 21.666 0 006.106 12.107l30.17-30.17zm5.918 11.735a21 21 0 01-2.215 12.954L-17.47 4.176a21.667 21.667 0 00-2.286 13.366l42.195-6.328zM20.211 24.19c.95-1.785 1.8-3.338 2.523-4.62L-14.433-1.384a260.772 260.772 0 00-3.024 5.537L20.211 24.19zm-31.145-.013l1.378 1.378 30.17-30.17-1.378-1.378-30.17 30.17zm1.642 1.638a22 22 0 0015.475 6.175l-.37-42.665a20.666 20.666 0 0114.536 5.8l-29.64 30.69zm15.475 6.175a22 22 0 0015.365-6.443l-30.17-30.17a20.667 20.667 0 0114.434-6.052l.37 42.665zm15.365-6.443a22 22 0 006.443-15.365l-42.665-.37A20.667 20.667 0 01-8.622-4.623l30.17 30.17zm6.443-15.365a22 22 0 00-6.175-15.475L-8.874 24.35a20.667 20.667 0 01-5.8-14.537l42.665.371zm-6.435-15.74L19.92-7.193l-30.17 30.17 1.637 1.638 30.17-30.17zm1.756 24.11a43.277 43.277 0 011.122-1.87L-11.154-6.851c-.822 1.243-1.683 2.683-2.49 4.081l36.956 21.325zm-31.757 1.448l1.555 1.555 30.17-30.17-1.555-1.555-30.17 30.17zm1.82 1.815A22 22 0 008.85 27.991l-.371-42.665a20.667 20.667 0 0114.537 5.8l-29.641 30.69zM8.85 27.991a22 22 0 0015.365-6.443l-30.17-30.17a20.667 20.667 0 0114.434-6.052l.37 42.665zm15.365-6.443a22 22 0 006.443-15.365l-42.665-.37A20.667 20.667 0 01-5.955-8.623l30.17 30.17zm6.443-15.365a22 22 0 00-6.175-15.475L-6.207 20.35a20.667 20.667 0 01-5.8-14.537l42.665.371zm-6.435-15.74l-1.689-1.688-30.17 30.17 1.689 1.689 30.17-30.17zM21.99 19.45c-.45.419-3.355 3.197-8.277 4.517a20.267 20.267 0 01-12.798-.741l15.98-39.561c-2.728-1.102-7.938-2.597-14.24-.907-5.371 1.442-8.732 4.527-9.747 5.472L21.99 19.45zm-23.66 2.524a13.584 13.584 0 01-3.515-2.883l32.19-28.004a29.082 29.082 0 00-7.526-6.17L-1.67 21.974zm-1.422-.79a13.581 13.581 0 01-2.881-3.514L31.082-3.48a29.086 29.086 0 00-6.17-7.526l-28.004 32.19zm-3.957-5.673A20.266 20.266 0 01-8.336 3.912C-7.347-1.51-4.5-4.958-2.94-6.518l30.155 30.186c2.208-2.206 5.346-6.199 6.423-12.104 1.113-6.105-.613-10.861-1.481-12.885L-7.05 15.511z" fill="#7C7B88" mask="url(#path-1-inside-1_16_2918)"/></g><defs><clipPath id="clip0_16_2918"><path fill="#fff" d="M0 0h16v16H0z"/></clipPath></defs></svg>