<svg width="16" height="16" viewBox="0 0 16 16" fill="none" xmlns="http://www.w3.org/2000/svg"><g id="label_important-24px"><path id="Vector (Stroke)" fill-rule="evenodd" clip-rule="evenodd" d="M10.288 13.038l3.471-5.033-3.485-5.05-.008-.013a.328.328 0 00-.278-.142H2.593l3.62 5.205L2.6 13.2h7.389c.12 0 .229-.057.297-.158l.003-.004zM.84 13.16l3.587-5.156L.84 2.849c-.436-.63 0-1.516.75-1.516h8.398c.602 0 1.168.296 1.501.8l3.67 5.319a.966.966 0 010 1.105l-3.66 5.309c-.343.505-.909.8-1.511.8H1.59c-.751 0-1.187-.876-.751-1.505z" fill="#4D515C"/></g></svg>