<svg width="16" height="16" viewBox="0 0 16 16" fill="none" xmlns="http://www.w3.org/2000/svg"><g id="fi-rr-document-signed" clip-path="url(#clip0_5527_661)"><g id="Vector"><mask id="path-1-inside-1_5527_661" fill="#fff"><path d="M13.023 2.081L11.92.976A3.311 3.311 0 009.562 0H5.333A3.337 3.337 0 002 3.333v9.334A3.337 3.337 0 005.333 16h5.334A3.337 3.337 0 0014 12.667V4.438a3.312 3.312 0 00-.977-2.357zm-.942.943c.094.094.179.198.252.31h-1.666V1.666c.111.074.215.159.31.253l1.104 1.104zm.586 9.643a2 2 0 01-2 2H5.333a2 2 0 01-2-2V3.333a2 2 0 012-2h4v2a1.333 1.333 0 001.334 1.334h2v8zm-2-6.667a.667.667 0 010 1.333H5.333a.667.667 0 010-1.333h5.334zm.666 3.333a.667.667 0 01-.666.667H5.333a.667.667 0 110-1.333h5.334a.667.667 0 01.666.666zm-.128 2.276a.666.666 0 01-.144.929 4.309 4.309 0 01-2.304.795 2.168 2.168 0 01-1.334-.466c-.218-.15-.302-.2-.466-.2a2.634 2.634 0 00-1.222.529.667.667 0 01-.809-1.059 3.908 3.908 0 012.033-.804c.444.007.874.16 1.222.437a.898.898 0 00.576.23 3.058 3.058 0 001.518-.54.666.666 0 01.93.149z"/></mask><path d="M13.023 2.081L11.92.976A3.311 3.311 0 009.562 0H5.333A3.337 3.337 0 002 3.333v9.334A3.337 3.337 0 005.333 16h5.334A3.337 3.337 0 0014 12.667V4.438a3.312 3.312 0 00-.977-2.357zm-.942.943c.094.094.179.198.252.31h-1.666V1.666c.111.074.215.159.31.253l1.104 1.104zm.586 9.643a2 2 0 01-2 2H5.333a2 2 0 01-2-2V3.333a2 2 0 012-2h4v2a1.333 1.333 0 001.334 1.334h2v8zm-2-6.667a.667.667 0 010 1.333H5.333a.667.667 0 010-1.333h5.334zm.666 3.333a.667.667 0 01-.666.667H5.333a.667.667 0 110-1.333h5.334a.667.667 0 01.666.666zm-.128 2.276a.666.666 0 01-.144.929 4.309 4.309 0 01-2.304.795 2.168 2.168 0 01-1.334-.466c-.218-.15-.302-.2-.466-.2a2.634 2.634 0 00-1.222.529.667.667 0 01-.809-1.059 3.908 3.908 0 012.033-.804c.444.007.874.16 1.222.437a.898.898 0 00.576.23 3.058 3.058 0 001.518-.54.666.666 0 01.93.149z" fill="#6F727A"/><path d="M11.92.976L-3.205 16.023l.015.014.014.015L11.92.976zM9.561 0v21.333h.06L9.563 0zM5.333 0v-21.333h-.025L5.333 0zM2 3.333l-21.333-.025v.025H2zm0 9.334h-21.333v.025L2 12.667zM5.333 16l-.025 21.333h.025V16zm5.334 0v21.333h.025L10.667 16zM14 12.667l21.333.025v-.025H14zm0-8.229l-21.333-.052v.052H14zm-1.92-1.414L-3.003 18.109l.014.014.014.014L12.08 3.024zm.253.31v21.333h39.603L30.148-8.403 12.333 3.333zm-1.666 0h-21.334v21.333h21.334V3.333zm0-1.667l11.836-17.75-33.17-22.118V1.667h21.334zm.31.253l15.085-15.085-.025-.024-.024-.025L10.977 1.92zm1.69 10.747H34 12.667zm-2 2V36 14.667zm-5.334 0V36 14.667zm0-13.334V-20 1.333zm4 0h21.334V-20H9.333V1.333zm1.334 3.334V26 4.667zm2 0H34v-21.334H12.667V4.667zm-1.606 7.871l12.38 17.374.124-.089.122-.09-12.626-17.195zm-2.304.795l-.103 21.333.538.003.539-.025-.974-21.31zm-1.334-.466L20.646-3.874l-.563-.445-.592-.406L7.423 12.867zm-.466-.2V-8.667H5.316l-1.622.251 3.263 21.083zm-1.222.529L18.12 30.567l.392-.279.379-.297L5.735 13.196zm-.809-1.059L-8.156-4.714l-.219.17-.214.175L4.926 12.137zm2.033-.804L7.3-9.997l-1.163-.019-1.158.108 1.98 21.241zm1.222.437L22.447-4.091l-.49-.44-.516-.41L8.181 11.77zm.576.23l-.583 21.325 1.09.03 1.086-.081L8.757 12zm1.518-.54L22.46 28.972l.168-.117.166-.12-12.52-17.273zm17.842-24.454L27.013-14.1-3.175 16.052l1.104 1.105 30.188-30.151zm-1.075-1.077A24.644 24.644 0 0019-19.459L2.678 19.963a18.02 18.02 0 01-5.882-3.94l30.247-30.094zM19-19.459a24.646 24.646 0 00-9.498-1.874l.122 42.666a18.02 18.02 0 01-6.945-1.37L18.999-19.46zm-9.437-1.874H5.333v42.666h4.229v-42.666zm-4.254 0a24.67 24.67 0 00-17.415 7.225l30.17 30.17a17.995 17.995 0 01-12.704 5.271l-.051-42.666zm-17.415 7.225a24.67 24.67 0 00-7.226 17.416l42.666.05a17.996 17.996 0 01-5.27 12.704l-30.17-30.17zm-7.226 17.441v9.334h42.666V3.333h-42.666zm0 9.36a24.67 24.67 0 007.225 17.415l30.17-30.17a17.996 17.996 0 015.271 12.703l-42.666.051zm7.225 17.415a24.67 24.67 0 0017.416 7.225l.05-42.666a17.996 17.996 0 0112.704 5.27l-30.17 30.17zm17.441 7.225h5.334V-5.333H5.333v42.666zm5.36 0a24.67 24.67 0 0017.415-7.225L-2.063-.063A17.996 17.996 0 0110.64-5.333l.051 42.666zm17.415-7.225a24.67 24.67 0 007.225-17.416l-42.666-.05A17.996 17.996 0 01-2.063-.063l30.17 30.17zm7.225-17.441V4.438H-7.333v8.229h42.666zm0-8.177a24.645 24.645 0 00-1.877-9.496L-5.96 11.33a18.022 18.022 0 01-1.373-6.943l42.666.104zm-1.877-9.496a24.646 24.646 0 00-5.39-8.04L-2.02 17.209a18.021 18.021 0 01-3.941-5.88L33.456-5.006zM-2.976 18.137a19.376 19.376 0 01-2.505-3.067L30.148-8.403a23.295 23.295 0 00-3.01-3.686L-2.976 18.137zM12.334-18h-1.667v42.667h1.666V-18zM32 3.333V1.667h-42.667v1.666H32zM-1.17 19.416a19.263 19.263 0 01-2.89-2.362l30.073-30.268a23.397 23.397 0 00-3.51-2.868L-1.17 19.416zm-2.938-2.411l1.104 1.104 30.17-30.17-1.104-1.104-30.17 30.17zm-4.559-4.338A19.333 19.333 0 01-3.004-1.004l30.17 30.17A23.333 23.333 0 0034 12.666H-8.667zm5.663-13.671a19.333 19.333 0 0113.67-5.663V36a23.333 23.333 0 0016.5-6.834l-30.17-30.17zm13.67-5.663H5.334V36h5.334V-6.667zm-5.333 0a19.333 19.333 0 0113.671 5.663l-30.17 30.17A23.333 23.333 0 005.334 36V-6.667zm13.671 5.663a19.333 19.333 0 015.663 13.67H-18a23.333 23.333 0 006.834 16.5l30.17-30.17zm5.663 13.67V3.334H-18v9.334h42.667zm0-9.333a19.333 19.333 0 01-5.663 13.671l-30.17-30.17A23.333 23.333 0 00-18 3.334h42.667zm-5.663 13.671a19.333 19.333 0 01-13.67 5.663V-20a23.333 23.333 0 00-16.5 6.834l30.17 30.17zm-13.67 5.663h4V-20h-4v42.667zM-12 1.333v2h42.667v-2H-12zm0 2a22.667 22.667 0 006.639 16.028l30.17-30.17a20 20 0 015.858 14.142H-12zm6.639 16.028A22.667 22.667 0 0010.667 26v-42.667a20 20 0 0114.142 5.858l-30.17 30.17zM10.667 26h2v-42.667h-2V26zM-8.667 4.667v8H34v-8H-8.667zm19.334 22.666A20.666 20.666 0 01-3.947 21.28l30.17-30.17a22 22 0 00-15.556-6.443v42.666zM-3.947 21.28A20.667 20.667 0 01-10 6.667h42.667A22 22 0 0026.223-8.89l-30.17 30.17zM-10 6.667A20.667 20.667 0 01-3.947-7.947l30.17 30.17a22 22 0 006.444-15.556H-10zm6.053-14.614A20.667 20.667 0 0110.667-14v42.667a22 22 0 0015.556-6.444l-30.17-30.17zM10.667-14H5.333v42.667h5.334V-14zm-5.334 0a20.667 20.667 0 0114.614 6.053l-30.17 30.17a22 22 0 0015.556 6.444V-14zm14.614 6.053A20.667 20.667 0 0126 6.667h-42.667a22 22 0 006.444 15.556l30.17-30.17zM26 6.667a20.667 20.667 0 01-6.053 14.613l-30.17-30.17a22 22 0 00-6.444 15.557H26zM19.947 21.28a20.667 20.667 0 01-14.614 6.053v-42.666A22 22 0 00-10.223-8.89l30.17 30.17zM5.333 27.333h5.334v-42.666H5.333v42.666zM-10 9.333A20.667 20.667 0 01-3.947-5.28l30.17 30.17a22 22 0 006.444-15.557H-10zM-3.947-5.28a20.667 20.667 0 0114.614-6.053v42.666a22 22 0 0015.556-6.443L-3.947-5.28zm14.614-6.053H5.333v42.666h5.334v-42.666zm-5.334 0A20.667 20.667 0 0119.947-5.28l-30.17 30.17a22 22 0 0015.556 6.443v-42.666zM19.947-5.28A20.667 20.667 0 0126 9.333h-42.667a22 22 0 006.444 15.557l30.17-30.17zM26 9.333a20.667 20.667 0 01-6.053 14.614l-30.17-30.17a22 22 0 00-6.444 15.556H26zm-6.053 14.614A20.667 20.667 0 015.333 30v-42.667a22 22 0 00-15.556 6.444l30.17 30.17zM5.333 30h5.334v-42.667H5.333V30zm5.334 0a20.667 20.667 0 01-14.614-6.053l30.17-30.17a22 22 0 00-15.556-6.444V30zm-14.614-6.053A20.667 20.667 0 01-10 9.333h42.667a22 22 0 00-6.444-15.556l-30.17 30.17zm-2.104.205a20.666 20.666 0 01-3.704-15.33l42.16 6.563A22 22 0 0028.46-.935L-6.05 24.152zm-3.704-15.33a20.667 20.667 0 018.189-13.48l25.253 34.391a22 22 0 008.717-14.348L-9.755 8.822zm8.436-13.658a17.024 17.024 0 019.102-3.142L9.73 34.644a25.643 25.643 0 0013.71-4.732L-1.32-4.836zM8.86-8c4.279.02 8.428 1.473 11.786 4.126L-5.8 29.608a23.501 23.501 0 0014.454 5.058L8.86-8zM19.49-4.725c-.055-.038-.426-.295-.88-.58a22.276 22.276 0 00-2.614-1.406 21.809 21.809 0 00-9.04-1.956V34a20.87 20.87 0 01-8.615-1.868 20.395 20.395 0 01-2.95-1.648l-.036-.025L19.49-4.725zM3.694-8.415A23.967 23.967 0 00-7.419-3.6L18.89 29.99a18.7 18.7 0 01-8.67 3.758L3.694-8.416zm-10.342 4.24A20.667 20.667 0 018.424-7.783l-6.35 42.191a22 22 0 0016.045-3.84L-6.648-4.176zM8.424-7.783A20.667 20.667 0 0121.767.1L-12.13 26.015a22 22 0 0014.203 8.393l6.35-42.191zM21.767.1a20.666 20.666 0 014.11 14.944l-42.38-4.938a22 22 0 004.374 15.908L21.767.1zm4.11 14.944a20.667 20.667 0 01-7.436 13.598L-8.589-4.369a22 22 0 00-7.915 14.476l42.38 4.938zm-7.87 13.944a17.426 17.426 0 01-9.067 3.586L4.979-9.908A25.24 25.24 0 00-8.156-4.714l26.164 33.703zM6.62 32.664A19.317 19.317 0 01-5.08 28.481L21.441-4.94A23.35 23.35 0 007.3-9.997l-.681 42.661zm-12.705-5.033a22.232 22.232 0 0014.26 5.694L9.34-9.325a20.435 20.435 0 0113.108 5.234L-6.086 27.63zm16.436 5.643a24.391 24.391 0 0012.11-4.303L-1.91-6.049a18.276 18.276 0 019.074-3.225l3.187 42.548zm12.445-4.54A20.667 20.667 0 017.42 32.41l6.701-42.138A22 22 0 00-2.246-5.812l25.041 34.545zM7.42 32.41a20.667 20.667 0 01-13.476-8.266L28.466-.928a22 22 0 00-14.345-8.799l-6.7 42.138z" fill="#6F727A" mask="url(#path-1-inside-1_5527_661)"/></g></g><defs><clipPath id="clip0_5527_661"><path fill="#fff" d="M0 0h16v16H0z"/></clipPath></defs></svg>