<svg width="16" height="16" viewBox="0 0 16 16" fill="none" xmlns="http://www.w3.org/2000/svg"><g clip-path="url(#clip0_16_2922)"><mask id="path-1-inside-1_16_2922" fill="#fff"><path d="M8 0a8 8 0 108 8 8.009 8.009 0 00-8-8zm5.765 4.667h-2.148a13.118 13.118 0 00-1.88-3.096 6.688 6.688 0 014.028 3.096zM11 8a6.808 6.808 0 01-.317 2H5.317A6.808 6.808 0 015 8a6.808 6.808 0 01.317-2h5.366c.205.647.312 1.321.317 2zm-5.148 3.333h4.296A13.074 13.074 0 018 14.392a13.047 13.047 0 01-2.148-3.059zm0-6.666A13.076 13.076 0 018 1.608c.86.911 1.583 1.941 2.148 3.059H5.852zm.415-3.096a13.117 13.117 0 00-1.884 3.096H2.235A6.687 6.687 0 016.267 1.57zM1.64 6h2.292a8.01 8.01 0 00-.266 2 8.01 8.01 0 00.266 2H1.641a6.661 6.661 0 010-4zm.594 5.333h2.148a13.116 13.116 0 001.884 3.096 6.687 6.687 0 01-4.032-3.096zm7.502 3.096c.767-.94 1.4-1.982 1.88-3.096h2.148a6.687 6.687 0 01-4.028 3.096zM14.359 10h-2.292a8.01 8.01 0 00.266-2 8.01 8.01 0 00-.266-2h2.291a6.66 6.66 0 010 4h.001z"/></mask><path d="M8 0a8 8 0 108 8 8.009 8.009 0 00-8-8zm5.765 4.667h-2.148a13.118 13.118 0 00-1.88-3.096 6.688 6.688 0 014.028 3.096zM11 8a6.808 6.808 0 01-.317 2H5.317A6.808 6.808 0 015 8a6.808 6.808 0 01.317-2h5.366c.205.647.312 1.321.317 2zm-5.148 3.333h4.296A13.074 13.074 0 018 14.392a13.047 13.047 0 01-2.148-3.059zm0-6.666A13.076 13.076 0 018 1.608c.86.911 1.583 1.941 2.148 3.059H5.852zm.415-3.096a13.117 13.117 0 00-1.884 3.096H2.235A6.687 6.687 0 016.267 1.57zM1.64 6h2.292a8.01 8.01 0 00-.266 2 8.01 8.01 0 00.266 2H1.641a6.661 6.661 0 010-4zm.594 5.333h2.148a13.116 13.116 0 001.884 3.096 6.687 6.687 0 01-4.032-3.096zm7.502 3.096c.767-.94 1.4-1.982 1.88-3.096h2.148a6.687 6.687 0 01-4.028 3.096zM14.359 10h-2.292a8.01 8.01 0 00.266-2 8.01 8.01 0 00-.266-2h2.291a6.66 6.66 0 010 4h.001z" fill="#7C7B88"/><path d="M8 0h21.333v-21.333H8V0zm8 8h21.333v-.023L16 8zM8 0h-21.333v21.31l21.31.023L8 0zm3.617 4.667L-7.97 13.119-2.412 26h14.03V4.667zM9.737 1.57l5.601-20.585-64.183-17.465 42.053 51.537L9.737 1.57zM10.683 10v21.333h15.622l4.716-14.893L10.683 10zm-5.366 0l-20.338 6.44 4.716 14.893H5.317V10zM5 8l-21.333-.172-.001.172.001.172L5 8zm.317-2v-21.333h-15.622L-15.021-.44 5.317 6zm5.366 0L31.02-.44l-4.716-14.893H10.683V6zm-.535 5.333l19.031 9.64L44.867-10H10.148v21.333zM8 14.392L-7.522 29.027 8.005 45.495l15.522-16.473L8 14.392zM5.852 4.667l-19.031-9.64L-28.867 26H5.852V4.667zM8 1.608l15.522-14.635L7.995-29.496-7.527-13.021 8 1.608zm2.148 3.059V26h34.707L29.183-4.967 10.148 4.667zm-5.765 0V26H18.4l5.563-12.867L4.383 4.667zm-2.148 0L-16.214-6.045-34.819 26H2.235V4.667zM3.933 6l20.623 5.46 7.094-26.793H3.933V6zm-.266 2l-21.333-.134-.001.134v.134L3.668 8zm.266 2v21.333H31.65L24.556 4.54 3.933 10zm-2.292 0l-20.35 6.405 4.7 14.928H1.64V10zm2.742 1.333l19.581-8.466L18.401-10H4.383v21.333zm1.884 3.096L.677 35.018l64.22 17.432L22.785.928 6.267 14.43zm5.35-3.096V-10h-14.03L-7.97 2.881l19.587 8.452zm2.148 0l18.45 10.709L50.812-10H13.765v21.333zM12.067 10L-8.556 4.54l-7.094 26.793h27.717V10zm.266-2l21.333.134.001-.134v-.134L12.332 8zm-.266-2v-21.333H-15.65l7.094 26.793L12.067 6zm2.291 0l20.35-6.405-4.7-14.928h-15.65V6zm0 4l-20.35-6.405-8.73 27.738h29.08V10zM8-21.333A29.333 29.333 0 00-8.297-16.39l23.705 35.476A13.334 13.334 0 018 21.333v-42.666zM-8.297-16.39A29.334 29.334 0 00-19.1-3.225l39.418 16.327a13.333 13.333 0 01-4.91 5.984L-8.297-16.39zM-19.1-3.225a29.334 29.334 0 00-1.67 16.948l41.847-8.324c.515 2.586.25 5.267-.759 7.703L-19.1-3.225zm-1.67 16.948a29.333 29.333 0 008.028 15.019l30.17-30.17a13.333 13.333 0 013.65 6.827l-41.848 8.324zm8.028 15.019a29.333 29.333 0 0015.02 8.028L10.6-5.077a13.333 13.333 0 016.827 3.649l-30.17 30.17zm15.02 8.028a29.334 29.334 0 0016.947-1.67L2.898-4.318a13.333 13.333 0 017.703-.76L2.277 36.77zm16.947-1.67A29.334 29.334 0 0032.39 24.297L-3.086.592a13.333 13.333 0 015.984-4.91L19.225 35.1zM32.39 24.297A29.333 29.333 0 0037.333 8H-5.333c0-2.637.782-5.215 2.247-7.408L32.39 24.297zm4.943-16.32A29.342 29.342 0 0028.74-12.74L-1.43 17.43a13.325 13.325 0 01-3.902-9.408l42.666-.046zM28.74-12.74a29.342 29.342 0 00-20.716-8.594l-.046 42.666a13.324 13.324 0 01-9.408-3.902l30.17-30.17zM29.333 0h-42.666 42.666zM13.765-16.667h-2.148V26h2.148v-42.667zm17.44 12.882a34.455 34.455 0 00-4.94-8.131L-6.791 15.058a8.215 8.215 0 01-1.178-1.94L31.205-3.784zm-27.07 25.94a14.646 14.646 0 01-8.821-6.78L32.216-6.042a28.02 28.02 0 00-16.878-12.972L4.135 22.156zM-10.333 7.829c.012-1.448.24-2.887.678-4.268L31.02 16.44a28.138 28.138 0 001.312-8.268l-42.666-.344zm21.016-19.161H5.317v42.666h5.366v-42.666zM25.656 3.56c.437 1.381.665 2.82.677 4.268l-42.666.344a28.138 28.138 0 001.312 8.268L25.655 3.56zm.677 4.612a14.525 14.525 0 01-.677 4.268L-15.021-.44a28.138 28.138 0 00-1.312 8.268l42.666.344zM5.317 27.333h5.366v-42.666H5.317v42.666zM-9.655 12.44a14.524 14.524 0 01-.678-4.268l42.666-.344A28.138 28.138 0 0031.02-.44L-9.655 12.44zM5.852 32.667h4.296V-10H5.852v42.667zM-8.883 1.694A8.258 8.258 0 01-7.527-.238l31.054 29.26a34.408 34.408 0 005.652-8.05L-8.883 1.695zM23.522-.243A8.289 8.289 0 0124.887 1.7l-38.07 19.267a34.382 34.382 0 005.66 8.06L23.523-.243zm1.361 14.55a8.255 8.255 0 01-1.356 1.93L-7.527-13.021a34.408 34.408 0 00-5.652 8.05l38.062 19.278zm-32.405 1.936A8.288 8.288 0 01-8.886 14.3L29.183-4.967a34.382 34.382 0 00-5.66-8.06l-31.045 29.27zm17.67-32.91H5.852V26h4.296v-42.667zm-20.399 4.737a34.448 34.448 0 00-4.948 8.13l39.163 16.933a8.214 8.214 0 01-1.18 1.939L-10.25-11.931zm14.634-4.737H2.235V26h2.148v-42.667zm16.302 32.045a14.646 14.646 0 01-8.83 6.78L.678-19.017A28.02 28.02 0 00-16.214-6.045l36.898 21.423zM1.64 27.333h2.292v-42.666H1.641v42.666zM-16.69.54a29.342 29.342 0 00-.977 7.326L25 8.134a13.327 13.327 0 01-.444 3.326L-16.689.54zm-.977 7.594c.015 2.473.343 4.935.977 7.326L24.556 4.54c.287 1.085.436 2.203.444 3.326l-42.666.268zm21.6-19.467H1.64v42.666h2.292v-42.666zM21.99 3.595a14.673 14.673 0 010 8.81L-18.708-.405a27.995 27.995 0 000 16.81L21.99 3.595zM2.235 32.667h2.148V-10H2.235v42.667zm-17.434-12.868a34.45 34.45 0 004.948 8.132L22.784.928a8.214 8.214 0 011.18 1.94l-39.163 16.931zM11.855-6.159a14.646 14.646 0 018.83 6.78l-36.899 21.424A28.02 28.02 0 00.678 35.018L11.855-6.16zm14.41 34.075a34.453 34.453 0 004.94-8.13L-7.97 2.88A8.216 8.216 0 01-6.792.942l33.058 26.975zm-14.648 4.75h2.148V-10h-2.148v42.667zM-4.686.627a14.646 14.646 0 018.821-6.782l11.203 41.17a28.02 28.02 0 0016.878-12.972L-4.686.625zm19.045-11.96h-2.292v42.667h2.292v-42.666zM32.69 15.46c.633-2.391.962-4.853.977-7.326L-9 7.866c.007-1.123.156-2.24.444-3.326l41.245 10.92zm.977-7.594A29.347 29.347 0 0032.69.54L-8.556 11.46A13.324 13.324 0 01-9 8.134l42.666-.268zm-21.6 19.467h2.292v-42.666h-2.291v42.666zM-5.99 12.405a14.672 14.672 0 010-8.81l40.698 12.81a27.995 27.995 0 000-16.81L-5.99 12.405zm20.349 18.928h.001v-42.666h-.001v42.666z" fill="#7C7B88" mask="url(#path-1-inside-1_16_2922)"/></g><defs><clipPath id="clip0_16_2922"><path fill="#fff" d="M0 0h16v16H0z"/></clipPath></defs></svg>