<svg width="16" height="16" viewBox="0 0 16 16" fill="none" xmlns="http://www.w3.org/2000/svg"><g clip-path="url(#clip0_23_3050)"><mask id="path-1-inside-1_23_3050" fill="#fff"><path d="M15.414 6.046L10.358.989a3.339 3.339 0 00-4.715 0L.586 6.046A1.985 1.985 0 000 7.46v6.545a2 2 0 002 2h12a2 2 0 002-2V7.46a1.984 1.984 0 00-.586-1.414zM10 14.67H6V12.05a2 2 0 114 0v2.622zm4.667-.666a.666.666 0 01-.667.666h-2.666V12.05a3.333 3.333 0 00-6.667 0v2.622H2a.667.667 0 01-.667-.666V7.46c.001-.177.071-.346.196-.471l5.056-5.056a2.005 2.005 0 012.83 0l5.057 5.058a.672.672 0 01.195.469v6.545z"/></mask><path d="M15.414 6.046L10.358.989a3.339 3.339 0 00-4.715 0L.586 6.046A1.985 1.985 0 000 7.46v6.545a2 2 0 002 2h12a2 2 0 002-2V7.46a1.984 1.984 0 00-.586-1.414zM10 14.67H6V12.05a2 2 0 114 0v2.622zm4.667-.666a.666.666 0 01-.667.666h-2.666V12.05a3.333 3.333 0 00-6.667 0v2.622H2a.667.667 0 01-.667-.666V7.46c.001-.177.071-.346.196-.471l5.056-5.056a2.005 2.005 0 012.83 0l5.057 5.058a.672.672 0 01.195.469v6.545z" fill="#7C7B88"/><path d="M10.357.989l15.086-15.084-.011-.012-.012-.011L10.357.989zm-4.714 0L-9.42-14.118l-.012.011-.011.012L5.643.989zM.586 6.046l15.037 15.133.024-.024.025-.025L.586 6.046zM0 7.46h21.334V7.4L0 7.46zm0 6.545h-21.333H0zm2 2v21.333-21.333zm12 0v21.333-21.333zm2-2h21.334H16zm0-6.545L-5.333 7.4v.06H16zm-6 7.211v21.334h21.334V14.67H10zm-4 0h-21.333v21.334H6V14.67zm2-4.622v-21.334V10.05zm2 2h21.334H10zm1.334 2.622H-10v21.334h21.334V14.67zm0-2.622H-10h21.334zM8 8.715v-21.333V8.715zM4.667 12.05h-21.334H4.668zm0 2.622v21.334H26V14.67H4.667zm-3.334-.666H-20 1.333zm0-6.545L-20 7.385v.075H1.333zm.196-.471L-13.554-8.098l-.025.024-.024.025L1.529 6.989zm5.056-5.056l-15.05-15.12-.016.017-.016.016L6.585 1.933zm2.83 0L24.5-13.15l-.018-.018-.019-.018-15.05 15.12zm5.057 5.058L29.602-8.047l-.023-.023-.023-.023L14.472 6.99zm.195.469H36V7.32l-21.333.139zM30.5-9.038l-5.057-5.057-30.171 30.168L.328 21.13 30.5-9.038zm-5.08-5.08A24.672 24.672 0 008-21.32v42.666a17.995 17.995 0 01-12.705-5.251L25.42-14.118zM8-21.32c-6.53 0-12.795 2.59-17.42 7.2l30.126 30.215A17.994 17.994 0 018 21.348V-21.32zm-17.443 7.224L-14.5-9.038 15.672 21.13l5.057-5.057-30.172-30.168zm-5.007 5.008a23.32 23.32 0 00-5.107 7.614L19.86 14.862a19.347 19.347 0 01-4.237 6.317L-14.45-9.087zm-5.107 7.614a23.318 23.318 0 00-1.776 8.994l42.666-.122a19.348 19.348 0 01-1.474 7.463L-19.557-1.473zm-1.776 8.933v6.545h42.666V7.46h-42.666zm0 6.545A23.333 23.333 0 00-14.5 30.504L15.671.334a19.333 19.333 0 015.663 13.67h-42.667zm6.834 16.499a23.333 23.333 0 0016.5 6.834V-5.33A19.333 19.333 0 0115.67.334l-30.17 30.17zm16.5 6.834h12V-5.33H2v42.667zm12 0a23.333 23.333 0 0016.498-6.834L.33.334A19.333 19.333 0 0114-5.33v42.667zm16.498-6.834a23.333 23.333 0 006.835-16.5H-5.334A19.333 19.333 0 01.329.335l30.17 30.17zm6.835-16.5V7.46H-5.334v6.545h42.666zm0-6.483a23.318 23.318 0 00-1.777-8.994L-3.86 14.862a19.348 19.348 0 01-1.474-7.463l42.666.122zm-1.777-8.994a23.318 23.318 0 00-5.107-7.614L.379 21.179a19.347 19.347 0 01-4.237-6.317L35.557-1.473zM10-6.663H6v42.668h4V-6.662zm17.334 21.334V12.05h-42.667v2.622h42.666zm0-2.622a19.333 19.333 0 01-5.663 13.67L-8.5-4.45a23.333 23.333 0 00-6.834 16.5h42.666zm-5.663 13.67A19.334 19.334 0 018 31.382v-42.667A23.333 23.333 0 00-8.5-4.45l30.17 30.17zM8 31.382a19.333 19.333 0 01-13.672-5.663L24.5-4.45A23.333 23.333 0 008-11.285v42.667zm-13.672-5.663a19.333 19.333 0 01-5.662-13.67h42.666a23.334 23.334 0 00-6.834-16.5L-5.67 25.72zm-5.662-13.67v2.622h42.666V12.05h-42.666zm4.666 1.956A20.667 20.667 0 01-.613-.61l30.17 30.17A22 22 0 0036 14.005H-6.667zM-.613-.61A20.667 20.667 0 0114-6.662v42.667a22 22 0 0015.556-6.444L-.614-.61zM14-6.662h-2.666v42.667H14V-6.662zM32.667 14.67V12.05H-10v2.622h42.667zm0-2.622a24.667 24.667 0 00-7.225-17.442l-30.17 30.17A18 18 0 01-10 12.048h42.667zM25.442-5.393A24.667 24.667 0 008-12.618v42.667a18 18 0 01-12.728-5.273l30.17-30.17zM8-12.618A24.667 24.667 0 00-9.442-5.393l30.17 30.17A18 18 0 018 30.048v-42.667zM-9.442-5.393a24.667 24.667 0 00-7.224 17.442H26a18 18 0 01-5.272 12.727l-30.17-30.17zm-7.224 17.442v2.622H26V12.05h-42.666zM4.666-6.662H2v42.667h2.667V-6.662zM2-6.662A20.667 20.667 0 0116.614-.61l-30.17 30.17A22 22 0 002 36.005V-6.662zM16.614-.61a20.667 20.667 0 016.053 14.614H-20a22 22 0 006.444 15.556L16.614-.61zm6.053 14.614V7.46H-20v6.545h42.667zm0-6.47a20.661 20.661 0 01-6.006 14.491L-13.603-8.049A22.005 22.005 0 00-20 7.385l42.667.15zm-6.055 14.54l5.056-5.055-30.165-30.174-5.057 5.056 30.166 30.174zm5.023-5.022A19.328 19.328 0 018 22.683v-42.667c-6.17 0-12.09 2.444-16.464 6.797l30.1 30.24zM8 22.683a19.328 19.328 0 01-13.635-5.63l30.1-30.24A23.338 23.338 0 008-19.984v42.666zM-5.67 17.017l5.057 5.058L29.557-8.093l-5.056-5.058-30.172 30.168zm5.01 5.012a20.661 20.661 0 01-6.005-14.43L36 7.32a22.005 22.005 0 00-6.397-15.368L-.66 22.028zm-6.006-14.57v6.546H36V7.46H-6.667z" fill="#7C7B88" mask="url(#path-1-inside-1_23_3050)"/></g><defs><clipPath id="clip0_23_3050"><path fill="#fff" d="M0 0h16v16H0z"/></clipPath></defs></svg>