<svg width="16" height="16" viewBox="0 0 16 16" fill="none" xmlns="http://www.w3.org/2000/svg"><g clip-path="url(#clip0_16_2926)"><mask id="path-1-inside-1_16_2926" fill="#fff"><path d="M11.334 16H4.67a2.676 2.676 0 01-2.565-1.92 2.627 2.627 0 01-.076-1.119A8.348 8.348 0 014.963 8 8.348 8.348 0 012.03 3.037 2.627 2.627 0 012.64.933 2.676 2.676 0 014.67 0h6.664a2.678 2.678 0 012.564 1.918c.106.363.132.745.077 1.119A8.37 8.37 0 0111.035 8a8.372 8.372 0 012.937 4.965 2.63 2.63 0 01-.612 2.104 2.678 2.678 0 01-2.026.931zm0-14.667H4.67a1.343 1.343 0 00-1.285.952 1.28 1.28 0 00-.038.552c.251 1.667 1.283 3.227 3.067 4.638a.667.667 0 010 1.046C4.63 9.933 3.6 11.495 3.347 13.16a1.28 1.28 0 00.304 1.039 1.343 1.343 0 001.02.467h6.663a1.344 1.344 0 001.285-.951c.052-.18.065-.368.037-.552-.248-1.658-1.28-3.22-3.067-4.641a.667.667 0 010-1.043c1.788-1.422 2.82-2.983 3.067-4.642A1.277 1.277 0 0012.35 1.8a1.343 1.343 0 00-1.015-.467zm-.88 12H5.545a.665.665 0 01-.618-.916A7.457 7.457 0 017.241 9.57l.346-.274a.667.667 0 01.83 0l.34.27a7.533 7.533 0 012.315 2.851.667.667 0 01-.618.917zM6.69 12h2.62A7.712 7.712 0 008 10.667c-.49.388-.93.836-1.31 1.333z"/></mask><path d="M11.334 16H4.67a2.676 2.676 0 01-2.565-1.92 2.627 2.627 0 01-.076-1.119A8.348 8.348 0 014.963 8 8.348 8.348 0 012.03 3.037 2.627 2.627 0 012.64.933 2.676 2.676 0 014.67 0h6.664a2.678 2.678 0 012.564 1.918c.106.363.132.745.077 1.119A8.37 8.37 0 0111.035 8a8.372 8.372 0 012.937 4.965 2.63 2.63 0 01-.612 2.104 2.678 2.678 0 01-2.026.931zm0-14.667H4.67a1.343 1.343 0 00-1.285.952 1.28 1.28 0 00-.038.552c.251 1.667 1.283 3.227 3.067 4.638a.667.667 0 010 1.046C4.63 9.933 3.6 11.495 3.347 13.16a1.28 1.28 0 00.304 1.039 1.343 1.343 0 001.02.467h6.663a1.344 1.344 0 001.285-.951c.052-.18.065-.368.037-.552-.248-1.658-1.28-3.22-3.067-4.641a.667.667 0 010-1.043c1.788-1.422 2.82-2.983 3.067-4.642A1.277 1.277 0 0012.35 1.8a1.343 1.343 0 00-1.015-.467zm-.88 12H5.545a.665.665 0 01-.618-.916A7.457 7.457 0 017.241 9.57l.346-.274a.667.667 0 01.83 0l.34.27a7.533 7.533 0 012.315 2.851.667.667 0 01-.618.917zM6.69 12h2.62A7.712 7.712 0 008 10.667c-.49.388-.93.836-1.31 1.333z" fill="#7C7B88"/><path d="M4.67 16L4.66 37.333h.011V16zm-2.03-.933L18.83 1.174l-.027-.032-.027-.031L2.641 15.067zm-.61-2.106L-18.954 9.11l-.065.354-.053.355 21.1 3.143zM4.962 8l13.485 16.53L38.71 8.004 18.451-8.53 4.963 8zM2.03 3.037l-21.1 3.14.052.354.064.353L2.03 3.037zM2.64.933l16.142 13.95.024-.029.024-.028L2.64.933zM4.67 0v-21.333H4.66L4.67 0zm6.664 0l.018-21.333H11.334V0zm2.029.933L-2.822 14.832l.023.027.024.027L13.363.933zm.612 2.104L34.952 6.92l.07-.382.057-.384-21.104-3.117zM11.035 8L-2.449-8.533l-20.26 16.521L-2.46 24.523 11.034 8zm2.937 4.965l21.104-3.119-.056-.376-.07-.375-20.979 3.87zm-.612 2.104L-2.78 1.117l-.013.017-.014.016L13.36 15.07zM4.67 1.333l-.013 21.334h.013V1.333zM3.651 1.8L19.68 15.88l.069-.079.068-.079L3.65 1.8zm-.304 1.037L24.444-.336 24.44-.35l-.002-.013-21.092 3.2zm3.067 4.638L19.657-9.25l-.007-.006L6.414 7.475zm0 1.046L-6.829-8.205 6.414 8.522zm-3.067 4.64l21.088 3.229.002-.015.003-.015-21.093-3.2zm.304 1.039L19.816.278l-.07-.081-.071-.081L3.651 14.2zm1.02.467V-6.667h-.014l.013 21.334zm6.663 0l.017-21.334h-.017v21.334zm1.018-.467L-3.665.109l-.076.086-.074.086L12.352 14.2zm.304-1.036L-8.44 16.328l.003.02.003.018 21.091-3.202zM9.59 8.523L-3.707 25.205l.006.005.005.005L9.59 8.523zm0-1.043L-3.693-9.214l-.007.005-.007.006L9.589 7.48zm3.067-4.642L-8.439-.344l-.002.014-.002.013 21.1 3.155zM12.35 1.8L-3.82 15.718l.102.119.104.117L12.35 1.8zM5.545 13.333l-.009 21.334h.01V13.333zm-.618-.916L-14.43 3.452l-.226.488-.2.499 19.784 7.978zM7.241 9.57L19.98 26.682l.275-.204.267-.213L7.241 9.57zm.346-.274l13.28 16.696L7.587 9.295zm.415-.145v21.333V9.15zm.415.145L21.72-7.383l-.012-.01-.011-.008L8.417 9.295zm.34.27L-4.548 26.243l.258.205.263.198L8.756 9.566zm2.315 2.851l19.767-8.021-.202-.499-.227-.488-19.338 9.008zM9.308 12v21.333h43.256L26.234-.986 9.308 12zM8 10.667L21.308-6.007 8.055-16.585-5.24-6.06 8 10.667zm3.334-16H4.67v42.666h6.664V-5.333zm-6.652 0c2.688.001 5.343.583 7.785 1.706L-5.36 35.137a24.008 24.008 0 0010.02 2.196l.023-42.666zm7.785 1.706a18.657 18.657 0 016.363 4.801l-32.379 27.785a24.008 24.008 0 008.188 6.178L12.468-3.627zm6.31 4.738a18.707 18.707 0 013.815 7.02L-18.382 20.03a23.959 23.959 0 004.888 8.992l32.27-27.911zm3.815 7.02c.752 2.589.935 5.308.538 7.974l-42.201-6.287a23.959 23.959 0 00.689 10.212L22.592 8.132zm.42 8.683a12.985 12.985 0 01-4.564 7.717L-8.522-8.531A29.681 29.681 0 00-18.952 9.11l41.965 7.705zM18.451-8.53a12.985 12.985 0 014.563 7.72l-41.968 7.693a29.682 29.682 0 0010.43 17.645L18.45-8.53zm4.68 8.427a18.706 18.706 0 01-.538 7.967L-18.382-4.028a23.96 23.96 0 00-.689 10.205l42.202-6.28zm-.538 7.967a18.707 18.707 0 01-3.81 7.017l-32.284-27.897a23.96 23.96 0 00-4.881 8.987L22.594 7.865zm-3.763 6.961a18.656 18.656 0 01-6.362 4.8L-5.362-19.136a24.01 24.01 0 00-8.188 6.178l32.38 27.785zm-6.362 4.8a18.657 18.657 0 01-7.786 1.707l-.023-42.666a24.008 24.008 0 00-10.02 2.196l17.828 38.764zM4.67 21.334h6.664v-42.666H4.67v42.666zm6.645 0a18.656 18.656 0 01-7.779-1.706l17.828-38.764a24.01 24.01 0 00-10.012-2.196l-.037 42.666zm-7.779-1.706a18.655 18.655 0 01-6.358-4.795l32.37-27.797a24.012 24.012 0 00-8.184-6.172L3.536 19.627zm-6.31-4.74a18.705 18.705 0 01-3.812-7.009l40.968-11.92A23.963 23.963 0 0029.5-13.02L-2.775 14.886zm-3.812-7.009A18.705 18.705 0 01-7.13-.08l42.21 6.234c.503-3.41.265-6.887-.698-10.196L-6.586 7.878zm-.416-8.725a12.963 12.963 0 014.554-7.686l26.965 33.066A29.704 29.704 0 0034.952 6.92L-7.002-.847zm4.542 25.37a12.962 12.962 0 01-4.548-7.688l41.959-7.74A29.705 29.705 0 0024.528-8.523L-2.46 24.523zm-4.673-8.439a18.704 18.704 0 01.544-7.958l40.968 11.917c.963-3.31 1.2-6.787.697-10.197l-42.209 6.238zm.544-7.958a18.704 18.704 0 013.81-7.009l32.277 27.904a23.962 23.962 0 004.881-8.979L-6.589 8.127zm3.782-6.976a18.655 18.655 0 016.35-4.78l17.81 38.771a24.013 24.013 0 008.173-6.152L-2.807 1.149zm6.35-4.78a18.655 18.655 0 017.763-1.703l.055 42.666a24.012 24.012 0 009.992-2.192L3.543-3.63zM11.333-20H4.67v42.667h6.664V-20zm-6.65 0c-3.264-.002-6.49.7-9.458 2.06l17.77 38.79a19.992 19.992 0 01-8.338 1.817L4.683-20zm-9.458 2.06a22.676 22.676 0 00-7.738 5.818l32.329 27.844a19.99 19.99 0 01-6.821 5.128l-17.77-38.79zm-7.601 5.66a22.615 22.615 0 00-4.712 8.565l40.945 12a20.055 20.055 0 01-4.178 7.594l-32.055-28.158zm-4.712 8.565a22.614 22.614 0 00-.656 9.753L24.439-.363c.439 2.89.24 5.842-.582 8.648l-40.945-12zm-.66 9.725c1.303 8.667 6.414 14.626 10.926 18.196L19.65-9.256c.945.748 3.991 3.587 4.794 8.92L-17.75 6.01zm10.92 18.19a20.668 20.668 0 01-5.776-7.203L25.805-1.582a22 22 0 00-6.148-7.668L-6.829 24.2zm-5.776-7.203a20.667 20.667 0 01-2.062-8.999H28a22 22 0 00-2.195-9.58l-38.41 18.58zm-2.062-8.999c0-3.117.705-6.193 2.062-9l38.409 18.58A22 22 0 0028 7.998h-42.666zm2.062-9A20.667 20.667 0 01-6.83-8.204l26.486 33.451a21.999 21.999 0 006.148-7.668l-38.41-18.58zm5.775-7.202c-4.526 3.584-9.607 9.537-10.916 18.166L24.44 16.36c-.804 5.297-3.825 8.127-4.782 8.886L-6.83-8.205zM-17.74 9.93c-.5 3.266-.279 6.601.649 9.772l40.95-11.978a20.053 20.053 0 01.576 8.665L-17.74 9.93zm.649 9.772c.927 3.17 2.538 6.1 4.719 8.581L19.675.116a20.052 20.052 0 014.185 7.61l-40.951 11.977zm4.578 8.42a22.677 22.677 0 007.738 5.817l17.77-38.79a19.99 19.99 0 016.82 5.128l-32.328 27.844zm7.738 5.817A22.677 22.677 0 004.683 36L4.657-6.667a19.99 19.99 0 018.338 1.817l-17.77 38.79zM4.67 36h6.664V-6.667H4.67V36zm6.646 0c3.265.003 6.494-.7 9.463-2.06L3.009-4.85a19.99 19.99 0 018.342-1.817L11.315 36zm9.463-2.06a22.675 22.675 0 007.74-5.821L-3.815.28A19.99 19.99 0 013.009-4.85l17.77 38.79zm7.59-5.649a22.61 22.61 0 004.72-8.569L-7.85 7.71a20.055 20.055 0 014.186-7.6L28.37 28.29zm4.72-8.569a22.61 22.61 0 00.659-9.76l-42.183 6.404c-.44-2.893-.24-5.848.584-8.657l40.94 12.013zM33.754 10c-1.3-8.67-6.42-14.62-10.88-18.17l-26.57 33.385c-.887-.706-3.942-3.532-4.745-8.887L33.754 10zM22.886-8.16a20.667 20.667 0 015.738 7.192L-9.815 17.549a22 22 0 006.108 7.656L22.886-8.16zm5.738 7.192a20.667 20.667 0 012.048 8.97h-42.667a22 22 0 002.18 9.547L28.624-.968zm2.048 8.97c0 3.105-.7 6.17-2.048 8.969L-9.815-1.547a22 22 0 00-2.18 9.548h42.667zm-2.048 8.969a20.667 20.667 0 01-5.738 7.192L-3.707-9.203a22 22 0 00-6.108 7.656l38.439 18.518zm-5.753 7.203c4.463-3.55 9.586-9.502 10.884-18.181L-8.443-.317c.802-5.361 3.863-8.19 4.75-8.897l26.564 33.388zM33.751 6.02a22.61 22.61 0 00-.678-9.792L-7.837 8.341A20.056 20.056 0 01-8.44-.344l42.19 6.364zm-.678-9.792a22.609 22.609 0 00-4.762-8.582L-3.613 15.954A20.056 20.056 0 01-7.838 8.34L33.073-3.772zm-4.557-8.346a22.676 22.676 0 00-7.715-5.81L2.983 20.84a19.99 19.99 0 01-6.802-5.121l32.335-27.837zm-7.715-5.81A22.677 22.677 0 0011.37-20l-.07 42.667a19.991 19.991 0 01-8.316-1.827L20.8-17.928zM10.454-8H5.545v42.667h4.91V-8zm-4.9 0c3.382.001 6.712.833 9.697 2.42L-4.786 32.09a22.001 22.001 0 0010.322 2.577L5.555-8zm9.697 2.42a20.666 20.666 0 017.427 6.688l-35.37 23.863a22 22 0 007.906 7.119L15.251-5.58zm7.427 6.688a20.667 20.667 0 013.42 9.39l-42.43 4.477a22 22 0 003.64 9.996l35.37-23.863zm3.42 9.39a20.667 20.667 0 01-1.385 9.898l-39.57-15.957a22 22 0 00-1.476 10.536l42.431-4.476zm-1.812 10.884a13.877 13.877 0 01-4.307 5.3L-5.496-7.544a28.79 28.79 0 00-8.935 10.996l38.717 17.93zm-3.765 4.883l.345-.274L-5.693-7.402l-.345.275 26.56 33.392zm.346-.274a20.667 20.667 0 01-12.865 4.492v-42.667A22 22 0 00-5.693-7.4l26.56 33.392zM8.002 30.483a20.667 20.667 0 01-12.865-4.492l26.56-33.392a22 22 0 00-13.695-4.783v42.667zm-12.888-4.51l.34.27L22.058-7.112l-.34-.271-26.605 33.355zm.86.673a13.8 13.8 0 01-4.24-5.222L30.41 3.408a28.866 28.866 0 00-8.872-10.923l-25.564 34.16zm-4.67-6.209a20.666 20.666 0 01-1.406-9.904l42.438 4.405A22 22 0 0030.84 4.395L-8.696 20.437zm-1.406-9.904a20.667 20.667 0 013.41-9.405L28.706 24.95a22 22 0 003.63-10.012l-42.438-4.405zm3.41-9.405a20.667 20.667 0 017.428-6.7l20.062 37.655a22 22 0 007.908-7.133L-6.692 1.128zm7.428-6.7A20.667 20.667 0 0110.441-8l.026 42.667a22 22 0 0010.331-2.584L.736-5.573zm5.953 38.905h2.62V-9.333h-2.62v42.666zM26.234-.986a29.046 29.046 0 00-4.926-5.02L-5.308 27.34a13.617 13.617 0 01-2.31-2.354L26.234-.986zM-5.24-6.06a28.868 28.868 0 00-5.022 5.11L23.64 24.951a13.802 13.802 0 01-2.4 2.442L-5.24-6.06z" fill="#7C7B88" mask="url(#path-1-inside-1_16_2926)"/></g><defs><clipPath id="clip0_16_2926"><path fill="#fff" d="M0 0h16v16H0z"/></clipPath></defs></svg>