<svg width="16" height="16" viewBox="0 0 16 16" fill="none" xmlns="http://www.w3.org/2000/svg"><g id="mic" fill-rule="evenodd" clip-rule="evenodd" fill="#6F727A"><path id="Vector (Stroke)" d="M6.114.781a2.667 2.667 0 014.553 1.886V8a2.666 2.666 0 11-5.334 0V2.667c0-.708.281-1.386.781-1.886zM8 1.333a1.333 1.333 0 00-1.333 1.334V8a1.333 1.333 0 102.666 0V2.667A1.333 1.333 0 008 1.333z"/><path id="Vector (Stroke)_2" d="M3.333 6c.368 0 .667.298.667.667V8a4 4 0 108 0V6.667a.667.667 0 111.333 0V8A5.333 5.333 0 112.667 8V6.667c0-.369.298-.667.666-.667z"/><path id="Vector (Stroke)_3" d="M8 12c.368 0 .667.299.667.667v2.666a.667.667 0 11-1.334 0v-2.666c0-.368.299-.667.667-.667z"/><path id="Vector (Stroke)_4" d="M4.667 15.333c0-.368.298-.666.666-.666h5.334a.667.667 0 010 1.333H5.333a.667.667 0 01-.666-.667z"/></g></svg>