<svg width="16" height="16" viewBox="0 0 16 16" fill="none" xmlns="http://www.w3.org/2000/svg"><g id="fi-rr-PARKING" clip-path="url(#clip0_5527_610)"><g id="Vector" fill="#6F727A"><path d="M12.667 0H3.333A3.337 3.337 0 000 3.333v9.334A3.337 3.337 0 003.333 16h9.334A3.337 3.337 0 0016 12.667V3.333A3.337 3.337 0 0012.667 0zm2 12.667a2 2 0 01-2 2H3.333a2 2 0 01-2-2V3.333a2 2 0 012-2h9.334a2 2 0 012 2v9.334z"/><path d="M6 12.727a.667.667 0 01-.667-.666V4.667C5.333 4.298 5.632 4 6 4h2.606c.67 0 1.233.125 1.688.375a2.5 2.5 0 011.035 1.031c.236.435.354.93.354 1.483 0 .56-.118 1.057-.354 1.492a2.527 2.527 0 01-1.044 1.027c-.46.247-1.027.37-1.7.37h-1.67v-1.3h1.457c.392 0 .713-.067.963-.204a1.29 1.29 0 00.554-.562 1.78 1.78 0 00.183-.823c0-.31-.061-.582-.183-.818a1.245 1.245 0 00-.559-.55c-.25-.133-.572-.2-.967-.2l-1.03.012c-.368 0-.419.168-.419.537v6.19a.667.667 0 01-.666.667H6z"/></g></g><defs><clipPath id="clip0_5527_610"><path fill="#fff" d="M0 0h16v16H0z"/></clipPath></defs></svg>