<svg width="16" height="16" viewBox="0 0 16 16" fill="none" xmlns="http://www.w3.org/2000/svg"><g clip-path="url(#clip0_16_2929)"><path d="M14 6.667h-2.204L8.964 1.042A2 2 0 007.208 0h-.121A1.753 1.753 0 005.4 2.24l1.286 4.427h-1.59a1.988 1.988 0 01-1.414-.586l-.945-.948a1.606 1.606 0 00-1.876-.288 1.546 1.546 0 00-.777.948 1.683 1.683 0 00.152 1.31l1.076 1.884a3.342 3.342 0 002.894 1.68H6.68L5.568 13.63A1.753 1.753 0 007.208 16a1.98 1.98 0 001.737-1.009l2.698-4.324H14a2 2 0 000-4zM6.684 1.87a.42.42 0 01.403-.537h.121a.66.66 0 01.576.328l2.52 5.006h-2.23L6.684 1.87zM14 9.333h-2.727a.667.667 0 00-.565.314L7.794 14.32a.666.666 0 01-.586.348.42.42 0 01-.392-.567l1.45-3.867a.666.666 0 00-.625-.9H4.206a2 2 0 01-1.734-1.008L1.393 6.441a.349.349 0 01-.031-.266.215.215 0 01.105-.141.277.277 0 01.325.045l.944.944A3.315 3.315 0 005.096 8H14a.667.667 0 110 1.333z" fill="#7C7B88"/></g><defs><clipPath id="clip0_16_2929"><path fill="#fff" d="M0 0h16v16H0z"/></clipPath></defs></svg>