<svg xmlns="http://www.w3.org/2000/svg" width="136" height="19" fill="none"><path fill="#fff" d="M.577 15V1.7h5.757c1.19 0 2.217.196 3.078.589.861.38 1.526.931 1.995 1.653.469.722.703 1.583.703 2.584 0 .988-.234 1.843-.703 2.565-.469.71-1.134 1.254-1.995 1.634-.861.38-1.887.57-3.078.57H2.287l1.368-1.349V15H.577zm8.455 0l-3.325-4.826h3.287L12.357 15H9.032zm-5.377-4.712L2.287 8.844h3.876c.95 0 1.66-.203 2.128-.608.469-.418.703-.988.703-1.71 0-.735-.234-1.305-.703-1.71s-1.178-.608-2.128-.608H2.287l1.368-1.463v7.543zm15.188 4.864c-1.166 0-2.192-.228-3.078-.684-.874-.456-1.552-1.077-2.033-1.862-.482-.798-.722-1.704-.722-2.717 0-1.026.234-1.932.703-2.717A5.028 5.028 0 0115.67 5.31c.823-.456 1.754-.684 2.793-.684 1 0 1.9.215 2.698.646a4.668 4.668 0 011.919 1.824c.468.785.703 1.729.703 2.831 0 .114-.007.247-.02.399l-.037.399h-8.303V8.996h6.745l-1.14.513c0-.532-.108-.994-.323-1.387a2.292 2.292 0 00-.893-.912c-.38-.228-.824-.342-1.33-.342a2.64 2.64 0 00-1.35.342c-.38.215-.677.526-.892.931-.216.393-.323.861-.323 1.406v.456c0 .557.12 1.051.36 1.482.254.418.602.741 1.046.969.456.215.988.323 1.596.323.544 0 1.02-.082 1.425-.247a3.467 3.467 0 001.14-.741l1.577 1.71a4.684 4.684 0 01-1.767 1.235c-.71.279-1.527.418-2.451.418zM31.178 15v-1.995l-.19-.437V8.996c0-.633-.197-1.127-.59-1.482-.38-.355-.968-.532-1.766-.532-.545 0-1.083.089-1.615.266-.52.165-.963.393-1.33.684l-1.064-2.071c.557-.393 1.228-.697 2.014-.912a9.013 9.013 0 012.394-.323c1.558 0 2.767.367 3.629 1.102.861.735 1.292 1.881 1.292 3.439V15h-2.774zm-3.116.152c-.798 0-1.482-.133-2.052-.399-.57-.279-1.007-.652-1.311-1.121a2.835 2.835 0 01-.456-1.577c0-.608.145-1.14.437-1.596.304-.456.779-.81 1.425-1.064.646-.266 1.488-.399 2.527-.399h2.717v1.729h-2.394c-.697 0-1.178.114-1.444.342a1.1 1.1 0 00-.38.855c0 .38.145.684.437.912.304.215.715.323 1.235.323a2.6 2.6 0 001.33-.342c.392-.24.677-.589.855-1.045l.456 1.368c-.216.659-.608 1.159-1.178 1.501-.57.342-1.305.513-2.204.513zm12.466 0c-.963 0-1.83-.215-2.603-.646a4.949 4.949 0 01-1.843-1.843c-.444-.785-.666-1.71-.666-2.774 0-1.077.222-2.008.666-2.793a4.809 4.809 0 011.843-1.824c.772-.43 1.64-.646 2.603-.646.86 0 1.614.19 2.26.57.647.38 1.147.956 1.502 1.729.354.773.532 1.76.532 2.964 0 1.19-.172 2.179-.514 2.964-.341.773-.836 1.349-1.481 1.729-.634.38-1.4.57-2.3.57zm.513-2.432c.48 0 .918-.114 1.31-.342.393-.228.703-.551.931-.969.241-.43.362-.937.362-1.52 0-.595-.12-1.102-.361-1.52a2.451 2.451 0 00-.931-.969 2.563 2.563 0 00-1.311-.342 2.6 2.6 0 00-1.33.342c-.393.228-.71.551-.95.969-.229.418-.343.925-.343 1.52 0 .583.114 1.09.343 1.52.24.418.557.741.95.969a2.6 2.6 0 001.33.342zM43.718 15v-2.09l.057-3.04-.19-3.021V.902h2.965V15h-2.832zm6.297 3.838a5.188 5.188 0 01-1.577-.247c-.52-.165-.944-.393-1.273-.684l1.083-2.109a2.573 2.573 0 001.672.646c.418 0 .747-.101.988-.304.253-.19.481-.513.684-.969l.532-1.254.228-.323 3.667-8.816h2.85l-4.617 10.849c-.33.823-.71 1.47-1.14 1.938-.418.469-.887.798-1.406.988-.507.19-1.07.285-1.691.285zm1.748-3.439l-4.56-10.621h3.059l3.534 8.55-2.033 2.071zM62.139 15V4.208h-4.256V1.7h11.59v2.508h-4.256V15H62.14zm12.036.152c-1.09 0-2.058-.228-2.907-.684a5.325 5.325 0 01-1.995-1.862c-.481-.798-.722-1.704-.722-2.717 0-1.026.24-1.932.722-2.717a5.131 5.131 0 011.995-1.862c.849-.456 1.818-.684 2.907-.684 1.077 0 2.04.228 2.888.684a5.006 5.006 0 011.995 1.843c.482.785.722 1.697.722 2.736 0 1.013-.24 1.919-.722 2.717a5.143 5.143 0 01-1.995 1.862c-.848.456-1.811.684-2.888.684zm0-2.432a2.6 2.6 0 001.33-.342 2.45 2.45 0 00.931-.969c.228-.43.342-.937.342-1.52 0-.595-.114-1.102-.342-1.52a2.45 2.45 0 00-.93-.969 2.6 2.6 0 00-1.33-.342 2.6 2.6 0 00-1.33.342c-.393.228-.71.551-.95.969-.229.418-.343.925-.343 1.52 0 .583.114 1.09.342 1.52.24.418.558.741.95.969a2.6 2.6 0 001.33.342zM82.912 15V4.208h-4.256V1.7h11.59v2.508H85.99V15h-3.078zm12.036.152c-1.089 0-2.058-.228-2.907-.684a5.325 5.325 0 01-1.995-1.862c-.481-.798-.722-1.704-.722-2.717 0-1.026.241-1.932.722-2.717a5.131 5.131 0 011.995-1.862c.849-.456 1.818-.684 2.907-.684 1.077 0 2.04.228 2.888.684a5.007 5.007 0 011.995 1.843c.482.785.722 1.697.722 2.736 0 1.013-.24 1.919-.722 2.717a5.144 5.144 0 01-1.995 1.862c-.848.456-1.811.684-2.888.684zm0-2.432a2.6 2.6 0 001.33-.342c.393-.228.703-.551.931-.969.228-.43.342-.937.342-1.52 0-.595-.114-1.102-.342-1.52a2.451 2.451 0 00-.93-.969 2.6 2.6 0 00-1.33-.342 2.6 2.6 0 00-1.33.342c-.393.228-.71.551-.95.969-.229.418-.343.925-.343 1.52 0 .583.114 1.09.342 1.52.241.418.558.741.95.969a2.6 2.6 0 001.33.342zm11.33 2.432c-.849 0-1.609-.165-2.28-.494a3.517 3.517 0 01-1.539-1.501c-.368-.684-.551-1.552-.551-2.603V4.778h2.964v5.339c0 .849.177 1.476.532 1.881.367.393.88.589 1.539.589.456 0 .861-.095 1.216-.285a2.1 2.1 0 00.836-.912c.202-.418.304-.937.304-1.558V4.778h2.964V15h-2.812v-2.812l.513.817a3.548 3.548 0 01-1.52 1.615 4.497 4.497 0 01-2.166.532zm13.101 0c-1.102 0-2.084-.222-2.945-.665a5.198 5.198 0 01-2.033-1.881c-.482-.798-.722-1.704-.722-2.717 0-1.026.24-1.932.722-2.717a5.062 5.062 0 012.033-1.862c.861-.456 1.843-.684 2.945-.684 1.076 0 2.014.228 2.812.684a4.063 4.063 0 011.767 1.919l-2.299 1.235c-.266-.481-.602-.836-1.007-1.064a2.53 2.53 0 00-1.292-.342 2.74 2.74 0 00-1.368.342 2.534 2.534 0 00-.969.969c-.228.418-.342.925-.342 1.52s.114 1.102.342 1.52c.24.418.563.741.969.969a2.74 2.74 0 001.368.342 2.65 2.65 0 001.292-.323c.405-.228.741-.589 1.007-1.083l2.299 1.254a4.182 4.182 0 01-1.767 1.919c-.798.443-1.736.665-2.812.665zm11.872-10.526c.811 0 1.533.165 2.166.494.646.317 1.153.81 1.52 1.482.368.659.551 1.507.551 2.546V15h-2.964V9.604c0-.823-.183-1.431-.551-1.824-.354-.393-.861-.589-1.52-.589a2.66 2.66 0 00-1.273.304c-.367.19-.658.488-.874.893-.202.405-.304.925-.304 1.558V15h-2.964V.902h2.964v6.707l-.665-.855a3.79 3.79 0 011.577-1.577c.684-.367 1.463-.551 2.337-.551z"/></svg>