<svg width="16" height="16" viewBox="0 0 16 16" fill="none" xmlns="http://www.w3.org/2000/svg"><mask id="path-1-inside-1_16_2931" fill="#fff"><path fill-rule="evenodd" clip-rule="evenodd" d="M8.21.034l4.177 1.393a3.329 3.329 0 012.28 3.162V8c0 5.042-6.134 7.827-6.396 7.943a.666.666 0 01-.542 0c-.262-.116-6.396-2.9-6.396-7.943V4.59a3.329 3.329 0 012.28-3.162L7.789.034a.667.667 0 01.422 0zM8 14.593c1.12-.57 5.333-2.956 5.333-6.593V4.59a2 2 0 00-1.368-1.898L8 1.37 4.035 2.691A2 2 0 002.667 4.59V8c0 3.646 4.211 6.024 5.333 6.593zm-.592-6.26l2.792-2.8a.67.67 0 11.945.948L8.297 9.329a1.249 1.249 0 01-.89.368h-.022a1.248 1.248 0 01-.896-.4l-1.538-1.6a.667.667 0 11.96-.924l1.497 1.56z"/></mask><path fill-rule="evenodd" clip-rule="evenodd" d="M8.21.034l4.177 1.393a3.329 3.329 0 012.28 3.162V8c0 5.042-6.134 7.827-6.396 7.943a.666.666 0 01-.542 0c-.262-.116-6.396-2.9-6.396-7.943V4.59a3.329 3.329 0 012.28-3.162L7.789.034a.667.667 0 01.422 0zM8 14.593c1.12-.57 5.333-2.956 5.333-6.593V4.59a2 2 0 00-1.368-1.898L8 1.37 4.035 2.691A2 2 0 002.667 4.59V8c0 3.646 4.211 6.024 5.333 6.593zm-.592-6.26l2.792-2.8a.67.67 0 11.945.948L8.297 9.329a1.249 1.249 0 01-.89.368h-.022a1.248 1.248 0 01-.896-.4l-1.538-1.6a.667.667 0 11.96-.924l1.497 1.56z" fill="#7C7B88"/><path d="M12.387 1.427L5.64 21.665l.012.004.011.003 6.725-20.245zM8.211.034l6.748-20.238-.007-.002L8.211.034zm6.456 4.555l-21.334-.02v.02h21.334zM8.27 15.943L-.348-3.572l-.021.01-.022.009 8.662 19.496zm-.542 0l8.662-19.496-.022-.01-.021-.01-8.619 19.516zM1.333 4.589h21.334v-.02l-21.334.02zm.629-1.95l17.305 12.475L1.962 2.64zm1.65-1.212l6.726 20.245.011-.003.012-.004L3.613 1.427zM7.79.034l-6.741-20.24-.007.002L7.79.034zM8 14.593l-9.644 19.029 9.667 4.9 9.657-4.919L8 14.593zm5.333-10.004h21.334v-.002l-21.334.002zm-.377-1.17L-4.35 15.896 12.956 3.419zm-.99-.728L5.217 22.93l.006.002 6.741-20.24zM8 1.37l6.747-20.238L8-21.119l-6.747 2.25L8 1.37zM4.035 2.691l6.741 20.24.006-.001L4.035 2.69zm-.99.728L-14.26-9.057 3.044 3.419zm-.378 1.17l-21.334-.002v.002H2.667zm7.533.944l-15.07-15.1-.018.018-.019.019L10.2 5.533zm-2.792 2.8L-7.99 23.1l15.1 15.746 15.404-15.448L7.408 8.333zm3.521-2.944l8.185-19.7-8.185 19.7zm.217.145l-15.1 15.07 15.1-15.07zm.145.218l-19.718 8.143 19.718-8.143zm0 .512L-8.41-1.921l19.7 8.185zm-.146.217L-3.924-8.62l-.008.008-.008.008L11.145 6.48zM8.297 9.329L-6.788-5.756l-.025.025-.025.025L8.297 9.329zm-.408.273l8.164 19.71L7.89 9.601zm-.482.095l.07-21.333h-.07V9.697zm-.022 0L7.06 31.028l.163.003h.163V9.697zm-.49-.108l8.692-19.482L6.896 9.588zm-.406-.292L22.143-5.196l-.134-.145-.137-.142L6.489 9.297zm-1.538-1.6l15.383-14.78-.19-.198-.193-.192-15 15.17zm-.198-.478l21.333.147-21.333-.147zm.054-.259l19.6 8.423-19.6-8.423zm.374-.36l7.654 19.914L5.18 6.6zm.517.018l8.913-19.383L5.698 6.618zm.214.155L-9.83 21.171l.17.186.174.182L5.912 6.773zM19.135-18.81l-4.176-1.393L1.463 20.272l4.176 1.393 13.496-40.476zm12.209 8.975a24.663 24.663 0 00-12.232-8.983L5.663 21.672a18.005 18.005 0 01-8.93-6.558l34.612-24.95zM36 4.608a24.662 24.662 0 00-4.656-14.444l-34.612 24.95A18.005 18.005 0 01-6.667 4.57L36 4.61zM36 8V4.59H-6.667V8H36zM16.889 35.458c1.01-.446 4.734-2.165 8.553-5.434C28.935 27.033 36 19.684 36 8H-6.667c0-6.642 3.998-10.077 4.36-10.386.686-.588 1.212-.856 1.96-1.186l17.236 39.03zM8 37.334a22 22 0 008.932-1.895L-.391-3.553A20.667 20.667 0 018-5.333v42.667zm-8.932-1.895A22 22 0 008 37.334V-5.333c2.89 0 5.75.606 8.39 1.78L-.931 35.439zM-20 8c0 11.684 7.065 19.033 10.558 22.024 3.819 3.27 7.543 4.988 8.553 5.434l17.237-39.03c.747.33 1.273.598 1.96 1.186.36.309 4.359 3.744 4.359 10.386H-20zm0-3.411V8h42.667V4.59H-20zm4.656-14.425A24.662 24.662 0 00-20 4.608l42.667-.039a18.005 18.005 0 01-3.4 10.545l-34.611-24.95zm12.232-8.983a24.662 24.662 0 00-12.232 8.983l34.611 24.95a18.005 18.005 0 01-8.93 6.558l-13.45-40.49zm4.153-1.385l-4.176 1.393L10.36 21.665l4.176-1.393L1.041-20.204zm13.911-.002a22 22 0 00-13.904 0l13.483 40.48a20.668 20.668 0 01-13.062 0l13.483-40.48zM-8 8C-8 1.24-4.158-2.502-3.529-3.094c.915-.86 1.598-1.196 1.848-1.324L17.68 33.603c1.371-.698 4.722-2.512 8.022-5.617 3.016-2.836 8.965-9.59 8.965-19.986H-8zm0-3.411V8h42.667V4.59H-8zm3.651 11.307A19.333 19.333 0 01-8 4.591l42.667-.004c0-4.898-1.543-9.672-4.407-13.644L-4.349 15.896zm9.573 7.036a19.334 19.334 0 01-9.573-7.036L30.26-9.057a23.333 23.333 0 00-11.553-8.492L5.224 22.931zm-3.971-1.324l3.965 1.322 13.494-40.477-3.965-1.322L1.253 21.608zm9.529 1.322l3.965-1.322L1.253-18.87l-3.966 1.322L10.782 22.93zm9.567-7.034a19.334 19.334 0 01-9.573 7.036l-13.483-40.48a23.334 23.334 0 00-11.553 8.49l34.609 24.954zM24 4.591c0 4.058-1.278 8.013-3.651 11.305l-34.61-24.953a23.333 23.333 0 00-4.406 13.644L24 4.59zM24 8V4.588h-42.667V8H24zM17.644-4.437c.262.132.956.474 1.879 1.341C20.17-2.485 24 1.257 24 8h-42.667c0 10.389 5.935 17.143 8.97 19.996 3.309 3.11 6.67 4.924 8.053 5.626L17.644-4.436zM-4.906-9.53L-7.7-6.73l30.213 30.127 2.792-2.8L-4.907-9.53zm7.18-4.8a22.002 22.002 0 00-7.143 4.762l30.138 30.202a20.665 20.665 0 01-6.709 4.473L2.274-14.33zm8.422-1.666a22.004 22.004 0 00-8.422 1.666L18.56 25.106a20.664 20.664 0 01-7.91 1.565l.046-42.667zm8.418 1.684a22.002 22.002 0 00-8.418-1.684l-.045 42.667c-2.714-.003-5.4-.54-7.906-1.581l16.369-39.402zm7.133 4.777a22 22 0 00-7.133-4.777L2.744 25.09a20.664 20.664 0 01-6.699-4.487L26.247-9.535zm4.762 7.143a22.002 22.002 0 00-4.762-7.143L-3.955 20.603a20.664 20.664 0 01-4.472-6.708L31.009-2.392zm1.666 8.422c.003-2.89-.563-5.75-1.666-8.422L-8.427 13.895a20.664 20.664 0 01-1.565-7.91l42.667.045zm-1.684 8.418a22.002 22.002 0 001.684-8.418l-42.667-.045c.003-2.714.54-5.4 1.582-7.906l39.401 16.37zm-4.777 7.133a22.002 22.002 0 004.777-7.133L-8.41-1.92a20.664 20.664 0 014.486-6.7l30.138 30.202zm-2.832 2.832l2.848-2.848-30.17-30.17-2.848 2.849 30.17 30.17zm-7.329 4.898a22.582 22.582 0 007.38-4.948L-6.838-5.706a20.085 20.085 0 016.562-4.401L16.053 29.31zm-8.716 1.72a22.58 22.58 0 008.716-1.72L-.275-10.107a20.085 20.085 0 017.753-1.529L7.337 31.03zm.048 0h.022v-42.667h-.022V31.03zm-9.18-1.96a22.581 22.581 0 008.854 1.957l.653-42.662c2.716.042 5.395.634 7.875 1.74L-1.795 29.073zm-7.37-5.28a22.582 22.582 0 007.37 5.28L15.587-9.893a20.086 20.086 0 016.556 4.698L-9.166 23.791zm-1.267-1.313l1.537 1.6L21.872-5.483l-1.538-1.6-30.766 29.56zm-4.479-6.848a21.998 21.998 0 004.863 7.237L19.95-7.473a20.668 20.668 0 014.568 6.8L-14.91 15.63zm-1.668-8.558a21.999 21.999 0 001.668 8.558L24.52-.674a20.667 20.667 0 011.567 8.04l-42.665-.294zm1.786-8.535a22 22 0 00-1.787 8.535l42.666.294a20.666 20.666 0 01-1.678 8.017l-39.2-16.846zm4.962-7.17a22.002 22.002 0 00-4.962 7.17l39.2 16.846a20.666 20.666 0 01-4.66 6.735L-9.831-8.632zm7.358-4.679a22 22 0 00-7.358 4.68l29.578 30.75a20.667 20.667 0 01-6.912 4.396L-2.473-13.312zm8.597-1.454a22 22 0 00-8.597 1.454l15.308 39.826a20.67 20.67 0 01-8.077 1.365l1.366-42.645zm8.487 2.001a22 22 0 00-8.487-2L4.758 27.878A20.668 20.668 0 01-3.214 26l17.825-38.765zm7.043 5.14a21.997 21.997 0 00-7.043-5.14L-3.214 26A20.665 20.665 0 01-9.83 21.17L21.654-7.625zm1.151 1.192l-1.496-1.56L-9.486 21.54l1.496 1.56L22.805-6.433z" fill="#7C7B88" mask="url(#path-1-inside-1_16_2931)"/></svg>