<svg width="28" height="25" viewBox="0 0 28 25" fill="none" xmlns="http://www.w3.org/2000/svg"><path d="M27.68 12.445c.08.843.262 3.04-.927 5.256-2.925 5.454-11.13 5.39-13.272 5.372-2.81-.022-8.312-.065-11.335-4.11-1.769-2.368-1.862-5-1.878-5.748C.17 8.808 2.956 5.849 3.842 4.907c.4-.424 4.751-4.899 11.166-4.343 6.553.567 12.12 6.114 12.672 11.882z" fill="#BC845B"/><path d="M13.978 23.334l-.498-.002c-1.4-.011-3.513-.028-5.647-.554-1.18-.291-2.244-.71-3.164-1.246a9.077 9.077 0 01-2.728-2.414C.727 17.494.059 15.455.01 13.221c-.043-1.926.445-3.805 1.451-5.588.81-1.436 1.744-2.428 2.193-2.905C4.108 4.247 8.043.256 13.908.256c.367 0 .74.016 1.122.049 1.624.14 3.224.58 4.756 1.309 1.46.694 2.802 1.62 3.987 2.752a14.49 14.49 0 012.845 3.748c.737 1.407 1.18 2.856 1.32 4.306.072.76.293 3.073-.957 5.403-.696 1.299-1.738 2.388-3.097 3.24-1.117.7-2.462 1.247-3.998 1.627-2.366.584-4.633.644-5.908.644zM13.895.774c-2.256 0-4.47.609-6.598 1.818C5.41 3.664 4.245 4.855 4.03 5.083 3.14 6.03.431 8.907.526 13.21c.047 2.125.679 4.06 1.827 5.598 2.946 3.942 8.27 3.984 11.13 4.006l.296.002c6.596 0 10.884-1.762 12.748-5.238 1.175-2.191.966-4.387.897-5.108C26.872 6.69 21.176 1.356 14.986.82a12.741 12.741 0 00-1.091-.047z" fill="#000"/><path d="M14.995 7.428a2.32 2.32 0 01-2.332-.014c-1.588-.94-4.633-2.017-7.899.685 0 0-4.12 3.237-1.13 8.897 0 0 1.916 4.008 10.016 4.033 8.1.025 10.069-3.578 10.069-3.578s3.81-5.48-1.593-9.796c0 0-3.278-2.425-7.13-.227z" fill="#F1ECC3"/><path d="M8.759 9.82c1.448.338 2.509 1.399 2.668 2.635.044.334.016.643-.044.915-.114.51-.37.977-.729 1.356-.728.77-2.744 2.517-6.444 3.073 0 0-2.163-2.217-1.559-5.963a6.402 6.402 0 012.418-1.707 6.447 6.447 0 013.69-.31zM19.449 9.915a4.184 4.184 0 00-1.796.54c-.89.512-1.879 1.52-1.361 3.385.057.219.159.547.344.917.086.173.436.847 1.296 1.608 1.484 1.312 3.94 2.399 4.274 2.545a6.411 6.411 0 001.62-1.583c1.54-2.17 1.204-4.645 1.089-5.323a6.872 6.872 0 00-2.143-1.513 6.94 6.94 0 00-3.323-.576z" fill="#595260"/><path d="M22.207 18.927l-.008-.004c-.46-.201-2.834-1.272-4.277-2.547-.772-.682-1.146-1.303-1.3-1.612a4.745 4.745 0 01-.345-.92c-.517-1.864.459-2.879 1.369-3.402a4.226 4.226 0 011.802-.542 6.992 6.992 0 013.33.578c.804.36 1.526.87 2.147 1.516l.003.003v.005c.117.686.144 1.414.077 2.105-.117 1.216-.51 2.302-1.167 3.228a6.417 6.417 0 01-1.624 1.587l-.007.005zm-2.26-9.014c-.18 0-.346.006-.497.017a4.194 4.194 0 00-1.79.538c-.9.518-1.866 1.523-1.354 3.368.082.316.198.624.343.915.153.307.525.924 1.293 1.603 1.431 1.265 3.784 2.33 4.262 2.539a6.392 6.392 0 001.61-1.575c1.445-2.037 1.242-4.386 1.087-5.307a6.824 6.824 0 00-2.135-1.506 6.907 6.907 0 00-2.82-.592z" fill="#595260"/><path d="M26.402 8.395a18.234 18.234 0 00-4.819-4.678c-1.205-.795-2.917-1.898-5.427-2.323-.325-.054-1.741-.28-3.604-.074-.697.077-3.129.4-5.782 1.965-2.995 1.768-4.645 4.158-5.405 5.45.313-.733 2.715-6.09 8.666-7.793 4.726-1.352 8.632.442 9.595.919a17.019 17.019 0 016.776 6.534z" fill="#fff" opacity=".5"/><path d="M13.97 23.328l-.498-.002c-1.399-.011-3.513-.028-5.647-.554-1.18-.291-2.244-.71-3.164-1.246a9.077 9.077 0 01-2.728-2.414C.719 17.488.052 15.449.003 13.215c-.043-1.926.446-3.806 1.451-5.588.81-1.436 1.744-2.428 2.193-2.905C4.1 4.24 8.035.25 13.9.25c.367 0 .74.016 1.123.049 1.623.14 3.223.58 4.755 1.309 1.46.693 2.802 1.62 3.987 2.752a14.488 14.488 0 012.845 3.748c.737 1.407 1.181 2.856 1.32 4.306.072.76.293 3.073-.956 5.403-.697 1.298-1.739 2.388-3.098 3.24-1.117.7-2.462 1.247-3.998 1.626-2.366.585-4.633.645-5.908.645zM13.887.767c-2.255 0-4.47.61-6.598 1.819-1.886 1.072-3.052 2.263-3.267 2.491-.89.946-3.598 3.824-3.504 8.127.047 2.125.679 4.06 1.828 5.598 2.946 3.942 8.27 3.984 11.13 4.006 6.762.053 11.151-1.708 13.043-5.236 1.176-2.192.966-4.387.897-5.108-.552-5.78-6.248-11.114-12.438-11.65a12.68 12.68 0 00-1.09-.047z" fill="#000"/><path d="M.213 13.43s1.222 8.637 14.284 8.41c13.062-.226 13.188-8.489 13.188-8.489s1.204 8.949-11.024 9.587c-12.228.637-14.51-3.969-14.51-3.969S-.13 15.09.213 13.43z" fill="#020002" opacity=".25"/><path d="M15.385 14.05c.094.484-.825 1.31-1.747 1.261-.856-.044-1.667-.84-1.556-1.308.129-.543 1.477-.568 1.574-.57.574-.005 1.637.143 1.729.617z" fill="#000"/><path d="M15.211 14.645c.178-.216.257-.431.224-.605-.108-.555-1.321-.664-1.78-.66-.15.002-1.486.033-1.622.61-.04.165.02.37.168.578.257.36.815.764 1.434.797l.066.002c.623.006 1.215-.364 1.51-.722zm.124-.584c.027.14-.046.327-.2.515-.29.351-.881.715-1.495.682-.586-.03-1.114-.412-1.357-.754-.13-.182-.183-.355-.152-.488.097-.406 1.04-.524 1.526-.529h.074c.645.006 1.528.182 1.604.574z" fill="#000"/><path d="M14.453 13.918c.008.085-.364.233-.735.224-.366-.008-.726-.169-.716-.252.014-.107.63-.096.72-.095.077.002.721.013.731.123z" fill="#fff"/><path d="M9.993 12.895a5.558 5.558 0 00-.187-.22 3.03 3.03 0 00-.192-.192 2.355 2.355 0 00-.414-.305 1.942 1.942 0 00-.443-.188 1.699 1.699 0 00-.46-.063c-.307 0-.615.087-.902.252a2.373 2.373 0 00-.413.304c-.066.06-.13.124-.193.193a5.763 5.763 0 00-.186.219c.001-.1.016-.198.041-.296.024-.097.06-.193.103-.286a1.724 1.724 0 012.195-.851 1.724 1.724 0 01.906.852c.044.092.078.188.103.286.025.097.04.195.042.295zM21.033 13.057a5.571 5.571 0 00-.187-.219 3.03 3.03 0 00-.192-.193 2.36 2.36 0 00-.413-.304 1.943 1.943 0 00-.444-.188 1.694 1.694 0 00-.46-.063c-.307 0-.615.086-.902.252a2.366 2.366 0 00-.413.303c-.066.06-.13.125-.192.194a5.577 5.577 0 00-.187.218c.001-.1.016-.198.041-.295.024-.098.06-.194.103-.286a1.72 1.72 0 013.1 0c.044.093.08.188.104.286.025.097.04.196.042.295z" fill="#000"/><path d="M13.024 15.938c-.376-1.003-.32-2.012.115-2.815.966-1.785 4.085-5.868 10.12.728 7.205 7.873-.732 14.704-5.973 6.502a4.044 4.044 0 00-1.394-1.314c-.893-.51-2.218-1.483-2.828-2.999a6.677 6.677 0 01-.04-.102z" fill="#BC845B"/><path d="M22.573 24.351c-.843 0-1.722-.265-2.566-.777-1.083-.658-2.078-1.69-2.96-3.068a3.743 3.743 0 00-1.295-1.22 8.096 8.096 0 01-1.575-1.164c-.625-.598-1.088-1.263-1.375-1.976a4.015 4.015 0 01-.307-1.704 3.346 3.346 0 01.396-1.454c.55-1.016 1.778-2.758 3.833-3.012 2.012-.249 4.281.99 6.745 3.684 1.346 1.47 2.247 2.979 2.68 4.482.383 1.338.37 2.616-.038 3.697-.534 1.411-1.704 2.343-3.13 2.491a3.93 3.93 0 01-.408.021zm-9.283-8.513l.037.096c.567 1.407 1.784 2.331 2.706 2.859.612.35 1.128.837 1.492 1.407 1.572 2.46 3.539 3.76 5.397 3.565 1.209-.126 2.203-.921 2.659-2.128.81-2.14-.136-4.979-2.53-7.594-1.26-1.377-2.47-2.365-3.596-2.936-.943-.478-1.839-.669-2.662-.567-1.803.223-2.907 1.799-3.404 2.718-.406.75-.441 1.667-.099 2.58z" fill="#000"/><path d="M25.522 22.503s-3.174 2.763-6.898-2.526a6.022 6.022 0 00-.564-.77 5.271 5.271 0 00-.71-.701c-.412-.331-.6-.363-1.053-.653-.579-.389-.978-.792-1.046-.851-.473-.41-.903-1.334-1.125-1.86l-1.343-.375c.054.466.176 1.025.439 1.614.874 1.96 2.66 2.813 3.268 3.07.204.273.53.69.963 1.17 1.46 1.613 3.245 3.584 5.292 3.447.433-.03 1.543-.197 2.777-1.565z" fill="#000" opacity=".25"/><path d="M17.656 10.947c.26.076.627.196 1.051.377.746.317 1.8.878 3.036 2.027.285.265 3.7 3.503 3.862 6.618.017.31.053 1.007-.236 1.84a4.595 4.595 0 01-.929 1.566c.559-.328.91-.706 1.138-1.043 1.2-1.773.58-4.738-1.47-7.472 0 0-3.374-4.696-6.674-4.502l.222.589z" fill="#fff" opacity=".5"/><path d="M22.573 24.351c-.843 0-1.722-.265-2.566-.777-1.083-.658-2.078-1.69-2.96-3.068a3.743 3.743 0 00-1.295-1.22 8.096 8.096 0 01-1.575-1.164c-.625-.598-1.088-1.263-1.375-1.976a4.015 4.015 0 01-.307-1.704 3.346 3.346 0 01.396-1.454c.55-1.016 1.778-2.758 3.833-3.012 2.012-.249 4.281.99 6.745 3.684 1.346 1.47 2.247 2.979 2.68 4.482.383 1.338.37 2.616-.038 3.697-.534 1.411-1.704 2.343-3.13 2.491a3.93 3.93 0 01-.408.021zm-9.283-8.513l.037.096c.567 1.407 1.784 2.331 2.706 2.859.612.35 1.128.837 1.492 1.407 1.572 2.46 3.539 3.76 5.397 3.565 1.209-.126 2.203-.921 2.659-2.128.81-2.14-.136-4.979-2.53-7.594-1.26-1.377-2.47-2.365-3.596-2.936-.943-.478-1.839-.669-2.662-.567-1.803.223-2.907 1.799-3.404 2.718-.406.75-.441 1.667-.099 2.58z" fill="#000"/><path d="M14.146 8.911a.302.302 0 00-.227.491c.456.568 1.186 1.555 1.345 2.22.235.98 1.5.315 1.5.315.567-.235.921-.675.887-1.088a.75.75 0 00-.142-.373s-.883-1.625-3.363-1.565z" fill="#fff"/><path d="M15.945 12.441a1.07 1.07 0 01-.445-.089c-.18-.082-.415-.263-.51-.664-.109-.451-.58-1.22-1.291-2.108a.584.584 0 01-.075-.615.58.58 0 01.515-.338c1.362-.033 2.268.426 2.788.817.521.39.773.795.822.88.109.158.17.327.185.501.044.538-.378 1.087-1.05 1.37-.095.047-.51.246-.939.246zm-1.792-3.246c-.005 0-.01 0-.015.01-.005.01 0 .015.002.02.548.682 1.235 1.641 1.4 2.33.046.193.133.252.194.28.265.121.75-.073.898-.15l.011-.006.012-.005c.444-.183.738-.513.714-.802a.477.477 0 00-.092-.233l-.009-.013-.007-.014c-.002-.003-.211-.374-.696-.731-.65-.478-1.46-.71-2.412-.686z" fill="#000"/><path d="M15.418 9.213s-.32.258.05.886.59 1.106.836 2.009l-.766-.007-1.847-2.965a2.827 2.827 0 011.727.077z" fill="#000" opacity=".25"/><path d="M12.46 10.27a.302.302 0 00-.227.49c.456.569 1.186 1.555 1.345 2.22.235.98 1.5.315 1.5.315.568-.235.921-.675.887-1.088a.75.75 0 00-.142-.373s-.883-1.624-3.363-1.565z" fill="#fff"/><path d="M14.26 13.8c-.152 0-.304-.025-.446-.09-.18-.081-.415-.263-.511-.664-.108-.451-.578-1.22-1.29-2.108a.584.584 0 01.44-.953c1.362-.033 2.268.426 2.788.817.521.39.773.795.822.88.109.158.17.327.185.502.044.537-.378 1.086-1.05 1.369-.095.048-.51.246-.939.246zm-1.793-3.247c-.005 0-.01 0-.015.01-.005.011 0 .016.002.02.548.683 1.235 1.642 1.4 2.33.046.193.133.253.194.28.249.114.712-.052.898-.15l.011-.005.013-.006c.444-.183.737-.513.713-.802a.478.478 0 00-.091-.233l-.01-.013-.007-.014c-.002-.003-.211-.373-.696-.73-.65-.479-1.461-.71-2.412-.687z" fill="#000"/><path d="M13.732 10.571s-.32.258.05.886c.37.629.59 1.106.836 2.01l-.767-.008-1.846-2.965a2.83 2.83 0 011.727.077z" fill="#000" opacity=".25"/><path d="M11.517 11.781a.302.302 0 00-.227.491c.455.568 1.186 1.555 1.345 2.22.235.98 1.499.315 1.499.315.568-.235.922-.675.888-1.088a.749.749 0 00-.142-.373s-.884-1.624-3.363-1.565z" fill="#fff"/><path d="M13.316 15.311a1.07 1.07 0 01-.446-.088c-.18-.083-.415-.264-.51-.665-.109-.451-.579-1.22-1.291-2.108a.584.584 0 01-.074-.614.58.58 0 01.514-.339c1.362-.033 2.268.426 2.789.817.52.39.772.795.821.88.109.158.17.327.185.502.044.537-.378 1.086-1.05 1.369-.095.048-.51.246-.938.246zm-1.793-3.246c-.005 0-.01 0-.015.01-.004.01 0 .016.003.02.547.683 1.234 1.642 1.399 2.33.046.193.133.252.194.28.266.122.75-.072.898-.15l.011-.005.013-.006c.444-.183.737-.513.713-.802a.477.477 0 00-.091-.233l-.01-.013-.007-.014c-.002-.003-.211-.373-.696-.73-.65-.479-1.46-.71-2.412-.687z" fill="#000"/><path d="M12.789 12.083s-.321.258.049.886c.37.629.591 1.106.837 2.01l-.767-.007-1.846-2.966a2.829 2.829 0 011.727.077z" fill="#000" opacity=".25"/><path d="M15.183 15.677c.425-.983.419-1.994.024-2.817-.876-1.83-3.79-6.064-10.144.225-7.584 7.506.006 14.723 5.646 6.79a4.042 4.042 0 011.457-1.242c.917-.466 2.288-1.372 2.973-2.856l.044-.1z" fill="#BC845B"/><path d="M5.434 23.611a3.98 3.98 0 01-.608-.046c-1.417-.22-2.54-1.207-3.004-2.643-.354-1.1-.304-2.377.145-3.694.506-1.48 1.48-2.943 2.897-4.345 2.594-2.567 4.922-3.692 6.92-3.344 2.04.356 3.18 2.156 3.68 3.198.216.453.325.948.322 1.473a4.012 4.012 0 01-.39 1.686c-.322.698-.817 1.339-1.47 1.905a8.092 8.092 0 01-1.631 1.085 3.742 3.742 0 00-1.355 1.154c-.948 1.333-1.993 2.314-3.107 2.917-.799.433-1.617.654-2.4.654zm5.631-13.565c-.646 0-1.338.163-2.066.487-1.153.515-2.41 1.441-3.736 2.754-2.52 2.494-3.604 5.282-2.901 7.46.396 1.227 1.35 2.07 2.55 2.257 1.846.286 3.875-.915 5.567-3.294a4.31 4.31 0 011.56-1.33c.946-.482 2.207-1.345 2.843-2.722l.042-.094c.387-.895.397-1.812.028-2.582-.451-.943-1.476-2.571-3.266-2.883a3.631 3.631 0 00-.62-.053z" fill="#000"/><path d="M2.378 21.615s3.033 2.916 7.014-2.182c.138-.2.334-.46.601-.74.149-.157.394-.412.744-.666.427-.31.618-.333 1.084-.6.597-.36 1.015-.742 1.086-.798.493-.386.968-1.287 1.216-1.801l1.36-.309a5.518 5.518 0 01-.519 1.59c-.969 1.914-2.796 2.678-3.415 2.905-.217.262-.563.663-1.02 1.12-1.538 1.539-3.417 3.42-5.455 3.181-.431-.05-1.53-.274-2.696-1.7z" fill="#000" opacity=".25"/><path d="M10.804 10.462a9.657 9.657 0 00-1.068.325c-.76.28-1.841.787-3.132 1.874-.298.251-3.87 3.315-4.185 6.418-.031.31-.101 1.003.146 1.85.22.754.594 1.295.85 1.61A3.456 3.456 0 012.33 21.44c-1.112-1.83-.344-4.762 1.838-7.39 0 0 3.601-4.523 6.887-4.166l-.25.577z" fill="#fff" opacity=".5"/><path d="M5.434 23.611a3.98 3.98 0 01-.608-.046c-1.417-.22-2.54-1.207-3.004-2.643-.354-1.1-.304-2.377.145-3.694.506-1.48 1.48-2.943 2.897-4.345 2.594-2.567 4.922-3.692 6.92-3.344 2.04.356 3.18 2.156 3.68 3.198.216.453.325.948.322 1.473a4.012 4.012 0 01-.39 1.686c-.322.698-.817 1.339-1.47 1.905a8.092 8.092 0 01-1.631 1.085 3.742 3.742 0 00-1.355 1.154c-.948 1.333-1.993 2.314-3.107 2.917-.799.433-1.617.654-2.4.654zm5.631-13.565c-.646 0-1.338.163-2.066.487-1.153.515-2.41 1.441-3.736 2.754-2.52 2.494-3.604 5.282-2.901 7.46.396 1.227 1.35 2.07 2.55 2.257 1.846.286 3.875-.915 5.567-3.294a4.31 4.31 0 011.56-1.33c.946-.482 2.207-1.345 2.843-2.722l.042-.094c.387-.895.397-1.812.028-2.582-.451-.943-1.476-2.571-3.266-2.883a3.631 3.631 0 00-.62-.053z" fill="#000"/><path d="M14.41 8.603a.302.302 0 01.203.502c-.483.545-1.261 1.494-1.453 2.15-.283.968-1.513.24-1.513.24-.556-.262-.887-.719-.833-1.13a.75.75 0 01.16-.366s.963-1.578 3.437-1.396z" fill="#fff"/><path d="M12.506 12.042c-.453 0-.895-.24-.991-.295-.658-.316-1.052-.885-.982-1.42.023-.173.093-.339.21-.492.053-.082.324-.473.863-.838.54-.364 1.467-.778 2.825-.677a.58.58 0 01.498.363.584.584 0 01-.105.61c-.755.853-1.262 1.596-1.392 2.042-.116.395-.36.565-.544.638a1.033 1.033 0 01-.382.069zm1.507-3.17c-.791 0-1.484.195-2.066.58-.502.333-.73.693-.732.696l-.008.014-.01.011a.478.478 0 00-.102.229c-.038.287.239.632.673.837l.012.005.01.007c.145.085.62.302.89.194.063-.025.152-.08.208-.27.199-.68.932-1.603 1.513-2.258.003-.004.007-.009.003-.02-.004-.01-.01-.01-.014-.01a4.951 4.951 0 00-.377-.015z" fill="#000"/><path d="M13.125 8.841s.308.274-.093.883c-.4.61-.645 1.076-.935 1.965l.766.031 1.99-2.87a2.82 2.82 0 00-1.728-.009z" fill="#000" opacity=".25"/><path d="M15.576 10.181a.302.302 0 01.202.502c-.482.545-1.26 1.495-1.453 2.15-.282.968-1.512.24-1.512.24-.556-.262-.888-.719-.834-1.13a.75.75 0 01.16-.366s.964-1.578 3.437-1.396z" fill="#fff"/><path d="M13.671 13.62c-.453 0-.894-.24-.99-.295-.659-.315-1.053-.884-.982-1.42.022-.173.093-.338.209-.491.053-.083.324-.474.864-.839.539-.364 1.466-.777 2.825-.677a.58.58 0 01.498.364.584.584 0 01-.105.61c-.755.852-1.263 1.596-1.393 2.04-.116.396-.36.566-.543.64a1.032 1.032 0 01-.383.068zm1.515-3.17c-2.003 0-2.797 1.262-2.805 1.275l-.008.014-.01.012a.478.478 0 00-.103.229c-.038.288.24.632.673.837l.012.005.011.007c.145.085.619.302.89.194.063-.025.152-.08.207-.27.2-.68.933-1.603 1.513-2.258.004-.004.008-.009.003-.02-.004-.01-.009-.01-.014-.01a4.915 4.915 0 00-.37-.014z" fill="#000"/><path d="M14.29 10.42s.309.273-.092.883c-.401.609-.646 1.075-.935 1.964l.766.032 1.99-2.87a2.822 2.822 0 00-1.729-.01z" fill="#000" opacity=".25"/><path d="M16.443 11.738a.302.302 0 01.202.502c-.482.545-1.26 1.494-1.452 2.15-.283.968-1.513.24-1.513.24-.556-.262-.888-.72-.833-1.13a.75.75 0 01.16-.366s.963-1.578 3.436-1.396z" fill="#fff"/><path d="M14.54 15.177c-.454 0-.895-.24-.991-.295-.658-.316-1.053-.885-.982-1.42.022-.173.093-.339.209-.492.053-.082.325-.473.864-.838.539-.364 1.466-.778 2.825-.677a.58.58 0 01.498.363.584.584 0 01-.105.61c-.755.853-1.263 1.596-1.393 2.041-.115.396-.359.566-.543.639a1.033 1.033 0 01-.383.069zm1.514-3.17c-2.003 0-2.796 1.262-2.805 1.275l-.008.014-.01.013a.477.477 0 00-.103.228c-.037.287.24.632.674.837l.011.005.012.007c.144.085.618.302.89.194.062-.025.151-.08.207-.27.198-.68.932-1.603 1.512-2.258.004-.004.008-.009.003-.02-.004-.01-.009-.01-.014-.01a4.864 4.864 0 00-.37-.014z" fill="#000"/><path d="M15.158 11.976s.309.274-.092.883c-.4.61-.645 1.076-.935 1.965l.766.031 1.99-2.87a2.82 2.82 0 00-1.729-.008zM1.933 21.092c.101.327.787 2.428 2.736 3.1 1.01.347 1.897.152 2.412.032 2.428-.567 3.902-2.615 4.546-3.713.201-.344.49-.627.836-.823.265-.15.58-.345.84-.554a.597.597 0 01.77.017c.287.252.69.58 1.098.816.225.13.418.311.568.525 1.112 1.587 5.86 7.661 9.65 1.67 0 0-2.933 3.704-6.89.075 0 0-1.431-1.454-2.046-2.752 0 0-2.396-1.557-2.704-1.93-.159.143-.418.363-.76.6-.653.45-.985.527-1.44.86-.482.35-.683.682-1.02 1.12-.61.79-1.467 1.674-2.16 2.155-1.128.782-3.067 1.357-4.461.635-.99-.512-1.943-1.802-1.975-1.833z" fill="#000" opacity=".25"/></svg>