<svg width="28" height="24" viewBox="0 0 28 24" fill="none" xmlns="http://www.w3.org/2000/svg"><path d="M27.666 15.481c-.102.858-.396 3.09-2.044 5.039-4.056 4.799-12.13 2.94-14.238 2.456-2.764-.636-8.18-1.883-10.29-6.577-1.235-2.748-.76-5.394-.616-6.142.852-4.417 4.234-6.76 5.31-7.505.485-.336 5.737-3.847 11.94-1.89 6.338 1.998 10.634 8.746 9.938 14.619z" fill="#BC845B"/><path d="M17.275 24c-2.618 0-4.928-.532-5.95-.767-1.376-.317-3.456-.796-5.447-1.787-1.1-.548-2.059-1.198-2.851-1.934a9.277 9.277 0 01-2.17-3.003C.01 14.624-.21 12.444.222 10.206.594 8.276 1.48 6.51 2.854 4.951c1.108-1.255 2.242-2.04 2.786-2.417.458-.317 3.808-2.526 8.246-2.526 1.235 0 2.554.171 3.92.601a13.929 13.929 0 014.405 2.345 15.493 15.493 0 013.34 3.617 14.892 14.892 0 011.998 4.36c.423 1.564.55 3.105.374 4.582-.091.774-.37 3.128-2.104 5.179-.965 1.142-2.227 2.001-3.75 2.553-1.251.454-2.695.706-4.29.748-.17.005-.337.007-.504.007zM13.879.532a13.94 13.94 0 00-4.189.667c-2.09.657-3.495 1.59-3.756 1.77-1.08.75-4.37 3.027-5.201 7.338-.411 2.13-.204 4.198.598 5.982 2.056 4.576 7.295 5.781 10.11 6.43 2.191.503 4.171.755 5.935.755 3.593 0 6.288-1.044 8.048-3.126 1.63-1.929 1.895-4.164 1.982-4.898C28.104 9.566 23.636 3 17.65 1.113a12.482 12.482 0 00-3.77-.581z" fill="#000"/><path d="M16.239 7.705a2.322 2.322 0 01-2.296-.524C12.58 5.896 9.81 4.157 6.009 6.137c0 0-4.757 2.328-3.028 8.625 0 0 1.028 4.417 9.007 6.212 7.98 1.796 10.695-1.367 10.695-1.367s4.933-4.632.536-10.117c0 0-2.71-3.135-6.98-1.785z" fill="#F1ECC3"/><path d="M9.576 8.726c1.356.654 2.173 1.944 2.064 3.211-.029.343-.122.645-.24.903a2.942 2.942 0 01-1.01 1.193c-.884.61-3.246 1.91-7.013 1.656 0 0-1.656-2.684-.255-6.287a6.415 6.415 0 012.75-1.174 6.443 6.443 0 013.704.498zM20.094 11.158a4.174 4.174 0 00-1.886.146c-.986.316-2.179 1.105-2.07 3.078.01.23.04.58.142.99.048.191.248.94.933 1.887 1.18 1.632 3.367 3.252 3.665 3.472a6.452 6.452 0 001.938-1.225c1.984-1.827 2.185-4.369 2.217-5.07a7 7 0 00-1.786-1.977 6.963 6.963 0 00-3.153-1.3z" fill="#595260"/><path d="M20.876 20.748l-.006-.005c-.412-.302-2.521-1.888-3.67-3.475-.613-.85-.849-1.55-.934-1.892a4.903 4.903 0 01-.142-.993c-.11-1.971 1.07-2.77 2.08-3.093a4.213 4.213 0 011.893-.146c.805.12 2.007.442 3.159 1.303a6.976 6.976 0 011.79 1.982l.003.004v.005a8.36 8.36 0 01-.378 2.116c-.377 1.186-.998 2.184-1.845 2.964a6.453 6.453 0 01-1.942 1.227l-.008.003zm-1.414-9.621c-.429 0-.852.064-1.249.191-.999.32-2.168 1.111-2.06 3.063.014.334.061.666.142.987.085.34.319 1.037.93 1.882 1.139 1.575 3.23 3.15 3.655 3.464a6.424 6.424 0 001.926-1.219c1.863-1.715 2.168-4.103 2.212-5.055a6.948 6.948 0 00-1.78-1.968 6.986 6.986 0 00-3.146-1.299c-.21-.03-.42-.046-.63-.046z" fill="#595260"/><path d="M27.276 11.162a18.662 18.662 0 00-3.745-5.718c-1.018-1.056-2.468-2.53-4.85-3.502-.309-.126-1.657-.661-3.537-.863-.704-.075-3.17-.285-6.122.697-3.333 1.107-5.474 3.13-6.5 4.253.466-.663 3.985-5.48 10.217-5.877C17.69-.164 21.153 2.479 22 3.165a17.319 17.319 0 012.673 2.875 17.604 17.604 0 012.603 5.122z" fill="#fff" opacity=".5"/><path d="M17.269 23.992c-2.618 0-4.928-.532-5.95-.767-1.376-.317-3.457-.795-5.447-1.787-1.1-.548-2.06-1.198-2.851-1.934a9.275 9.275 0 01-2.17-3.003c-.848-1.885-1.067-4.065-.635-6.303.372-1.93 1.257-3.698 2.632-5.255 1.107-1.255 2.241-2.04 2.786-2.417C6.22 2.12 11.53-1.376 17.8.6a13.929 13.929 0 014.406 2.345 15.489 15.489 0 013.339 3.617 14.892 14.892 0 011.998 4.36c.424 1.563.55 3.105.375 4.582-.092.773-.371 3.128-2.104 5.179-.966 1.142-2.227 2.001-3.75 2.553-1.251.454-2.695.706-4.29.748-.17.005-.338.007-.504.007zM13.873.524a13.94 13.94 0 00-4.19.667c-2.09.657-3.495 1.59-3.755 1.77-1.08.75-4.37 3.028-5.201 7.339-.411 2.13-.204 4.198.597 5.982 2.057 4.575 7.296 5.78 10.11 6.428 2.192.505 4.172.757 5.936.757 3.592 0 6.288-1.045 8.048-3.127 1.63-1.928 1.895-4.164 1.982-4.898.698-5.884-3.77-12.449-9.756-14.336a12.477 12.477 0 00-3.771-.582z" fill="#000"/><path d="M.377 10.459s-.652 8.88 12.273 11.51c12.924 2.628 14.825-5.583 14.825-5.583s-.737 9.187-12.928 7.15c-12.19-2.038-13.45-7.13-13.45-7.13S-.317 12.04.377 10.46z" fill="#020002" opacity=".25"/><path d="M10.158 11.967c.223-1.112-.348-2.168-1.274-2.359-.927-.19-1.858.556-2.08 1.668-.224 1.112.347 2.168 1.273 2.358.927.191 1.858-.555 2.081-1.667z" fill="#000"/><path d="M9.687 11.983c.07-.35-.085-.677-.346-.73-.262-.055-.53.185-.6.536-.07.35.085.677.346.73.261.055.53-.185.6-.536z" fill="#fff"/><path d="M21.014 14.507c.257-1.105-.281-2.178-1.202-2.398-.92-.22-1.874.497-2.13 1.602-.256 1.104.282 2.178 1.202 2.397.92.22 1.874-.497 2.13-1.601z" fill="#000"/><path d="M18.97 13.993c.08-.347-.064-.68-.324-.741-.26-.062-.535.17-.616.517-.08.348.065.68.324.742.26.062.535-.17.616-.518z" fill="#fff"/><path d="M11.891 13.49c-.224.468.479 1.558 1.419 1.76.872.187 1.901-.4 1.915-.907.016-.588-1.333-.981-1.43-1.009-.576-.162-1.684-.3-1.904.157z" fill="#000"/><path d="M13.232 15.289l.066.015c.632.136 1.301-.123 1.656-.42.204-.171.32-.364.324-.541.017-.625-1.317-1.02-1.469-1.063-.46-.13-1.708-.35-1.965.186-.081.168-.059.409.062.677.2.444.697.982 1.326 1.146zm.473-1.921l.075.02c.487.138 1.404.514 1.392.954-.004.144-.104.305-.283.455-.336.282-.97.526-1.567.398-.626-.134-1.123-.665-1.32-1.101-.105-.234-.128-.444-.064-.579.182-.378 1.117-.316 1.767-.147z" fill="#000"/><path d="M13.726 14.546c-.08.394-.272.768-.548 1.06a2.104 2.104 0 01-.471.371 1.972 1.972 0 01-.416.174l-.073.018-.074.015a1.557 1.557 0 01-.598-.006 1.441 1.441 0 01-.534-.235 1.661 1.661 0 01-.394-.396 1.838 1.838 0 01-.141-.233 1.494 1.494 0 01-.102-.248c.117.132.243.249.375.351.133.1.273.185.417.244a1.204 1.204 0 00.861.035c.274-.091.514-.274.695-.502.183-.227.302-.5.367-.787l.636.14z" fill="#000"/><path d="M13.736 14.557a1.891 1.891 0 00-.091.868c.02.146.058.29.115.425.058.135.134.263.23.373.095.11.208.206.338.276.129.07.273.116.427.14.154.022.317.022.482.003.164-.02.332-.056.498-.11a1.77 1.77 0 01-.453.284c-.166.07-.346.12-.536.133a1.422 1.422 0 01-.575-.079 1.609 1.609 0 01-.512-.303 1.874 1.874 0 01-.506-.74 2.237 2.237 0 01-.034-1.482l.617.212z" fill="#000"/><path d="M14.229 13.89c.027-.116-.223-.276-.56-.356-.335-.08-.63-.05-.656.066-.027.116.223.276.559.356.336.08.63.05.657-.066z" fill="#fff"/></svg>