<svg width="16" height="16" viewBox="0 0 16 16" fill="none" xmlns="http://www.w3.org/2000/svg"><g clip-path="url(#clip0_23_3044)"><mask id="path-1-inside-1_23_3044" fill="#fff"><path d="M16 6a2 2 0 10-2.667 1.877v2.79a4 4 0 01-8 0v-.054a4.67 4.67 0 004-4.613V3.333A3.337 3.337 0 006 0a.667.667 0 100 1.333 2 2 0 012 2V6a3.333 3.333 0 11-6.667 0V3.333a2 2 0 012-2 .667.667 0 100-1.333A3.337 3.337 0 000 3.333V6a4.67 4.67 0 004 4.613v.054a5.333 5.333 0 1010.667 0v-2.79A2 2 0 0016 6zm-2 .667a.667.667 0 110-1.334.667.667 0 010 1.334z"/></mask><path d="M16 6a2 2 0 10-2.667 1.877v2.79a4 4 0 01-8 0v-.054a4.67 4.67 0 004-4.613V3.333A3.337 3.337 0 006 0a.667.667 0 100 1.333 2 2 0 012 2V6a3.333 3.333 0 11-6.667 0V3.333a2 2 0 012-2 .667.667 0 100-1.333A3.337 3.337 0 000 3.333V6a4.67 4.67 0 004 4.613v.054a5.333 5.333 0 1010.667 0v-2.79A2 2 0 0016 6zm-2 .667a.667.667 0 110-1.334.667.667 0 010 1.334z" fill="#7C7B88"/><path d="M13.333 7.877h21.334V-7.207l-14.222-5.029-7.112 20.113zm0 2.79h21.334-21.334zm-8 0H-16 5.333zm0-.054L2.27-10.499-16-7.849v18.462H5.333zm4-4.613l21.334.04V6H9.333zm0-2.667h21.334v-.025l-21.334.025zM6 0l.026-21.333H6V0zm-.667.667h21.334H5.333zM6 1.333v21.334V1.333zm-1.333 8v21.334V9.333zm-3.334-6H-20 1.333zm2-3.333v-21.333h-.025L3.333 0zM0 3.333l-21.333-.025v.025H0zM0 6h-21.333v.04L0 6zm4 4.613h21.333V-7.848l-18.27-2.65L4 10.612zm0 .054h-21.333H4zM9.333 16v21.333V16zm5.334-5.333H36 14.667zm0-2.79L7.556-12.236-6.667-7.208V7.877h21.334zm22.666-1.789a23.334 23.334 0 00-3.355-12.152L-2.553 15.98a19.333 19.333 0 01-2.78-10.068l42.666.176zM33.978-6.064a23.333 23.333 0 00-9.187-8.633L5.059 23.133a19.334 19.334 0 01-7.612-7.152l36.53-22.045zm-9.187-8.633a23.333 23.333 0 00-12.337-2.593l2.827 42.573a19.334 19.334 0 01-10.222-2.15l19.732-37.83zM12.454-17.29A23.333 23.333 0 00.568-13.088L25.13 21.8a19.334 19.334 0 01-9.848 3.483L12.454-17.29zM.568-13.088a23.334 23.334 0 00-7.965 9.772l39.126 17.02a19.334 19.334 0 01-6.6 8.096L.57-13.088zm-7.965 9.772a23.333 23.333 0 00-1.718 12.49l42.268-5.818a19.334 19.334 0 01-1.424 10.348L-7.397-3.316zm-1.718 12.49a23.334 23.334 0 005.029 11.56L28.986-6.223a19.334 19.334 0 014.167 9.579L-9.115 9.173zm5.029 11.56A23.333 23.333 0 006.221 27.99l14.223-40.226a19.334 19.334 0 018.541 6.013L-4.086 20.734zM-8 7.877v2.79h42.667v-2.79H-8zm0 2.79C-8 6.07-6.174 1.66-2.923-1.59l30.17 30.17a25.333 25.333 0 007.42-17.913H-8zM-2.923-1.59A17.333 17.333 0 019.333-6.667V36a25.333 25.333 0 0017.914-7.42L-2.923-1.59zM9.333-6.667c4.597 0 9.006 1.827 12.257 5.077L-8.58 28.58A25.333 25.333 0 009.333 36V-6.667zM21.59-1.59a17.333 17.333 0 015.077 12.257H-16A25.333 25.333 0 00-8.58 28.58L21.59-1.59zm5.077 12.257v-.054H-16v.054h42.667zM8.397 31.726a26.004 26.004 0 0015.913-8.7L-7.927-4.924c2.62-3.022 6.24-5 10.197-5.575l6.127 42.225zm15.913-8.7a26.004 26.004 0 006.357-16.985L-12 5.959c.008-3.999 1.453-7.862 4.073-10.884L24.31 23.026zM30.667 6V3.333H-12V6h42.667zm0-2.692a24.671 24.671 0 00-7.226-17.415l-30.17 30.17A17.996 17.996 0 01-12 3.358l42.667-.051zM23.44-14.107a24.67 24.67 0 00-17.415-7.226l-.052 42.666a17.996 17.996 0 01-12.703-5.27l30.17-30.17zM6-21.333A22 22 0 00-9.556-14.89l30.17 30.17A20.666 20.666 0 016 21.333v-42.666zM-9.556-14.89A22 22 0 00-16 .667h42.667a20.666 20.666 0 01-6.054 14.613l-30.17-30.17zM-16 .667a22 22 0 006.444 15.556l30.17-30.17A20.667 20.667 0 0126.666.667H-16zm6.444 15.556A22 22 0 006 22.667V-20a20.667 20.667 0 0114.613 6.053l-30.17 30.17zM6 22.667a19.333 19.333 0 01-13.67-5.663l30.17-30.17A23.333 23.333 0 006-20v42.667zm-13.67-5.663a19.334 19.334 0 01-5.663-13.67h42.666a23.333 23.333 0 00-6.834-16.5l-30.17 30.17zm-5.663-13.67V6h42.666V3.333h-42.666zm0 2.666A18 18 0 01-8.061-6.728l30.17 30.17A24.667 24.667 0 0029.333 6h-42.666zm5.272-12.728A18 18 0 014.667-12v42.667a24.667 24.667 0 0017.442-7.225l-30.17-30.17zM4.667-12a18 18 0 0112.728 5.272l-30.17 30.17a24.667 24.667 0 0017.442 7.225V-12zm12.728 5.272A18 18 0 0122.667 6H-20a24.667 24.667 0 007.225 17.442l30.17-30.17zM22.667 6V3.333H-20V6h42.667zm0-2.667a19.333 19.333 0 01-5.663 13.671l-30.17-30.17A23.333 23.333 0 00-20 3.334h42.667zm-5.663 13.671a19.333 19.333 0 01-13.67 5.663V-20a23.333 23.333 0 00-16.5 6.834l30.17 30.17zm-13.67 5.663a22 22 0 0015.556-6.444l-30.17-30.17A20.667 20.667 0 013.333-20v42.667zm15.556-6.444A22 22 0 0025.333.667h-42.666a20.667 20.667 0 016.053-14.614l30.17 30.17zM25.333.667A22 22 0 0018.89-14.89l-30.17 30.17A20.666 20.666 0 01-17.333.667h42.666zM18.89-14.89a22 22 0 00-15.557-6.443v42.666A20.666 20.666 0 01-11.28 15.28l30.17-30.17zM3.308-21.333a24.67 24.67 0 00-17.416 7.225l30.17 30.17A17.996 17.996 0 013.36 21.333l-.051-42.666zm-17.416 7.225a24.67 24.67 0 00-7.225 17.416l42.666.05a17.996 17.996 0 01-5.27 12.704l-30.17-30.17zm-7.225 17.441V6h42.666V3.333h-42.666zm0 2.708a26.004 26.004 0 006.356 16.985L17.26-4.924a16.663 16.663 0 014.073 10.883l-42.666.082zm6.356 16.985a26.004 26.004 0 0015.914 8.7L7.063-10.5A16.663 16.663 0 0117.26-4.925l-32.237 27.951zm-2.356-12.413v.054h42.666v-.054h-42.666zm0 .054c0 7.072 2.81 13.855 7.81 18.856l30.17-30.17a16 16 0 014.686 11.314h-42.666zm7.81 18.856a26.667 26.667 0 0018.856 7.81V-5.333A16 16 0 0120.647-.647l-30.17 30.17zm18.856 7.81c7.073 0 13.856-2.81 18.857-7.81L-1.98-.647A16 16 0 019.333-5.333v42.666zm18.857-7.81c5-5.001 7.81-11.784 7.81-18.856H-6.667A16 16 0 01-1.98-.647l30.17 30.17zM36 10.667v-2.79H-6.667v2.79H36zM21.778 27.99a23.334 23.334 0 0011.246-8.488L-1.762-5.203a19.333 19.333 0 019.318-7.033l14.222 40.227zm11.246-8.488a23.335 23.335 0 004.31-13.415l-42.667-.176a19.333 19.333 0 013.57-11.115l34.787 24.706zM14-14.667c4.087 0 8.083 1.212 11.482 3.483L1.777 24.292A22 22 0 0014 28v-42.667zm11.482 3.483a20.667 20.667 0 017.611 9.275L-6.325 14.42a22 22 0 008.102 9.873l23.705-35.476zm7.611 9.275a20.667 20.667 0 011.177 11.94L-7.577 1.709a22 22 0 001.252 12.711L33.094-1.909zm1.177 11.94a20.666 20.666 0 01-5.657 10.582l-30.17-30.17a22 22 0 00-6.02 11.265l41.847 8.324zm-5.657 10.582a20.667 20.667 0 01-10.581 5.657L9.708-15.577a22 22 0 00-11.264 6.02l30.17 30.17zM18.032 26.27a20.667 20.667 0 01-11.94-1.177l16.327-39.418a22 22 0 00-12.711-1.252l8.324 41.847zm-11.94-1.177a20.667 20.667 0 01-9.276-7.611L32.292-6.223a22 22 0 00-9.873-8.102L6.091 25.094zm-9.276-7.611A20.667 20.667 0 01-6.667 6H36a22 22 0 00-3.708-12.223L-3.184 17.482zM-6.667 6A20.667 20.667 0 01-.614-8.614l30.17 30.17A22 22 0 0036 6H-6.667zM-.614-8.614A20.667 20.667 0 0114-14.667V28a22 22 0 0015.556-6.444L-.614-8.614z" fill="#7C7B88" mask="url(#path-1-inside-1_23_3044)"/></g><defs><clipPath id="clip0_23_3044"><path fill="#fff" d="M0 0h16v16H0z"/></clipPath></defs></svg>