<svg width="16" height="16" viewBox="0 0 16 16" fill="none" xmlns="http://www.w3.org/2000/svg"><g id="fi-rr-stopwatch" clip-path="url(#clip0_5527_655)"><g id="Vector"><mask id="path-1-inside-1_5527_655" fill="#fff"><path d="M9.333 8.667a1.333 1.333 0 11-2-1.149V4.667a.667.667 0 111.334 0v2.851a1.33 1.33 0 01.666 1.149zm4.04-4.974a7.333 7.333 0 11-10.746 0l-.448-.498a2.448 2.448 0 01-.846.138.667.667 0 110-1.333C1.857 2 2 1.857 2 1.333a.667.667 0 011.333 0c.004.325-.06.646-.186.945l.47.523a7.282 7.282 0 013.716-1.434v-.7a.667.667 0 111.334 0v.7A7.282 7.282 0 0112.383 2.8l.47-.523a2.342 2.342 0 01-.186-.944.667.667 0 011.333 0c0 .524.143.667.667.667a.667.667 0 110 1.333 2.448 2.448 0 01-.846-.138l-.448.498zM14 8.667a6 6 0 10-6 6 6.007 6.007 0 006-6z"/></mask><path d="M9.333 8.667a1.333 1.333 0 11-2-1.149V4.667a.667.667 0 111.334 0v2.851a1.33 1.33 0 01.666 1.149zm4.04-4.974a7.333 7.333 0 11-10.746 0l-.448-.498a2.448 2.448 0 01-.846.138.667.667 0 110-1.333C1.857 2 2 1.857 2 1.333a.667.667 0 011.333 0c.004.325-.06.646-.186.945l.47.523a7.282 7.282 0 013.716-1.434v-.7a.667.667 0 111.334 0v.7A7.282 7.282 0 0112.383 2.8l.47-.523a2.342 2.342 0 01-.186-.944.667.667 0 011.333 0c0 .524.143.667.667.667a.667.667 0 110 1.333 2.448 2.448 0 01-.846-.138l-.448.498zM14 8.667a6 6 0 10-6 6 6.007 6.007 0 006-6z" fill="#6F727A"/><path d="M7.333 7.518L18 25.993l10.667-6.158V7.518H7.333zm1.334 0h-21.334V19.86l10.7 6.152L8.666 7.518zm4.706-3.825l-15.86-14.268-13.041 14.497 13.27 14.288L13.373 3.694zM8 16.017V37.35 16.016zM2.627 3.693L18.258 18.21l13.27-14.289-13.041-14.497L2.627 3.693zm-.448-.498l15.86-14.268L8.52-21.654l-13.425 4.726L2.18 3.195zm-.846.138l.284-21.331L1.475-18h-.142V3.333zm-.666-.666h-21.334H.667zM1.333 2v-21.333V2zM2.667.667v-21.334V.667zm.666.666H-18v.128l.002.128 21.331-.256zm-.186.945l-19.632-8.35-5.324 12.518 9.103 10.108L3.147 2.278zm.47.523l-15.853 14.275L.837 31.593l15.608-11.747L3.617 2.801zm3.716-1.434l1.942 21.245 19.392-1.772V1.367H7.333zM8 0v-21.333V0zm.667 1.367h-21.334v19.476l19.395 1.77L8.667 1.366zM12.383 2.8L-.442 19.848 15.166 31.59l13.07-14.514L12.382 2.8zm.47-.523l15.853 14.276L37.81 6.445 32.485-6.072l-19.632 8.35zm-.186-.944l21.331.25.002-.125v-.125H12.667zm.666-.666v-21.334V.667zM14.667 2v-21.333V2zm0 1.333V-18h-.142l-.142.002.284 21.331zm-.846-.138l7.084-20.123L7.48-21.654l-9.519 10.58 15.86 14.269zM8 14.667V36h.024L8 14.667zm-20-5.904A20 20 0 01-9.36-1.259l37.035 21.187A22.667 22.667 0 0030.666 8.57L-12 8.763zm2.64-10.022a20 20 0 017.301-7.355L19.4 28.264a22.666 22.666 0 008.275-8.336L-9.36-1.259zm7.301-7.355a20 20 0 0110.002-2.713l.121 42.666A22.666 22.666 0 0019.4 28.264L-2.06-8.614zm10.002-2.713A20 20 0 0117.961-8.67L-3.29 28.328A22.667 22.667 0 008.064 31.34l-.12-42.666zM17.961-8.67a20 20 0 017.342 7.313L-11.61 20.04a22.666 22.666 0 008.322 8.29l21.25-37zm7.342 7.313A20 20 0 0128 8.65l-42.667.048A22.667 22.667 0 00-11.61 20.04L25.303-1.357zM28 8.65a20 20 0 01-2.674 10.013L-11.636-2.65a22.667 22.667 0 00-3.03 11.348L28 8.648zm-2.674 10.013A20 20 0 0118 25.993l-21.334-36.95a22.666 22.666 0 00-8.302 8.308l36.962 21.312zm3.34-11.145V4.667H-14v2.851h42.667zm0-2.851a20.667 20.667 0 01-6.053 14.613l-30.17-30.17A22 22 0 00-14 4.667h42.667zM22.614 19.28A20.667 20.667 0 018 25.333v-42.666A22 22 0 00-7.556-10.89l30.17 30.17zM8 25.333A20.667 20.667 0 01-6.614 19.28l30.17-30.17A22 22 0 008-17.333v42.666zM-6.614 19.28a20.667 20.667 0 01-6.053-14.613H30a22 22 0 00-6.444-15.557l-30.17 30.17zm-6.053-14.613v2.851H30V4.667h-42.667zm10.7 21.345a20.005 20.005 0 01-7.33-7.3L27.605-2.706a22.661 22.661 0 00-8.304-8.27L-1.968 26.012zm-7.33-7.3A20.004 20.004 0 01-12 8.726l42.666-.12a22.662 22.662 0 00-3.061-11.312L-9.297 18.712zm7.039-.502a14 14 0 01-3.543-7.177l42.06-7.162a28.666 28.666 0 00-7.254-14.696L-2.258 18.21zm-3.543-7.177a14 14 0 01.968-7.945l39.11 17.052A28.667 28.667 0 0036.26 3.872l-42.061 7.162zm.968-7.945A14 14 0 01.33-3.03l23.376 35.694A28.666 28.666 0 0034.278 20.14L-4.833 3.087zM.33-3.03A14 14 0 018-5.317V37.35c5.58 0 11.038-1.629 15.706-4.685L.33-3.03zM8-5.317a14 14 0 017.67 2.288L-7.706 32.665A28.667 28.667 0 008 37.35V-5.317zm7.67 2.288a14 14 0 015.163 6.117l-39.11 17.052A28.667 28.667 0 00-7.707 32.666L15.67-3.03zm5.163 6.117a14 14 0 01.968 7.945L-20.26 3.871a28.668 28.668 0 001.982 16.27L20.833 3.087zm.968 7.945a14 14 0 01-3.543 7.178l-31.263-29.036A28.667 28.667 0 00-20.26 3.87l42.061 7.162zm-3.314-21.608l-.448-.498-31.72 28.535.447.498 31.72-28.535zm-23.392-6.353a18.885 18.885 0 016.522-1.07L1.05 24.665a23.782 23.782 0 008.212-1.347L-4.905-16.928zM1.333-18a20.667 20.667 0 0114.614 6.053l-30.17 30.17a22 22 0 0015.556 6.444V-18zm14.614 6.053A20.667 20.667 0 0122 2.667h-42.667a22 22 0 006.444 15.556l30.17-30.17zM22 2.667a20.666 20.666 0 01-6.053 14.613l-30.17-30.17a22 22 0 00-6.444 15.557H22zM15.947 17.28a20.666 20.666 0 01-14.614 6.053v-42.666a22 22 0 00-15.556 6.443l30.17 30.17zM1.333 23.333c.515 0 8.86.37 15.615-6.385 6.755-6.755 6.385-15.1 6.385-15.615h-42.666c0-.62.018-2.48.598-4.817a20.916 20.916 0 015.513-9.738 20.915 20.915 0 019.738-5.513 20.012 20.012 0 014.817-.598v42.666zm22-22a20.667 20.667 0 01-6.053 14.614l-30.17-30.17a22 22 0 00-6.443 15.556h42.666zM17.28 15.947A20.667 20.667 0 012.667 22v-42.667a22 22 0 00-15.557 6.444l30.17 30.17zM2.667 22a20.667 20.667 0 01-14.614-6.053l30.17-30.17a22 22 0 00-15.556-6.444V22zm-14.614-6.053A20.667 20.667 0 01-18 1.333h42.667a22 22 0 00-6.444-15.556l-30.17 30.17zm-6.052-14.358c-.031-2.631.484-5.24 1.514-7.66l39.263 16.699a23.674 23.674 0 001.887-9.55l-42.663.51zm5.293 14.965l.47.522L19.47-11.475l-.47-.523-31.706 28.552zm29.151 3.292a14.051 14.051 0 01-7.17 2.766l-3.883-42.49a28.615 28.615 0 00-14.603 5.633l25.656 34.091zM28.667 1.367v-.7H-14v.7h42.667zm0-.7a20.667 20.667 0 01-6.054 14.613l-30.17-30.17A22 22 0 00-14 .667h42.667zM22.613 15.28A20.666 20.666 0 018 21.333v-42.666A22 22 0 00-7.556-14.89l30.17 30.17zM8 21.333A20.666 20.666 0 01-6.614 15.28l30.17-30.17A22 22 0 008-21.333v42.666zM-6.614 15.28A20.667 20.667 0 01-12.667.667H30a22 22 0 00-6.444-15.557l-30.17 30.17zM-12.667.667v.7H30v-.7h-42.667zM6.728 22.612a14.051 14.051 0 01-7.17-2.764l25.65-34.096a28.615 28.615 0 00-14.603-5.63l-3.877 42.49zm21.507-5.536l.471-.523L-3-11.998l-.47.522 31.705 28.552zm4.25-23.148a18.992 18.992 0 011.514 7.655l-42.664-.5a23.675 23.675 0 001.887 9.544l39.263-16.7zM34 1.333a20.667 20.667 0 01-6.053 14.614l-30.17-30.17A22 22 0 00-8.667 1.333H34zm-6.053 14.614A20.667 20.667 0 0113.333 22v-42.667a22 22 0 00-15.556 6.444l30.17 30.17zM13.333 22A20.667 20.667 0 01-1.28 15.947l30.17-30.17a22 22 0 00-15.557-6.444V22zM-1.28 15.947A20.667 20.667 0 01-7.333 1.333h42.666a22 22 0 00-6.443-15.556l-30.17 30.17zM-7.333 1.333c0 .515-.37 8.86 6.385 15.615 6.755 6.755 15.1 6.385 15.615 6.385v-42.666c.62 0 2.48.018 4.817.598a20.915 20.915 0 019.738 5.513 20.915 20.915 0 015.513 9.738c.58 2.337.598 4.197.598 4.817H-7.333zm22 22A20.666 20.666 0 01.053 17.28l30.17-30.17a22 22 0 00-15.556-6.443v42.666zM.053 17.28A20.667 20.667 0 01-6 2.667h42.667a22 22 0 00-6.444-15.557L.053 17.28zM-6 2.667A20.667 20.667 0 01.053-11.947l30.17 30.17a22 22 0 006.444-15.556H-6zM.053-11.947A20.667 20.667 0 0114.667-18v42.667a22 22 0 0015.556-6.444L.053-11.947zm14.33-6.051c2.22-.03 4.428.332 6.522 1.07L6.738 23.318a23.782 23.782 0 008.212 1.347l-.567-42.663zm-16.422 6.925l-.448.498 31.72 28.535.448-.498-31.72-28.535zm37.372 19.74c0-5.406-1.603-10.691-4.606-15.186L-4.75 17.185a15.333 15.333 0 01-2.584-8.518h42.666zM30.727-6.52A27.333 27.333 0 0018.46-16.586L2.132 22.833a15.333 15.333 0 01-6.881-5.648L30.727-6.519zM18.46-16.586a27.334 27.334 0 00-15.793-1.556l8.324 41.847a15.333 15.333 0 01-8.859-.872L18.46-16.586zM2.667-18.142a27.333 27.333 0 00-13.995 7.481l30.17 30.17a15.334 15.334 0 01-7.85 4.196L2.666-18.142zm-13.995 7.481a27.333 27.333 0 00-7.48 13.995l41.847 8.324a15.334 15.334 0 01-4.197 7.851l-30.17-30.17zm-7.48 13.995a27.334 27.334 0 001.555 15.793l39.42-16.328a15.333 15.333 0 01.872 8.86l-41.847-8.325zm1.555 15.793A27.333 27.333 0 00-7.186 31.394L16.52-4.083A15.333 15.333 0 0122.166 2.8l-39.419 16.328zm10.067 12.267A27.334 27.334 0 008 36V-6.667c3.033 0 5.997.9 8.519 2.584L-7.186 31.394zM8.024 36a27.34 27.34 0 0019.302-8.008l-30.17-30.17a15.327 15.327 0 0110.82-4.489L8.024 36zm19.302-8.008A27.34 27.34 0 0035.333 8.69l-42.666-.047a15.327 15.327 0 014.489-10.82l30.17 30.17z" fill="#6F727A" mask="url(#path-1-inside-1_5527_655)"/></g></g><defs><clipPath id="clip0_5527_655"><path fill="#fff" d="M0 0h16v16H0z"/></clipPath></defs></svg>