<svg width="16" height="16" viewBox="0 0 16 16" fill="none" xmlns="http://www.w3.org/2000/svg"><g clip-path="url(#clip0_23_3054)"><mask id="path-1-inside-1_23_3054" fill="#fff"><path d="M15.333 7.333a.667.667 0 00-.666.667 6.69 6.69 0 11-1.934-4.68.575.575 0 01-.066.013h-2a.667.667 0 100 1.334h2a2 2 0 002-2v-2a.667.667 0 00-1.334 0v1.376A7.996 7.996 0 1016 8a.666.666 0 00-.667-.667z"/></mask><path d="M15.333 7.333a.667.667 0 00-.666.667 6.69 6.69 0 11-1.934-4.68.575.575 0 01-.066.013h-2a.667.667 0 100 1.334h2a2 2 0 002-2v-2a.667.667 0 00-1.334 0v1.376A7.996 7.996 0 1016 8a.666.666 0 00-.667-.667z" fill="#7C7B88"/><path d="M14.667 8H-6.667v.075L14.667 8zm-1.934-4.68l5.614 20.58 35.24-9.612-25.686-25.97L12.733 3.318zm-.066.013v21.334h1.578l1.56-.233-3.138-21.1zm0 1.334V26 4.667zm2-2H36 14.667zM14 0v-21.333V0zm-.667 2.043L-.885 17.947l35.552 31.785V2.043H13.333zM16 8H-5.333v.012L16 8zm-.667-22A22 22 0 00-.223-7.556l30.17 30.17a20.667 20.667 0 01-14.614 6.053V-14zM-.223-7.556A22 22 0 00-6.667 8H36a20.666 20.666 0 01-6.053 14.613L-.223-7.557zm-6.444 15.63A14.644 14.644 0 01-3.365-1.24l33.046 26.99A28.023 28.023 0 0036 7.924l-42.667.15zm3.302-9.314a14.644 14.644 0 018.468-5.096l8.376 41.837a28.022 28.022 0 0016.202-9.752L-3.365-1.24zm8.468-5.096a14.644 14.644 0 019.776 1.444L-5.23 32.738a28.022 28.022 0 0018.708 2.763L5.103-6.336zm9.776 1.444a14.644 14.644 0 016.633 7.325L-17.923 18.72A28.023 28.023 0 00-5.229 32.74L14.879-4.892zm6.633 7.325a14.644 14.644 0 01.47 9.871L-18.821-.168a28.023 28.023 0 00.898 18.89l39.435-16.29zm.47 9.871a14.644 14.644 0 01-5.908 7.922l-23.59-35.553A28.022 28.022 0 00-18.82-.168l40.803 12.472zm-5.908 7.922a14.644 14.644 0 01-9.596 2.364l4.368-42.442a28.023 28.023 0 00-18.362 4.525l23.59 35.553zM6.478 22.59a14.645 14.645 0 01-8.912-4.269L27.9-11.683a28.022 28.022 0 00-17.055-8.17L6.478 22.592zm.641-39.852a20.752 20.752 0 012.408-.506l6.279 42.202a21.915 21.915 0 002.541-.533L7.12-17.262zM12.667-18h-2v42.667h2V-18zm-2 0A22 22 0 00-4.89-11.556l30.17 30.17a20.666 20.666 0 01-14.613 6.053V-18zM-4.89-11.556A22 22 0 00-11.333 4h42.666a20.667 20.667 0 01-6.053 14.613l-30.17-30.17zM-11.333 4A22 22 0 00-4.89 19.556l30.17-30.17A20.667 20.667 0 0131.333 4h-42.666zm6.443 15.556A22 22 0 0010.667 26v-42.667a20.666 20.666 0 0114.613 6.054l-30.17 30.17zM10.667 26h2v-42.667h-2V26zm2 0a23.333 23.333 0 0016.499-6.834l-30.17-30.17a19.333 19.333 0 0113.67-5.663V26zm16.499-6.834A23.333 23.333 0 0036 2.666H-6.667a19.333 19.333 0 015.663-13.67l30.17 30.17zM36 2.666v-2H-6.667v2H36zm0-2a22 22 0 00-6.444-15.556L-.614 15.28A20.667 20.667 0 01-6.667.667H36zM29.556-14.89A22 22 0 0014-21.333v42.666A20.666 20.666 0 01-.614 15.28l30.17-30.17zM14-21.333A22 22 0 00-1.556-14.89l30.17 30.17A20.666 20.666 0 0114 21.333v-42.666zM-1.556-14.89A22 22 0 00-8 .667h42.667a20.667 20.667 0 01-6.054 14.613l-30.17-30.17zM-8 .667v1.376h42.667V.667H-8zm35.552-14.528a29.33 29.33 0 00-18.106-7.428L7.348 21.326a13.337 13.337 0 01-8.233-3.379L27.552-13.86zM9.446-21.289A29.33 29.33 0 00-9.3-15.675l25.175 34.448a13.337 13.337 0 01-8.526 2.553L9.446-21.29zM-9.3-15.675A29.33 29.33 0 00-20.344.482l41.24 10.943a13.337 13.337 0 01-5.023 7.348L-9.3-15.675zM-20.344.482a29.33 29.33 0 001.579 19.506L20.177 2.555a13.338 13.338 0 01.718 8.87L-20.345.482zm1.579 19.506A29.33 29.33 0 00-5.268 34.16L14.04-3.889a13.338 13.338 0 016.138 6.444l-38.942 17.433zM-5.268 34.16a29.33 29.33 0 0019.407 2.526L5.214-5.038a13.337 13.337 0 018.825 1.149L-5.268 34.159zm19.407 2.526A29.33 29.33 0 0030.814 26.44L-2.369-.38a13.337 13.337 0 017.583-4.659l8.925 41.723zM30.814 26.44a29.33 29.33 0 006.52-18.453l-42.667.024A13.337 13.337 0 01-2.37-.38l33.183 26.82zM37.334 8A22 22 0 0030.89-7.556L.72 22.614A20.666 20.666 0 01-5.333 8h42.666zM30.89-7.556A22 22 0 0015.333-14v42.667A20.667 20.667 0 01.72 22.613l30.17-30.17z" fill="#7C7B88" mask="url(#path-1-inside-1_23_3054)"/><mask id="path-3-inside-2_23_3054" fill="#fff"><path d="M8 4a.667.667 0 00-.667.667V8c0 .177.07.346.196.471l2 2a.666.666 0 00.942-.942L8.667 7.724V4.667A.667.667 0 008 4z"/></mask><path d="M8 4a.667.667 0 00-.667.667V8c0 .177.07.346.196.471l2 2a.666.666 0 00.942-.942L8.667 7.724V4.667A.667.667 0 008 4z" fill="#7C7B88"/><path d="M7.333 8H-14v.005L7.333 8zm.196.471L22.614-6.614l-.003-.002L7.53 8.471zm2 2L-5.556 25.556l.13.131.134.13L9.528 10.47zm.942-.942l15.345-14.82-.128-.134-.132-.131L10.471 9.529zM8.667 7.724h-21.334v8.837l6.249 6.248L8.667 7.724zM8-17.333A22 22 0 00-7.556-10.89l30.17 30.17A20.667 20.667 0 018 25.333v-42.666zM-7.556-10.89A22 22 0 00-14 4.667h42.667a20.666 20.666 0 01-6.053 14.613l-30.17-30.17zM-14 4.667V8h42.667V4.667H-14zm0 3.338a22 22 0 006.446 15.554L22.611-6.616a20.667 20.667 0 016.056 14.611L-14 8.005zm6.444 15.551l2 2 30.17-30.17-2-2-30.17 30.17zm2.264 2.26a22 22 0 0015.475 6.175l-.37-42.665a20.667 20.667 0 0114.536 5.8l-29.64 30.69zm15.475 6.175a22 22 0 0015.365-6.443l-30.17-30.17a20.667 20.667 0 0114.434-6.052l.371 42.665zm15.365-6.443a22 22 0 006.443-15.365l-42.665-.37A20.667 20.667 0 01-4.622-4.623l30.17 30.17zm6.443-15.365a22 22 0 00-6.175-15.475L-4.874 24.35a20.667 20.667 0 01-5.8-14.537l42.665.371zm-6.435-15.74L23.752-7.36l-30.17 30.17 1.804 1.805 30.17-30.17zM30 7.725V4.667h-42.667v3.057H30zm0-3.057a22 22 0 00-6.444-15.557l-30.17 30.17a20.667 20.667 0 01-6.053-14.613H30zM23.556-10.89A22 22 0 008-17.333v42.666A20.667 20.667 0 01-6.613 19.28l30.17-30.17z" fill="#7C7B88" mask="url(#path-3-inside-2_23_3054)"/></g><defs><clipPath id="clip0_23_3054"><path fill="#fff" d="M0 0h16v16H0z"/></clipPath></defs></svg>