<svg width="16" height="16" viewBox="0 0 16 16" fill="none" xmlns="http://www.w3.org/2000/svg"><g id="fi-rr-time-quarter-past" clip-path="url(#clip0_5527_220)"><g id="Vector"><mask id="path-1-inside-1_5527_220" fill="#fff"><path d="M16 8a.666.666 0 11-1.333 0A6.674 6.674 0 008 1.333.667.667 0 118 0a8.009 8.009 0 018 8zm-5.333.667a.667.667 0 000-1.334H9.149a1.333 1.333 0 00-.482-.482V4.667a.667.667 0 00-1.334 0V6.85A1.33 1.33 0 109.15 8.667h1.518zM1.218 4.523a.667.667 0 100 1.333.667.667 0 000-1.333zM1.333 8A.667.667 0 100 8a.667.667 0 001.333 0zM8 14.667A.667.667 0 108 16a.667.667 0 000-1.334zM2.814 2.138a.667.667 0 100 1.333.667.667 0 000-1.333zM5.186.561a.667.667 0 100 1.333.667.667 0 000-1.333zm-3.968 9.583a.666.666 0 100 1.333.666.666 0 000-1.333zm1.596 2.385a.667.667 0 100 1.334.667.667 0 000-1.334zm2.372 1.577a.666.666 0 100 1.333.666.666 0 000-1.333zm9.596-3.962a.666.666 0 100 1.333.666.666 0 000-1.333zm-1.596 2.385a.667.667 0 100 1.334.667.667 0 000-1.334zm-2.372 1.577a.666.666 0 100 1.333.666.666 0 000-1.333z"/></mask><path d="M16 8a.666.666 0 11-1.333 0A6.674 6.674 0 008 1.333.667.667 0 118 0a8.009 8.009 0 018 8zm-5.333.667a.667.667 0 000-1.334H9.149a1.333 1.333 0 00-.482-.482V4.667a.667.667 0 00-1.334 0V6.85A1.33 1.33 0 109.15 8.667h1.518zM1.218 4.523a.667.667 0 100 1.333.667.667 0 000-1.333zM1.333 8A.667.667 0 100 8a.667.667 0 001.333 0zM8 14.667A.667.667 0 108 16a.667.667 0 000-1.334zM2.814 2.138a.667.667 0 100 1.333.667.667 0 000-1.333zM5.186.561a.667.667 0 100 1.333.667.667 0 000-1.333zm-3.968 9.583a.666.666 0 100 1.333.666.666 0 000-1.333zm1.596 2.385a.667.667 0 100 1.334.667.667 0 000-1.334zm2.372 1.577a.666.666 0 100 1.333.666.666 0 000-1.333zm9.596-3.962a.666.666 0 100 1.333.666.666 0 000-1.333zm-1.596 2.385a.667.667 0 100 1.334.667.667 0 000-1.334zm-2.372 1.577a.666.666 0 100 1.333.666.666 0 000-1.333z" fill="#6F727A" stroke="#6F727A" stroke-width="42.667" mask="url(#path-1-inside-1_5527_220)"/></g></g><defs><clipPath id="clip0_5527_220"><path fill="#fff" d="M0 0h16v16H0z"/></clipPath></defs></svg>