<svg width="17" height="16" viewBox="0 0 17 16" fill="none" xmlns="http://www.w3.org/2000/svg"><path fill-rule="evenodd" clip-rule="evenodd" d="M15.335 1.332a.667.667 0 00-.666.666v1.583a8 8 0 10-9.576 11.872.667.667 0 10.485-1.243 6.666 6.666 0 118.181-9.545h-1.757a.667.667 0 000 1.333h2a2 2 0 002-2v-2a.667.667 0 00-.666-.666zM8.67 4.665v3.333a.667.667 0 01-.667.667H5.335a.667.667 0 010-1.333h2V4.665a.667.667 0 011.334 0zm3.919 5.919a2 2 0 013.414 1.414v2a2 2 0 11-4 0v-2a2 2 0 01.586-1.414zm1.885 3.886a.666.666 0 00.196-.472v-2a.667.667 0 10-1.334 0v2a.667.667 0 001.138.472zm-4.6-4.46a.666.666 0 01.796.655v4.666a.667.667 0 01-1.334 0v-3.057l-.862.862a.666.666 0 01-.942-.943l2-2a.667.667 0 01.341-.182z" fill="#7C7B88"/></svg>