<svg width="16" height="16" viewBox="0 0 16 16" fill="none" xmlns="http://www.w3.org/2000/svg"><g id="fi-rr-user-time" clip-path="url(#clip0_5527_619)"><g id="Vector"><mask id="path-1-inside-1_5527_619" fill="#fff"><path d="M11.333 16a4.667 4.667 0 110-9.333 4.667 4.667 0 010 9.333zm0-8a3.333 3.333 0 100 6.667 3.333 3.333 0 000-6.667zm1.138 4.471a.666.666 0 000-.942l-.47-.472V10a.666.666 0 10-1.334 0v1.333c0 .177.07.347.195.472l.667.666a.666.666 0 00.942 0zM1.333 15.333a5.533 5.533 0 014.148-5.349.667.667 0 10-.295-1.301A6.809 6.809 0 000 15.333a.667.667 0 101.333 0zm4.316-8A3.667 3.667 0 115.65 0a3.667 3.667 0 010 7.333zm0-6A2.333 2.333 0 105.65 6a2.333 2.333 0 000-4.667z"/></mask><path d="M11.333 16a4.667 4.667 0 110-9.333 4.667 4.667 0 010 9.333zm0-8a3.333 3.333 0 100 6.667 3.333 3.333 0 000-6.667zm1.138 4.471a.666.666 0 000-.942l-.47-.472V10a.666.666 0 10-1.334 0v1.333c0 .177.07.347.195.472l.667.666a.666.666 0 00.942 0zM1.333 15.333a5.533 5.533 0 014.148-5.349.667.667 0 10-.295-1.301A6.809 6.809 0 000 15.333a.667.667 0 101.333 0zm4.316-8A3.667 3.667 0 115.65 0a3.667 3.667 0 010 7.333zm0-6A2.333 2.333 0 105.65 6a2.333 2.333 0 000-4.667z" fill="#6F727A"/><path d="M11.333 16v21.333h.025L11.333 16zm-2.592-.787L20.593-2.523 8.74 15.213zm-1.985-4.79l20.924 4.162-20.924-4.162zm6.363-3.401l8.164-19.71-8.164 19.71zm2.095 1.719L-2.524 20.593 15.214 8.74zM16 11.333l21.333.025v-.025H16zM11.333 8l.026-21.333h-.026V8zm-1.851.562L21.334 26.3 9.482 8.562zm-1.228 1.496l-19.71-8.164 19.71 8.164zm-.19 1.926l20.924-4.162-20.924 4.162zm2.62 2.619l4.161-20.924-4.162 20.924zm1.925-.19L4.445-5.297l8.164 19.71zm1.496-1.228L-3.633 1.333l17.738 11.852zm.562-1.852H36v-.025l-21.333.025zm-2.196 1.138L27.554 27.56l.005-.005L12.47 12.471zm0-.942L27.56-3.554l-.003-.002-15.085 15.085zm-.47-.472H-9.334v8.837l6.248 6.248L12 11.057zm-1.334.276h-21.334v.005l21.334-.005zm.195.472L25.947-3.28l-.002-.003-15.083 15.088zm.667.666L-3.556 27.556l.002.003L11.53 12.47zM1.333 15.333L-20 15.304V15.333H1.333zm4.148-5.349L.769-10.823l-.317.072-.315.082L5.481 9.984zm.238-.106l12.314 17.42L5.72 9.878zm.272-.432l21.026 3.61L5.99 9.446zm-.302-.677L-5.69 26.813 5.688 8.769zm-.243-.093l-3.61 21.026 3.61-21.026zm-.26.007L.475-12.124l-.187.042-.186.046L5.186 8.683zM1.44 11.108L-15.384-2.01 1.44 11.108zM0 15.333h21.333v-.12L0 15.334zm.195.472L15.28.72.195 15.805zm.943 0L-13.947.72 1.138 15.805zM5.65 7.333v21.334h.024L5.649 7.333zm-2.037-.618l11.852-17.738L3.612 6.715zM2.262 5.07l-19.71 8.164L2.262 5.07zm.795-3.996l15.085 15.085L3.057 1.074zM4.934.07l4.162 20.924L4.934.07zm2.119.21l-8.164 19.709L7.053.278zm1.645 1.35l17.738-11.853L8.698 1.63zm.618 2.037l21.333.023v-.023H9.316zm-4.963-1.94L-7.499-16.011 4.353 1.727zm-.86 1.047L-16.215-5.39l19.71 8.164zm-.132 1.348l-20.924 4.162L3.361 4.122zM4 5.317L-11.085 20.4 4 5.317zm1.194.638l4.162-20.923L5.194 5.955zM7.3 2.017L-7.786 17.102 7.3 2.017zm4.034-7.35c3.297 0 6.52.977 9.26 2.809L-3.111 32.95a26 26 0 0014.444 4.382V-5.333zm9.26 2.808a16.666 16.666 0 016.138 7.48l-39.418 16.328a26 26 0 009.576 11.669L20.593-2.525zm6.138 7.48a16.666 16.666 0 01.949 9.63L-14.167 6.26a26 26 0 001.48 15.022L26.73 4.955zm.949 9.63a16.667 16.667 0 01-4.561 8.534l-30.17-30.17A26 26 0 00-14.167 6.26l41.847 8.324zm-4.561 8.534a16.667 16.667 0 01-8.534 4.56L6.26-14.166A26 26 0 00-7.05-7.051l30.17 30.17zm-8.534 4.56a16.667 16.667 0 01-9.63-.948l16.328-39.419a26 26 0 00-15.022-1.48l8.324 41.848zm-9.63-.948a16.666 16.666 0 01-7.48-6.138L32.953-3.111a26 26 0 00-11.669-9.576L4.955 26.73zm-7.48-6.138a16.667 16.667 0 01-2.808-9.26h42.666A26 26 0 0032.952-3.11L-2.524 20.593zm-2.808-9.284A16.661 16.661 0 01-.453-.453l30.17 30.17a26.006 26.006 0 007.616-18.36l-42.666-.048zM-.453-.453a16.661 16.661 0 0111.762-4.88l.049 42.666a26.006 26.006 0 0018.359-7.616L-.453-.453zm11.786-12.88A24.666 24.666 0 00-2.37-9.176L21.334 26.3a18 18 0 01-10 3.033v-42.666zM-2.37-9.176a24.667 24.667 0 00-9.085 11.07l39.42 16.328a18 18 0 01-6.63 8.078L-2.371-9.176zm-9.085 11.07a24.668 24.668 0 00-1.403 14.252l41.847-8.324a18 18 0 01-1.025 10.4L-11.456 1.894zm-1.403 14.252a24.667 24.667 0 006.75 12.63l30.17-30.17a18 18 0 014.927 9.216l-41.847 8.324zm6.75 12.63a24.666 24.666 0 0012.63 6.75l8.324-41.847a18 18 0 019.216 4.926l-30.17 30.17zm12.63 6.75c4.785.952 9.745.463 14.252-1.404L4.445-5.296a18 18 0 0110.4-1.025L6.521 35.526zm14.252-1.404a24.667 24.667 0 0011.07-9.085L-3.633 1.333a18 18 0 018.078-6.63l16.328 39.42zm11.07-9.085A24.667 24.667 0 0036 11.333H-6.667a18 18 0 013.034-10l35.476 23.704zM36 11.307a24.67 24.67 0 00-7.226-17.414l-30.17 30.17a17.996 17.996 0 01-5.27-12.704L36 11.308zM28.774-6.106a24.67 24.67 0 00-17.415-7.226l-.051 42.666a17.996 17.996 0 01-12.704-5.27l30.17-30.17zM27.56 27.554A22 22 0 0034 12H-8.667c0-5.48 2.177-10.736 6.051-14.611L27.56 27.554zM34 12a22 22 0 00-6.441-15.554L-2.616 26.611A20.667 20.667 0 01-8.666 12H34zM27.556-3.556l-.471-.472-30.17 30.17.472.472 30.17-30.17zm5.777 14.613V10H-9.333v1.057h42.666zm0-1.057A22 22 0 0026.89-5.556l-30.17 30.17A20.666 20.666 0 01-9.333 10h42.666zM26.89-5.556A22 22 0 0011.333-12v42.667A20.667 20.667 0 01-3.28 24.613l30.17-30.17zM11.333-12A22 22 0 00-4.223-5.556l30.17 30.17a20.667 20.667 0 01-14.614 6.053V-12zM-4.223-5.556A22 22 0 00-10.667 10H32a20.666 20.666 0 01-6.053 14.613l-30.17-30.17zM-10.667 10v1.333H32V10h-42.667zm0 1.338A22 22 0 00-4.22 26.892L25.945-3.283A20.666 20.666 0 0132 11.33l-42.667.009zm6.444 15.552l.667.666 30.17-30.17-.667-.666-30.17 30.17zm.67.669A22 22 0 0012 33.999V-8.666c5.48 0 10.736 2.177 14.611 6.051L-3.554 27.56zM12 33.999a22 22 0 0015.554-6.44L-2.61-2.616A20.667 20.667 0 0112-8.666V34zm10.667-18.636a15.8 15.8 0 01-3.314 9.659L-14.366-1.121A26.867 26.867 0 00-20 15.304l42.667.059zm-3.314 9.659a15.8 15.8 0 01-8.529 5.615L.137-10.669a26.867 26.867 0 00-14.503 9.548l33.72 26.143zm-9.16 5.769a22 22 0 007.84-3.493l-24.63-34.84a20.667 20.667 0 017.366-3.28l9.423 41.613zm7.84-3.493a22 22 0 005.909-6.228L-12.146-1.692a20.667 20.667 0 015.55-5.85l24.63 34.84zm5.909-6.228a21.999 21.999 0 003.075-8.014l-42.052-7.22a20.666 20.666 0 012.889-7.528L23.942 21.07zm3.075-8.014a22 22 0 00-.226-8.581l-41.614 9.422a20.668 20.668 0 01-.212-8.06l42.052 7.219zm-.226-8.581a22 22 0 00-3.493-7.842l-34.84 24.63a20.667 20.667 0 01-3.28-7.366L26.79 4.475zm-3.493-7.842a22 22 0 00-6.228-5.908L-5.692 26.813a20.665 20.665 0 01-5.85-5.55l34.84-24.63zM17.07-9.275a22 22 0 00-8.014-3.075l-7.22 42.052a20.667 20.667 0 01-7.528-2.889L17.07-9.275zM9.056-12.35a21.999 21.999 0 00-8.581.226L9.897 29.49c-2.646.6-5.386.672-8.06.212l7.219-42.05zm-8.954.314A28.141 28.141 0 00-15.384-2.01l33.647 26.237A14.525 14.525 0 0110.27 29.4L.102-12.036zM-15.384-2.01a28.142 28.142 0 00-5.949 17.463l42.666-.24a14.525 14.525 0 01-3.07 9.014L-15.384-2.01zm-5.95 17.343A22 22 0 00-14.89 30.89L15.28.72a20.666 20.666 0 016.053 14.613h-42.666zm6.444 15.557A22 22 0 00.667 37.333V-5.333A20.667 20.667 0 0115.28.72l-30.17 30.17zM.667 37.333a22 22 0 0015.556-6.443L-13.947.72A20.667 20.667 0 01.667-5.333v42.666zm15.556-6.443a22 22 0 006.444-15.557H-20A20.667 20.667 0 01-13.947.72l30.17 30.17zM5.65-14c3.495 0 6.91 1.036 9.816 2.977L-8.24 24.453a25 25 0 0013.89 4.214V-14zm9.816 2.977a17.666 17.666 0 016.506 7.929l-39.419 16.328a24.999 24.999 0 009.208 11.22l23.704-35.477zm6.506 7.929a17.666 17.666 0 011.006 10.207L-18.87-1.21a25 25 0 001.422 14.445l39.42-16.328zm1.006 10.207a17.666 17.666 0 01-4.835 9.046l-30.17-30.17a25 25 0 00-6.842 12.8l41.847 8.324zm-4.835 9.046a17.668 17.668 0 01-9.046 4.835L.772-20.853a25 25 0 00-12.8 6.842l30.17 30.17zm-9.046 4.835c-3.427.681-6.98.332-10.207-1.006L15.217-19.43A25 25 0 00.771-20.853l8.324 41.847zm-10.207-1.006a17.666 17.666 0 01-7.929-6.506l35.476-23.705a25 25 0 00-11.22-9.207L-1.11 19.988zm-7.929-6.506a17.666 17.666 0 01-2.977-9.815h42.666a25 25 0 00-4.213-13.89L-9.04 13.482zm-2.977-9.839a17.663 17.663 0 015.173-12.47l30.17 30.17A25.004 25.004 0 0030.649 3.69l-42.666-.047zm5.173-12.47A17.663 17.663 0 015.626-14l.047 42.667a25.004 25.004 0 0017.653-7.324l-30.17-30.17zM5.649-20c-4.68 0-9.256 1.388-13.148 3.989l23.704 35.476A19 19 0 015.65 22.667V-20zm-13.148 3.989a23.667 23.667 0 00-8.717 10.62l39.42 16.329a19 19 0 01-6.999 8.527L-7.499-16.011zm-8.717 10.62a23.666 23.666 0 00-1.346 13.675L24.283-.04a19 19 0 01-1.08 10.978L-16.217-5.39zm-1.346 13.675A23.666 23.666 0 00-11.085 20.4l30.17-30.17a19 19 0 015.2 9.729l-41.848 8.324zm6.477 12.117A23.667 23.667 0 001.032 26.88l8.324-41.847a19.001 19.001 0 019.728 5.2l-30.17 30.17zM1.032 26.88c4.591.913 9.35.444 13.674-1.347L-1.622-13.887a19 19 0 0110.978-1.081L1.032 26.879zm13.674-1.347a23.667 23.667 0 0010.622-8.717L-10.15-6.889a19 19 0 018.527-6.998l16.328 39.419zm10.622-8.717a23.666 23.666 0 003.988-13.148H-13.35A19 19 0 01-10.148-6.89l35.475 23.704zm3.988-13.148a23.667 23.667 0 00-6.932-16.735l-30.17 30.17A19 19 0 01-13.35 3.667h42.667zm-6.932-16.735A23.667 23.667 0 005.65-20v42.667a19 19 0 01-13.435-5.565l30.17-30.17z" fill="#6F727A" mask="url(#path-1-inside-1_5527_619)"/></g></g><defs><clipPath id="clip0_5527_619"><path fill="#fff" d="M0 0h16v16H0z"/></clipPath></defs></svg>