<svg width="16" height="16" viewBox="0 0 16 16" fill="none" xmlns="http://www.w3.org/2000/svg"><g id="fi-rr-user" clip-path="url(#clip0_5455_35623)"><g id="Vector" fill="#4D515C"><path d="M8 8a4 4 0 100-8 4 4 0 000 8zm0-6.667a2.667 2.667 0 110 5.334 2.667 2.667 0 010-5.334zM8 9.334a6.007 6.007 0 00-6 6 .667.667 0 101.333 0 4.666 4.666 0 119.334 0 .667.667 0 101.333 0 6.007 6.007 0 00-6-6z"/></g></g><defs><clipPath id="clip0_5455_35623"><path fill="#fff" d="M0 0h16v16H0z"/></clipPath></defs></svg>