<svg width="16" height="16" viewBox="0 0 16 16" fill="none" xmlns="http://www.w3.org/2000/svg"><path fill-rule="evenodd" clip-rule="evenodd" d="M12 1.333h.667A3.337 3.337 0 0116 4.667v8A3.337 3.337 0 0112.667 16H3.333A3.337 3.337 0 010 12.667v-8a3.337 3.337 0 013.333-3.334H4V.667a.667.667 0 011.333 0v.666h5.334V.667a.667.667 0 111.333 0v.666zM1.92 3.253a2 2 0 00-.587 1.414v.666h13.334v-.666a2 2 0 00-2-2H3.333a2 2 0 00-1.414.585zm0 10.828a2 2 0 001.413.586h9.334a2 2 0 002-2v-6H1.333v6a2 2 0 00.586 1.414zM9 10a1 1 0 11-2 0 1 1 0 012 0zm-4.333 1a1 1 0 100-2 1 1 0 000 2zm7.666-1a1 1 0 11-2 0 1 1 0 012 0z" fill="#7C7B88"/></svg>