<svg width="20" height="21" viewBox="0 0 20 21" fill="none" xmlns="http://www.w3.org/2000/svg"><path d="M10 .5C4.478.5 0 5.09 0 10.754c0 4.53 2.865 8.373 6.839 9.729.5.095.683-.223.683-.493 0-.245-.01-1.053-.014-1.91-2.782.62-3.369-1.21-3.369-1.21-.455-1.184-1.11-1.5-1.11-1.5-.907-.636.068-.623.068-.623 1.004.073 1.533 1.057 1.533 1.057.892 1.568 2.34 1.114 2.91.852.09-.662.35-1.115.635-1.37-2.22-.26-4.556-1.14-4.556-5.068 0-1.12.39-2.034 1.03-2.752-.103-.258-.446-1.301.097-2.713 0 0 .84-.276 2.751 1.05A9.358 9.358 0 0110 5.46c.85.004 1.706.117 2.505.345 1.909-1.327 2.747-1.051 2.747-1.051.545 1.412.202 2.455.098 2.713.642.718 1.03 1.633 1.03 2.752 0 3.938-2.34 4.805-4.566 5.06.358.317.678.941.678 1.898 0 1.372-.012 2.476-.012 2.814 0 .273.18.592.687.492 3.971-1.358 6.833-5.2 6.833-9.728C20 5.09 15.523.5 10 .5z" fill="#000"/><path d="M3.58 15.244c-.02.047-.092.061-.158.03-.067-.032-.104-.096-.083-.143.02-.048.093-.062.16-.03.067.031.105.096.081.143zm.455.416c-.044.042-.13.022-.189-.044-.06-.066-.072-.154-.027-.197.045-.042.129-.022.19.044.06.067.072.155.025.197m.312.531c-.057.04-.15.003-.206-.081-.057-.085-.057-.185.001-.226.057-.04.148-.004.206.08.057.085.057.186-.001.227m.527.616c-.05.057-.159.042-.237-.037-.081-.076-.104-.184-.053-.241.051-.058.16-.041.24.036.08.076.104.185.05.242m.68.208c-.022.074-.125.107-.23.076-.104-.033-.173-.12-.152-.194.022-.075.126-.11.232-.076.104.032.172.118.15.194m.776.088c.002.078-.087.142-.196.144-.11.002-.2-.06-.201-.138 0-.078.087-.143.197-.144.11-.003.2.06.2.138zm.76-.03c.014.076-.062.154-.171.175-.108.02-.207-.027-.22-.103-.014-.078.064-.156.171-.176.11-.02.207.026.22.104z" fill="#000"/></svg>