<svg width="40" height="40" viewBox="0 0 40 40" fill="none" xmlns="http://www.w3.org/2000/svg"><path d="M36.5 20c0 8.008-7.387 14.5-16.5 14.5S3.5 28.008 3.5 20 10.887 5.5 20 5.5 36.5 11.992 36.5 20z" fill="#FEFFFF"/><path d="M35.5 20c0 7.456-6.94 13.5-15.5 13.5-8.56 0-15.5-6.044-15.5-13.5S11.44 6.5 20 6.5c8.56 0 15.5 6.044 15.5 13.5z" fill="#A1552B"/><path d="M8.25 15.417C8.917 14 11 11.167 14 9.917c2.324-.93 3.943-.051 4.413.204l.087.046c.2.1.4.227.6.353.3.19.65.48.9.48s.911-.401 1.362-.634c.14-.072.27-.14.388-.199l.087-.046c.47-.255 2.089-1.134 4.413-.204 3 1.25 5.083 4.083 5.75 5.5.75 1.75-.75 1.333-1.75.75-.75-.417-3-.417-3.5-.25-.25.083-2.9.822-2.25 3.75.5 2.25 4.25 3.25 6.25 3 .555-.07 1.5 0 1.5 1.5-.742 5.192-8.33 7.695-12.125 7.507C16.331 31.862 8.742 29.36 8 24.167c0-1.5.945-1.57 1.5-1.5 2 .25 5.75-.75 6.25-3 .595-2.678-1.593-3.5-2.143-3.707a1.449 1.449 0 01-.107-.043c-.5-.25-2.75-.167-3.5.25-.872.485-2.5 1-1.75-.75z" fill="#fff"/><path fill-rule="evenodd" clip-rule="evenodd" d="M12.82 14c-.431-.004-.913.118-1.619.429a.5.5 0 11-.402-.915c.76-.335 1.393-.52 2.029-.514.638.005 1.224.201 1.889.52a.5.5 0 01-.434.902c-.606-.291-1.037-.418-1.464-.422zM26.82 14c-.431-.004-.913.118-1.619.429a.5.5 0 11-.402-.915c.76-.335 1.393-.52 2.029-.514.638.005 1.224.201 1.889.52a.5.5 0 01-.433.902c-.607-.291-1.038-.418-1.465-.422z" fill="#25353E"/><path d="M14.5 19a2.5 2.5 0 11-5 0 2.5 2.5 0 015 0z" fill="#fff"/><path fill-rule="evenodd" clip-rule="evenodd" d="M12 21a2 2 0 10-1.338-3.487 1 1 0 11-.625 1.874A2 2 0 0012 21z" fill="#050505"/><path d="M30.5 19a2.5 2.5 0 11-5 0 2.5 2.5 0 015 0z" fill="#fff"/><path fill-rule="evenodd" clip-rule="evenodd" d="M28 21a2 2 0 10-1.338-3.487 1 1 0 11-.625 1.874A2 2 0 0028 21zM25.807 23.355a.5.5 0 01.088.702c-.526.675-1.415 1.17-2.417 1.503-1.014.338-2.204.532-3.402.565-1.198.032-2.424-.096-3.508-.42-1.078-.32-2.057-.846-2.705-1.638a.5.5 0 01.774-.634c.477.583 1.248 1.026 2.217 1.314.963.287 2.08.408 3.195.378 1.114-.03 2.206-.21 3.113-.513.92-.307 1.594-.72 1.943-1.169a.5.5 0 01.702-.088z" fill="#050505"/><path d="M22 26.5c-1.508.316-2.447.3-4.25 0 0 0 1.29 1.044 2.25 1 .872-.04 2-1 2-1z" fill="#2C3C43"/><path fill-rule="evenodd" clip-rule="evenodd" d="M20 19.5c-1.625.029-4.069 1.407-3.75 3C16.5 23.75 18 24 18 24h4c.966 0 2.25-.75 1.75-2S21.76 19.47 20 19.5zm-.5 3.5a.5.5 0 11-1 0 .5.5 0 011 0zm1.5.5a.5.5 0 100-1 .5.5 0 000 1z" fill="#2C3C43"/></svg>