<svg width="24" height="24" viewBox="0 0 24 24" fill="none" xmlns="http://www.w3.org/2000/svg"><g clip-path="url(#clip0_85_7107)"><path d="M6.76 10.03c0 .296.033.537.089.713.063.176.143.368.255.576.04.064.056.129.056.185 0 .08-.048.16-.152.24l-.503.336a.382.382 0 01-.207.072c-.08 0-.16-.04-.24-.112a2.477 2.477 0 01-.287-.376 6.197 6.197 0 01-.247-.473c-.623.737-1.405 1.105-2.347 1.105-.67 0-1.205-.192-1.596-.576-.391-.385-.59-.897-.59-1.538 0-.68.239-1.233.726-1.65.486-.416 1.133-.624 1.955-.624.271 0 .55.024.846.064.295.04.599.104.918.176v-.584c0-.609-.128-1.033-.375-1.282-.256-.248-.687-.368-1.301-.368-.28 0-.567.032-.862.104-.296.072-.583.16-.862.272a2.285 2.285 0 01-.28.105.488.488 0 01-.127.024c-.112 0-.168-.08-.168-.249v-.392c0-.128.016-.224.056-.28a.598.598 0 01.223-.169c.28-.144.615-.264 1.006-.36a4.824 4.824 0 011.245-.152c.95 0 1.644.216 2.091.649.44.432.663 1.089.663 1.97v2.594h.016zm-3.24 1.217c.264 0 .535-.048.822-.144.288-.096.543-.272.759-.512.127-.152.223-.32.271-.513.048-.192.08-.424.08-.696v-.337a6.646 6.646 0 00-.734-.136 5.995 5.995 0 00-.75-.048c-.535 0-.927.104-1.19.32-.263.217-.391.52-.391.921 0 .377.096.657.295.85.192.2.471.295.838.295zm6.41.865c-.144 0-.24-.024-.304-.08-.064-.048-.12-.16-.168-.312L7.583 5.53a1.407 1.407 0 01-.072-.32c0-.129.064-.2.192-.2h.782c.151 0 .255.023.311.08.064.047.112.16.16.312l1.34 5.3 1.246-5.3c.04-.16.087-.265.151-.313a.548.548 0 01.32-.08h.638c.152 0 .255.024.32.08.063.048.119.16.15.313l1.262 5.365 1.38-5.365c.049-.16.104-.265.16-.313a.52.52 0 01.312-.08h.742c.128 0 .2.064.2.2 0 .04-.008.08-.017.128a1.138 1.138 0 01-.055.2l-1.924 6.19c-.048.161-.104.265-.167.313a.51.51 0 01-.304.08h-.686c-.152 0-.256-.024-.32-.08-.063-.056-.12-.16-.151-.32l-1.237-5.165-1.23 5.157c-.04.16-.087.264-.151.32-.064.056-.176.08-.32.08H9.93zm10.255.216c-.415 0-.83-.048-1.229-.144-.399-.096-.71-.2-.918-.32-.127-.072-.215-.152-.247-.224a.568.568 0 01-.048-.224v-.409c0-.168.064-.248.184-.248.048 0 .096.008.143.024.048.016.12.048.2.08.271.12.567.216.878.28.32.064.63.096.95.096.503 0 .894-.088 1.165-.264a.863.863 0 00.415-.76.782.782 0 00-.216-.561c-.143-.152-.415-.288-.806-.417l-1.157-.36c-.583-.184-1.014-.456-1.277-.817a1.912 1.912 0 01-.399-1.161c0-.336.072-.633.215-.889.144-.256.336-.48.575-.657.24-.184.51-.32.83-.416.32-.096.655-.136 1.006-.136.175 0 .359.008.535.032.183.024.35.056.518.088.16.04.312.08.455.128.144.048.256.096.335.144a.69.69 0 01.24.2.433.433 0 01.072.265v.376c0 .168-.064.256-.184.256a.829.829 0 01-.303-.096 3.64 3.64 0 00-1.533-.312c-.454 0-.814.072-1.061.224-.247.152-.375.385-.375.713 0 .224.08.416.24.569.159.152.454.304.877.44l1.134.36c.574.184.99.44 1.237.77.247.327.367.704.367 1.12 0 .345-.072.657-.208.93a2.154 2.154 0 01-.582.704c-.248.2-.543.344-.886.448-.36.112-.735.168-1.142.168z" fill="#252F3E"/><path d="M21.694 16.22c-2.626 1.946-6.441 2.98-9.722 2.98-4.597 0-8.74-1.706-11.868-4.541-.248-.225-.024-.529.271-.353 3.384 1.97 7.559 3.164 11.877 3.164 2.913 0 6.113-.609 9.058-1.858.44-.2.815.288.384.608z" fill="#F90"/><path d="M22.787 14.97c-.335-.431-2.219-.207-3.073-.103-.255.032-.295-.192-.064-.36 1.5-1.058 3.967-.753 4.254-.4.288.36-.08 2.834-1.484 4.02-.216.183-.423.087-.327-.153.319-.793 1.03-2.579.694-3.003z" fill="#F90"/></g><defs><clipPath id="clip0_85_7107"><path fill="#fff" d="M0 0h24v24H0z"/></clipPath></defs></svg>