<svg width="24" height="24" viewBox="0 0 24 24" fill="none" xmlns="http://www.w3.org/2000/svg"><g clip-path="url(#clip0_85_7116)"><path d="M8.053.838h7.01L7.786 22.401a1.118 1.118 0 01-1.06.76H1.272A1.116 1.116 0 01.213 21.69l6.78-20.09a1.118 1.118 0 011.06-.761z" fill="url(#paint0_linear_85_7116)"/><path d="M18.24 15.301H7.123a.514.514 0 00-.352.891l7.144 6.668c.208.194.482.302.766.302h6.296l-2.737-7.86z" fill="#0078D4"/><path d="M8.052.838a1.109 1.109 0 00-1.061.775L.221 21.671a1.114 1.114 0 001.052 1.49H6.87a1.197 1.197 0 00.918-.78l1.35-3.979 4.823 4.498c.202.167.455.26.717.262h6.272l-2.75-7.86-8.019.001L15.089.838H8.052z" fill="url(#paint1_linear_85_7116)"/><path d="M17.007 1.597a1.116 1.116 0 00-1.058-.759H8.136a1.116 1.116 0 011.057.76l6.781 20.09a1.116 1.116 0 01-1.058 1.474h7.814a1.116 1.116 0 001.058-1.473L17.007 1.597z" fill="url(#paint2_linear_85_7116)"/></g><defs><linearGradient id="paint0_linear_85_7116" x1="10.608" y1="2.492" x2="3.327" y2="24.002" gradientUnits="userSpaceOnUse"><stop stop-color="#114A8B"/><stop offset="1" stop-color="#0669BC"/></linearGradient><linearGradient id="paint1_linear_85_7116" x1="12.882" y1="12.516" x2="11.198" y2="13.086" gradientUnits="userSpaceOnUse"><stop stop-opacity=".3"/><stop offset=".071" stop-opacity=".2"/><stop offset=".321" stop-opacity=".1"/><stop offset=".623" stop-opacity=".05"/><stop offset="1" stop-opacity="0"/></linearGradient><linearGradient id="paint2_linear_85_7116" x1="11.956" y1="1.865" x2="19.948" y2="23.157" gradientUnits="userSpaceOnUse"><stop stop-color="#3CCBF4"/><stop offset="1" stop-color="#2892DF"/></linearGradient><clipPath id="clip0_85_7116"><path fill="#fff" d="M0 0h24v24H0z"/></clipPath></defs></svg>