<svg width="16" height="16" viewBox="0 0 16 16" fill="none" xmlns="http://www.w3.org/2000/svg"><g clip-path="url(#clip0_5429_22945)"><path d="M14.894 6.432a2.703 2.703 0 01-.552-.492c.012-.262.065-.521.156-.767.173-.583.387-1.309-.026-1.876-.416-.573-1.177-.592-1.788-.607a2.62 2.62 0 01-.763-.082 2.59 2.59 0 01-.31-.694c-.204-.58-.458-1.303-1.139-1.524C9.813.175 9.22.583 8.698.94c-.21.168-.446.3-.698.392a2.483 2.483 0 01-.698-.392C6.78.582 6.187.176 5.528.39c-.68.22-.934.943-1.138 1.524a2.644 2.644 0 01-.307.691c-.25.067-.509.095-.767.084-.61.016-1.371.035-1.788.607-.413.569-.199 1.294-.026 1.877.09.245.143.502.157.762a2.61 2.61 0 01-.553.497C.613 6.808 0 7.276 0 8c0 .724.613 1.192 1.106 1.568.206.138.391.304.552.492a2.526 2.526 0 01-.157.767c-.172.583-.386 1.309.027 1.876.416.572 1.177.592 1.788.607.257-.01.514.018.763.082.137.215.242.449.31.694.205.58.458 1.303 1.139 1.524.12.04.246.06.373.06.512 0 .98-.321 1.401-.611.21-.168.446-.3.698-.392.252.092.488.224.698.392.522.359 1.115.764 1.775.551.68-.22.933-.943 1.138-1.524.068-.244.172-.477.307-.691.25-.067.508-.095.766-.085.611-.015 1.372-.034 1.788-.607.413-.568.199-1.293.027-1.876a2.596 2.596 0 01-.158-.762c.16-.191.346-.358.553-.497C15.387 9.192 16 8.724 16 8c0-.724-.613-1.192-1.106-1.568zm-3.923.373l-3.333 3.333a.666.666 0 01-.943 0L5.03 8.471a.667.667 0 11.942-.942l1.196 1.195 2.862-2.862a.667.667 0 11.942.943z" fill="#0D99FF"/></g><defs><clipPath id="clip0_5429_22945"><path fill="#fff" d="M0 0h16v16H0z"/></clipPath></defs></svg>