<svg width="16" height="16" viewBox="0 0 16 16" fill="none" xmlns="http://www.w3.org/2000/svg"><path d="M14 3.333c0 1.105-2.686 2-6 2s-6-.895-6-2m12 0c0-1.104-2.686-2-6-2s-6 .896-6 2m12 0v9.334c0 .53-.632 1.039-1.757 1.414-1.126.375-2.652.586-4.243.586-1.591 0-3.117-.211-4.243-.586C2.632 13.706 2 13.197 2 12.667V3.333M2 8c0 .53.632 1.04 1.757 1.414C4.883 9.79 6.41 10 8 10c1.591 0 3.117-.21 4.243-.586C13.368 9.04 14 8.53 14 8" stroke="#6F727A" stroke-width="1.5" stroke-linecap="round" stroke-linejoin="round"/></svg>