<svg width="24" height="24" viewBox="0 0 24 24" fill="none" xmlns="http://www.w3.org/2000/svg"><g clip-path="url(#clip0_85_7136)"><path d="M12.027 19.305h-4.67v-4.582h4.67v4.582zM7.357 22.9H3.82v-3.595h3.537V22.9zM3.82 19.305H.85v-2.961h2.97v2.96zm8.136 4.652v-4.652c4.952 0 8.772-4.864 6.862-10.01-.708-1.904-2.192-3.454-4.174-4.16C9.551 3.304 4.67 7.11 4.67 11.974H0C0 4.22 7.57-1.914 15.847.624a11.545 11.545 0 017.57 7.543 12.053 12.053 0 01-11.46 15.79z" fill="#0080FF"/></g><defs><clipPath id="clip0_85_7136"><path fill="#fff" d="M0 0h24v24H0z"/></clipPath></defs></svg>