<svg width="16" height="17" viewBox="0 0 16 17" fill="none" xmlns="http://www.w3.org/2000/svg"><g clip-path="url(#clip0_6017_6306)"><mask id="path-1-inside-1_6017_6306" fill="#fff"><path d="M9.288 3.167a2.047 2.047 0 012.045 2.045.667.667 0 001.334 0v-.045-.037a3.382 3.382 0 00-3.379-3.297h-.621v-.666a.667.667 0 10-1.334 0v.666h-.621a3.379 3.379 0 00-1.067 6.584l1.688.563v4.853h-.621a2.047 2.047 0 01-2.045-2.045.667.667 0 10-1.334 0V11.87a3.382 3.382 0 003.379 3.297h.621v.666a.667.667 0 101.334 0v-.666h.621a3.38 3.38 0 001.067-6.584L8.667 8.02V3.167h.621zm.647 6.68a2.046 2.046 0 01-.647 3.986h-.621V9.425l1.268.422zM7.333 7.575l-1.266-.422a2.045 2.045 0 01.645-3.986h.621v4.408z"/></mask><path d="M9.288 3.167a2.047 2.047 0 012.045 2.045.667.667 0 001.334 0v-.045-.037a3.382 3.382 0 00-3.379-3.297h-.621v-.666a.667.667 0 10-1.334 0v.666h-.621a3.379 3.379 0 00-1.067 6.584l1.688.563v4.853h-.621a2.047 2.047 0 01-2.045-2.045.667.667 0 10-1.334 0V11.87a3.382 3.382 0 003.379 3.297h.621v.666a.667.667 0 101.334 0v-.666h.621a3.38 3.38 0 001.067-6.584L8.667 8.02V3.167h.621zm.647 6.68a2.046 2.046 0 01-.647 3.986h-.621V9.425l1.268.422zM7.333 7.575l-1.266-.422a2.045 2.045 0 01.645-3.986h.621v4.408z" fill="#4D515C"/><path d="M9.288 3.167l.02-21.334h-.02V3.167zm2.045 2.045h21.334v-.02l-21.334.02zm1.334-.082H34v-.27l-.007-.268-21.326.538zM9.288 1.833L9.302-19.5h-.014V1.833zm-.621 0h-21.334v21.334H8.667V1.833zM8 .5v-21.333V.5zm-.667 1.333v21.334h21.334V1.833H7.333zm-.621 0V-19.5h-.023l.023 21.333zM5.645 8.417L-1.113 28.65l.005.002L5.645 8.417zm1.688.563h21.334V-6.39l-14.58-4.866L7.333 8.98zm0 4.853v21.334h21.334V13.833H7.333zm-.621 0l-.02 21.334h.02V13.833zm-2.045-2.045h-21.334v.02l21.334-.02zm-1.334.082H-18v.27l.007.268 21.326-.538zm3.379 3.297L6.698 36.5h.014V15.167zm.621 0h21.334V-6.167H7.333v21.334zm1.334 0V-6.167h-21.334v21.334H8.667zm.621 0V36.5h.023l-.023-21.333zm1.067-6.584l6.758-20.234-.005-.002-6.753 20.236zM8.667 8.02h-21.334v15.37l14.58 4.866L8.667 8.02zm0-4.853v-21.334h-21.334V3.167H8.667zm1.268 6.68L3.188 30.086l.01.003L9.935 9.847zm1.373 2.269l21.058 3.416-21.058-3.416zm-2.02 1.717L9.296-7.5h-.008v21.333zm-.621 0h-21.334v21.334H8.667V13.833zm0-4.408l6.746-20.239-28.08-9.36V9.425H8.667zm-1.334-1.85L.581 27.812l28.086 9.372V7.575H7.333zm-1.266-.422l6.752-20.237-.008-.002-.007-.003L6.067 7.153zm.645-3.986v-21.334h-.006l.006 21.334zm.621 0h21.334v-21.334H7.333V3.167zM9.267 24.5A19.286 19.286 0 01-4.35 18.851l30.17-30.17a23.38 23.38 0 00-16.51-6.848L9.267 24.5zM-4.35 18.851A19.286 19.286 0 01-10 5.233l42.667-.042a23.38 23.38 0 00-6.848-16.51l-30.17 30.17zM-10 5.212a22 22 0 006.444 15.556l30.17-30.17a20.667 20.667 0 016.053 14.614H-10zm6.444 15.556A22 22 0 0012 27.212v-42.667a20.667 20.667 0 0114.613 6.053l-30.17 30.17zM12 27.212a22 22 0 0015.556-6.444l-30.17-30.17A20.667 20.667 0 0112-15.455v42.667zm15.556-6.444A22 22 0 0034 5.212H-8.667A20.667 20.667 0 01-2.614-9.402l30.17 30.17zM34 5.212v-.045H-8.667v.045H34zm0-.045v-.001-.001-.001-.001-.001-.001-.001-.001-.001-.001-.001-.001-.001-.001-.001-.001-.001-.001-.001-.001-.001-.001-.001-.001-.001-.001-.001-.001-.001-.001-.001-.001-.001-.001-.001-.001-.001H-8.667V5.167H34zm-.007-.575a24.715 24.715 0 00-7.447-17.066L-3.25 18.064A17.951 17.951 0 01-8.66 5.668l42.653-1.076zm-7.447-17.066A24.715 24.715 0 009.302-19.5l-.028 42.667a17.952 17.952 0 01-12.525-5.103l29.797-30.538zM9.288-19.5h-.621v42.667h.621V-19.5zM30 1.833v-.666h-42.667v.666H30zm0-.666a22 22 0 00-6.444-15.557l-30.17 30.17a20.667 20.667 0 01-6.053-14.613H30zM23.556-14.39A22 22 0 008-20.833v42.666A20.666 20.666 0 01-6.614 15.78l30.17-30.17zM8-20.833A22 22 0 00-7.556-14.39l30.17 30.17A20.666 20.666 0 018 21.833v-42.666zM-7.556-14.39A22 22 0 00-14 1.167h42.667a20.666 20.666 0 01-6.054 14.613l-30.17-30.17zM-14 1.167v.666h42.667v-.666H-14zM7.333-19.5h-.621v42.667h.621V-19.5zm-.644 0a24.713 24.713 0 00-16 5.9l27.67 32.48a17.955 17.955 0 01-11.624 4.287L6.689-19.5zm-16 5.9a24.712 24.712 0 00-8.367 14.86l42.117 6.824a17.955 17.955 0 01-6.08 10.795L-9.31-13.599zm-8.367 14.86A24.712 24.712 0 00-14.43 18L22.08-4.08a17.955 17.955 0 012.36 12.164L-17.679 1.26zM-14.43 18A24.712 24.712 0 00-1.113 28.651l13.516-40.469a17.955 17.955 0 019.676 7.739L-14.43 18zm13.322 10.653l1.688.563 13.507-40.472-1.688-.563-13.507 40.472zM-14 8.98v4.853h42.667V8.98H-14zM7.333-7.5h-.621v42.667h.621V-7.5zm-.6 0A19.286 19.286 0 0120.35-1.851l-30.17 30.17a23.38 23.38 0 0016.51 6.848L6.733-7.5zM20.35-1.851A19.286 19.286 0 0126 11.767l-42.667.042a23.38 23.38 0 006.848 16.51l30.17-30.17zM26 11.788a22 22 0 00-6.444-15.556l-30.17 30.17a20.667 20.667 0 01-6.053-14.614H26zM19.556-3.768A22 22 0 004-10.212v42.667a20.667 20.667 0 01-14.614-6.053l30.17-30.17zM4-10.212a22 22 0 00-15.556 6.444l30.17 30.17A20.666 20.666 0 014 32.454v-42.667zm-15.556 6.444A22 22 0 00-18 11.788h42.667a20.667 20.667 0 01-6.054 14.613l-30.17-30.17zM-18 11.788v.045h42.667v-.045H-18zm0 .045V11.87h42.667v-.001-.001-.001-.001-.001-.001-.001-.001-.001-.001-.001-.001-.001-.001-.001-.001-.001-.001-.001-.001-.001-.001-.001-.001-.001-.001-.001-.001-.001-.001-.001-.001-.001-.001-.001-.001H-18zm.007.575a24.716 24.716 0 007.447 17.066L19.25-1.064a17.951 17.951 0 015.409 12.396l-42.653 1.076zm7.447 17.066A24.716 24.716 0 006.698 36.5l.028-42.667a17.951 17.951 0 0112.525 5.103l-29.797 30.538zM6.712 36.5h.621V-6.167h-.621V36.5zM-14 15.167v.666h42.667v-.666H-14zm0 .666A22 22 0 00-7.556 31.39l30.17-30.17a20.666 20.666 0 016.053 14.613H-14zm6.444 15.557A22 22 0 008 37.833V-4.833A20.667 20.667 0 0122.613 1.22l-30.17 30.17zM8 37.833a22 22 0 0015.556-6.443L-6.614 1.22A20.667 20.667 0 018-4.833v42.666zm15.556-6.443A22 22 0 0030 15.833h-42.667A20.667 20.667 0 01-6.614 1.22l30.17 30.17zM30 15.833v-.666h-42.667v.666H30zM8.667 36.5h.621V-6.167h-.621V36.5zm.644 0a24.713 24.713 0 0016-5.9L-2.36-1.88A17.955 17.955 0 019.265-6.166L9.311 36.5zm16-5.9a24.712 24.712 0 008.367-14.86L-8.439 8.916A17.955 17.955 0 01-2.36-1.879l27.67 32.478zm8.367-14.86A24.712 24.712 0 0030.43-1L-6.08 21.08A17.954 17.954 0 01-8.44 8.915l42.118 6.824zM30.43-1a24.712 24.712 0 00-13.317-10.651L3.597 28.818a17.954 17.954 0 01-9.676-7.739L30.43-1zM17.108-11.653l-1.688-.563L1.913 28.256l1.688.564 13.507-40.473zM30 8.02V3.167h-42.667V8.02H30zM8.667 24.5h.621v-42.667h-.621V24.5zm-5.47 5.589a19.288 19.288 0 01-10.409-8.313l36.5-22.095a23.378 23.378 0 00-12.616-10.075L3.198 30.089zm-10.409-8.313A19.288 19.288 0 01-9.75 8.7l42.116 6.833c.889-5.481-.202-11.1-3.078-15.85l-36.5 22.094zM-9.75 8.7A19.288 19.288 0 01-3.208-2.905l27.643 32.502a23.379 23.379 0 007.93-14.065L-9.75 8.699zm6.542-11.604A19.288 19.288 0 019.296-7.5L9.28 35.167a23.379 23.379 0 0015.155-5.57L-3.208-2.906zM9.288-7.5h-.621v42.667h.621V-7.5zM30 13.833V9.425h-42.667v4.408H30zM1.92 29.663l1.268.423 13.493-40.477-1.268-.423L1.92 29.663zM14.086-12.66l-1.267-.423L-.686 27.39l1.267.423 13.505-40.473zm-1.282-.428a19.288 19.288 0 0110.407 8.31l-36.496 22.1A23.379 23.379 0 00-.67 27.395l13.474-40.483zm10.407 8.31a19.288 19.288 0 012.542 13.074l-42.119-6.82a23.379 23.379 0 003.08 15.847l36.497-22.1zm2.542 13.074a19.288 19.288 0 01-6.537 11.603L-8.443-12.589a23.378 23.378 0 00-7.923 14.065l42.119 6.819zm-6.537 11.603A19.288 19.288 0 016.718 24.5l-.012-42.667a23.379 23.379 0 00-15.149 5.578l27.659 32.487zM6.712 24.5h.621v-42.667h-.621V24.5zM-14 3.167v4.408h42.667V3.167H-14z" fill="#4D515C" mask="url(#path-1-inside-1_6017_6306)"/></g><defs><clipPath id="clip0_6017_6306"><path fill="#fff" transform="translate(0 .5)" d="M0 0h16v16H0z"/></clipPath></defs></svg>