<svg width="16" height="16" viewBox="0 0 16 16" fill="none" xmlns="http://www.w3.org/2000/svg"><g clip-path="url(#clip0_85_5311)"><path d="M8.002 16.005A8.002 8.002 0 108.002 0a8.002 8.002 0 000 16.005z" fill="#0CAA41"/><path fill-rule="evenodd" clip-rule="evenodd" d="M5.333 4.455v7.248c0 .495.495.826.946.639l3.788-1.575c.36-.149.595-.499.595-.888V5.323l-.878-.052v4.152a.729.729 0 01-.476.687l-2.4.868V5.223a.58.58 0 01.643-.576l3.12.355V4.43l-4.339-.812a.844.844 0 00-.998.836z" fill="#fff"/></g><defs><clipPath id="clip0_85_5311"><path fill="#fff" d="M0 0h16v16H0z"/></clipPath></defs></svg>