<svg width="24" height="24" viewBox="0 0 24 24" fill="none" xmlns="http://www.w3.org/2000/svg"><path d="M15.113 7.556h.075l-.038-.037 2.625-2.625v-.056a8.55 8.55 0 00-8.1-1.782C6.844 3.9 4.67 6.15 3.881 9a.353.353 0 01.15-.037 6.145 6.145 0 014.557-.9c.018-.02.037-.02.056-.02a4.726 4.726 0 016.487-.487h-.018z" fill="#EA4535"/><path d="M20.269 8.962A8.484 8.484 0 0017.68 4.82L15 7.48c1.125.919 1.781 2.306 1.744 3.75v.469c3.168 0 3.168 4.725 0 4.725H11.98v3.75h-.019l.02.037h4.762c2.737.02 5.156-1.743 5.962-4.33a6.147 6.147 0 00-2.437-6.92z" fill="#557EBF"/><path d="M7.313 20.231h4.93v-3.787h-4.93a2.64 2.64 0 01-1.013-.206l-2.85 2.737v.037a6.64 6.64 0 003.881 1.238l-.018-.019z" fill="#36A852"/><path d="M7.538 7.856c-2.794.019-5.269 1.744-6.169 4.275-.9 2.55 0 5.344 2.212 6.994l2.925-2.794c-1.612-.694-1.987-2.718-.75-3.9 1.238-1.2 3.338-.825 4.07.713l2.924-2.794c-1.237-1.556-3.169-2.475-5.212-2.456v-.038z" fill="#F9BC15"/></svg>