<svg xmlns="http://www.w3.org/2000/svg" width="1440" height="280" fill="none"><g clip-path="url(#a)"><mask id="c" width="1439" height="1373" x="1" y="-1101" maskUnits="userSpaceOnUse" style="mask-type:alpha"><path fill="url(#b)" d="M1440-1100.02h1371.28V338.6H1440z" transform="rotate(90 1440 -1100.02)"/></mask><g stroke="#8262FF" stroke-width="1.402" mask="url(#c)"><circle cx="715.344" cy="-273.656" r="290.895" opacity=".7" transform="rotate(90 715.344 -273.656)"/><circle cx="715.344" cy="-273.656" r="358.186" opacity=".6" transform="rotate(90 715.344 -273.656)"/><circle cx="715.344" cy="-273.657" r="425.477" stroke-opacity=".7" opacity=".5" transform="rotate(90 715.344 -273.657)"/><circle cx="715.344" cy="-273.657" r="492.769" stroke-opacity=".4" opacity=".4" transform="rotate(90 715.344 -273.657)"/><circle cx="715.344" cy="-273.656" r="560.06" stroke-opacity=".5" opacity=".3" transform="rotate(90 715.344 -273.656)"/><circle cx="715.344" cy="-273.657" r="627.351" stroke-opacity=".5" opacity=".2" transform="rotate(90 715.344 -273.657)"/><circle cx="715.344" cy="-273.656" r="694.643" stroke-opacity=".7" opacity=".1" transform="rotate(90 715.344 -273.656)"/></g></g><defs><linearGradient id="b" x1="2764.02" x2="2370.58" y1="-381.023" y2="-385.563" gradientUnits="userSpaceOnUse"><stop stop-color="#fff" stop-opacity="0"/><stop offset=".531" stop-color="#fff"/><stop offset=".975" stop-color="#fff" stop-opacity=".2"/></linearGradient><clipPath id="a"><path fill="#fff" d="M1440 0v280H0V0z"/></clipPath></defs></svg>