<svg xmlns="http://www.w3.org/2000/svg" width="377" height="377" fill="none"><circle cx="188.322" cy="188.322" r="42.334" stroke="#8262FF" stroke-width=".38" opacity=".9" transform="rotate(90 188.322 188.322)"/><circle cx="188.323" cy="188.322" r="60.559" stroke="#8262FF" stroke-width=".38" opacity=".8" transform="rotate(90 188.323 188.322)"/><circle cx="188.323" cy="188.322" r="78.784" stroke="#8262FF" stroke-width=".38" opacity=".7" transform="rotate(90 188.323 188.322)"/><circle cx="188.322" cy="188.322" r="97.009" stroke="#8262FF" stroke-width=".38" opacity=".6" transform="rotate(90 188.322 188.322)"/><circle cx="188.322" cy="188.322" r="115.233" stroke="#8262FF" stroke-opacity=".7" stroke-width=".38" opacity=".5" transform="rotate(90 188.322 188.322)"/><circle cx="188.322" cy="188.322" r="133.458" stroke="#8262FF" stroke-opacity=".4" stroke-width=".38" opacity=".4" transform="rotate(90 188.322 188.322)"/><circle cx="188.323" cy="188.322" r="151.683" stroke="#8262FF" stroke-opacity=".5" stroke-width=".38" opacity=".3" transform="rotate(90 188.323 188.322)"/><circle cx="188.322" cy="188.322" r="169.908" stroke="#8262FF" stroke-opacity=".5" stroke-width=".38" opacity=".2" transform="rotate(90 188.322 188.322)"/><circle cx="188.322" cy="188.322" r="188.132" stroke="#8262FF" stroke-opacity=".7" stroke-width=".38" opacity=".1" transform="rotate(90 188.322 188.322)"/><circle cx="188.322" cy="188.322" r="24.11" stroke="#8262FF" stroke-width=".38" transform="rotate(90 188.322 188.322)"/></svg>