<svg xmlns="http://www.w3.org/2000/svg" width="18" height="18" fill="none"><path fill="#B6B8C6" d="M14.25 0H3.75A3.755 3.755 0 000 3.75v10.5A3.754 3.754 0 003.75 18h10.5A3.754 3.754 0 0018 14.25V3.75A3.755 3.755 0 0014.25 0zM3.75 1.5h10.5a2.25 2.25 0 012.25 2.25v10.5a2.213 2.213 0 01-.225.964L9.403 8.34a3.75 3.75 0 00-5.304 0L1.5 10.94V3.75A2.25 2.25 0 013.75 1.5zm0 15a2.25 2.25 0 01-2.25-2.25v-1.19l3.659-3.658a2.25 2.25 0 013.183 0l6.872 6.873c-.3.147-.63.224-.964.225H3.75z"/><path fill="#B6B8C6" d="M12 7.875a2.625 2.625 0 100-5.25 2.625 2.625 0 000 5.25zm0-3.75a1.125 1.125 0 110 2.25 1.125 1.125 0 010-2.25z"/></svg>