<svg width="16" height="16" viewBox="0 0 16 16" fill="none" xmlns="http://www.w3.org/2000/svg"><g clip-path="url(#clip0_85_992)"><path d="M14.5.375h-13a1.114 1.114 0 00-1.125 1.1v13.053A1.114 1.114 0 001.5 15.625h13a1.116 1.116 0 001.125-1.101V1.47A1.117 1.117 0 0014.5.375z" fill="#0076B2"/><path d="M2.633 6.091h2.263v7.284H2.633V6.091zm1.132-3.625a1.313 1.313 0 110 2.625 1.313 1.313 0 010-2.625zm2.551 3.625h2.17v1h.03c.303-.572 1.04-1.176 2.142-1.176 2.292-.005 2.717 1.504 2.717 3.46v4h-2.264V9.831c0-.843-.015-1.93-1.176-1.93s-1.359.92-1.359 1.875v3.6h-2.26V6.09z" fill="#fff"/></g><defs><clipPath id="clip0_85_992"><path fill="#fff" d="M0 0h16v16H0z"/></clipPath></defs></svg>