<svg width="16" height="17" viewBox="0 0 16 17" fill="none" xmlns="http://www.w3.org/2000/svg"><g clip-path="url(#clip0_5983_3713)" fill="#4D515C"><path d="M8 4.5a2.667 2.667 0 100 5.333A2.667 2.667 0 008 4.5zm0 4a1.333 1.333 0 110-2.667A1.333 1.333 0 018 8.5z"/><path d="M8 16.5a3.515 3.515 0 01-2.874-1.467c-2.54-3.504-3.83-6.139-3.83-7.831a6.703 6.703 0 0113.408 0c0 1.692-1.29 4.327-3.83 7.831A3.515 3.515 0 018 16.5zM8 1.954a5.255 5.255 0 00-5.25 5.25c0 1.34 1.263 3.817 3.554 6.977a2.098 2.098 0 003.393 0c2.29-3.16 3.553-5.638 3.553-6.978A5.255 5.255 0 008 1.954z"/></g><defs><clipPath id="clip0_5983_3713"><path fill="#fff" transform="translate(0 .5)" d="M0 0h16v16H0z"/></clipPath></defs></svg>