<svg width="20" height="20" viewBox="0 0 20 20" fill="none" xmlns="http://www.w3.org/2000/svg"><g clip-path="url(#clip0_5519_82)"><path d="M19.044.957a3.022 3.022 0 00-4.27 0L1.221 14.51A4.14 4.14 0 000 17.456v1.71A.833.833 0 00.833 20h1.711a4.14 4.14 0 002.946-1.22L19.044 5.226a3.022 3.022 0 000-4.27zM4.312 17.602c-.47.466-1.105.73-1.768.731h-.877v-.877a2.483 2.483 0 01.732-1.768L12.685 5.402l1.917 1.917-10.29 10.283zM17.865 4.047l-2.088 2.09-1.917-1.913 2.09-2.089a1.353 1.353 0 111.912 1.917l.003-.005z" fill="#1C1F29"/></g><defs><clipPath id="clip0_5519_82"><path fill="#fff" d="M0 0h20v20H0z"/></clipPath></defs></svg>