<svg width="16" height="16" viewBox="0 0 16 16" fill="none" xmlns="http://www.w3.org/2000/svg"><path fill-rule="evenodd" clip-rule="evenodd" d="M4 4.667a2 2 0 114 0 2 2 0 01-4 0zm2-3.334A3.333 3.333 0 106 8a3.333 3.333 0 000-6.667zm-2.667 8A3.333 3.333 0 000 12.667V14a.667.667 0 001.333 0v-1.333a2 2 0 012-2h5.334a2 2 0 012 2V14A.667.667 0 1012 14v-1.333a3.333 3.333 0 00-3.333-3.334H3.333zm9.355.587a.667.667 0 01.812-.479 3.333 3.333 0 012.5 3.225V14a.667.667 0 01-1.333 0v-1.333a2 2 0 00-1.5-1.935.667.667 0 01-.48-.812zm-1.856-8.48a.667.667 0 00-.33 1.292 2 2 0 010 3.875.667.667 0 00.33 1.292 3.333 3.333 0 000-6.458z" fill="#6F727A"/></svg>