<svg width="20" height="20" viewBox="0 0 20 20" fill="none" xmlns="http://www.w3.org/2000/svg"><g clip-path="url(#clip0_5519_56)" fill="#1C1F29"><path d="M19.167 18.333H2.5a.834.834 0 01-.833-.833V.833A.833.833 0 000 .833V17.5A2.5 2.5 0 002.5 20h16.667a.833.833 0 000-1.667z"/><path d="M12.5 16.667a.833.833 0 00.833-.833V10a.834.834 0 00-1.666 0v5.833a.834.834 0 00.833.833zM5.833 16.667a.833.833 0 00.834-.833V10A.833.833 0 105 10v5.833a.833.833 0 00.833.833zM15.833 16.667a.833.833 0 00.834-.834v-10a.833.833 0 10-1.667 0v10a.833.833 0 00.833.834zM9.167 16.667a.833.833 0 00.833-.834v-10a.833.833 0 10-1.667 0v10a.833.833 0 00.834.834z"/></g><defs><clipPath id="clip0_5519_56"><path fill="#fff" d="M0 0h20v20H0z"/></clipPath></defs></svg>