<svg width="20" height="20" viewBox="0 0 20 20" fill="none" xmlns="http://www.w3.org/2000/svg"><g clip-path="url(#clip0_10753_828)" fill="#7E8596"><path d="M17.5 3.333h-2.583A4.174 4.174 0 0010.834 0H9.167a4.174 4.174 0 00-4.083 3.333H2.5A.833.833 0 102.5 5h.834v10.833A4.172 4.172 0 007.5 20h5a4.171 4.171 0 004.167-4.167V5h.833a.833.833 0 000-1.667zM9.167 1.667h1.667a2.505 2.505 0 012.357 1.666H6.81a2.505 2.505 0 012.358-1.666zM15 15.833a2.5 2.5 0 01-2.5 2.5h-5a2.5 2.5 0 01-2.5-2.5V5h10v10.833z"/><path d="M8.334 15a.833.833 0 00.833-.834v-5a.833.833 0 00-1.667 0v5a.833.833 0 00.834.833zM11.667 15a.833.833 0 00.833-.834v-5a.833.833 0 10-1.666 0v5a.833.833 0 00.833.833z"/></g><defs><clipPath id="clip0_10753_828"><path fill="#fff" d="M0 0h20v20H0z"/></clipPath></defs></svg>