<svg width="24" height="24" viewBox="0 0 24 24" fill="none" xmlns="http://www.w3.org/2000/svg"><path d="M8.358 2.199c-.241-.338-.58-.58-1.014-.58H1.208C.53 1.62 0 2.151 0 2.827c0 .242.048.435.193.628L1.45 5.436l8.166-1.304-1.257-1.933z" fill="#C9F4FF"/><path d="M9.613 4.18c-.241-.338-.58-.58-1.014-.58H2.463c-.677 0-1.208.532-1.208 1.208 0 .242.048.435.193.628l1.74 2.803 8.165-1.257-1.74-2.802z" fill="#51B8FF"/><path d="M3.189 8.238c-.338-.58-.193-1.304.386-1.643.194-.096.435-.193.629-.193h6.135c.435 0 .774.193 1.015.58l5.508 8.697c.242.386.242.87 0 1.304l-3.044 4.88c-.338.58-1.063.724-1.643.386a1.47 1.47 0 01-.386-.386l-8.6-13.625zM18.697 10.847c.338.58 1.063.725 1.643.387a1.47 1.47 0 00.386-.387l1.063-1.69 2.03-3.19c.241-.386.241-.87 0-1.304l-1.595-2.512c-.241-.339-.58-.58-1.015-.58h-6.184c-.676 0-1.208.531-1.208 1.208 0 .241.049.435.194.628l4.686 7.44z" fill="#06F"/></svg>