<svg xmlns="http://www.w3.org/2000/svg" width="24" height="24" fill="none"><path fill="#4D515C" d="M12 24c6.627 0 12-5.373 12-12S18.627 0 12 0 0 5.373 0 12s5.373 12 12 12z"/><path fill="#fff" d="M20 12c0-.968-.786-1.754-1.754-1.754-.478 0-.899.182-1.207.49-1.193-.855-2.85-1.417-4.674-1.487l.8-3.747 2.596.547a1.25 1.25 0 002.499-.056c0-.688-.562-1.25-1.25-1.25-.49 0-.912.282-1.108.703l-2.905-.618a.35.35 0 00-.24.042.341.341 0 00-.14.197l-.884 4.182c-1.866.056-3.537.604-4.744 1.488a1.77 1.77 0 00-1.207-.491c-.968 0-1.754.786-1.754 1.754 0 .716.421 1.32 1.039 1.6a3.28 3.28 0 00-.042.533c0 2.695 3.13 4.87 7.003 4.87 3.874 0 7.004-2.175 7.004-4.87 0-.182-.015-.35-.043-.519A1.816 1.816 0 0020 12zM8 13.25c0-.69.561-1.25 1.25-1.25.687 0 1.248.561 1.248 1.25 0 .687-.561 1.248-1.249 1.248A1.251 1.251 0 018 13.249zm6.975 3.297c-.856.857-2.484.913-2.961.913-.477 0-2.12-.07-2.961-.913a.33.33 0 010-.463.33.33 0 01.463 0c.533.534 1.684.73 2.512.73.828 0 1.965-.197 2.512-.73a.33.33 0 01.464 0 .36.36 0 01-.029.463zm-.224-2.049c-.688 0-1.25-.561-1.25-1.249 0-.688.562-1.249 1.25-1.249S16 12.561 16 13.25c0 .687-.561 1.248-1.25 1.248z"/></svg>