<svg aria-hidden="true" style="position:absolute;width:0;height:0" xmlns="http://www.w3.org/2000/svg" overflow="hidden"><defs><symbol id="icon-facebook" viewBox="0 0 32 32"><path fill="var(--color1, #4d515c)" d="M32 16c0-8.836-7.164-16-16-16S0 7.164 0 16c0 7.987 5.851 14.605 13.5 15.805V20.626H9.437v-4.627H13.5v-3.525c0-4.009 2.389-6.224 6.044-6.224 1.749 0 3.581.312 3.581.312v3.937h-2.019c-1.988 0-2.608 1.233-2.608 2.5v3h4.437l-.709 4.625h-3.728v11.18c7.651-1.2 13.501-7.819 13.501-15.805z"/><path fill="var(--color2, #fff)" d="M22.228 20.625L22.937 16H18.5v-3c0-1.265.62-2.5 2.608-2.5h2.017V6.563s-1.832-.312-3.581-.312c-3.655 0-6.044 2.213-6.044 6.224V16H9.437v4.625H13.5v11.18a16.29 16.29 0 005.093-.013l-.093.012V20.625h3.728z"/></symbol><symbol id="icon-instagram" viewBox="0 0 32 32"><path fill="var(--color1, #4d515c)" d="M16 2.88c4.275 0 4.781.02 6.463.095 1.563.069 2.407.332 2.968.551.721.27 1.335.676 1.838 1.192l.001.001a4.92 4.92 0 011.193 1.837c.219.563.48 1.413.549 2.969.076 1.687.093 2.193.093 6.463 0 4.275-.017 4.781-.093 6.461-.068 1.563-.331 2.407-.549 2.969a4.95 4.95 0 01-1.193 1.837 4.914 4.914 0 01-1.805 1.182l-.034.011c-.561.22-1.412.481-2.968.551-1.688.075-2.193.093-6.463.093-4.275 0-4.781-.019-6.463-.093-1.563-.069-2.407-.331-2.968-.551a4.982 4.982 0 01-1.838-1.192l-.001-.001a4.935 4.935 0 01-1.182-1.803l-.011-.034c-.219-.563-.48-1.413-.549-2.969-.076-1.687-.093-2.193-.093-6.461 0-4.276.017-4.781.093-6.463.068-1.563.331-2.407.549-2.969A4.958 4.958 0 014.73 4.719a4.887 4.887 0 011.839-1.193c.561-.219 1.412-.481 2.968-.551 1.681-.075 2.187-.093 6.463-.093zM16 0c-4.344 0-4.888.019-6.593.093-1.7.076-2.869.351-3.881.744A7.845 7.845 0 002.69 2.686l-.001.001A7.842 7.842 0 00.857 5.464l-.018.054C.446 6.537.171 7.699.095 9.399c-.075 1.712-.093 2.256-.093 6.6s.019 4.888.093 6.593c.076 1.7.351 2.869.744 3.881.413 1.056.956 1.951 1.851 2.837a7.84 7.84 0 002.777 1.826l.054.018c1.019.395 2.181.669 3.881.744 1.707.075 2.251.093 6.593.093 4.344 0 4.888-.019 6.595-.093 1.7-.075 2.868-.349 3.88-.744a7.864 7.864 0 002.831-1.843l.001-.001a7.84 7.84 0 001.826-2.777l.018-.054c.393-1.019.668-2.181.744-3.881.075-1.707.093-2.251.093-6.593 0-4.344-.019-4.888-.093-6.595-.076-1.7-.351-2.868-.744-3.88a7.537 7.537 0 00-1.83-2.842l-.002-.002A7.84 7.84 0 0026.537.86l-.054-.018C25.464.449 24.302.171 22.602.098c-1.712-.08-2.256-.1-6.6-.1z"/><path fill="var(--color1, #4d515c)" d="M16 7.781A8.222 8.222 0 007.781 16 8.222 8.222 0 0016 24.219 8.222 8.222 0 0024.219 16 8.222 8.222 0 0016 7.781zm0 13.55a5.332 5.332 0 01.001-10.664h.001a5.332 5.332 0 01-.001 10.664H16zM26.463 7.456l.001.051a1.92 1.92 0 01-3.84 0l.001-.053v.003a1.92 1.92 0 013.838-.002v.003z"/></symbol><symbol id="icon-reddit" viewBox="0 0 32 32"><path fill="var(--color1, #4d515c)" d="M16 32c8.836 0 16-7.164 16-16S24.836 0 16 0 0 7.164 0 16s7.164 16 16 16z"/><path fill="var(--color2, #fff)" d="M26.667 16a2.34 2.34 0 00-2.339-2.339c-.637 0-1.199.243-1.609.653-1.591-1.14-3.8-1.889-6.232-1.983l1.067-4.996 3.461.729a1.668 1.668 0 003.332-.066v-.009c0-.917-.749-1.667-1.667-1.667a1.62 1.62 0 00-1.477.937l-3.873-.824a.469.469 0 00-.323.057l.002-.001a.456.456 0 00-.186.26l-.001.003-1.179 5.576c-2.488.075-4.716.805-6.325 1.984a2.353 2.353 0 00-1.608-.655h-.001a2.34 2.34 0 00-2.339 2.339c0 .955.561 1.76 1.385 2.133a4.415 4.415 0 00-.056.711c0 3.593 4.173 6.493 9.337 6.493 5.165 0 9.339-2.9 9.339-6.493 0-.243-.02-.467-.057-.692a2.425 2.425 0 001.348-2.151v-.001zm-16 1.667c0-.92.748-1.667 1.667-1.667.916 0 1.664.748 1.664 1.667 0 .916-.748 1.664-1.665 1.664s-1.665-.748-1.665-1.665zm9.3 4.396c-1.141 1.143-3.312 1.217-3.948 1.217s-2.827-.093-3.948-1.217a.438.438 0 01.001-.618.438.438 0 01.618.001c.711.712 2.245.973 3.349.973s2.62-.263 3.349-.973a.436.436 0 01.618 0 .48.48 0 01-.039.618zm-.299-2.732c-.917 0-1.667-.748-1.667-1.665s.749-1.665 1.667-1.665 1.665.748 1.665 1.667c0 .916-.748 1.664-1.667 1.664z"/></symbol><symbol id="icon-twitter_x" viewBox="0 0 32 32"><path fill="var(--color1, #4d515c)" d="M24.435 2.539h4.499L19.107 13.77l11.56 15.284h-9.052l-7.089-9.269-8.112 9.269H1.913l10.511-12.013L1.335 2.54h9.281l6.408 8.472 7.413-8.472zM22.856 26.36h2.493L9.26 5.089H6.587L22.856 26.36z"/></symbol></defs></svg>