<svg xmlns="http://www.w3.org/2000/svg" width="21" height="20" fill="none"><path fill="#2684FF" d="M2.396 2a.555.555 0 00-.555.644l2.357 14.312a.755.755 0 00.739.63h11.31a.555.555 0 00.555-.466L19.16 2.647a.554.554 0 00-.556-.644L2.396 2zm9.927 10.344h-3.61l-.977-5.107h5.462l-.875 5.107z"/><path fill="url(#a)" d="M18.41 7.237h-5.212l-.875 5.107h-3.61l-4.262 5.06a.752.752 0 00.486.183H16.25a.555.555 0 00.555-.467l1.605-9.883z"/><defs><linearGradient id="a" x1="19.615" x2="11.001" y1="8.667" y2="15.39" gradientUnits="userSpaceOnUse"><stop offset=".18" stop-color="#0052CC"/><stop offset="1" stop-color="#2684FF"/></linearGradient></defs></svg>