<svg width="41" height="40" viewBox="0 0 41 40" fill="none" xmlns="http://www.w3.org/2000/svg"><g clip-path="url(#clip0_11_20065)"><path d="M20.5 0C9.473 0 .5 8.938.5 19.922c0 10.986 8.973 19.923 20 19.923s20-8.937 20-19.923C40.5 8.937 31.527 0 20.5 0z" fill="#fff"/><path d="M19.768 20.28c-.198.428-.392.857-.583 1.288-.726 1.638-1.53 3.631-1.823 4.908a7.355 7.355 0 00-.17 1.643c0 .247.014.507.035.772a9.605 9.605 0 003.291.584 9.624 9.624 0 003.014-.49 5.648 5.648 0 01-.629-.662c-1.284-1.631-2-4.022-3.135-8.043zm-4.742-8.105a9.51 9.51 0 00-4.064 7.781 9.508 9.508 0 003.954 7.703c.587-2.434 2.057-4.662 4.262-9.13-.142-.39-.291-.777-.447-1.162-.61-1.526-1.492-3.298-2.28-4.1a6.33 6.33 0 00-1.425-1.092z" fill="#91DC47"/><path d="M28.843 30.875c-1.266-.159-2.31-.35-3.224-.67a11.471 11.471 0 01-5.1 1.19c-6.342 0-11.482-5.12-11.483-11.439 0-3.428 1.516-6.501 3.915-8.597a8.446 8.446 0 00-1.994-.244c-3.369.032-6.925 1.889-8.406 6.905-.138.73-.105 1.282-.105 1.936 0 9.944 8.092 18.005 18.073 18.005a18.065 18.065 0 0014.783-7.653c-1.769.439-3.47.649-4.926.653-.546 0-1.058-.029-1.533-.086z" fill="#63B132"/><path d="M25.447 27.386c.111.055.364.145.716.244a9.508 9.508 0 003.913-7.674c-.01-5.256-4.28-9.51-9.557-9.52a9.618 9.618 0 00-3 .486c1.94 2.203 2.873 5.352 3.775 8.796l.002.005c.001.002.289.956.781 2.221.49 1.264 1.187 2.828 1.947 3.968.5.764 1.048 1.312 1.422 1.474z" fill="#90B4FE"/><path d="M5.83 9.472c1.707-1.065 3.45-1.449 4.971-1.435 2.101.006 3.753.655 4.545 1.099.192.11.373.228.552.35 1.456-.64 3.03-.97 4.62-.968 6.342.001 11.484 5.12 11.485 11.438a11.386 11.386 0 01-3.417 8.139 14.14 14.14 0 001.633.09c2.001.002 4.165-.438 5.787-1.797 1.057-.888 1.944-2.187 2.435-4.136.096-.752.151-1.517.151-2.296 0-9.942-8.091-18.004-18.073-18.004A18.069 18.069 0 005.83 9.472z" fill="#5881D8"/></g><defs><clipPath id="clip0_11_20065"><path fill="#fff" transform="translate(.5)" d="M0 0h40v40H0z"/></clipPath></defs></svg>