<svg width="40" height="40" viewBox="0 0 40 40" fill="none" xmlns="http://www.w3.org/2000/svg"><path fill-rule="evenodd" clip-rule="evenodd" d="M20.125.156C11.469 4.344.594 26.063 9.656 35.594c8.375 10.468 26.688.406 21.375-12.657-6.719-11.25-10.937-11.843-10.906-22.78z" fill="url(#paint0_linear_11_22222)"/><path fill-rule="evenodd" clip-rule="evenodd" d="M20.125.063C11.5 4.25.594 25.905 9.688 35.468c3.343 3.875 8.75 5.156 11.78 2.843 8.25-5.874 2.313-16.593 3.25-24.53-3.437-3.188-4.655-10.25-4.593-13.72z" fill="url(#paint1_linear_11_22222)"/><path fill-rule="evenodd" clip-rule="evenodd" d="M17.719 1.344c-6.97 4.968-8.813 23.437-7.532 29.437 2.563 15.032 23.5 8.844 21.75-5.156-1.875-9.125-15.25-12.25-14.218-24.281z" fill="url(#paint2_linear_11_22222)"/><path fill-rule="evenodd" clip-rule="evenodd" d="M24.625 15.563c3.25 4.187 3.969 7.062 2.125 8.718-8.656 6.063-19.156 2.313-16.875-11.656-2.969 7.063-8.469 17.625 3.656 19.125 6.5 1.125 16.875.625 18.407-5.031-.063-4.969-3.375-7.157-7.313-11.157z" fill="url(#paint3_linear_11_22222)"/><path fill-rule="evenodd" clip-rule="evenodd" d="M11.906 11.375C11 18 22.875 35.719 30.125 33.563c-5.531 11.124-17.781-6.626-20-13.032.469-3.437.688-5.125 1.781-9.156z" fill="url(#paint4_linear_11_22222)"/><path fill-rule="evenodd" clip-rule="evenodd" d="M18.875 15.531c.25 2.469 1.219 6.406 0 9-1.219 2.594-6.781 7.344-5.25 11.5 3.562 7.75 11.594-1.375 11.531-5.937.344-3.688-2.062-12.094-.562-16.407l-.688-.874-4.25-1.25c-.687 1-.937 2.343-.781 3.968z" fill="url(#paint5_linear_11_22222)"/><path fill-rule="evenodd" clip-rule="evenodd" d="M20.406 3.375C11.25 8.563 15 16.688 15.406 25.5l5.969-17.313c-.438-1.78-.719-2.968-.969-4.812z" fill="url(#paint6_linear_11_22222)"/><path fill-rule="evenodd" clip-rule="evenodd" d="M21.344 8.156c-4.625 3.656-4.407 9.781-5.813 16.875 2.531-6.656 1.281-11.937 5.813-16.875z" fill="#330A4C" fill-opacity=".316"/><path fill-rule="evenodd" clip-rule="evenodd" d="M14.313 37.406c2.5.344 3.78.688 3.906.938.093 1.312-3.469.375-3.907-.938z" fill="#fff"/><path fill-rule="evenodd" clip-rule="evenodd" d="M15.563 3.375c-2.157 2.406-4.5 6.813-5.688 9.281-.312 2.031-.156 4.906.188 7.344.28-5.688 2.343-12.25 5.5-16.625z" fill="#EDEDED" fill-opacity=".603"/><defs><linearGradient id="paint0_linear_11_22222" x1="19.483" y1="3.09" x2="18.098" y2="39.933" gradientUnits="userSpaceOnUse"><stop stop-color="#D9D8DC"/><stop offset="1" stop-color="#fff" stop-opacity=".385"/></linearGradient><linearGradient id="paint1_linear_11_22222" x1="18.927" y1="2.503" x2="4.458" y2="34.213" gradientUnits="userSpaceOnUse"><stop stop-color="#8D67AF" stop-opacity=".672"/><stop offset="1" stop-color="#9F8DAF"/></linearGradient><linearGradient id="paint2_linear_11_22222" x1="20.925" y1="13.342" x2="20.925" y2="38.81" gradientUnits="userSpaceOnUse"><stop stop-color="#26053D" stop-opacity=".762"/><stop offset="1" stop-color="#B7B4B4" stop-opacity=".278"/></linearGradient><linearGradient id="paint3_linear_11_22222" x1="11.471" y1="14.063" x2="17.993" y2="31.34" gradientUnits="userSpaceOnUse"><stop stop-color="#91739F" stop-opacity=".46"/><stop offset="1" stop-color="#32054F" stop-opacity=".54"/></linearGradient><linearGradient id="paint4_linear_11_22222" x1="26.097" y1="36.27" x2="8.22" y2="21.463" gradientUnits="userSpaceOnUse"><stop stop-color="#463D49" stop-opacity=".331"/><stop offset="1" stop-color="#340A50" stop-opacity=".821"/></linearGradient><linearGradient id="paint5_linear_11_22222" x1="21.64" y1="13.08" x2="9.073" y2="32.201" gradientUnits="userSpaceOnUse"><stop stop-color="#715383" stop-opacity=".145"/><stop offset="1" stop-color="#F4F4F4" stop-opacity=".234"/></linearGradient><linearGradient id="paint6_linear_11_22222" x1="23.665" y1="17.778" x2="14.929" y2="17.245" gradientUnits="userSpaceOnUse"><stop stop-color="#A5A1A8" stop-opacity=".356"/><stop offset="1" stop-color="#370C50" stop-opacity=".582"/></linearGradient></defs></svg>