<svg width="41" height="40" viewBox="0 0 41 40" fill="none" xmlns="http://www.w3.org/2000/svg"><g clip-path="url(#clip0_11_19497)"><path d="M6.969 32.469c-3.032-3.25-4.844-7.719-4.813-13.063-.031-4.718 1.469-8.781 4.031-11.875H.813v24.907l6.157.03zm28.25 0c1.312-1.407 2.5-3.063 3.562-4.969l-5.937-2.969c-2.094 3.375-5.125 6.5-9.344 6.532-6.125-.032-8.531-5.282-8.531-12.032h22.906c.031-.75.031-1.125 0-1.468.156-4.032-.906-7.407-2.844-10.032h5.157v24.907l-4.97.03zM15.344 13.25c.25-3.063 2.656-5.094 5.5-5.125 2.843 0 4.906 2.063 4.968 5.125H15.345z" fill="#A90533"/></g><defs><clipPath id="clip0_11_19497"><path fill="#fff" transform="translate(.5)" d="M0 0h40v40H0z"/></clipPath></defs></svg>