<svg xmlns="http://www.w3.org/2000/svg" width="20" height="20" fill="none"><path fill="#FCA326" fill-rule="evenodd" d="M2.925 8.157l-.895 2.991a.695.695 0 00.221.74L10 18 2.925 8.157zm14.15 0l.895 2.991a.695.695 0 01-.221.74L10 18l7.075-9.843z" clip-rule="evenodd"/><path fill="#FC6D26" fill-rule="evenodd" d="M10 18L7.054 8.157H2.925L10 18zm0 0l2.946-9.843h4.129L10 18z" clip-rule="evenodd"/><path fill="#E24329" fill-rule="evenodd" d="M17.075 8.157h-4.129L14.72 2.23a.298.298 0 01.58 0l1.775 5.928zm-14.15 0h4.129L5.28 2.23a.298.298 0 00-.58 0L2.925 8.157zM10 18l2.946-9.843H7.054L10 18z" clip-rule="evenodd"/></svg>