<svg width="41" height="40" viewBox="0 0 41 40" fill="none" xmlns="http://www.w3.org/2000/svg"><path fill-rule="evenodd" clip-rule="evenodd" d="M7.094 21.469c.062 1.093 1.156.593 1.656.25.469-.344.625-.063.656-.719.032-.438.063-.844.063-1.281-.719-.063-1.5.093-2.094.531-.281.219-.875.938-.281 1.219z" fill="#F6D2A2"/><path d="M7.688 22.25c-.219 0-.625-.094-.688-.719-.187-.125-.25-.281-.25-.375-.031-.375.375-.812.594-.968.5-.375 1.156-.563 1.844-.563h.406v.094c.031.343 0 .687-.031 1 0 .093 0 .187-.032.281-.03.469-.125.531-.343.625a.95.95 0 00-.344.188c-.156.093-.688.437-1.156.437zm1.5-2.438c-.657 0-1.25.188-1.719.532-.219.156-.531.531-.5.781 0 .094.062.188.187.25l.063.031v.063c.031.5.281.562.469.562.312 0 .75-.218 1.031-.406.187-.125.312-.156.406-.188.156-.062.188-.062.219-.437 0-.094 0-.188.031-.281.031-.282.031-.594.031-.875-.093-.032-.156-.032-.218-.032z" fill="#000"/><path fill-rule="evenodd" clip-rule="evenodd" d="M7.094 21.469c.156-.063.343-.094.437-.25l-.437.25z" fill="#C6B198"/><path d="M7.094 21.562c-.031 0-.094-.031-.094-.062-.031-.063 0-.125.063-.125.03 0 .062-.032.062-.032.125-.062.25-.093.313-.187.03-.031.093-.063.156-.031.031.031.062.093.031.156a.725.725 0 01-.406.25l-.063.031h-.062z" fill="#000"/><path fill-rule="evenodd" clip-rule="evenodd" d="M9.656 8.25c-4.25-1.188-1.093-6.594 2.313-4.375L9.656 8.25z" fill="#6AD7E5"/><path d="M9.719 8.375l-.094-.031C7.438 7.719 7.47 6.156 7.531 5.688 7.688 4.5 8.813 3.25 10.313 3.25c.593 0 1.156.188 1.718.563l.094.062-2.406 4.5zm.594-4.906c-1.407 0-2.438 1.156-2.594 2.25-.156 1.125.531 2 1.875 2.406l2.219-4.219a2.884 2.884 0 00-1.5-.437z" fill="#000"/><path fill-rule="evenodd" clip-rule="evenodd" d="M28.5 3.469c3.344-2.344 6.406 2.969 2.5 4.312L28.5 3.47z" fill="#6AD7E5"/><path d="M30.969 7.906l-2.594-4.468.094-.063c.593-.406 1.187-.625 1.781-.625 1.438 0 2.469 1.188 2.688 2.344.093.468.187 2.062-1.876 2.75l-.093.062zm-2.313-4.375l2.407 4.156c1.218-.437 1.843-1.375 1.656-2.5-.188-1.062-1.157-2.156-2.469-2.156-.531-.031-1.063.125-1.594.5z" fill="#000"/><path fill-rule="evenodd" clip-rule="evenodd" d="M29.25 35.094c.844.531 2.406 2.125 1.125 2.906-1.219 1.125-1.906-1.25-3-1.563.469-.624 1.063-1.218 1.875-1.343z" fill="#F6D2A2"/><path d="M29.719 38.406c-.5 0-.938-.5-1.313-.968-.343-.376-.687-.782-1.062-.907l-.157-.031.094-.125c.375-.531 1-1.219 1.938-1.375h.031l.031.031c.532.344 1.688 1.313 1.657 2.219 0 .344-.188.625-.532.844-.218.218-.437.312-.687.312zm-2.188-2.031c.375.156.688.563 1 .906.375.469.75.875 1.157.875.187 0 .375-.093.562-.281h.031c.282-.188.438-.406.438-.688 0-.718-.907-1.624-1.532-2.03-.562.156-1.125.53-1.656 1.218zm2.844 1.719c-.031 0-.063-.032-.094-.063a2.166 2.166 0 01-.156-.406c-.094-.25-.188-.5-.375-.688-.031-.03-.031-.093 0-.156.031-.031.094-.031.156 0 .219.219.344.5.438.782l.156.374c.031.063 0 .126-.031.157h-.094z" fill="#000"/><path fill-rule="evenodd" clip-rule="evenodd" d="M14 36.907c-1 .156-1.562 1.062-2.406 1.53-.781.47-1.094-.155-1.156-.28-.125-.063-.125.062-.313-.125-.719-1.157.75-2 1.531-2.563 1.094-.25 1.782.688 2.344 1.438z" fill="#F6D2A2"/><path d="M11.063 38.688c-.407 0-.625-.344-.688-.47h-.031c-.094 0-.156-.03-.281-.156v-.03c-.688-1.094.5-1.938 1.28-2.5l.282-.188h.063c.125-.032.218-.032.343-.032.938 0 1.532.813 2.032 1.47l.156.218-.188.031c-.593.094-1.03.469-1.468.844-.282.25-.563.469-.875.656-.25.094-.438.157-.625.157zm-.688-.657c.031 0 .063 0 .125.032h.031l.032.03c.062.094.218.376.53.376.157 0 .313-.063.47-.157.312-.156.593-.406.843-.624.407-.344.844-.72 1.407-.876-.47-.624-1.032-1.312-1.813-1.312-.094 0-.187 0-.281.031l-.25.188c-.813.562-1.813 1.281-1.219 2.218.031.063.063.094.125.094zm.063.219c-.063 0-.125-.063-.094-.125.031-.313.187-.531.344-.781.093-.125.156-.25.218-.375.032-.063.094-.063.125-.063.063.032.063.094.063.125-.063.157-.156.282-.25.407-.156.218-.281.406-.313.656 0 .125-.03.156-.093.156z" fill="#000"/><path fill-rule="evenodd" clip-rule="evenodd" d="M9.844 6.781c-.563-.281-.969-.687-.625-1.344.312-.593.906-.53 1.469-.25l-.844 1.594zm20.281-.562c.563-.282.969-.688.625-1.344-.313-.594-.906-.531-1.469-.25l.844 1.594z" fill="#000"/><path fill-rule="evenodd" clip-rule="evenodd" d="M33.969 21.313c-.063 1.093-1.157.593-1.657.25-.468-.344-.624-.063-.656-.72-.031-.437-.062-.843-.062-1.28.718-.063 1.5.093 2.093.53.313.25.876.938.282 1.22z" fill="#F6D2A2"/><path d="M33.406 22.094c-.469 0-1-.344-1.156-.438-.157-.093-.25-.156-.344-.187-.25-.094-.313-.157-.344-.625 0-.094 0-.188-.031-.282-.031-.312-.063-.656-.031-1v-.093h.406c.688 0 1.344.187 1.844.562.218.157.625.594.593.969a.417.417 0 01-.25.375c-.062.625-.468.719-.687.719zm-1.719-2.407c0 .282 0 .594.031.875 0 .094 0 .188.032.282.031.375.062.375.218.437.094.032.22.094.407.188.281.187.718.406 1.031.406.188 0 .438-.063.469-.563v-.062l.062-.031c.125-.063.188-.125.188-.25.031-.25-.282-.625-.5-.782-.469-.343-1.094-.53-1.719-.53-.063.03-.125.03-.219.03z" fill="#000"/><path fill-rule="evenodd" clip-rule="evenodd" d="M33.969 21.313c-.157-.063-.344-.094-.438-.25l.438.25z" fill="#C6B198"/><path d="M33.969 21.438h-.032l-.062-.032c-.156-.062-.313-.093-.406-.25-.032-.031-.032-.125.031-.156.031-.031.125-.031.156.031.063.094.188.125.313.188.031 0 .062.031.062.031.063.031.094.094.063.125a.237.237 0 01-.125.063z" fill="#000"/><path fill-rule="evenodd" clip-rule="evenodd" d="M20.125 1.25c4.25 0 8.219.594 10.313 4.688 1.875 4.562 1.187 9.5 1.5 14.343.25 4.157.78 8.938-1.125 12.782-2.032 4.03-7.094 5.062-11.25 4.906-3.282-.125-7.22-1.188-9.094-4.188-2.156-3.5-1.156-8.718-1-12.625.187-4.625-1.25-9.281.281-13.781 1.531-4.719 5.781-5.781 10.375-6.125z" fill="#6AD7E5"/><path d="M20.281 38.094H19.5c-1.281-.031-3.219-.25-5.125-1.031-1.844-.75-3.188-1.813-4.063-3.22-1.75-2.843-1.437-6.75-1.156-10.218.063-.875.125-1.687.156-2.469.063-1.625-.062-3.312-.218-4.906-.25-2.937-.5-5.969.468-8.906.75-2.188 2.094-3.75 4.125-4.75 1.594-.781 3.563-1.219 6.375-1.438 4.188-.03 8.344.563 10.438 4.72 1.375 3.343 1.375 6.937 1.406 10.405 0 1.313 0 2.657.094 3.97.031.405.062.812.062 1.218.25 3.812.532 8.125-1.218 11.625-.875 1.781-2.407 3.094-4.5 3.937-1.688.688-3.813 1.063-6.063 1.063zm-.156-36.75c-4.406.344-8.719 1.312-10.313 6.062-.968 2.907-.718 5.907-.468 8.813.125 1.625.28 3.281.218 4.937-.03.782-.093 1.594-.156 2.47-.281 3.437-.594 7.312 1.125 10.093.719 1.156 3.031 3.906 9 4.125h.781c6.907 0 9.47-3.063 10.407-4.875 1.718-3.438 1.437-7.75 1.218-11.531a15.883 15.883 0 01-.062-1.22 84.085 84.085 0 01-.094-3.968c-.031-3.437-.031-7.031-1.375-10.344-.937-1.843-2.344-3.093-4.281-3.812-2-.656-4.25-.75-6-.75z" fill="#000"/><path fill-rule="evenodd" clip-rule="evenodd" d="M20.875 6.937c.75 4.438 8 3.25 6.969-1.218-.938-4-7.22-2.875-6.97 1.218z" fill="#fff"/><path d="M24.313 9.844c-1.407 0-3.188-.75-3.563-2.875-.063-1 .25-1.907.906-2.594.719-.781 1.813-1.219 2.938-1.219 1.312 0 2.875.688 3.312 2.594.25 1.063.063 2-.531 2.75-.656.813-1.813 1.344-3.063 1.344zm-3.344-2.906c.156.875.562 1.562 1.218 2.062.563.438 1.344.656 2.125.656 1.157 0 2.282-.5 2.907-1.281.562-.688.718-1.594.5-2.594-.407-1.781-1.875-2.406-3.125-2.406-1.063 0-2.094.438-2.782 1.156-.593.625-.906 1.469-.843 2.407z" fill="#000"/><path fill-rule="evenodd" clip-rule="evenodd" d="M12.219 7.656c1 3.844 7.156 2.875 6.937-1-.281-4.625-7.906-3.75-6.937 1z" fill="#fff"/><path d="M15.5 10.219c-1.344 0-2.906-.656-3.406-2.531-.219-1.094 0-2.094.625-2.844C13.406 4 14.53 3.5 15.75 3.5c1.625 0 3.344.969 3.469 3.156.062.907-.219 1.719-.844 2.375-.656.719-1.75 1.188-2.875 1.188zm.25-6.5c-1.156 0-2.219.469-2.875 1.25-.594.718-.781 1.625-.563 2.656C12.75 9.375 14.25 10 15.5 10c1.063 0 2.094-.406 2.75-1.125a2.868 2.868 0 00.781-2.219c-.062-1.343-.968-2.937-3.281-2.937z" fill="#000"/><path fill-rule="evenodd" clip-rule="evenodd" d="M21.75 12.25c0 .563.125 1.219.031 1.844-.156.281-.437.312-.687.406a1.086 1.086 0 01-.781-.594c-.094-.687.03-1.375.062-2.062l1.375.406z" fill="#fff"/><path d="M21.094 14.625a1.133 1.133 0 01-.875-.656c-.063-.5-.032-.969 0-1.438.031-.219.031-.437.031-.656v-.125l1.594.5v.063c0 .187.031.374.031.593.031.406.063.844 0 1.25v.031c-.125.25-.344.313-.563.407-.062-.031-.125 0-.218.031zm-.688-.75a.936.936 0 00.657.531c.062-.031.125-.031.156-.062.187-.063.343-.125.437-.281.063-.376.031-.782 0-1.188 0-.188-.031-.375-.031-.531l-1.188-.375c0 .187-.03.375-.03.531-.032.5-.063.938 0 1.375z" fill="#000"/><path fill-rule="evenodd" clip-rule="evenodd" d="M14.969 7.031c0 .625-.469 1.125-1.031 1.125-.563 0-1.032-.5-1.032-1.125s.469-1.125 1.031-1.125c.563 0 1.032.5 1.032 1.125z" fill="#000"/><path fill-rule="evenodd" clip-rule="evenodd" d="M14.625 7.281c0 .157-.125.282-.25.282s-.25-.125-.25-.282c0-.156.125-.281.25-.281.156 0 .25.125.25.281z" fill="#fff"/><path fill-rule="evenodd" clip-rule="evenodd" d="M23.688 6.75c0 .625-.47 1.125-1.032 1.125s-1.031-.5-1.031-1.125.469-1.125 1.031-1.125c.563 0 1.032.5 1.032 1.125z" fill="#000"/><path fill-rule="evenodd" clip-rule="evenodd" d="M23.375 7c0 .156-.093.281-.25.281-.125 0-.25-.125-.25-.281 0-.156.094-.281.25-.281.125 0 .25.125.25.281zm-4.625 5.188c-.468 1.093.25 3.312 1.5 1.687-.093-.688.032-1.375.063-2.063l-1.563.376z" fill="#fff"/><path d="M19.407 14.563c-.22 0-.438-.126-.594-.376-.344-.5-.406-1.437-.156-2.03l.03-.063 1.72-.438v.125l-.032.688c-.031.469-.062.906 0 1.375v.031l-.031.031c-.313.438-.625.656-.938.656zm-.563-2.282c-.188.531-.125 1.375.156 1.781.125.188.25.282.407.282.218 0 .468-.188.718-.5a5.04 5.04 0 01.032-1.375l.03-.531-1.343.343z" fill="#000"/><path fill-rule="evenodd" clip-rule="evenodd" d="M18.906 10.063c-.843.062-1.53 1.093-1.093 1.874.593 1.063 1.875-.093 2.687 0 .938.032 1.688 1 2.438.188.843-.906-.375-1.781-1.282-2.188l-2.75.126z" fill="#F6D2A2"/><path d="M22.281 12.563c-.281 0-.562-.126-.844-.25-.28-.126-.593-.25-.937-.25h-.094c-.25 0-.531.093-.844.218-.343.125-.687.219-1 .219-.375 0-.656-.156-.843-.5-.22-.375-.188-.813.03-1.219.25-.469.688-.75 1.157-.812l2.781-.125h.032c.687.281 1.468.812 1.625 1.437.062.313-.032.625-.282.906-.25.282-.5.376-.78.376zm-1.75-.688c.344 0 .688.156 1 .281.281.125.531.219.781.219.22 0 .407-.094.594-.281a.828.828 0 00.25-.719c-.125-.531-.875-1.031-1.469-1.281l-2.718.125c-.407.031-.782.312-1 .687a1.099 1.099 0 00-.032 1.031c.157.282.344.407.657.407.28 0 .593-.125.906-.219.344-.125.625-.219.937-.219 0-.062.032-.062.094-.031z" fill="#231F20"/><path fill-rule="evenodd" clip-rule="evenodd" d="M18.813 10.031c-.063-1.469 2.75-1.656 3.062-.437.344 1.25-2.938 1.53-3.063.437z" fill="#000"/></svg>