<svg xmlns="http://www.w3.org/2000/svg" width="20" height="20" fill="none"><g clip-path="url(#a)"><path fill="#4285F4" d="M19.6 10.227c0-.709-.064-1.39-.182-2.045H10v3.873h5.382a4.61 4.61 0 01-2.01 3.009v2.518h3.246c1.891-1.746 2.982-4.31 2.982-7.355z"/><path fill="#34A853" d="M10 20c2.7 0 4.963-.89 6.618-2.418l-3.246-2.518c-.89.6-2.027.963-3.372.963-2.6 0-4.81-1.754-5.6-4.118H1.072v2.582c1.646 3.264 5.018 5.51 8.928 5.51z"/><path fill="#FBBC05" d="M4.4 11.9a5.99 5.99 0 01-.318-1.9c0-.664.118-1.3.318-1.9V5.518H1.073A9.876 9.876 0 000 10c0 1.618.39 3.136 1.073 4.482l2.59-2.018.737-.564z"/><path fill="#EA4335" d="M10 3.982c1.472 0 2.781.509 3.827 1.49L16.69 2.61C14.954.991 12.7 0 10 0 6.09 0 2.718 2.245 1.072 5.518L4.4 8.1c.79-2.364 3-4.118 5.6-4.118z"/></g><defs><clipPath id="a"><path fill="#fff" d="M0 0h20v20H0z"/></clipPath></defs></svg>