<svg width="41" height="40" viewBox="0 0 41 40" fill="none" xmlns="http://www.w3.org/2000/svg"><g clip-path="url(#clip0_11_19408)"><path d="M20.534 26.225l.006-.015c-.008-.037-.01-.046-.006.015z" fill="#484444"/><path d="M20.534 26.225l.006-.015c-.008-.037-.01-.046-.006.015z" fill="url(#paint0_linear_11_19408)"/><path d="M20.803 36.076c-.14-.293-.318-.867-.434-1.12-.112-.235-.449-.85-.617-1.048-.367-.43-.454-.461-.562-1.005-.188-.944-.685-2.658-1.27-3.841-.303-.61-.806-1.123-1.266-1.566-.402-.388-1.308-1.042-1.466-1.008-1.48.295-1.939 1.746-2.636 2.896-.384.636-.792 1.177-1.096 1.853-.28.623-.255 1.311-.735 1.845-.493.549-.813 1.132-1.053 1.84-.047.135-.176 1.548-.318 1.884l2.2-.155c2.05.14 1.457.926 4.657.754l5.051-.156a14.734 14.734 0 00-.456-1.173z" fill="url(#paint1_linear_11_19408)"/><path d="M35.46 2.57H5.542A5.04 5.04 0 00.502 7.61v10.995c.722-.262 1.758-1.795 2.083-2.168.569-.652.671-1.485.955-2.008.645-1.194.756-2.014 2.221-2.014.684 0 .955.157 1.417.777.321.431.878 1.228 1.137 1.76.3.616.79 1.447 1.005 1.614.16.126.317.219.465.274.236.09.434-.074.593-.2.203-.163.29-.491.479-.93.27-.634.565-1.394.733-1.66.29-.458.39-1 .703-1.264.464-.388 1.067-.415 1.234-.448.93-.185 1.353.448 1.81.857.3.267.71.806 1.002 1.528.227.565.516 1.087.637 1.414.117.313.406.818.577 1.421.155.55.571.971.729 1.231 0 0 .242.677 1.712 1.297.32.135.964.354 1.348.493.64.233 1.259.202 2.047.108.562 0 .867-.814 1.122-1.466.151-.384.296-1.49.395-1.802.095-.305-.129-.54.062-.808.222-.312.354-.33.482-.736.276-.87 1.87-.914 2.765-.914.75 0 .651.725 1.919.477.725-.143 1.424.093 2.195.297.648.172 1.257.367 1.623.796.237.277.823 1.664.225 1.723.057.07.1.197.207.267-.133.523-.713.15-1.034.082-.434-.089-.74.014-1.164.202-.725.323-1.786.286-2.419.811-.535.447-.534 1.442-.784 2 0 0-.695 1.787-2.211 2.88-.388.28-1.146.954-2.798 1.21-.74.114-1.433.123-2.194.085l-1.097-.042c-.217 0-.957-.025-.92.046L19.68 26c.013.068.04.235.047.277.03.165.04.297.045.449.011.312-.025.638-.01.955.034.654.276 1.252.307 1.912.034.737.398 1.514.75 2.116.134.228.337.254.426.536.103.322.006.665.056 1.01.197 1.332.58 2.727 1.183 3.931a.21.21 0 00.013.03c.742-.124 1.486-.391 2.45-.534 1.766-.261 4.225-.127 5.803-.275 3.994-.374 6.162 1.639 9.751.813V7.61a5.042 5.042 0 00-5.04-5.04zM20.535 26.224c-.005-.06-.002-.052.006-.014l-.006.014z" fill="url(#paint2_linear_11_19408)"/><path d="M9.724 30.853c.278-.609.44-1.302.67-1.924.222-.596.567-1.441 1.156-1.741-.071-.084-1.23-.122-1.54-.154l-1-.141-1.927-.397c-.375-.09-1.62-.532-1.892-.657-.635-.293-1.057-1.087-1.553-1.006-.317.052-.628.16-.822.48-.161.261-.216.71-.328 1.01-.129.349-.352.674-.548 1.006-.36.61-1.007 1.161-1.285 1.756a3.669 3.669 0 00-.153.401v6.793l1.046.225c2.81.751 3.497.815 6.253.498l.259-.034c.21-.44.373-1.934.51-2.396.106-.355.253-.638.309-1 .052-.344-.005-.671-.036-.985-.075-.783.572-1.062.882-1.734h-.001z" fill="url(#paint3_linear_11_19408)"/></g><defs><linearGradient id="paint0_linear_11_19408" x1="20.536" y1="26.18" x2="20.536" y2="26.224" gradientUnits="userSpaceOnUse"><stop stop-color="#F29100"/><stop offset="1" stop-color="#EC670F"/></linearGradient><linearGradient id="paint1_linear_11_19408" x1="15.305" y1="26.486" x2="15.305" y2="37.43" gradientUnits="userSpaceOnUse"><stop stop-color="#F29100"/><stop offset="1" stop-color="#EC670F"/></linearGradient><linearGradient id="paint2_linear_11_19408" x1="20.501" y1="2.57" x2="20.501" y2="37.422" gradientUnits="userSpaceOnUse"><stop stop-color="#F29100"/><stop offset="1" stop-color="#EC670F"/></linearGradient><linearGradient id="paint3_linear_11_19408" x1="6.026" y1="24.827" x2="6.026" y2="37.182" gradientUnits="userSpaceOnUse"><stop stop-color="#F29100"/><stop offset="1" stop-color="#EC670F"/></linearGradient><clipPath id="clip0_11_19408"><path fill="#fff" transform="translate(.5)" d="M0 0h40v40H0z"/></clipPath></defs></svg>