<svg width="41" height="40" viewBox="0 0 41 40" fill="none" xmlns="http://www.w3.org/2000/svg"><g clip-path="url(#clip0_11_19967)"><path d="M20.771 18.253c-4.131 0-7.885.497-10.664 1.306v6.915c2.779.81 6.533 1.306 10.665 1.306 4.728 0 8.962-.65 11.806-1.676v-6.175c-2.844-1.025-7.078-1.676-11.807-1.676zm16.066 5.618l-.485-1.003c.003-.038.005-.076.005-.114 0-1.138-1.183-2.186-3.173-3.026v6.05c.929-.391 1.682-.828 2.22-1.299-.158.638-.7 1.928-1.132 2.835-.711 1.297-.968 2.426-.935 2.482.02.035.263-.339.62-.945.832-1.185 2.409-3.448 2.724-4.024.357-.654.156-.956.156-.956zM5.494 22.82c0 .219.044.435.13.646l-.29.517s-.233.301.176.937c.361.56 2.169 2.756 3.123 3.905.41.59.688.953.712.918.038-.056-.255-1.162-1.069-2.425a23.105 23.105 0 01-1.105-2.24c.76.482 1.754.918 2.936 1.294v-7.104c-2.848.905-4.613 2.162-4.613 3.552z" fill="#A52B00"/><path d="M20.257 7.744l-.946 1.581-.462.04-1.23-1.364a.463.463 0 00-.48-.165.566.566 0 00-.383.344l-.62 1.759c-.147.032-.29.08-.427.14l-1.467-1.111a.561.561 0 00-.496-.06.593.593 0 00-.325.416l-.302 1.86-.395.216-1.616-.763a.463.463 0 00-.513.045c-.147.09-.234.279-.244.46l.061 1.88-.336.288-1.741-.415c-.186-.062-.361.005-.504.147a.566.566 0 00-.137.503l.418 1.823a3.96 3.96 0 00-.278.36l-1.815-.073a.462.462 0 00-.444.245c-.089.163-.122.372-.03.545l.743 1.692-.223.407-1.755.308a.514.514 0 00-.411.32.669.669 0 00.047.538l1.062 1.51-.02.078-2.978 3.154s-.435.348.208 1.196c.58.724 3.573 3.64 5.154 5.18.337.451.729.86 1.166 1.216.07-.084-.312-1.497-1.618-3.14-1.009-1.487-2.32-3.775-2.032-4.032 0 0 .349-.444 1.07-.765-.028-.024-.028-.024 0 0 0 0 14.83 6.839 28.578.108 1.576-.293 2.529.554 2.529.554.327.204-.526 2.552-1.216 4.11-.957 1.763-1.094 3.144-1.013 3.189.353-.408.652-.86.89-1.344 1.222-1.683 3.497-4.904 3.92-5.69.489-.895 0-1.162 0-1.162l-3.174-2.332-.08-.328 1.03-1.511c.117-.14.125-.347.058-.522a.514.514 0 00-.39-.327l-1.784-.31-.19-.396.728-1.717a.514.514 0 00-.047-.538.458.458 0 00-.432-.22l-1.804.054-.29-.362.41-1.819a.592.592 0 00-.122-.506.514.514 0 00-.505-.162l-1.745.437a3.956 3.956 0 01-.336-.307l.043-1.863a.592.592 0 00-.222-.472.464.464 0 00-.52-.032l-1.612.761-.407-.222-.29-1.835a.516.516 0 00-.32-.411.463.463 0 00-.512.045l-1.455 1.083-.424-.118-.618-1.754a.541.541 0 00-.393-.353.54.54 0 00-.501.173L22.519 9.38l-.445-.065-.938-1.571a.514.514 0 00-.438-.272c-.181-.01-.352.109-.44.271z" fill="url(#paint0_linear_11_19967)"/><path d="M15.761 28.256c-.056-.049-.086-.078-.086-.078l4.858-.398c-3.963-5.227-7.138-1.063-7.475-.597v1.073h2.703zm10.115-.057c.056-.048.086-.077.086-.077l-4.668-.341c3.964-5.443 6.948-1.12 7.285-.654v1.072h-2.703z" fill="#000"/><path d="M33.345 23.009s-.528 2.113-3.834 4.335l-.92.218s-2.996-5.464-7.24.692c0 0 1.321-.765 4.864.173 0 0-1.63 2.495-4.909 2.413 0 0 3.142 3.78 7.932-1.675 0 0 5.063-1.958 5.473-6.156h-1.366z" fill="url(#paint1_linear_11_19967)"/><path d="M23.5 20.3s1.481-1.622 2.963 0c0 0 1.165 2.165 0 3.246 0 0-1.905 1.515-2.964 0 0 0-1.27-1.19 0-3.245z" fill="#000"/><path d="M25.217 20.903c0 .632-.372 1.144-.831 1.144-.46 0-.832-.512-.832-1.144 0-.632.372-1.144.832-1.144.459 0 .831.512.831 1.144z" fill="#fff"/><path d="M16.886 19.858s2.542-1.126 3.236 1.387c0 0 .727 2.928-2.088 3.093 0 0-3.589-.691-1.148-4.48z" fill="#000"/><path d="M18.163 20.945c0 .651-.384 1.18-.858 1.18s-.858-.529-.858-1.18c0-.652.384-1.18.858-1.18s.858.528.858 1.18z" fill="#fff"/><path d="M13.073 29.498c4.643 5.955 6.842 1.173 6.842 1.173-2.606-.293-4.455-2.028-4.455-2.028 3.128-.4 4.936-.432 4.936-.432-4.187-5.522-7.584-.521-7.584-.521-.847-.31-1.718-1.49-2.362-2.582l-2.598-.766c2.989 5.083 5.221 5.156 5.221 5.156z" fill="url(#paint2_linear_11_19967)"/></g><defs><linearGradient id="paint0_linear_11_19967" x1="21.608" y1="33.225" x2="19.366" y2="7.59" gradientUnits="userSpaceOnUse"><stop stop-color="#F74C00"/><stop offset=".33" stop-color="#F74C00"/><stop offset="1" stop-color="#F49600"/></linearGradient><linearGradient id="paint1_linear_11_19967" x1="28.009" y1="32.115" x2="28.009" y2="23.009" gradientUnits="userSpaceOnUse"><stop stop-color="#CC3A00"/><stop offset=".15" stop-color="#CC3A00"/><stop offset=".74" stop-color="#F74C00"/><stop offset="1" stop-color="#F74C00"/></linearGradient><linearGradient id="paint2_linear_11_19967" x1="14.124" y1="32.488" x2="14.124" y2="24.342" gradientUnits="userSpaceOnUse"><stop stop-color="#CC3A00"/><stop offset=".15" stop-color="#CC3A00"/><stop offset=".74" stop-color="#F74C00"/><stop offset="1" stop-color="#F74C00"/></linearGradient><clipPath id="clip0_11_19967"><path fill="#fff" transform="translate(.5)" d="M0 0h40v40H0z"/></clipPath></defs></svg>