<svg width="40" height="40" viewBox="0 0 40 40" fill="none" xmlns="http://www.w3.org/2000/svg"><path d="M7.813 34.511v-4.863h1.755c.972 0 2.516-.064 3.446-.148l1.65-.127-2.2-.592c-1.226-.317-2.77-.782-3.425-1.036L7.813 27.3v-9.918h1.966c1.057 0 2.601-.063 3.404-.148l1.48-.126-2.6-.698c-1.438-.36-2.96-.846-3.426-1.036l-.825-.38v-9.6l.656-.149c.36-.063 1.248-.126 1.967-.126 3.552 0 11.99-1.164 16.133-2.22 2.897-.762 4.906-1.523 5.604-2.158.36-.317.38-.127.38 4.547v4.884l-.507.38-.508.402 1.016.889v10.593l-.508.381-.508.402 1.016.888v10.594l-.55.422c-.592.466-2.876 1.248-5.477 1.904-4.06 1.015-13.977 2.347-17.36 2.347H7.812V34.51z" fill="#390D09"/><path d="M7.813 34.554V29.71l3.7-.148c3.849-.147 6.703-.465 10.89-1.184 4.758-.824 9.452-2.304 9.938-3.15.127-.212.212 1.417.212 4.567v4.906l-.55.423c-.592.465-2.876 1.248-5.477 1.903-4.06 1.015-13.977 2.347-17.36 2.347H7.812v-4.821zm0-12.264v-4.843l3.7-.127c4.102-.17 7.295-.529 11.524-1.311 4.737-.888 9.05-2.326 9.368-3.108.063-.148.127 1.903.127 4.567.02 4.23-.022 4.906-.339 5.244-.74.825-6.45 2.305-12.328 3.214-3.573.55-9.494 1.185-11.143 1.185h-.91V22.29zm0-12.18V5.373l.655-.126c.36-.064 1.248-.127 1.967-.127 3.552 0 11.99-1.163 16.133-2.22 2.897-.762 4.906-1.523 5.604-2.158.36-.317.38-.126.38 4.525 0 4.547-.02 4.885-.401 5.224-.571.528-4.483 1.733-7.528 2.347-4.927.972-13.11 2.009-15.901 2.009h-.91V10.11z" fill="#DE3423"/></svg>