<svg xmlns="http://www.w3.org/2000/svg" width="98" height="64" fill="none"><g fill="#1D1B1E" clip-path="url(#a)"><path d="M61.845 60.824l.137-.02.14.085.348.013.085.074.053.233-.107.054-.156-.022-.068.075.016.118.137.127.388-.15.27.16.038.172-.022.061-.186.108-.008.275.047.084.456.223.062.36.41.658-.077.138h-.117l-.054.052-.007.129-.216-.004-.32.12-.236.012-.17-.257-.215.02-.088-.053-.08-.326-.104-.129-.07-.033-.258.032-.27-.113-.096.045-.174-.242-.298-.216-.118-.168.118-.06.002.137.04-.033.004.06.04-.174.088.157-.054-.189.06-.05.422-.097.427.025-.157-.093-.272-.045.122-.083.073-.228-.062-.895.077-.127z"/><path d="M78.597 56.49l.012.045-.085.049-.12.204-.317.006-.266-.124-.121.066-.035.168.196.127-.09.092-.231.065-.112.102.046.182.034-.123.032.088-.194.402.102.582.184.3-.45.296-.615.048-.202.185-1.067-.172-.189.033-.093.124-.142.072-.253-.046-.373.154-.046-.108-.11-.061.001-.137-.2-.215-.454-.293-.573-.174-.463.096-.32.174-.29.32.01.191.196.096-.362.182-.024.095.06.094.134.066-.03.044-.342-.157-.328.035-.067.083.023.12-.079.15-.254.061-.165.099-.13.284-.032.26-.257.23-.181-.062.01-.107-.104-.105-.16-.04-.063.042-.126-.082-.26.076-.001.064-.125.039-.125-.042-.77.075-.32.179-.332.103-.824.472-.23.283-.242.608-.115.058-.01.258-.224-.036-.158.097-.146.256-.446.09-.218.485-.362.064-.145.113-.256.018-.088.064-.495-.09.007-.128.054-.052h.117l.077-.138-.41-.657-.062-.36-.456-.224-.047-.084.008-.275.186-.108.022-.061-.038-.173-.27-.158-.388.149-.137-.127-.016-.118.068-.075.156.022.107-.053-.053-.234-.085-.074-.349-.013-.139-.084-.137.019.024-.222.102.011.11-.064.072-.16.036-.31-.07-.495.023-.158-.222-.66-.263-.367-.348-.316-.343-.16-.201.17-.247.01-.12.194-.125-.003-.17-.197-.231-.076-.196-.142-.462-.552-.417-.373-.432-.268-.276-.054-.534.026-.576.384-.85-.245.101-.108.006-.102-.185-.163.336-.444.25-.198.43-.252.145-.043.072.033.021-.1.426-.251.078.066.077-.04.038.04.103-.171-.032-.058-.104.003.016-.042.478-.39 1.002-.548.23-.038.088-.166.11-.494-.04.133.066.116.195.146.125.02.6-.254.399-.38.128.08.037-.072.096-.026V53l.065-.039.053-.005.034.11.155-.056.035.097.043-.002.128-.254.067.011.188-.174.13.13.098.02.146.217-.016-.494.083.005.168-.154.16.031.024-.044-.078-.17-.455-.03-.126.048-.01.05-.105-.035.077-.126-.092-.685.152-.231-.147-.395.112-.04-.117-.665.159-.026.227.22.085.02.051.24.058-.054.05.02-.02.137.064.087.107.039.06-.052.127.179.036.012.166-.236-.091-.035-.037-.17.093-.06.109.078.113.17v.09l-.14.17.038.067-.118-.04-.013.076.158.016.197.161.078.272-.022.045-.066-.034-.02.128.052-.069.07.07.03-.026-.005-.2.069-.079.081-.031.048.036-.051.022.016.078.064.16.048.01.048-.029-.115-.16.288-.048-.074-.076-.121.041-.167-.114.066-.093.414-.06.248.21h.079l.057.223.205.068.205.24.1.03-.241.246-.043-.005-.024-.102-.15.011.11.217.174.008-.019.103.238-.066.047-.064.067.063.022-.052-.07-.049-.048-.321-.094-.07.033-.087-.113-.028.052.08-.059.017-.163-.237-.098-.066-.065.036.04-.152.182.143.106-.054.21.1.065-.02.136.115-.002.096-.076.022.08.169.033-.033-.05-.125.175-.273.078.066-.06.164.043.13.211.055.006.062.082-.079-.04-.072.034-.06-.127-.037.008-.05.14-.013.083-.066.187.235.1.276.434.346-.06.219.047.174.154-.083.117-.293.18.1.082-.052-.156-.392.072-.09-.066-.063.453.287.057.106-.117.375-.401.187-.002.158-.206.177-.022.098-.271.015.069.153.395-.082.336-.364.266-.2.398-.125.118-.09.085.147-.059.099-.131-.105-.327.172-.086.425.512-.176.02.153.062-.016.083.09-.109.16-.078.03-.021.128-.202.026-.19.204.094.03.028.082.294-.13.077.015.13-.096.489-.131-.306.243.08.023-.005.165.22-.141.086.11-.067.039-.002.088.091.084.108-.075.273-.05-.028.16.11.12.238.071.327.617.128.553-.131.157-.232.087-.08.111.16.376.163.226.267.187.083-.008.061-.072.166.027.432.274.416.162.06.076-.162.145.13.09-.007.087.104-.188.405-.086.053.048.02-.271-.252-.03-.171-.296-.207-.126-.14-.271-.085.026-.442-.735-.242-.323-.152-.12-.398-.585-.107-.07-.122-.272-.093-.102h-.067l-.197-.583-.15-.207.09-.046.6 1.146 1.278 1.734.544.58.3.222.316.15.475-.225.612-.153.038-.127.173-.161.011-.072-.066-.082.399-.32-.013-.2.16-.092.126.055-.147.137.12.211.309.267.269.111.256-.02.185-.129.098-.134-.013-.242.074-.067.408-.15.677-.095.187.081.115-.044.159.059.224.164.214-.078.138.01.278.214.14.033.073-.033.033-.094.119.014.096.127-.023.11.184.143zM54.086 18.297l.043.035-.067.097.27.21.074.172.666.19.03.201-.282.066.11.113-.084.127.298.364.057-.008.054-.15.096.075-.017.108.109.017.078.432.253.161-.046.204.064.056-.055.023-.026.181.111.126-.176.107-.063-.077-.09.083.335.423.076.217.286-.074.07.256.215.03.093.155.006.406.478.168.112.152.136.031-.057.102.081.262-.084.088.316.225-.041.042.008.38-.213.208-.184.006-.014.408-.116.093.159.103-.021.2.074.127.121-.005.123.094.015.17-.464-.013-.315-.176-.303-.034-.173-.212-.164.406-.09.082.013.047.078.004-.064.104.216.177.221.07.086.11.148.057.11.198.1-.065.138.107.335-.075.145.06.101.148.288-.144.218.022-.053.132-.395.36-.083.195.092.138.63.212v.177l-.417.177.082.065.069.315-.07.129.23.097.006.051-.15.016-.002.079-.598.125-.02-.096-.174.02-.016-.06-.104-.016-.048.083.062.13-.38.025-.015-.073-.126.108-.043-.068-.188-.062.045.215-.142.006-.125-.606-.133.06-.04-.18.039-.041-.116-.038-.05-.105-.111.184-.224-.032-.066-.039.032-.1-.05-.173-.068.02-.018-.089-.28.06-.077-.094-.01.045-.118.003-.006.154-.147.008-.082.58-.171-.092-.045.196-.233.067-.007.104.112.083-.006.199-.044.04-.212.009-.037.066-.06-.02.017-.108-.221.005-.123-.111-.119.142-.321.063-.16.192.003-.197-.394-.218-.099-.006-.11-.116-.05.079-.26.103-.254-.034-.081.276-.354-.066-.226.149.084-.162-.064-.047-.093.096.062.036-.046.044.067.14-.117.098.042.054-.083.146.048.048-.175.108-.003.112-.405.182-.156.136.056.07-.03.045-.087-.054v.08l-.108.087.012-.105-.079.153-.134-.083-.014.091-.132.005-.107-.243-.253.072-.056-.138-.187-.027-.06.104-.183-.038-.106.158-.062-.04-.056.072-.035-.03-.05.105-.115-.088-.032.055-.098-.04-.077-.148-.052.023-.127-.08-.115.03-.038-.055-.172.025-.067-.067-.041.005.014.09-.274-.023-.01.1-.06.024-.267-.046-.117-.137-.045.103-.265-.099-.016.068-.108.01-.201-.065-.314.131-.01.093-.06-.022-.082.184-.18-.01.185.193-.069.265-.222.077-.136.207.217.18-.062.076.046.039-.014.187-.456.026-.146-.15-.27.069-.087.362-.339.052-.107.085-.27.056.006.129-.14.051-.062.01-.305-.188-.067.06-.028.175-.18.188-.114-.01-.237-.225-.437.072-.003-.143.192-.047.02-.14-.076-.045.15.005-.083-.433-.252-.075-.058-.098.018-.114.192-.025.04-.177-.087-.005-.017-.118-.165-.052.011-.127-.14-.004-.222-.22-.094-.005.029-.066-.066-.048.06-.129.105-.019-.123-.186.025-.054-.536-.17-.053-.493-.134-.085-.053-.245-.057-.058.099-.105-.165-.083-.078.044-.19-.202.062-.091-.063-.063.237-.356-.054-.033-.005-.147-.229.094-.187-.339.048-.019v-.08l.069.108.124-.34.196.063-.032-.203.281-.081-.006-.093h-.066l-.043-.09.069-.443-.117-.2.114.024.05-.067.114.025-.056.122-.1.033.206.225.266-.052.041.064.183-.08.155.016-.048-.12.122-.04.184-.353.13-.052-.006-.224-.068-.159.03-.089.066.034.203-.056.088-.118.083-.02.246.069.066.298.11.132.084-.124-.074-.152.114-.05.09-.187.015.075.28-.027-.064.427.938.16.013.148.05.007.134-.524.112-.03-.02-.194.129-.037.004-.153.18-.108.246.303h.105l.178-.212.07.027.127-.152.166.11.194.001.309.196.105-.105.18.002.1-.079.354.017.093-.078.131.02.069-.178.057-.002.023-.213-.08-.073.405-.058.059-.078-.01-.127.131-.176.085.116-.024-.134.119-.043.168-.16.04-.376.064-.098.057-.028.087.088.027-.077.051.006-.07-.142.054-.054-.104-.015.027-.18.373-.558-.018-.131.074.034.027-.066-.113-.062.056-.232.057-.037-.069-.155.042-.197-.136-.109.162-.34-.055-.171.186-.118.088.079.171-.22.46-.143.012-.06-.147-.219-.078-.023-.004-.063.068-.047-.202-.108-.12.053.13-.146-.095-.01.048-.114.443-.037.202.036.091.08.023.064-.116.318.007.275.093.193.14.031.045.115.107-.018.034.146.066-.017.027-.216.21-.032.057-.16.085-.025.027-.077.122.008.025.422.536.047.207-.345.102-.01-.011-.211.145-.129.106-.259.39.027.07.177.092-.193-.1-.445.358-.204.083.012.024-.076-.312-.074-.117.028.02-.372.335-.183-.077-.126-.06.02-.06-.167.156.044.18-.352-.024-.058.11-.033.23.143.16-.28.11.012.053-.069zM59.949.127l.06-.017.517.216L60.6.29l.104.033.195-.176.1.007.122.103-.016.077.082.04-.075.195-.128.047.062.143-.083.03.048.056-.067.076.006.114-.056.086-.07.01.045.128-.1.176-.184.07.092.107-.11.109.018.116.119.17-.058.018-.029.149.11.016-.08-.038.074-.044.392.177-.012.088.13.046.049.11-.032.078.104-.028.179.06.048-.043-.003.425-.171.005-.224.097-.128-.2-.077-.004-.181.17-.21-.007-.065.14.165.069.216.259-.125.41-.133.004-.077-.065-.1.032-.034.105-.168-.041-.061.085-.147.01.01.068-.24.019-.004.168-.293.182.03.252.058.025.044.121-.125.055-.116.246-.072-.008-.044.066.062.02.067.228.172.19.043.497-.082.168.13.038.014.271.194.218.17.03-.085.09-.252-.009-.019.066.07.168.087.047.038.267-.232.122-.064-.028-.038.102.024.133-.072.09-.038.25.102.095-.087.113.096.051-.023.142-.074-.005-.032-.08-.128-.011.037.074.08.006.01.111-.132.02-.137-.03.003-.095-.128-.067.102-.113-.05-.041-.153.11.107.227-.011.193.15-.003.077.191-.066.14-.111.035.07.056-.1.022.178.04-.078.202.051.1-.198.218.044.191-.072.049-.2.008-.076.084.044.041-.121.184.161.153-.256.432.063.055.022-.041.421.075.008.079.171.033-.054.163.125.103-.136.1-.088.275.192.08.001-.08.213-.122.119.415.056.03.065-.05.211-.01-.022.311.057.251-.132-.001-.066.062.05.165-.06.127.082.035-.155.182.067.227-.078.066.19.365h.1l.038.087.096-.011.036.044-.136.089-.407.093.073.14-.016.316-.171.088.026.075-.096.292.099.061-.114.03-.017.1-.263.319.1.17-.135.143-.104.011-.058.243-.217-.007.03.102-.06.023-.033.133-.078-.012-.075.067.041.057-.152.048.02.127-.43.29-.255.024-.02.076.074.045-.051.07-.114-.053-.033.04-.077-.084-.035.057-.02-.044h-.366l.008-.108-.211.028-.018.094-.374-.027-.2.12-.213-.206.034-.245-.26.005-.227-.107-.041.038-.125-.061-.024-.11-.235.022-.04.066.04.1-.159.07-.02.136-.2.055.057.09-.06.128-.084-.063-.054.045-.056-.064-.392.086-.013-.056.093-.12-.02-.067-.201-.036-.183.052-.043-.152.12-.184-.269.123-.137-.479-.308-.105.056-.092-.076-.041.105.012.013-.095.082-.008.04.084.195-.06.1-.142-.055-.099.054-.15-.155-.01-.359.013-.083-.03-.166-.419-.211-.102-.133-.197-.258.069-.001.124-.14.026.026.2-.06.032.014.143-.508-.026-.105.106-.109-.033-.002.165-.084.096-.327-.043-.083.072-.18-.089-.026.063-.14-.003-.285.178-.12-.012-.022-.124-.235-.141-.224.277-.056-.214-.333-.123.003-.138-.044.005-.021-.094-.31-.055-.002-.112-.108-.003.004-.166.268.019.048-.052-.043-.058.037-.058-.14-.136.12-.226-.023-.203-.06-.02-.004-.07-.085.028-.006-.185-.127-.011.005-.077-.235-.143.011-.2-.262-.042-.055.132-.59.006-.039.052-.268-.074-.06-.06-.072.045-.019.175-.12.022-.09-.006-.022-.09.072.012.005-.088.157-.122-.216.16-.317-.148-.2.05-.013-.103.069-.13-.085-.134.074-.026.083.062.02-.113.076-.064-.066-.365-.158-.09-.029-.074-.25-.065-.126-.37-.1-.137-.004-.303-.211-.084-.02-.137-.538.033-.036-.25.076-.183-.128-.175.15-.071.024-.064-.13-.187-.017-.296.057-.08.141.02.067-.044-.126-.063.078-.146-.142-.186.048-.052.189.019.05-.04-.009-.127-.093-.105.405-.199.048-.17-.107.046.05-.058-.101-.056.162-.154.147-.061-.074-.184.096-.157-.195-.398-.13.033-.048-.049-.024-.188.216-.08.007-.055-.173-.095-.038-.21-.077-.073.072-.306-.064-.037-.123.083-.101-.185.003-.072.134-.066-.14-.04-.101-.11.054-.065.147.036.052-.049-.12-.078.006-.06-.146-.037.015-.098.13-.156-.098-.109.07-.051.11.105.11.01.033-.134-.067-.242.325-.067.025-.187.11-.207-.041-.04-.133.037-.017-.064.099-.06.13.008-.014-.077.085-.111-.096-.245.235-.102.058-.254.175-.15.048-.16.294.035.122-.199-.08-.235.07-.06.115.07.05-.06-.08-.004.001-.06.132-.084.05.043.09-.024-.02-.12.132-.03-.092-.077.05-.076.08.107.082-.02-.001-.087-.095-.034.037-.06-.035-.053.088-.017-.04-.084.067.01-.065-.061.084-.047-.081-.116.046-.02.03.087.055.005-.08-.2.1-.014-.009-.125.069-.013-.006.066.136.047.432-.111.17.005.236-.104.104.195.285.065-.008.087.078.094.152.074.232-.088.12-.248-.038-.047.066-.159.33-.136-.04-.105.143-.072.255.003.096.188.113.022.163-.078.464.098.364-.003.225.066.043.099.322-.149.19.127.274-.102.189.066.304.215-.016.088-.077.084-.115.025.043.059-.067.025.302-.074.668.163.023-.094.186.01.08-.227.263-.009.151-.118.159-.028.206-.132.015-.144.126-.022.014-.094.255-.11-.016-.084-.203.036.113-.33-.125-.266.116-.19.192.019.086-.06-.06-.093.038-.164h-.112L55.38.649l.008-.131.061-.063.2-.006.18.122.137-.038.133.115.113-.12.221.02.163.217.15-.042.41.303.098.177.296-.155.051.075.175-.058.099.042.115-.161.246.04.017.217.111.027.3-.237.176.005.044-.132.213-.159.096-.183.061.03.008.075-.06.033.036.07.25-.199.104-.161.185.04.011-.276.097-.01.022-.05.042.051zM18.948 30.966l.456.088.127.235.118-.24.087-.097.062-.002.104.06.275.364-.024.2.135-.021.179.103.14-.039.22-.237.248.093.056-.259.105-.038.05.055.034.273-.119.18.272.37.175-.118-.01-.116-.16-.258.027-.114.088-.052.146.163.017.411.114.16.157.025.386-.117.18.247.13-.06.149.07.21-.22.278-.022.232-.055.361.687.258.052.144-.081-.1-.258.018-.102.125.008.128.166.218-.004.09-.065-.033-.106-.158-.141-.029-.124-.264.039-.051-.066.022-.083.08-.06.127.002.243.23.133.005.065-.055.018-.111-.024-.116-.1-.097.047-.07.109.071.056.248.109.016.091-.162-.096-.234.138-.116.116.044-.032.179.108.191.212.14.124-.055.139-.212.214-.01.123-.101.052.141.462.108.176-.008.122-.14.13-.054.44.14.103-.143-.145-.196.043-.121.19-.003.213.188.127-.058.048-.179.108-.01.43.246.16.472-.015.262.107.199.186.1-.167.12-.166.021-.146.328-.31.002-.056-.082.011-.116-.067-.055-.088-.053v.067l-.056-.06-.018.062-.093-.017-.197.568-.107-.077-.155.056-.114-.122-.111-.033-.146.12-.152.037-.25-.284-.053-.2-.1.109-.261-.014.13.098.048.236-.018.039-.095-.058-.137.027-.05.172-.347-.103-.014.056-.164-.149.008-.12-.112-.17-.14.047-.388-.04-.134.158-.15-.088-.07.048.274.394.154.085.08-.061.075.058.037.246-.077.152-.099.016-.115-.068-.088-.158-.093.058-.25-.347-.054.013.069.216-.104.022-.007.063-.142.102v.06l-.168.18.06.135-.007.077-.075-.024.024.086-.125.007-.06-.058-.07.04-.01.171-.108-.045-.023.077-.121.056-.301-.09-.074.114-.117.03.018.06-.083-.051-.189.113-.067-.085-.08.094-.063-.044-.01.057-.073-.002-.032.055.04.141-.196.201-.127.406-.331.244-.082.354-.075.099-.416.127-.24-.075-.605.138-.198-.05-.055.105-.081.026-.163-.073-.19.051-.08.1-.194.09-.495-.023-.195-.062-.319.095-1.49.183-.233.17-.21.006-.055.26-.29.392-.008.14-.1.014-.08.08-.089.196-.262.104-.072-.041-.083.17-.172-.071-.056.07-.41-.012.135-.526.195-.27.076-.216-.082-.03.014-.058-.196-.177-.018-.079.078-.031-.017-.12-.205-.22.045-.054-.051-.025.027-.063-.079-.25.068-.11-.039-.143.44-.472-.075-.173.029-.056.088-.036.18.07.021-.135.148-.036.004-.207.138-.033-.04-.145.085-.038.144.056.053-.026.012-.105-.128-.104.015-.085-.061-.04.2-.173.211-.04.426-.6.395-.397.349-.144.206.003.173-.066.291.047.13.118h.365l.056-.133-.117-.393.008-.978-.079-.15.009-.274-.04-.053.244-.344zm44.761-1.846l.2.185.292.118.19-.003.09.177.178.132.28.033.035.064-.03.176.054.087.132.054.108-.03.132.132.168.045.112.108.188.003.053.041-.008.121.115-.185-.027-.168.152-.147-.081-.06-.141.055-.02-.284.282-.023-.125-.073.008-.083.125-.012.003-.085-.067-.01.005-.126-.146-.104-.041-.099.062-.364.215-.326-.143-.135.143-.125.059-.145.281-.174-.075-.323.328.232.064-.053.117.088.103-.075.192.125.116-.06-.04-.155.058-.117.091.028-.008-.152.106.007.093-.103.124-.033.066.08.074-.014.083-.113.084.022.181-.113.131.022.004-.24.109-.053.147.064.073-.06-.025-.06.203-.03.024.053.192.058-.05.075-.117-.011-.015.058.175.094.103-.064.066-.209.116-.083.322.286.002.087.043-.02.133-.055.056-.147.14.103.03.145.046-.106.16-.072.107.126.113-.091.16.012.09.065-.083.026-.007.05.194.135-.218.043.007.088.206.048.042-.092.112.017.096.158.182.052.016.082-.054.06.24.114-.011.063.248.192.062-.036v.102l.304.163.112.12.056-.008-.017.083.108-.04.018-.075.032.066.267.043.171-.096.178.002.013.138.284-.02.143.162.08-.119.072-.002.026.082.112-.033.134.035.042.172.054.033.109-.17.12-.009.046-.072.125-.04.03-.09.165.04.135-.235.256.242-.06.075.365.35-.16.23.144.118-.107.157.296.148-.056.213h.317l.193.185.085-.023.061.045-.051.124-.199.017.124.138-.101.195.758.525-.163.31.354.258-.255.36.14.101.148-.188.157.113.005.055.21-.247-.068-.045.223-.31.14-.048-.086-.015.056-.08-.086-.032.022-.036.078.013.205-.234.444.373.075.005.07.113.355-.056-.012-.055.112-.02-.004-.056.356-.015.036.236.178-.032.15.034.026.221.256.002.064.144.162.049.027.18-.298.052.023.224-.128.035.025.323.061.005.024.208-.078-.022-.077.047.053.036-.066.029.034.27-.074.059-.022.135.048.276.28-.031.016.083.204-.027.141.924-.14-.003-.031.053-.066-.031-.04.113-.072-.05.124.821-.108.212-.094-.001-.027.156-.229-.06-.04-.095-.16.046-.07-.088-.074.047-.034-.145-.128-.117-.033.05-.192-.086-.074.017-.05-.093-.078.059h.058l-.149.078-.109-.069.01.046-.13.039.029.22-.069.095.093.158-.112.07.126.097-.078.022.043.3.234-.028.064.325-.266-.003v.072l-.262.05.038.215.15-.01.039.246-.33.081-.01.066-.335.04-.44-.043-.016-.067-.263-.02.005.153-.278.039-.063-.12-.374-.002-.058-.05.042-.164-.215.091-.428.002-.02-.143h.242l.069-.3-.104-.161.057-.049-.059-.087-.131.084-.06-.276-.118.04-.008-.041.112-.058-.041-.218-.119-.03-.038-.1.171-.063-.069-.275-.416.094.063-.096-.039-.034-.043.033-.006-.1.073-.046-.006-.061-.094-.066-.818.205-.045-.249-.346.027-.207-.342-.986.495-.02-.144-.985-.226-.245-.17-.241.078-.146-.07-.266.106-.379-.011-.229.083-.124.184-.248.062-.03-.052-.375.048.001-.317-.187.025-.011-.046-.12.005.107.617-.192.04.037.28.06.004.049.246.198-.014.058.397-.192.044-.034-.09-.134.05.013.101-.27.036.082.4.236-.106.054.213.15-.006.021.17-.123.087.07.467.346-.06.034.208-.047.017.011.209-.134.015.04.264-.178.05.053.284.085-.005.066.262-.044.074-.033-.044.008.082-.061.025.133.062-.063.076.127-.02.041.15-.044.133-.209.097-.254.011-.755-.172-.371-.143-.343-.025-.832.271-.691.073-.506.22-.459.11-.766.151-.15-.122-.218-.328-1.557.245-.047-.225-.243.08.003-.417.082-.028.02-.102-.086-.019-.083-.196-.547.108.05.336-.86.16.012.097.115.141-.203.085-.01-.155-.155-.087.014-.222-.04-.03-.19.116-.15-.01.019-.115.097-.1-.02-.136-.345.079-.417-.097.008-.151-.717.038.192-.193-.13-.816.535-.135-.023-.177-.056-.01-.033-.15.09-.041-.05-.353.126-.036-.062-.354.081-.033-.029-.269-.334.063-.07-.034-.066-.137.075-.03-.07-.31.056-.1.091.034.011-.192.074-.06.027-.16.37-.041-.02-.201.034.036.175-.024.047.176-.059-.275.455-.122-.013-.096.067-.009-.008-.056-.267.067-.02-.108.249-.06-.075-.362.16-.011.012.17.144-.013.023.39.078.018.069-.14.07.002-.13-.239.12-.014.007-.058.624-.096-.011-.135.275-.05.003-.048.095-.036.019-.203.24-.067-.08-.3-.094-.014.01-.41-.22.01-.002-.155-.08-.047.06-.104-.013-.168.158-.044-.136-1.214.06-.025-.005-.069.148-.005-.004-.084.401-.052.03.118.18-.055-.06-.25.21-.004.048.103.45-.248.109-.073-.032-.236.241-.045.024-.213-.296.048-.019-.095-.09.01-.256-.244-.176.015-.172-.06-.058-.189-.083.033-.037-.052-.016-.342.107-.02.087.082.203-.03.142-.192.048.057.146-.007.037.159.054.01.149-.068.056.047.12-.02-.007-.047.089-.02.035.228.179.02-.002-.238.082-.301.057-.028.1-.485z"/><path d="M85.252 26.432l.1.211.099-.02.15.176-.227.142.053.068-.05.048.083.076.399.17.296.015.04-.195.187.033-.104.66-.047.05.256.512-.25.082.002.163-.13-.07-.127.231.177.007.023.072.23-.005.144.072.112.005.06-.066.339.049.1-.038-.006.744.182-.02.088.148.215-.019.008.107-.14.013-.057.078.027.216-.11.182.126.129.176.019.04.113-.113.042.057.082-.001.15-.15.035-.01.07-.135.044.075.984.23.266-.095.143.024.13-.058.002.14.096-.034.08.17.133.155-.033.044.097.277-.127.083.557.103-.03.144.13-.319.197.023.17-.07.08-.01.173.227.118.486-.057.197.187-.003.215.123.19-.011.102-.069.065.053.1.162.084.308.006-.014.099.695.23-.061.23.113.062.005.126-.086.14.125.252 1.092.074.004.378.092.072.088-.022.103.088-.147.368.047.18-.63.012-.429-.055-.025.072-.21.028-.057.2.019.177-.208.007-.045.206.077.138-.032.259-.108.092.017.33-.199.034-.008-.146-.373.002.011.234-.206.001.002.115-.066.081-.85.007-.02.197-.568.016-.002.307-.227.003-.026.248-.117.01.005.279.048.047-.03.19.083.039-.008.642-.085.003.007.125-.194.044-.166.336.01.147.622.019-.053.196.022.129-.048.056-.182.006-.011.118-.296.069.067.136-.042.572-.12.244-.275.326-.16.027-.195-.317-.2-.063-.175.176-.201-.063-.138.022-.403-.125-.555.194-.468.049-.417-.116-.48.105-.112.093.033.135-.177.07-.83 1.178-.212.185h-.043l.18-.177-.031-.162-.175-.177-.273-.127-.263.149-.13.137-.212.05-.323.183-.228-.353.386-.306.034.037.224-.13-.272-.206.185-.257-.13-.146-.108.084-.519-.24.144-.086-.06-.3-.101.026-.189-.273-.043.017-.023-.063-.067.043-.017-.093-.06.066-.05-.08-.058.02-.188-.215.188-.01-.023-.043.424.038-.198-.912.096-.015.025.07.43-.026.055.105.232-.102-.01-.06.225-.141-.072-.275.157-.039.137.303.214-.107-.044-.138.208-.497.044-.003.015-.248-.285-.012.018-.077-.079-.035-.128.232-.385-.335-.04.037-.292-.478-.11.116-.117-.184-.078.055-.11-.155-.282.221-.352-.596-.349.165-.1-.046-.014-.11.114-.023-.005-.077-.21.033-.035-.218.184-.028.013-.053.106.028.093-.155-.421.043-.064-.382-.079-.005-.083-.514-.448.06-.005-.244.066-.014.043-.182-.02-.075-.105.023-.038-.244-.149.009-.038-.215.26-.05v-.072l.266.001-.064-.324-.234.026-.043-.3.079-.021-.125-.1.112-.067-.093-.158.069-.094-.03-.221.13-.04-.009-.043.107.069.15-.079h-.057l.079-.056.048.092.075-.017.192.086.033-.05.127.118.033.144.074-.047.07.088.159-.046.04.094.229.06.027-.155.096.001.105-.212-.123-.823.072.05.039-.113.065.032.03-.052.141.003-.14-.924-.204.027-.017-.085-.279.032-.05-.277.025-.134.073-.06-.032-.27.064-.028-.052-.036.076-.046.079.022-.024-.208-.063-.005-.025-.323.128-.035-.023-.224.3-.052-.028-.18-.161-.049-.064-.144-.256-.003-.026-.221-.15-.035-.178.033-.035-.237-.091-.208-.042-.319.067-.012.047-.09-.119-.3-.022-.206-.098.001-.017-.05.161-.242.16.035.007.096.121.062.232.013.034.053.093-.01.09-.222.606.06.345.354.064-.128-.105-.011-.007-.063-.145-.118.067-.102.056.005.027-.122.237.033.03-.159.07.013.067-.152.262.067-.024.077.267.15.007-.519.112-.075.075-.152.21.005.014-.13.318.012.026-.143-.12-.028.056-.12-.135-.117.063-.072.048.03.037-.055-.061-.033.149-.066.022-.072.086.097.07-.01.017-.257.081.008-.025-.199.109-.019.062-.081.174.02.008.047.079-.053.078.028-.016-.04.16-.071-.029-.171-.075-.072.045-.043.267-.045.49-.258-.143-.16-.58-.213.241-.232.072-.08.304-.042.976.247.16-.034.003.04.104.01.037-.188.101-.111zM7.687 30.527l-.032-.113.194-.336-.132-.324.103-.184.008-.157.182-.083-.022-.06-.175-.06-.056-.148.14-.344-.112-.169.29-.31.026-.109.056-.044.08.05.106-.078.114-.494.108-.058.066.042.192-.213.083.06.045-.024.093.105.216-.063.34.107.046-.085.323-.224.208.082.053.102.222-.251.43.062.058.09.082.012.04-.133.132.044.055-.083.13.034.26-.2.423-.135.13-.02.18.153.098-.04-.004-.151.073-.13-.037-.057.062-.12-.352.023-.202-.046-.052-.088.072-.066.064-.224-.146-.064-.184.033-.014-.15.006-.115.216.053.1-.092.094.078.123-.198-.039-.15.23-.201-.254-.116-.097-.3.064-.094.154-.026.033-.22-.074-.177.058-.085.18-.014-.053-.246.164-.102.005-.049.066.022-.023-.055.143.03.112.105-.079.05.058.094.128.013.165-.099.128.16.227.129.094-.062.239.104.123-.019.22.486.084.41.086.042.11-.053.068.047.054.185.124.083-.175.254.015.251.067.07.017.136.46.224-.39.45.002.135.239.27.313.031.12.063-.05.282.086.022.008.077-.404-.094-.064.227.34.34-.005.151.278-.142.39.24.133-.127-.03.257.2.158-.154.157.117.453.098.033.06-.042-.015-.207.16-.143-.034-.106.107.037.135-.077-.03.397-.11.278h.096l.106-.163.186.044.078.144.127-.017.043.047-.061.11-.285.003-.109.072-.024.127.09.141.147.014.07-.18.112-.116.074.01.08.106.06-.016-.049-.413.127-.004.33.127.049-.06-.06-.142.04-.033.098.04.088.096-.107.126.029.067.273.204.213.027.295.294.222.137-.022.075-.144.108.019.071.211.082-.006.078-.165.14.046.06-.245.343.04.053-.008.275.079.149-.008.978.117.392-.056.134h-.365l-.13-.118-.29-.047-.174.066-.206-.003-.349.144-.395.397-.426.6-.211.04-.2.172.06.041-.014.085.128.104-.012.105-.053.026-.144-.056-.085.038.04.145-.138.033-.004.207-.148.036-.02.135-.181-.07-.088.036-.029.056.075.173-.44.472.039.143-.068.11.079.25-.027.063.05.025-.044.054.205.22.017.12-.078.031.018.079.196.177-.014.058.082.03-.076.216-.195.27-.136.526-.208.025-.038-.23-.223-.214.004-.1-.08-.1.035-.11-.24-.04-.03-.093-.063-.02-.077.072-.09-.105-.163.019-.017-.099-.167-.088-.03-.094.04-.152-.119-.187-.08-.037-.05-.201-.1-.013-.051.044-.09-.155-.096-.022.064-.414.27-.229-.148-.306-.213-.132-.035-.116-.122-.045-.15-.272.094-.135-.048-.084.074-.066-.018-.05.133-.14-.105-.12-.223-.092.038-.213-.041-.08-.232-.174-.147-.218-.27-.138-.078-.094.028-.13-.093-.08-.285-.058.01.11-.173.246-.067-.07-.348-.07.004-.056-.164-.109.015-.105-.067-.066.022-.194-.083-.09-.015-.15.087-.124-.082-.091-.008-.193.051-.085-.07-.072-.166.068-.074.108-.06-.038-.166.121-.206-.038-.114.255.016.073-.057.046-.263-.066-.073-.135.093-.477-.104-.138-.303.06-.291-.292-.032-.364-.448-.023-.365-.352-.008-.13-.069-.06-.13-.003-.047-.103-.234-.06z"/><path d="M83.127 16.393l.053.022-.029.188-.104.045.005.37.107.219.106.042.096.137.185.06.101.169.144-.076.194.049-.056.16.001.436-.067.17.144.22.008.14.357.38.254.412.226-.042.298.213.206.049.18.119.231.49.163.114.047-.024.21.286-.11.061-.009.118.06.086.32.433-.098.09-.283.002-.06.197.239.166-.002.06-.1.017-.2.246-.12-.116-.127.29.123.184.085-.054.125.014.019.065-.088.045.066.047.075.26.096.043-.331.09.073.158-.112.034-.016.091-.158.011-.03.138.06.193-.269-.022-.08.177.228.033-.023.073-.203.15-.195-.014-.061.22.069.062-.032.331.176-.001-.004.227.106.116-.104.615.03.144.346.074.054.148-.315.117.066.085-.248.113.027.074-.1.11-.038.188-.104-.01-.003-.04-.16.034-.976-.248-.304.042-.072.08-.241.233.579.211.142.162-.49.257-.265.044-.046.044.076.072.028.171-.159.07.014.04-.078-.028-.077.053-.008-.046-.174-.021-.063.081-.108.02.025.2-.083-.008-.014.257-.072.008-.087-.096-.022.072-.149.066.06.033-.037.055-.048-.028-.063.072.134.114-.056.121.12.029-.025.142-.32-.01-.013.126-.211-.004-.075.152-.112.077-.007.517-.265-.149.022-.077-.26-.067-.068.152-.069-.014-.03.158-.237-.032-.027.123-.056-.004-.067.102.145.117.007.063.105.011-.064.13-.347-.356-.606-.06-.09.223-.093.01-.033-.054-.232-.012-.122-.063-.006-.097-.16-.035-.162.243.018.05h.096l.022.205.118.3-.046.09-.067.013.041.318.092.209-.356.015.004.057-.112.019.012.055-.355.056-.07-.113-.075-.005-.444-.373-.205.234-.078-.013-.022.036.086.032-.056.08.087.015-.141.047-.223.311.068.046-.21.246-.005-.055-.157-.113-.148.188-.14-.1.255-.361-.354-.259.163-.309-.758-.525.1-.195-.123-.138.199-.017.051-.124-.06-.045-.086.023-.193-.185h-.317l.056-.213-.296-.148.107-.157-.144-.117.16-.23-.365-.35.06-.076-.256-.242-.135.234-.165-.039-.03.09-.125.04-.046.072-.12.008-.109.171-.054-.033-.042-.172-.134-.035-.112.033-.026-.081-.072.001-.08.12-.142-.162-.285.019-.013-.139-.178-.001-.17.096-.268-.043-.032-.066-.018.076-.109.039.018-.083-.056.008-.112-.12-.304-.163v-.102l-.062.036-.248-.192.01-.063-.24-.115.055-.06-.016-.08-.182-.053-.096-.158-.112-.017-.042.092-.206-.049-.007-.087.218-.043-.194-.134.007-.05.083-.027-.09-.065-.16-.012-.113.09-.107-.125-.16.072-.045.105-.03-.144-.141-.103-.056.147-.133.055-.2-.798.235-.615.064-.049.206.102.087.133.208-.012.15.058.453-.052.038.03-.062.049.224.133.066-.146-.044-.2.513-.628-.146-.06.07-.35-.251-.084.109-.375.79.149.018-.242-.302-.105-.007-.197-.123-.027.035-.061.403-.087-.222-.56-.109-.142.045-.118-.437.064-.114-.128-.344-.038-.137-.075.07-.126-.072-.034.08-.05-.016-.12-.147-.017-.094-.102.01-.29-.054-.127.11-.04-.026-.211-.399-.229-.104.044-.299-.047-.078-.22-.119-.003-.126.116-.119-.131-.094.018-.154-.124-.145-.287-.112.03-.051-.049-.148-.407.575-.744-.159-.212-.016-.24.055-.17.166-.057-.059-.212.202.02.035.048.019-.054.112.032.006.099.07.015.154-.207-.008-.119.23-.097.202-.214.224.11.03-.075.202.094.024-.067.104.003.047-.245.197.01.144-.096-.176-.118.179-.245.275.197-.01-.197.145-.003.1-.111.088.141.1.01.195.175.05-.047.108.07.056-.092-.094-.122.3-.02.112-.084.192.046-.022.04.077.055h.096l.022-.09.08-.024.03-.132-.127-.031.028-.057.416-.03.346-.352.018-.1-.053-.05.202-.134.028.067.08-.038.088.052.108-.152.203.068.752-.148.51.165.085.241.08-.036.25.375.235.182-.051.12.14.264.381.037.064-.04-.03-.056.176-.082.144-.161.056.149h.224l.082.11.145.026.007.072.116.035.202-.032.035.08-.093.01.023.1-.093.1.264.21.21.043.148-.149.066-.244.06.02.084-.1.171-.037.119-.172.342-.099.157-.152.377-.13.495-.011.128.051.312-.051-.006-.065.17-.021.08.05.764-.374.112-.22.121-.089.43.036.356-.22zM68.195 51.886l.234-.033-.037.198-.182-.052-.239-.243.114.019.11.111zm-11.704-.543l.54.094.554.176.27-.052.289-.174.195.159.154.025.067-.077.185.13.316.027.147.086-.202.056-.835-.06-1.746-.38.066-.01zm10.328-.433l-.094.065-.032.11-.186.097.023.213h-.04l-.064-.276.21-.2.183-.009zm1.935-.105l.203 1.261.514 1.374-.088.046-.124-.408-.12-.16-.096.02-.05.171-.106.102-.125.018-.043-.104.112-.259.065-.464-.07-.083-.003-.137.177.175-.138-.344-.103-.042.027-.163-.063.006-.05-.257-.099-.102-.1.014-.087.315-.118-.23-.157-.082.056-.13-.045-.112-.208-.081-.001-.075.273.047.215-.079.086.232.06.024.099-.14-.049-.351.11-.091.046.09zm-17.32-.82l.26-.035.032.04-.11.033-.017.054 1.615.391-1.394-.304-.54-.2-.285-.23-.15-.257-.022-.295.066-.132.051.011-.008.394.058.2.136.175.309.155zm7.934-10.341l.417.097.346-.08.02.138-.1.099-.02.114.151.011.192-.115.04.029-.014.223.155.084.01.156.203-.085-.115-.14-.012-.097.86-.16-.048-.336.547-.108.083.198.083.019-.017.101-.082.029-.003.415.241-.08.047.225 1.557-.245.219.328.149.122.766-.15.463.236.092.1.1.572.072-.003.107.63.072.058.123-.124.155-.02.091.074.146-.03-.016-.082.109-.022-.021-.177.547-.105-.024.129-.174.051.054.26.154-.023.043.124.02.127-.21.038.156 1.098.178-.016.077.654.121-.016.05.237.104.005.02.154.332-.041.02.163.265-.04.093.636.276-.023.066.418-.326.05.043.332-.08.003-.002.166-.075.005.002.069-.428.058.01.102-.177.025.043.285.256-.028.016.104.337-.043.052.441-.23.064.049.278.142-.005.043.243.725-.113.029.21-.074.02.05.235.288-.043.414.251.181-.023.098 1.402.155-.014-.138.172-.222.135-.752.157-.343.275-.11.33-.206.009-.082-.104-.15.04-.253-.118-.307.081-.032.185.116.41-.2.49-.103.17-.23.207-.049-.088-.073-.033-.053.038-.087.077-.081.218-.053-.256.048-.103-.075-.07-.268-.067.01-.094.085-.122.246.037v-.048l-.187-.033-.048-.253.123-.094.079-.147-.026-.063.064.01.058.268.067-.217.225-.09.11.202-.005.042-.073-.013.008.07.092.032.1-.224.012-.378-.128-.078-.12-.168-.075.004-.058.08v.113l.09.171-.15.038-.022.063-.155-.033-.128-.116h-.072l-.042-.109-.064-.001-.219-.223-.158.04-.093-.142.011-.15-.091-.193-.086-.022.083.227-.079.276.066.196.104-.037.042.06-.104.175-.024.267-.11.026-.018-.412-.186-.207-.126-.361-.12-.097-.07-.184-.156-.174-.08.005-.078.218-.128-.11-.07.078.238.068.163.488.153.136-.024.096-.236.182-.056-.068.102-.247-.08-.214-.1-.03-.068.22-.14.045.023.038.11-.052.076.066.05.093-.021.111.128.086-.079.151-.078-.15-.087-.05-.104.13-.076-.01-.01-.162-.117-.106-.112.17.005.143-.376-.668-.159-.122-.128-.033-.151.053-.084-.127-.06.082-.16.026-.34-.265-.046.102-.234.007-.033.108.12.212-.108.02-.145-.074-.087-.07-.015-.088-.058.026-.135-.128.024.092-.156.027.116.664-.112.039-.043-.112-.137-.07-.104.17h-.085l-.048.137-.074.02-.072-.054.027.183.248.178-.24-.05-.105.051-.027.166.13.182-.142-.01-.164-.134-.18.064-.019.082-.473-.626-.045-.017-.077.07-.03.22-.136-.022-.012-.102h.101l.047-.221-.127-.093-.161-.045-.197.052-.048.03-.002.178-.051-.028.024-.194.12-.148-.114-.161.104-.328-.12.207-.088-.027.045.111-.069.182-.294.239-.255-.093-.076-.135-.19-.018-.053.058.05.08-.083.117.066.077-.077.03-.265-.014-.159.048-.427-.084-.147.045-.33-.096-.134.046-.029.064-.333.07-.13-.057-.267.06-.316.148-.03.073.042.031-.276-.063-1.583-.484.122.022.065-.098-.048-.163.021-.038.024.054.048-.019-.045-.114-.172-.05-.076.067.064.048-.059-.006-.208-.213-.14.001-.21-.153-.076-.203-.147-.063-.073.07-.336-.057-.11-.105-.058-.162-.242-.051-.104.213-.478-.023-.058.06-.026-.222-.096-.019.032-.088.146-.113.227-.087.483-.013.215-.064.229-.109.081-.144.143-.008.09-.074-.169-.396-.09-.094-.075-.018-.14.11-.11.005-.796-.304.086-.145.128-.006.061-.14.11.043.137-.054.03.06.42.149.33.017.172-.064.262-.006.408.145.331.018.444.111.32-.064.118-.11.014-.066-.126-.019-.203.041-.141.075-.013.058h-.096l-.187-.12.12-.036-.008-.055-.168-.032.198-.012-.096-.04-.027-.098.083-.079-.088-.072.075-.014.007-.154-.051-.062-.266-.134-.585.258-.192-.423-.266-.017-.378-.312.027-.074.228-.012-.063-.086.364-.058-.052-.344-.072.011-.029-.127.264-.064.05.042.274-.045.03-.085.26-.057-.034-.27.198-.098-.133-.226.668.416.145-.015-.04-.27.525-.084.037.191.334-.042-.033-.196.07-.016-.043-.246.059-.008.014.097.15-.023.065.142.571-.04.042.306.323-.05.057.051.023-.081.216-.025.006-.058.735-.13-.015-.089-.137.024-.026-.135-.334.057-.07-.03-.015-.137.48-.106-.02-.126.313-.04-.024-.12-.148.016-.1-.319.108-.095.39.21.246-.378-.735-.44-.134-.365.222-.3.047-.198h.243l.011-.05.06.123.118.019-.008-.07.158-.1.003-.152.175-.025.081.137.09.014.072-.047-.07-.061.008-.121.264-.04-.23-.255-.108-.086-.072.003-.01-.323.175-.077-.068-.435-.45.071-.028-.06-.022-.46.12-.038-.005-.143.085-.033.022.474.357-.054-.07-.682.121-.064-.025-.178-.023-.047-.243.145-.02-.428zM22.153 18.69l.061.057.304-.06.09-.134.008-.148.104-.122.198-.174.106-.01.084-.105.588.014-.061-.03-.007-.114.117-.008-.035-.07.083-.065.021-.108.1.022-.004-.077.077-.001-.029-.105.183-.079.08-.232.25.027.068-.228.115.022.064-.252.098.025.03-.25.107.016-.05-.111.042-.163.055-.016-.023.149.245-.053.02-.066-.148.045.021-.158.05-.002.043-.107.184-.004.04-.146.051-.016.11.115.247-.304.17.114.265.069.039-.09.111-.045.05-.166.282.061.014-.198.235-.144.08.053.002.223.344-.016.078.25.272.155.044.187.172-.013-.04.284-.18.303-.045.229.37.22-.012.308.27.005.095.072.19.192-.09.033.022.05-.087-.01.175.154.003-.042.109.01.001.117.2.036.053.138.155.11.053-.003.077-.159.294-.096-.019.36.077-.016.086.37.101-.014-.032-.122.147-.046.007.184.086.103-.262.115-.036.179.088.067-.092.011.022.085-.074.138.282.078.069.334-.07.09-.143-.093-.166.267-.186-.12-.072-.004-.022.064-.06.008.005.16.135.356-.087.03-.01.096-.052.009.003.237.072.015.058-.062.14.165.157-.02-.075.132.075.206-.02.097.196.347.055-.096.323.055-.138.264.16.03.31.316.106-.017.034-.127.1-.02.012.144-.165.166.026.064-.255.035.018.262.238.172.005.159-.011.09-.064-.038-.045.142-.093.043-.078.15.197.182-.016.204-.096.086-.103-.125-.091.05-.002.273.252.069-.034.082-.073-.005-.044.117-.065.093.033.097.088-.037.144.066.067-.027.117.128.125-.047-.091.29-.117.048.01.066.085.014.001.067-.086.016.008.09.152.057.09.18-.036.137.06.108-.005.148-.073.108.135.152-.096.08.057.185.1-.01.035.043.034.185-.08.08-.156.044-.115-.08-.074.011-.023-.069-.122.096-.079-.152.009.197-.133.091.016.058-.101.1-.131-.056-.095.063-.31-.226-.045.053-.202.035.021.177-.112.108-.24-.155.015.15-.157-.068-.077.064.045.137-.117.137.106.143-.332.014-.312.49.101.063-.032.087.125.156-.005.131-.118.113-.013.278.133.2.005.338v.09l-.034.126.088.134-.115.168.013.056-.108.013.005.08.112.127-.064.106.088.243-.137.18-.092.357-.108.01-.049.178-.126.058-.213-.188-.19.003-.043.12.145.197-.102.143-.442-.14-.13.053-.12.142-.177.007-.462-.108-.052-.141-.123.1-.214.011-.14.212-.123.055-.212-.14-.108-.191.032-.179-.116-.044-.138.116.096.234-.091.162-.109-.016-.056-.248-.109-.07-.048.069.101.097.024.116-.018.111-.065.055-.133-.005-.243-.23-.127-.002-.08.06-.022.083.051.066.264-.04.029.125.158.14.032.107-.09.065-.217.005-.128-.167-.125-.008-.017.102.099.258-.144.081-.258-.052-.361-.687-.232.055-.042-.073-.142.045-.143-.179-.059.167-.064.001.027-.124-.153-.083.118-.146-.085.013-.1-.204-.17-.094.162-.057-.024-.052-.157-.018.104-.132-.204.06.026-.183-.157.012-.006-.125-.1.016-.025-.048.096-.085-.051-.091.07-.221-.112-.127.104.028.015-.038-.082-.06.034-.122-.112-.028-.042-.14.04-.036.109.095-.051-.186.12.04.056-.07-.128-.021-.093-.251-.082-.043.061-.19-.046-.137.094-.106-.06-.02-.086.064-.062-.114h.066l-.016-.133.075-.153-.163-.15.19-.09-.154-.037-.032-.065.074-.054.095.03.032-.056-.092-.131.051-.091-.123-.16.162-.143-.127-.031.063-.187-.039-.239.042-.042-.077-.213.116-.017-.116-.083.026-.08-.055-.121.056-.121-.025-.068.066-.014.006-.18.22.003-.004-.083.078-.074-.081-.116.072.014-.032-.083.057-.025-.067-.072.005-.115-.122-.114.002-.174.088.012-.056-.103.057-.082-.121-.072.069-.183-.212-.244-.014-.412-.265-.25.18-.316.112-.068.037.083.082-.028-.061-.232.037-.066-.077-.174.142-.122.036-.104.134.01.005-.126.083-.036-.018-.099-.165-.183-.267-.17.122-.193.168-.095-.03-.239-.079-.048-.05-.237-.204-.301.128-.174-.22-.112-.01-.053-.14-.07v-.064l.168-.133-.104-.295.018-.16.107-.081.006-.074.171.014.056-.196-.182-.067.114-.093.102-.005.003-.078h.05l-.026-.116-.109-.074-.004-.243.393-.027v-.09l-.21-.16.045-.093-.11.005-.073-.09.05-.045-.036-.132.046-.047zm24.517-2.71l-.03.221.062.08v.143l.267.237.03.284-.216.285-.309.142-.248-.157-.134.015-.051.063-.021.237.062.047.021.19-.083.141v.159l.062.252-.144.157-.165-.063-.155-.237-.123-.346-.053-.394-.164.016-.145-.128-.092-.015-.135-.395h-.164l-.082-.063-.072-.317-.206-.031-.207.062-.102.065-.042.11-.114.015-.041-.141.176-.428v-.159l.081-.127.165-.158.144.031.053-.094-.041-.095-.217-.143-.01-.08.05-.032.434-.031.38.063.486.508.248-.143h.464l.102-.08.104-.205.186-.065.299.096.093.096v.22l-.104.065-.114-.031-.134.063-.051.095z"/><path d="M45.367 9.485l-.29.064.049-.282-.32-.024-.38-.375-.041-.069.168-.142-.09-.34.056-.035-.093-.022-.24-.312-.23-.187-.242-.081-.152-.143-.067.188-.19-.155-.036.017.037.124-.045.025-.556-.14-.026.124-.114.07-.073-.023-.06.113-.206-.157-.174.044-.064.06.035.047-.067.224L41.764 8l-.148.062-.059-.084-.062.02v.132l-.262-.135-.096-.267.099-.044-.01-.177-.04-.125-.112.001-.038.072-.194.085-.024.072-.064-.025-.077.055-.053-.047-.059.097-.075.016-.003.14-.131.103-.236-.15-.12.283.015.198-.1.212-.489-.115-.155.079-.123.149.001.078.189-.028.024.469-.234.425-.139.02.003-.052-.339.107.147.715.128.446.047.012.027-.255.09-.022.347.233.25.356.267.239-.247.375.013.262.054.056-.187-.072-.152.01-.008.304.131.044.133.131.116.281.17.135.044.097-.119.26.152.101.073-.033.04.127-.223-.042-.07.038.016.117.116.07-.067.05.023.087-.21.027.194.044.133-.08.219.034.005.173.134.179-.114.258-.243.175-.005.113-.128.073-.093-.044-.046.03-.03.038.048.07-.095.096.018.047-.087-.015.02.046-.07.03.257.225.06.157-.018.199-.072.113-.148-.013.04.091-.038.1.243.12.023.236-.145.106-.148-.093-.037.147.253.03.02.085-.161.2-.146-.012.085.13.109-.025.056-.083.401-.067.146.208.007.18.107.027.041.072.104-.05-.118.244.054.092.248.069.119-.028-.092.229.065.141-.125.047.197.366-.077.032-.063.186-.164.18.257.24-.18.215-.009.07.101.008-.149.104.255.291-.013.234-.093.072.114.223-.04.064.152.171-.026.05.118.21-.047.104-.293.159.126.069-.235.215.072.034-.074.079-.059-.035-.11.144-.093-.031-.032.092-.269.068-.041.132-.178-.127-.085.069.027.077-.078.116-.066-.095-.11.095-.07-.02.134.354-.128.28.048.128.254.003-.02.348.132.055-.056.111.154.105-.131.124-.042.22.162.3.06.3.152.139.085-.02-.01.084-.198.09.02.095.233.184-.189.316-.29.138-.025.17.1.08.025.233.086.117.18-.008.255.144-.043.125.023.12.06.006-.078.091.157.136.125-.021.13.092.052-.15.075-.038.047.222.075.043.115.025-.058.12-.099.035.207.225.265-.052.044.064.182-.08.154.014-.049-.117.122-.041.184-.353.131-.052-.006-.224-.069-.157.032-.09.064.035.203-.055.087-.12.083-.02.246.07.066.3.11.13.084-.125-.074-.152.114-.05.09-.188.015.077.28-.029-.064.427.94.159.012.147.05.008.134-.523.112-.03-.019-.195.128-.038.005-.15.18-.109.245.301h.106l.178-.21.07.027.127-.152.166.108.194.002.307.196.107-.105.18.001.1-.077.352.016.094-.079.132.02.07-.178.056-.002.022-.213-.08-.072.407-.06.059-.078-.01-.126.133-.177.085.118-.026-.137.119-.04.168-.16.04-.377.064-.097.057-.027.087.088.029-.077.05.006-.07-.142.053-.054-.104-.015.03-.18.372-.558-.016-.13.072.035.027-.066-.113-.063.057-.232.058-.036-.075-.157.041-.197-.136-.109.162-.34-.053-.171.185-.116.088.077.172-.218.459-.143.013-.061-.148-.218-.078-.024-.003-.063.067-.045-.202-.108-.12.053.13-.146-.093-.01.047-.114.443-.036.202.035.09.081.023.065-.113.318.004.273.093.193.14.031.047.115.108-.02.032.147.065-.018.027-.214.21-.032.058-.16.084-.025.028-.077.121.008.026.422.536.047.206-.345.103-.008-.012-.213.146-.129.104-.259.392.027.07.177.092-.192-.1-.446.356-.204.084.013.024-.077-.312-.074-.116.028.02-.371.337-.184-.077-.124-.061.02-.06-.167.156.044.18-.352-.023-.058.108-.033.23.143.16-.28.11.012.053-.07-.146-.158.083-.277-.032-.038.227-.149-.059-.092.117-.165-.038-.096-.013-.056.093-.12-.02-.065-.201-.037-.181.052-.043-.152.12-.183-.27.122-.137-.48-.309-.104.058-.092-.077-.04.106.012.013-.096.081-.01.04.087.196-.061.099-.142-.055-.098.055-.15-.597-.026-.167-.42-.21-.1-.134-.198-.257.069-.003.123-.14.026.026.199-.06.034.014.142-.508-.027-.105.107-.11-.033-.002.164-.083.096-.327-.042-.083.072-.178-.09-.029.063-.137-.003-.285.179-.12-.011-.022-.126-.236-.14-.222.278-.057-.215-.333-.123.003-.139-.045.005-.02-.094-.311-.056-.002-.112-.107-.001.003-.167.27.02.047-.054-.043-.058.037-.058-.14-.137.12-.224-.022-.202-.06-.02-.004-.071-.085.028-.006-.185-.127-.01.005-.076-.237-.143.012-.2-.263-.042-.056.132-.59.006-.039.054-.268-.074-.06-.063-.072.046-.019.175-.12.022-.09-.004-.022-.091.07.01.005-.087.157-.122-.217.16-.317-.148-.2.05-.013-.103.069-.13-.085-.134.074-.027.083.065.02-.113.076-.064-.066-.366-.16-.09-.029-.075-.25-.066-.126-.37-.1-.136-.004-.301-.21-.087-.022-.136-.537.033-.036-.251.076-.182-.128-.176.15-.07.024-.063-.13-.187-.019-.296.06-.08.14.019.068-.043-.129-.062.079-.146-.142-.188.046-.052.189.019.05-.04-.009-.127-.084-.113-.175-.158zm1.706 6.304l-.103.063-.113-.032-.135.063-.083.206.093.395.237.174.03.284-.216.284-.309.143-.248-.159-.134.016-.051.063-.021.236.062.047.021.19-.083.141v.159l.062.252-.144.157-.165-.063-.155-.236-.123-.347-.051-.395-.165.015-.144-.127-.093-.015-.134-.396h-.165l-.083-.062-.072-.317-.206-.032-.207.063-.102.063-.042.111-.114.016-.041-.143.176-.428v-.159l.248-.285.144.031.051-.095-.041-.096-.217-.143-.01-.08.052-.031.434-.031.38.062.485.508.248-.142h.464l.103-.08.102-.206.186-.062.299.095.093.096v.229zM58.09 26.35l.183.086.216.024.236-.1.076.068-.02.182.054.084.121.014.101.13.413.017.23.355-.046.106.06.094.022.262.139-.025.085.085.241-.019-.003-.527-.05-.163.037-.006.106.127.016.124.05-.022.145.131-.069.173-.13.044.09.08.135.027-.02.051.098.082-.025.116.081.176-.171.181.16.343-.082.03.03.059.175-.027.267.204.03-.232.097-.002.003.05.037-.045.208.025.037.01-.016.291.34-.12.06.145.13.007-.033-.05.15-.018.098-.146-.064-.034.187-.157.013-.096.15-.039.105.177.161.134.252-.044.299.066.424.282-.1.485-.057.028-.082.301.002.238-.18-.02-.035-.229-.087.02.006.048-.12.02-.056-.047-.149.069-.054-.011-.037-.159-.146.007-.048-.057-.142.192-.203.03-.087-.082-.107.02.016.342.037.052.083-.033.058.188.172.062.176-.016.256.244.09-.01.02.095.295-.048-.024.213-.241.045.032.236-.11.073-.449.248-.048-.103-.21.004.06.25-.18.055-.03-.118-.401.052.004.085-.148.004.004.07-.059.024.136 1.214-.158.044.013.168-.06.104.08.047.002.155.22-.01-.01.41.094.014.08.3-.24.067-.02.203-.094.036-.003.048-.275.05.011.135-.624.096-.006.058-.12.014.13.239-.071-.002-.069.14-.078-.018-.023-.39-.144.012-.013-.17-.16.012.076.362-.248.06.019.108.267-.067.008.056-.067.01.013.095-.455.122.06.275-.048-.176-.175.024-.034-.036.02.2-.37.043-.027.16-.074.06-.01.19-.092-.034-.067-.481-.212.111-.056-.047-.145.033.008.046h-.255l.087.098.032.27-.48.082-.066-.145-.537.09.025.279.207-.04.05.153-.495.09.019.112.11-.008.044.258-.11.019.023.125.055.038-.128.246-1.146.226-.086.005-.037-.1-.303.096-.345-.271-.34.083.002.159-.094.023.038.245-.361.072-.033-.083-.086.11-.051-.076-.078.011-.032-.227-.11.014-.073-.179-.083.007-.034-.093-.499.066.01.097-.688.091-.048-.257.222-.047-.075-.15.01-.162.145-.008-.037-.425-.131.026-.054-.386-.325.063-.035-.03-.138.115-.114-.64.01-.075.269-.066-.074-.47-.392.07-.054-.204-.239.031-.048-.154-.264.05-.008.184-.084.043-.052-.071-.083.012.042.31-.218.01-.01.073-.08.05-.019-.113-.09.006.038-.144.108-.042-.069-.322-.367.068.003.067-.135.03-.064-.187-.09.099-.222.048-.03-.175-.456.146-.087-.427-.108.016-.108-.088.066-.11-.15-.2-.122-.02-.013-.072-.454.07-.021-.078-.389.077.056.28-.305.02-.037.144-.141.057-.072-.055-.162.044-.048-.178-.102.008-.067-.066-.005.164-.114.015-.05-.183-.347.03-.023-.076-.383.093.04.108-.168.044-.026.083-.355.005-.157-.174-.126.155-.045-.096-.67-.058-.357.25-.206-.033-.128.05-.35-.113-.29-.003-.096.09-.279-.07-.128-.229-.14-.005.023-.19-.107-.176-.086.106-.232-.122-.226.376-.23-.224-.277.108-.072-.074-.047-.11.055-.153-.06-.11.01-.127-.124-.138.003-.067.067.015.064-.066.05-.194.105-.024.045-.135-.131-.169.437-.367-.032-.072.464-.193.1-.182.437-.072.237.224.114.011.18-.188.028-.174.067-.061.305.188.061-.01.141-.051-.006-.129.27-.056.107-.085.34-.052.086-.362.27-.07.146.151.456-.026.014-.187-.046-.04.062-.075-.217-.18.136-.207.222-.077.069-.265-.186-.193.181.01.082-.184.06.022.01-.093.314-.131.201.064.108-.01.016-.067.265.099.045-.103.117.137.267.046.06-.023.01-.1.274.023-.014-.091.041-.005.067.067.172-.025.038.055.115-.03.127.08.052-.023.077.147.098.041.032-.055.115.088.05-.105.035.03.056-.072.062.04.106-.158.184.038.06-.104.186.027.056.138.253-.072.107.243.132-.005.014-.09.134.082.079-.153-.012.105.108-.087v-.08l.086.054.03-.046-.055-.069.156-.136.405-.182.003-.112.175-.108-.048-.048.083-.146-.042-.054.117-.099-.067-.14.046-.043-.062-.036.093-.096.064.047-.084.162.226-.15.354.067.081-.276.255.034.259-.103.05-.079.11.116.1.006.393.218-.003.197.16-.192.321-.063.119-.142.123.111.22-.005-.017.107.06.02.038-.065.212-.01.044-.039.006-.2-.112-.082.007-.104.233-.067.045-.196.171.092.082-.58.147-.008.006-.154.117-.003.011-.045.077.094.28-.06.018.09.069-.02.05.172-.033.1.066.04.224.03.112-.183.05.105.115.038-.039.04.04.181.133-.06.125.606.142-.006-.045-.215.188.062.043.068.126-.108.015.073.38-.025-.062-.13.048-.083.104.016.016.06.174-.02.02.096.598-.125.002-.079.15-.016-.006-.051-.23-.098.07-.128-.07-.315-.08-.065.415-.177.002-.177-.63-.212-.093-.138.083-.194.395-.361.053-.132zm29.657-6.764l.126.397-.016.15.347.192.088-.14.197.038-.011.098.069.006.052.146.208.064.31-.162.177.036.163.143.178-.146-.007-.215h.05l.131.159-.138.152.034.23.163.065.125.23.13.02.1.136.18-.002.156.121.27-.04.102.09-.067.083.043.145-.037.031.131.248.098.005.4-.23.23.05.226-.162.137-.222.253-.207.243.4.023.276.11.221.192.186.5.14.367-.17.23.036.284.15.363.037-.056.204.323.768.492.148.31.32.464-.024.18-.064.175-.23.503-.06.096.05.38-.138.007.161.162.217-.679.393-.053.46.255.445.333.231.267.282-.079.435.221.223-.019.172-.083.044-.335-.002-.326.425-.246.065-.485.767-.015.227-.318-.055-.386.018-.208.164-.416-.092-.108.088.06.047-.102.285.066.074.107-.082.126.096.166.013.032.16.173.222-.08.118.103.108.043-.033.094.07.053.175.096-.12.045.074.36-.042.182.182.208.04.064-.267.163-.127.127.07.106.308-.543.624-.958-.388-.042.043.027.088-.06.004-.037.102.017.157-.09.111.009.1-.163.007.001.174-.069.029-.008.108-.104.045.04.057-.044.06.078.023.02.15-.108.118.05.025-.005.088-.098.047.014.083-.182.234.149.185.309-.035.038.063.216-.081.085.066.09-.008-.015.053.147.075.093.477-.109.064.005.233.27.196-.036.092.105.115-.02.135.062.048-.063.058.09.126.098-.091-.034.133.06.152-.303.138-.215.003-.043.19.221.007.045.089.054-.022.074.094-.032.09.05.051.188-.255.088.028-.035-.025.06-.088.071-.024.186.502-.067.09.001.144-.361-.031-.03.376-.148.019-.05.292-.153.197-.026.292-.168.096.255.149.004.069-.585.01.1.222.114.08-.04.11.058.047v.226l-.069.018-.072.226.002.383-.168.036.001.17-.142.164-.616-.094-.314.016-.107.09-.072-.056-.08.041-.222-.271-.186.053-.058.137-.096.051-.152-.321-.784.031-.04.105-.456.03-.017.066-.33-.077v-.148l-.06-.001-.047-.177.147-.369-.102-.09-.088.023-.093-.073-.002-.377-1.093-.074-.124-.251.086-.141-.006-.127-.112-.063.06-.23-.694-.228.014-.099-.308-.006-.162-.085-.053-.099.07-.064.012-.102-.125-.19.003-.215-.197-.185-.486.057-.227-.118.011-.173.07-.08-.022-.17.318-.197-.144-.13-.102.03-.083-.557-.275.127-.047-.097-.153.033-.17-.133.034-.082-.14-.094.058-.002-.024-.13.096-.144-.229-.265-.075-.984.134-.044.011-.07.151-.035v-.15l-.056-.08.114-.043-.04-.113-.176-.018-.127-.13.11-.181-.027-.216.058-.079.14-.012-.009-.105-.216.017-.088-.148-.182.02.006-.744-.1.037-.34-.048-.06.066-.111-.007-.144-.07-.23.004-.023-.072-.178-.006.127-.232.131.07-.002-.163.25-.081-.256-.512.047-.05.103-.662-.187-.033-.04.195-.294-.014-.398-.171-.084-.076.05-.05-.053-.066.229-.142-.15-.176-.098.02-.101-.211-.027-.074.248-.113-.066-.085.316-.117-.055-.148-.346-.074-.03-.144.104-.615-.106-.116.004-.227-.176.001.032-.33-.07-.063.062-.22.195.014.203-.15.022-.073-.227-.033.08-.177.27.022-.06-.193.029-.138.158-.01.016-.092.112-.034-.073-.159.33-.09-.095-.041-.076-.26-.065-.048.088-.045-.02-.065-.124-.014-.085.053-.123-.183.128-.29.118.116.2-.246.101-.016.002-.061-.239-.166.06-.197.283-.001.097-.091-.32-.433.128-.188.364-.146.017.165.24-.164-.038-.09.166-.079.003-.063.12-.077-.164-.351-.045-.485.5.065.23-.129.089.028.01.094zm-77.141-4.893l.28-.018.201.364.101.028.056.145.21.144.379.068.075-.19.206.001.076-.086.16.168-.055.102.036.124.224.153.102.004.233-.127.093.03.15.272-.01.218.052.047.11-.026.018-.077.056.03-.04.047.053.213-.057.04.05.035-.015.369.313.026v.057l.367.216-.045.269.344.044.078-.06.375-.042.048-.065.104.01-.003.11.27.001-.032-.27.062-.09.418.382.178.006.05.118-.018.21.297.12.069.032.227-.067.211.097-.008.27h-.078l-.077.111.026.087-.07.044.012.137.247.176-.074.108-.03.308.622.877.2.155.277.162.053.131-.04.154.118.075-.206.068-.06.17.084.123-.101.253-.397.102-.058.216-.153-.083-.067.017v.085l-.09.014-.275-.12-.045.05-.122-.009-.073.14-.287-.088.044.328-.082.133.222.225-.267.268-.121-.165-.13-.045-.117.315-.062.463-.119.037-.078.162-.094-.011.022.063-.15-.049-.058.052.032.081-.178-.087-.059.084-.131.002.013.141-.064-.093-.167.062-.028.105-.412.019.061.19-.027.418-.123.019-.239-.104-.094.062-.227-.129-.128-.16-.165.099-.128-.013-.058-.094.079-.05-.112-.105-.143-.03.023.055-.066-.022-.005.049-.164.102.054.246-.18.014-.059.085.074.177-.034.22-.153.026-.064.094.097.3.253.116-.229.2.039.151-.123.198-.095-.078-.099.092-.216-.053-.006.116.014.149.184-.033.146.064-.064.225-.072.065.052.088.202.046.352-.024-.062.121.037.056-.072.13.003.151-.098.041-.18-.154-.13.02-.423.136-.26.2-.13-.034-.055.083-.132-.044-.04.133-.082-.012-.058-.09-.43-.062-.222.25-.053-.101-.208-.082-.323.224-.045.085-.341-.107-.216.063-.093-.105-.045.024-.083-.06-.192.213-.066-.042-.108.058-.114.494-.106.079-.08-.05-.056.043-.027.108-.29.311.113.17-.14.343.056.147.175.062.022.06-.182.082-.008.157-.103.184.132.324-.194.336.032.113-.224-.045-.2.11-.258-.076-.248-.114-.081-.214-.199.127-.217-.172-.114.102-.339.012-.275-.579-.093-.018-.008-.127-.186-.102-.212.128-.096-.033-.12.044-.095.121-.069-.025-.08-.099-.043-.25-.182-.072-.207-.17-.112-.264.005-.133.13-.098.109-.001-.089-.259.194-.132-.307-.17-.079-.004.044-.1-.052-.12.133-.24-.17-.048-.035-.097-.12.02-.081-.147-.115-.07-.021-.155-.202.038-.07-.045.09-.193-.114.001-.085.145-.062-.085.142-.286.07-.04-.147-.043-.025-.081.035-.09.1-.048.06-.559-.026-.367-.264-1.073-.19-.063-.119-.233.125-.076.18-.36.463-.593.026-.17.083-.119.112-.031.115-.118.141-.234.125-.097.13-.26.229-.185.05-.275.146-.04.639-.921.534-.621.026-.154.131-.053.205-.25-.005-.143.08.007.118-.09.847-.862.593-.402.296-.434.261-.104.08-.343.14-.121.435-.143.726-.08.315.019.039-.193.157-.09.273-.803.082-.525-.042-.113.03-.149-.059-.002-.036-.072.048-.143z"/><path d="M51.172 47.736l.403.006.552-.078.266.158.283.075-.06.14-.129.006-.086.144-.277-.072-.174.04-.128.131-.024.126.081.092h-.038l-.418-.437-.408-.33-.233-.332.139.191.251.14zm-6.909-12.561l.357-.248.669.056.044.096.127-.155.155.174.355-.005.026-.083.168-.044-.04-.108.382-.093.024.076.35-.03.049.183.113-.015.005-.163.067.065.103-.008.048.18.161-.046.074.056.14-.058.038-.143.305-.02-.056-.28.389-.076.02.075.455-.067.013.07.122.022.15.2-.066.11.108.087.108-.015.087.426.456-.146.029.176.22-.049.092-.098.064.186.136-.03-.004-.067.367-.067.069.321-.11.043-.036.144.091-.007.021.113.08-.05.01-.072.217-.01-.041-.31.081-.012.052.07.084-.042.008-.185.264-.049.048.154.237-.032.056.204.392-.069.072.47-.269.067-.01.074.114.641.138-.116.035.031.325-.062.054.385.132-.026.036.425-.145.008-.01.163.075.15-.22.049.046.257.69-.09-.01-.1.5-.065.033.092.083-.006.072.179.112-.013.032.228.078-.011.052.076.086-.11.032.084.363-.072-.04-.247.096-.023-.003-.159.34-.083.345.272.302-.096.037.099.085-.005L57 37.75l.13-.248-.057-.036-.024-.127.11-.019-.043-.257-.11.01-.018-.115.496-.09-.052-.153-.207.04-.024-.278.536-.09.066.145.48-.08-.032-.27-.087-.1h.255l-.008-.045.145-.033.056.047.21-.11.067.48-.056.101.07.31-.075.03.066.138.07.033.335-.06.029.266-.084.034.063.355-.127.036.052.353-.091.042.033.15.056.009.023.177-.533.135.13.815-.193.195.717-.04-.008.153.008.42.243-.144.023.047.025.177-.121.065.07.682-.357.053-.022-.474-.085.033.005.143-.12.038.022.461.027.06.452-.071.067.434-.175.077.01.323.072-.003.109.087.229.255-.264.04-.008.12.07.061-.072.047-.09-.014-.081-.136-.175.025-.003.152-.158.099.008.07-.117-.018-.06-.124-.012.05h-.243l-.047.198-.222.3.134.365.735.44-.247.379-.388-.21-.11.095.102.318.147-.015.024.12-.312.04.02.125-.48.107.015.136.069.03.334-.056.026.135.138-.024.014.088-.735.13-.006.058-.216.025-.022.082-.058-.052-.323.05-.042-.306-.571.041-.066-.143-.148.024-.015-.097-.059.008.043.246-.07.015.033.196-.334.043-.037-.191-.525.084.04.27-.145.014-.667-.416.132.226-.198.1.033.269-.259.056-.03.085-.274.046-.05-.043-.263.065.029.127.072-.011.05.343-.363.058.063.086-.227.013-.028.074-.416-.033-.123.196-.473.188-.114-.108-.238-.032-.33-.138-.306-.006-.182.111-.154.247-.174-.141-.174-.058-.354-.022-.078.069-.213-.024-.09.173-.333-.091-.302.01-.3-.128.063-.155-.07-.038.108-.061-.115-.075.042-.289-.195-.253.153-.22-.133-.24.023-.256-.147-.1-.104.01-.11-.3-.166-.122-.104-.008-.12-.472.381-.1.005-.077.247-.042.041.075.554-.091-.079-.238.19-.043.143.029.008-.17.058-.019-.05-.25.043-.021-.18-.687-.105.017-.035-.067-.222.044-.027.123-.466.004-.005-.26.051-.01.028.099.179-.03-.06-.287.162-.038-.022-.332-.827.208-.064-.235-.11.014.05-.168-.483.096-.08-.331-.086.016-.032-.123.198-.099-.045-.105-.075.007-.024-.068-.041-.254.108-.025-.044-.179-.199.032-.008-.173.091-.019-.068-.447.164-.036-.057-.273-.216.035-.027-.083-.288.007-.119-.094-.017-.076-.015-.073.184-.039-.027-.301.102-.108-.022-.104-.434.083.06.23-.242.065h-.087l.025-.259-.247.068-.035-.077-.744.135-.042-.182-.24.042-.172-.93.188-.063-.048-.199.114-.016-.003-.09-.044-.005-.032-.159-.499.066-.166-.866.043-.048-.131-.177-.199-.115.021-.108-.12-.268.163-.084-.116-.25-.144-.088.124-.026.098-.142.174.028.028-.09.19.004-.06-.033.019-.049.072.06.14-.035v-.077l-.228-.03-.055-.24z"/><path d="M41.439 34.666l.072.076.277-.108.23.224.226-.377.232.123.086-.107.107.177-.022.188.14.005.127.23.279.07.096-.091.29.005.348.112.128-.051.206.033.056.24.23.03v.076l-.141.035-.072-.06-.018.049.06.033-.191-.005-.028.091-.174-.028-.098.142-.124.026.144.087.116.252-.163.083.12.268-.02.108.198.115.131.177-.043.048.166.866.5-.066.032.159.043.005.003.09-.114.016.048.2-.188.062.172.93.24-.042.042.182.744-.135.035.077.247-.068-.024.26h.086l.242-.065-.06-.23.434-.084.022.104-.102.108.027.301-.184.04.015.072.017.076.119.094.288-.007.027.083.216-.035.057.273-.164.036.068.447-.09.02.007.172.199-.032.044.18-.108.024.041.254.024.068.075-.007.045.105-.198.1.032.122.086-.016.08.331.483-.096-.05.168.11-.014.064.235.827-.208.022.332-.161.038.059.287-.18.03-.027-.1-.05.01.004.26.466-.002.027-.124.222-.044.035.067.104-.017.181.687-.043.02.05.251-.058.02-.008.169-.142-.029-.19.043.078.238-.554.091-.041-.075-.247.042-.005.077-.38.1.12.472.103.008.165.121.11.301.105-.01.147.1-.023.257.133.238-.153.221.195.253-.042.289.115.075-.108.061.07.038-.064.155-.877.213-.966.364-.234-.047-.235.104-.123.273.045.124.081.051.029-.037.082.37-.12.517-.173.12-.202.274-.36.733-.328.553-.245.272-.158.32-.563.577-.86 1.068-2.747 2.17-.417.472-.061.227-.082-.022-.011.052.222.213.074-.061-.042-.064.05-.074.086.078-.001.1.046-.082.22-.033.137.073.041-.053.032.033-.072.12.056.16-.083.195.084.55-.138.46.029.284-.135.014-.017.109-.163.033-.049-.046-.09-.28.097-.145-.05-.295-.073-.2-.304-.372-.27-.18-.381-.104-.276-.154-.405.047-.136-.088-.204.162-.27-.044-.105.099-.176.051-.046.1-.146.087-.366.113-.519.304-.123.016-.093.143.024.158-.065.085-.144-.052-.224-.226-.156-.006-.134-.135-.121.005-.09.088.128.092-.024.087-.264.128.064.133.15.095.005.073-.398.132-.426-.141-.416-.04-1.174-.555-.34-.564-.014-.367-.363-.148.176-.301.334-.303.435.163.213-.04-.029.102.058.224.442-.107-.124-.532.306-.07-.155-.646-.197-.004.18-.379.146-.146.27.036.026-.09-.057-.219.21.047.459-.119-.05-.271.458-.129-.148-.698.036-.093-.034-.153.122-.027-.03-.075 1.108-.245.14-.34-.3-.372.616-.753-.606-.492.235-.551-.349-.968.515-.037-.01-.126-.183.003-.01-.074.229-.025.045-.106.14-.052.522-.022.01-.221.389-.113.02.449.053.003.034.111-.19.166.134.36-.208.246.18.06.146-.134-.008-.085.175-.09.048.065.096-.042-.096-.223.075-.055-.05-.116.147-.069-.024-.17.082-.056.266.601-.048-.166.347-.369.278.275-.123.15.128.12.312.054.087.427.116-.02.027.07.378-.053-.067-.562.075-.042.063.111.254-.056.046-.079-.088-.172.077-.04.192.126.079.312.177.134-.077.089.416.248-.008-.155.282-.22.264.143.069-.058.13.047.207-.116.173.14.373-.244-.026-.127-.121.143-.048-.113-.058-.043-.048.027-.051-.096.008.107-.082-.069-.024.086-.112-.028.04-.116-.22.003.01-.084-.169-.054.154-.07-.133-.016-.045-.06.06-.128-.077.012.003-.117-.027.078-.06-.025-.054.083h-.05l.04-.144-.118.119.02-.064-.082.001-.002-.078-.107-.013.032-.06-.09-.045.03-.04-.07-.104-.069.003.4-.097-.072-.075-.003-.104.135-.14-.064-.354.14-.334-.003-.483-.205-.414.138-.093.086.008-.052-.124-.114-.063-.224.159-.114-.233.042-.03-.045-.242-.19.03-.032.067-.487.097-.17-.541-.054.053-.337.017-.051-.254-.357.1-.084-.13.212-.039.03-.58.135-.056-.08-.42-.356.03.008.143-.09.024-.083-.305-.1.023-.01-.1.462-.112-.158-.885.255-.064-.141-.882-.368.061-.1.063.002.116.053.027-.075.045.001.187-.29.132-.033-.124-.138.036-.078-.345.075-.058-.043-.217-.283.077-.107-.6-.244.105-.137.149-.027-.353-.28.282-.055-.2.085-.097-.022-.043-.144.112-.036-.04.159-.132.006-.301-.027-.038-.176.079-.202-.364.375-.137.01-.092.17-.217-.036-.124.12-.11-.141.007.077-.146-.003-.176.057-.015-.133-.29.05-.143.18-.11.138-.397-.139-.058-.145.113-.112-.157.001-.085.127-.218.26-.193.03-.09-.329.03.003-.075-.028.09h-.053l-.146-.85-.259-.008.02.09-.209.004-.043.04.064.034.013.095-.107-.073.038.17-.115.043-.203-.024-.336-.27-.233.16-.236-.32.001-.104-.22-.171.065-.206-.016-.09-.078-.018.08-.06.11.093.015-.097.31-.1.097-.49.212.09.056-.051.09.019.068.257.082-.052-.037-.084.1-.13-.025-.182.08-.079-.02-.063.06-.022.344.319.069-.02.058.05-.079.073.213-.012.117.06.056-.067.128.013.078-.053.05.138-.101.015-.024.057-.182.019.083.122.216-.067.04.134.086.046.168.02.203-.073.016.055.08-.046.023.035.08-.04-.021-.064.06-.088.402-.07.055.119.125.048.372.035.021-.044.083.005-.033-.079.075-.036.027-.117.205.066-.01.095.145.028.022-.053-.064-.038.072-.021.037-.338-.11-.229.145.05.214-.12.27.003.036-.043zm17.802-18.792l.188.025.08.095.299-.15.097.122.16.041.09-.047.022-.242.196-.117.121.147.087.025.019.093.294.006.016.187.19-.008.044.135.075.056.005-.075.152-.058.08.025.03.097.095-.163.128.14.08-.079.179-.044.78.214.122.09.11-.007.181-.15.284-.11.03-.063-.045-.06-.142-.017-.024-.068.337-.14h.1l.13.14.207-.26.408.303-.02.097.203-.136.217.084-.096.129.074.069.102-.085.01-.149.288-.136.157.025.096-.096.155.129.06.7.69.56-.046.072.17.172-.056.163.067.068.203.174.333.044.04.31.06.043.012-.063.105.023.116.159-.066.161-.201.22.08.085-.039.127.087.18.145.107.088-.055.226.128.112-.053.048.061.078-.09.046.027-.02.052.113.008.002-.307.178-.107.084.036-.038.096.31-.076.02-.045.18.013.063-.055.504.098-.055.171.016.24.159.212-.575.744.148.407.05.05.113-.03.145.286.154.124.094-.018.119.131.126-.116.119.003.078.22.3.047.103-.044.399.229.027.21-.11.041.052.127-.01.29.095.102.147.017.016.12-.08.05.072.034-.07.126.137.075.344.038.114.128.437-.064-.045.118.109.142.222.56-.403.087-.035.06.123.027.007.198.302.105-.018.242-.79-.15-.109.376.251.084-.07.35.146.06-.513.629.044.199-.066.146-.224-.133.062-.05-.038-.029-.453.052-.15-.058-.208.012-.087-.133-.206-.102-.064.049-.235.615.2.798-.043.02-.002-.087-.322-.286-.116.083-.066.209-.103.064-.175-.094.016-.058.116.011.05-.075-.192-.058-.024-.052-.203.03.025.06-.073.059-.147-.064-.11.053-.003.24-.13-.022-.181.113-.085-.022-.084.113-.073.014-.066-.08-.125.033-.092.103-.106-.007.008.152-.091-.028-.058.117.04.155-.117.06-.191-.125-.103.075-.117-.088-.064.053-.328-.232.075.323-.281.174-.06.145-.142.125.143.135-.215.326-.062.364.041.1.146.103-.005.127.067.01-.003.084-.125.012-.008.083.125.073-.281.023.019.284.14-.055.082.06-.152.147.027.168-.115.185.008-.12-.053-.042-.188-.003-.112-.108-.168-.045-.132-.132-.108.03-.132-.054-.054-.087.03-.176-.035-.064-.28-.033-.178-.132-.09-.177-.19.003-.292-.118-.2-.185-.424-.282-.3-.066-.25.044-.162-.134-.104-.177-.15.04-.014.095-.187.157.064.034-.097.146-.15.018.033.05-.131-.007-.06-.145-.34.12.016-.291-.037-.01-.208-.025-.037.046-.003-.05-.096.001-.03.232-.268-.204-.174.027-.03-.06.081-.03-.16-.341.171-.182-.081-.176.025-.116-.097-.082.019-.051-.135-.027-.09-.08.13-.044.07-.173-.146-.131-.05.022-.016-.124-.106-.127-.037.006.05.163.003.527-.241.019-.085-.085-.14.025-.02-.262-.06-.094.045-.106-.23-.355-.413-.017-.1-.13-.122-.014-.054-.084.02-.182-.077-.069-.235.1-.216-.023-.182-.086-.218-.022-.288.144-.1-.149-.146-.06-.335.076-.137-.107-.101.065-.11-.198-.148-.056-.086-.11-.22-.07-.217-.178.064-.104-.078-.004-.013-.047.09-.082.164-.406.173.212.303.034.315.176.464.014-.015-.171-.123-.094-.121.005-.074-.128.02-.199-.158-.103.116-.093.014-.408.184-.006.213-.208-.008-.38.041-.043-.316-.224.084-.088-.081-.262.057-.102-.136-.03-.112-.153-.478-.168-.006-.406-.093-.155-.215-.03-.07-.256-.286.074-.076-.217-.336-.423.092-.083.062.077.176-.107-.11-.126.025-.181.055-.023-.064-.056.046-.204-.253-.161-.078-.432-.11-.017.019-.108-.096-.076-.055.151-.057.008-.298-.364.083-.127-.109-.113.282-.066-.03-.2-.666-.19-.074-.173-.27-.21.067-.097-.043-.035-.144-.16.083-.278-.032-.036.227-.149-.059-.092.117-.165-.038-.096.392-.086.056.064.054-.045.085.063.059-.127-.056-.091.2-.055.02-.135.158-.07-.04-.101.04-.066.235-.022.024.11.125.061.041-.038.227.107.26-.005-.034.245.213.206.2-.12.374.027.018-.094.211-.028-.008.108h.366l.02.044.035-.057.077.083.033-.039.114.054.051-.071-.074-.045.02-.076.254-.025.43-.289-.019-.127.152-.048-.041-.057.075-.067.078.012.034-.133.06-.023-.031-.102.217.007.058-.243.104-.01.134-.143zM20.035 4.01l.566.08.28-.144.125-.009.197.061.024.088.235.04.253.288.086-.016.01.115.112-.022.06.048.17-.084.373.026.085.07.328-.02.15-.103.016.347.133-.02.115.173.138.035.018.117.385.015.067-.134.183-.06.019-.075.12.047.413-.012.097.107.226.08.046.07-.03.154.189.09.033.082.288-.077.173.146.2.011.168.105.25-.283 1.133-.044.037.933.222-.024.13.109-.156.274-.005.163.525-.022.11-.1.166.085.185.022.008-.07.135-.068.062.11.1-.07.033.049-.053.12.136.078.125-.173-.08.005-.02-.19.05-.06.107.118.07-.118.383.267.135-.093.188.035.06.063.166.003.032.124-.05.215-.22.208-.013.167-.069.03.034.158-.108-.035-.142.17-.24.036.008.414h.102l.077.234-.168.001-.065-.118-.226-.145.024-.168-.152.004-.072.64.146.068.003.221-.143.21-.29.06.12.384-.08.08.129.068.013.084-.31.295-.228.395.024.079-.078.04.006.377-.23.154-.032.174.059.129-.255.007-.027.076-.29.022.015.186-.146.068.213.462.003.077-.092.036-.02.115.208.18-.052.094.043.035-.043.1.03.104-.098.15.05.098-.045.244.05.049-.004.187.15.062-.036.145.063.202-.17.39-.18.041-.047.07.056.051-.01.141-.112.124.213.155-.072.153.08.161-.192.04-.344.015-.002-.223-.08-.053-.235.144-.014.198-.282-.061-.05.166-.111.046-.039.089-.265-.069-.17-.114-.247.304-.11-.115-.051.016-.04.146-.184.005-.043.106-.05.002-.02.158.146-.045-.019.066-.245.053.023-.15-.055.017-.043.163.051.111-.107-.016-.03.25-.098-.025-.064.252-.115-.022-.067.228-.251-.027-.08.232-.183.079.029.105-.077.001.003.077-.099-.022-.02.108-.084.065.035.07-.117.008.007.113.06.031-.587-.014-.084.105-.106.01-.198.174-.104.122-.008.148-.09.135-.304.06-.06-.057-.22-.146.066-.155-.035-.12.17.01.026-.298-.152.015-.166.292-.547-.226-.277.217-.037-.074-.171-.058-.074-.09h-.153l-.292.311-.105.239-.195.075-.135-.032-.168.055-.201-.065-.032.11-.196-.037-.312.217-.28-.185-.118.207-.291-.05.005-.07-.143-.017-.152.127.01.188.037.08.152.029.022.099-.195.062.019.1-.1.088-.038.156-.361.06-.082.343-.2-.155-.622-.877.03-.308.074-.108-.247-.175-.013-.138.07-.044-.025-.087.077-.111h.078l.008-.27-.21-.097-.228.067-.069-.033-.059-.105.046-.09.098.002-.005-.067.213-.097-.094-.127-.03-.198.13-.081.061.156.101-.018.067-.145-.078-.13-.131-.002-.013-.188-.061-.099-.11.03.067-.21-.343-.193.348.053.05-.298-.04-.092-.16-.124.01-.165.356-.006.032.067.232.029.054.056.26-.027.075-.181.075-.057-.043-.146-.116.05.047-.17-.101-.28.123.002.093.111.136.013.024.051.251-.023-.177-.176-.018-.094-.06.013.057-.083.072.01.078-.123-.051-.175.112.154.334.065-.019-.068.275-.124.402-.143.069.04-.02-.16.19.008.324-.095.003.173.172.183-.077.091.17.02.183-.06.104.07.157.352.066.023.05-.06-.103-.133.246-.362.04-.165-.035-.284.082-.199.003-.259.118-.277.607.094.094-.184-.005-.08-.136-.124-.112-.014.061-.582-.213-.168.183-.07.448-.043.019-.246.115-.04-.093-.404-.38-.25-.226.03-.202-.059.042-.16-.072-.12.128-.062.186.025.001-.141.075.008.023.069.23-.099.002-.09.096-.002-.043-.24-.336-.364-.296-.066-.007-.143-.069-.088.036-.108-.14-.11-.097-.006-.042-.182-.189-.086-.13-.137.015-.238L20 8.76l.112-.047-.066-.119-.14.107-.09-.033-.052.034-.124-.066.02-.155-.176.002-.064.1.055.074-.088-.028-.058.056.01-.135-.05.005-.037-.112-.236-.174.001-.477-.12.007.02-.1-.12-.004.025-.106-.278.03-.02-.09.239-.09-.002-.076-.147-.066.06-.138.095-.047.039-.19-.116-.185-.104.012-.048-.167-.116.069v-.132l.201-.017-.017.058.059.014.062-.17.093.029.197-.333.056-.245.083-.08-.014-.097.104-.212-.055-.14-.067.059-.055-.025.057-.13-.159-.172.038-.13.074-.05-.075-.194.13-.218.161-.098.067-.106-.188-.068-.213.011-.188-.122-.03-.082.637.072.277-.07.112.022-.07-.221.067-.02.236.062-.02.12.05.043z"/><path d="M63.405.235l.094.237-.074.12.177.114.168.052.03-.062.053.032.137.199-.027.293.098.02.017.095.205.042.058.209.229.031.054.16-.02.138.306.218-.028.188-.116.113.052.126-.197.177.096.008.102.246-.035.124.032.171.216.069-.037.149.067.12.244-.007.094.242.107.101-.027.077.21.082-.002.185-.054.069.084.017.08-.078h.108l.163.161.161.065.056.122.095.024.155.153-.04.319.154.197.022.187-.1.182-.31.088-.304-.066-.099.13-.297.068-.125-.046-.055.07-.225.071-.178-.023-.245.185.042.05.078-.019.035.11.103.008.002.066.192-.02.086.396.165-.022.022.207.106-.081.107.213.013.229.198.014.074.111-.015.065-.097.001.016.258-.12.055-.119.147.039.143-.047.075-.118.022.037.083-.06.022.044.154.123-.01.107.116.107-.015-.017.1.088-.012.165.086.024.1-.138.187-.165-.013.035.113-.033.096-.042-.008-.025.1-.144.055.059.13-.107.043-.016.07.43.23.117-.013.29-.28.273.133.06-.032.218.138.135.017.051-.075.104.002.213.146.121-.17.322.06.045.425.26.2.07-.071.238.054.07-.084.11.108.12.017.018-.108.146-.135.078.055.12-.038.067-.084.145.017.028-.107.197-.143.157.016.154.105.024.126.116-.097.055-.128.277.008.142.061-.104.256.032.188-.06.063.076.088.02.163.16.083-.06.123.077.097-.016.077-.096-.018-.039.066.084-.006.134.26.131.054.202-.16.113.064.013-.067.168-.062.005-.043.227.127.15-.02.058.096.103.04.019.194-.13.057-.069.098-.28-.066.176.327-.128.274.03.074.185.024.005.056.117.016.052.075.016.102-.12.058.09.127-.08.083.117.07.078.14-.022.38.201.154.14-.004.059.05-.09.264.024.064-.117.091.016.065.061.012-.046.124.048.115.137.11-.041.18-.135-.088-.347.12-.02.101.167.308-.172.194.2.15.038.257.216.346.46.284.042-.081.084.114-.005.527.156.09-.047.072.123.117.197.003-.03.057.127.031-.029.132-.08.023-.022.091h-.096l-.077-.054.023-.041-.193-.046-.112.083-.3.02.094.123-.056.091-.107-.069-.051.047-.195-.175-.1-.01-.088-.141-.1.111-.145.003.01.197-.275-.197-.18.245.177.118-.144.095-.197-.009-.047.245-.104-.003-.024.067-.203-.094-.029.075-.224-.11-.203.214-.229.097.008.12-.153.206-.07-.015-.007-.1-.112-.03-.02.053-.034-.049-.202-.019.06.212-.167.056-.504-.098-.063.055-.18-.013-.02.046-.31.075.038-.096-.084-.036-.178.107-.002.307-.113-.008.02-.052-.046-.028-.078.091-.048-.06-.112.052-.226-.128-.088.055-.145-.107-.087-.18.038-.127-.08-.085.202-.22.066-.161-.115-.159-.106-.023-.013.063-.06-.043-.04-.31-.332-.044-.203-.174-.067-.068.056-.163-.17-.172.046-.073-.69-.56-.06-.7-.155-.128-.096.096-.157-.025-.288.136-.01.15-.102.084-.074-.07.096-.128-.217-.084-.204.136.021-.097-.408-.303-.206.26-.131-.14h-.1l-.337.14.024.068.142.017.045.06-.03.063-.284.11-.182.15-.109.008-.123-.091-.78-.214-.178.044-.08.079-.128-.14-.095.163-.03-.097-.08-.025-.152.058-.005.075-.075-.056-.043-.135-.19.008-.017-.187-.294-.006-.02-.093-.086-.025-.121-.147-.196.117-.022.242-.09.047-.16-.04-.097-.123-.3.15-.08-.095-.187-.025-.099-.171.262-.319.018-.1.114-.03-.1-.061.096-.292-.025-.075.171-.088.016-.315-.074-.141.409-.093.135-.09-.036-.043-.096.01-.039-.086h-.099l-.19-.365.078-.066-.067-.227.155-.182-.081-.035.059-.127-.05-.165.066-.062.133.001-.058-.25.022-.313-.21.011-.066.05-.056-.03-.119-.415-.213.122-.001.08-.192-.08.088-.276.136-.099-.125-.103.054-.163-.17-.033-.009-.079-.42-.075-.023.04-.063-.054.256-.432-.161-.153.121-.184-.044-.04.077-.085.2-.008.072-.049-.045-.191.198-.218-.051-.1.078-.203-.177-.039.099-.022-.07-.056.111-.035.066-.14-.077-.19-.15.002.011-.193-.107-.227.154-.11.05.04-.103.114.128.067-.003.096.137.03.133-.02-.011-.112-.08-.006-.037-.074.128.01.032.08.074.006.023-.142-.096-.051.087-.113-.102-.094.038-.251.072-.09-.024-.133.038-.102.064.028.232-.122-.038-.267-.087-.047-.07-.168.02-.066.25.008.085-.09-.17-.029-.193-.218-.014-.271-.13-.038.082-.168-.044-.497-.17-.19-.068-.229-.062-.019.044-.066.072.008.116-.246.124-.055-.043-.12-.059-.026-.029-.252.293-.182.005-.168.238-.019-.01-.069.148-.01.06-.084.169.04.033-.104.101-.032.077.065.133-.003.125-.411-.216-.26-.165-.068.065-.14.21.006.18-.169.078.003.128.2.224-.096.17-.005.004-.425-.048.044-.18-.061-.103.028.032-.079-.048-.11-.131-.045.012-.088-.392-.177-.073.044.08.038-.11-.016.028-.15.058-.016-.119-.171-.017-.116.109-.109-.092-.106.184-.07.1-.177-.045-.128.07-.01.056-.086-.006-.114.067-.076-.048-.056.083-.03-.062-.143.128-.047.075-.196.104.032-.04-.102.098-.12.05.079.257.01.035.123-.05.072-.1.016-.07.166.418.105.037-.087-.102-.1.197.1.13-.192.284-.05.114-.082.019-.075.171-.044.087.072.321-.125.258.064zM17.433 20.148l.082-.344.361-.06.039-.154.099-.088-.02-.1.196-.063-.023-.1-.152-.027-.036-.08-.01-.189.152-.127.143.018-.005.069.29.05.12-.207.28.185.311-.217.196.036.032-.11.201.066.168-.055.135.032.195-.075.105-.239.292-.31.153-.002.074.091.171.058.037.074.277-.217.547.226.166-.292.152-.015-.025.298-.171-.01.035.12-.066.155.22.146-.047.047.035.132-.05.045.074.09.11-.005-.046.094.211.158v.091l-.393.027.005.243.108.074.026.116h-.05l-.003.078-.102.005-.114.093.183.067-.056.196-.172-.014-.006.074-.107.081-.018.16.104.295-.168.133v.065l.14.069.01.053.22.111-.128.175.204.3.05.238.079.048.03.239-.168.095-.122.193.268.17.164.183.018.099-.083.036-.005.125-.134-.009-.036.104-.142.122.077.174-.037.066.06.232-.08.028-.038-.083-.112.068-.18.317.265.249.014.413.212.243-.07.183.122.072-.057.082.056.103-.088-.012-.002.174.122.114-.005.115.067.072-.057.025.032.083-.072-.014.081.116-.078.074.005.083-.221-.003-.007.18-.065.014.026.068-.057.12.055.122-.026.08.116.083-.116.017.077.213-.042.043.039.238-.063.187.127.031-.162.143.123.16-.05.09.09.133-.031.056-.095-.031-.074.054.032.065.154.037-.19.09.163.15-.075.152.016.134h-.066l.063.114.084-.064.061.02-.094.106.046.138-.06.19.08.042.094.25.128.023-.056.069-.12-.04.05.185-.108-.094-.04.037.042.14.112.027-.034.121.082.061-.015.038-.104-.028.112.127-.07.22.051.092-.096.085.026.048.099-.015.006.123.157-.01-.026.181.204-.06-.104.133.157.018.024.052-.162.057.17.094.1.204.085-.013-.118.146.153.083-.027.124.064-.002.06-.166.142.179.142-.045.042.073-.279.022-.21.22-.148-.07-.13.06-.18-.247-.386.117-.157-.025-.114-.16-.017-.41-.146-.164-.088.052-.027.114.16.258.01.116-.175.119-.272-.372.119-.179-.034-.273-.05-.055-.105.038-.056.259-.248-.093-.22.237-.14.04-.18-.104-.134.02.024-.199-.275-.364-.104-.06-.062.002-.087.097-.118.24-.127-.235-.456-.088-.046-.06.165-.139.006-.078-.211-.082-.02-.07.145-.109.022-.075-.222-.137-.295-.294-.213-.027-.273-.204-.029-.067.107-.126-.088-.096-.097-.04-.04.033.059.142-.048.06-.331-.127-.127.005.05.412-.06.016-.08-.105-.075-.011-.111.116-.07.18-.148-.014-.09-.141.024-.127.11-.072.284-.003.06-.11-.043-.047-.126.017-.078-.144-.186-.044-.106.163h-.096l.11-.278.03-.397-.135.077-.107-.037.034.106-.16.143.016.207-.061.042-.098-.033-.117-.453.154-.157-.2-.158.03-.257-.132.127-.39-.24-.28.142.006-.15-.34-.34.064-.228.404.094-.008-.077-.085-.022.05-.282-.12-.063-.314-.031-.239-.27-.003-.135.39-.45-.459-.224-.017-.137-.067-.069-.015-.25.175-.255-.124-.083-.054-.185-.067-.047-.11.053-.087-.042-.083-.41-.221-.486.027-.419-.06-.19.41-.018.03-.105.166-.062.064.093-.013-.141.131-.002.06-.084.177.087-.032-.081.058-.052.15.049-.022-.063.094.011.078-.162.119-.037.062-.463.117-.315.13.045.121.165.267-.268-.222-.225.082-.133-.044-.328.287.088.073-.14.122.008.045-.05.275.12.09-.013v-.085l.067-.017.154.083.057-.216.397-.102.1-.253-.082-.124.059-.17.206-.067-.118-.075.04-.154-.053-.131-.277-.162zM2.856 27.942l.152.072.098-.092.282.064.08-.083.243.226.097-.007.077.192.234-.047.016-.087-.1-.098.036-.063.307.17-.194.131.088.259-.108.002-.13.097-.005.133.112.264.207.17.182.073.043.25.08.098.07.025.094-.12.12-.045.096.033.212-.128.186.102.008.127.093.018.275.58.34-.013.113-.102.217.172.199-.127.081.214.248.114.258.077.2-.111.224.045.234.06.046.103.131.003.07.06.007.13.365.352.448.023.032.364.291.292.303-.06.104.138-.093.477.073.135.263.066.057-.046-.016-.074.114-.254.206.038.167-.12.059.037.074-.108.166-.068.07.072-.05.085.007.193.082.091-.087.124.015.15.083.09-.022.194.067.066-.015.105.164.109-.004.056.348.07.067.07.173-.247-.01-.11.285.059.093.08-.028.13.079.094.269.138.147.218.232.174.041.08-.038.213.223.091.105.121-.133.14.018.05-.074.066.048.084-.094.135.15.272.122.045.035.116.213.132.149.306-.27.229-.065.414-.064.074-.15-.013-.082.074-.408-.15-.227.13-.062.213-.175.093-.134-.09-.239.157-.126-.008-.155.082-.197-.165-.435.025-.093-.177-.178-.12-.16.027-.128-.14-.136.062-.033-.057-.133.029-.06.119-.32.042-.09.077-.101-.063-.131-.298-.24-.13-.162-.016-.445.1-.28-.19-.266.037-.198-.129-.04.189-.144.222-.238-.067-.093-.107-.106.013-.081-.108-.127-.015-.14-.133-.098.002.019-.14-.235-.063-.066-.072.06-.142-.12-.107-.013-.107-.07-.01-.042.067-.293-.041-.066-.16-.069-.019-.092.064-.058.135-.136.06.05.077-.098.09.034.1-.07.086.052.06-.094.126.04.03-.032.079-.317.015-.098.11-.233-.168-.06.029-.177-.088-.047.1.101.064.055.25-.282.088-.042-.107-.264-.102-.022-.061.158-.173.085-.332-.07.02-.037-.17-.128-.073-.075-.138.01-.146-.052-.01-.053.09-.025-.124-.055.038-.1-.035.02.07-.046.032-.063-.084-.112-.004-.358.225-.434-.132.042-.077-.06-.185.054-.019-.079-.127-.046.01-.06-.154.039-.152-.211-.1-.091-.136.003-.089-.098-.02.023-.068-.079-.044-.161.096-.133-.082-.173.018-.109.114-.225-.348-.016-.22-.127-.14.03-.216-.276-.06-.143-.199.13-.196-.152-.009-.158-.122-.335.185-.037-.265.12-1.047.124-.29.176-.15.083-.002.113-.2.282-.236.197-.061.12-.395-.005-.065-.096-.075.014-.09.223-.307-.061-.28.035-.206.077-.127.13-.074.057-.284-.035-.067.269-.381.024-.128.125-.06.105.024.135-.08-.045-.116.073-.066.01-.392.107-.12.083-.035.207.133.17.256zm28.034-5.677l-.002-.07.078.033.192-.043.09-.097.163-.01.143-.076.624.069.197-.014.224-.138.366-.017.045.037.107-.092.01-.127.099.097.373.063.238.111.154-.082.088-.268h.252l.08.121.234-.09.232.361.157-.062.011-.223.114-.032.3.077.156-.037.088.102.056-.013.11-.376.165.006.017-.07.31-.08.073-.21.08-.018.125.061-.012.115.317.216-.03.174.072-.008.043.14-.144.174.127.055-.002.17.208.148-.05.185-.252.29.136.126.05.16.16.082-.113.175.005.129.144.05.472-.022.085.079.157-.065.352.027.153-.118.056.105h.117l.024-.313.267.008.07.105.079-.12.134.068.144-.304.103.058.025-.076.4.09.154.106-.13.124-.043.22.163.3.061.3.15.137.086-.019-.012.084-.197.089.02.095.233.184-.19.317-.29.138-.025.17.099.08.024.233.086.116.181-.008.256.145-.043.125.022.118.06.008-.079.09.157.137.125-.022.128.093.054-.151.075-.038.047.223.075.04-.051.068-.114-.025.117.201-.069.444.043.09h.066l.006.092-.281.081.032.203-.196-.063-.124.34-.07-.108v.08l-.047.019.187.339.229-.094.005.147.054.033-.237.356.063.063-.061.09.189.203.078-.044.165.083-.1.105.058.058.053.245.135.085.052.492.536.171-.025.054.123.186-.106.02-.059.128.066.049-.03.065.095.005.221.22.141.004-.011.127.165.052.017.118.087.005-.04.177-.192.025-.018.114.058.098.252.075.084.433-.15-.005.074.046-.019.14-.192.046.003.143-.1.182-.464.193.032.072-.437.367.13.17-.044.134-.105.024-.05.194-.064.066-.067-.015-.004.067.125.138-.01.127.06.11-.055.154.047.11-.045.053-.27-.003-.215.12-.144-.05.11.23-.036.338-.074.022.064.04-.02.051-.145-.027.01-.095-.205-.066-.029.116-.075.038.034.076-.083-.003-.021.043-.371-.033-.125-.049-.054-.12-.404.071-.059.088.02.065-.08.037-.022-.034-.08.045-.017-.053-.203.074-.168-.02-.085-.046-.04-.135-.216.067-.085-.122.182-.019.024-.056.103-.016-.05-.138-.078.053-.128-.012-.056.066-.117-.06-.213.012.079-.072-.058-.051-.069.02-.344-.32-.06.022.019.063-.08.078.024.184-.1.128.036.085-.082.052-.067-.258-.092-.018-.056.051-.21-.089-.097.49-.312.098-.012.097-.11-.092.05-.157-.088-.191-.142.006-.042-.066-.188.058-.09-.09-.352.084-.051-.159-.17.014-.011-.053-.195-.056-.112-.126-.064.044-.068-.055-.212.174-.125.02.08.103-.095.078-.028.141-.021.272.041.081-.19-.06-.234-.387.103-.168-.066-.224-.251-.017-.165.301-.158.031-.083-.056.01-.176.22-.141.1-.18.002-.207-.084-.148-.167.11-.105-.063-.52.289-.106-.079-.002-.29-.123-.075-.11-.006-.048.13-.136.102-.103-.013-.059-.127.074-.362-.082-.157-.13-.069-.563-.055-.305-.246-.128-.35-.274-.116-.195-.22-.23-.084-.337.133-.21-.016-.274-.153.073-.184-.045-.056-.34.175-.186-.1-.107-.2.016-.261-.16-.472-.43-.245.09-.356.138-.18-.088-.244.064-.106-.112-.127-.005-.08.108-.013-.013-.056.115-.168-.088-.134.034-.125v-.091l-.005-.337-.133-.201.013-.278.118-.113.005-.131-.125-.156.032-.088-.1-.062.311-.49.332-.014-.106-.143.117-.137-.045-.137.077-.064.157.067-.015-.149.24.155.112-.108-.02-.177.201-.035.045-.053.31.226.095-.063.13.057.102-.1-.016-.059.133-.09-.009-.198.079.152.122-.096.023.07.074-.012.115.08.155-.044.08-.08-.033-.185-.035-.044-.1.011-.057-.185.096-.08-.135-.152.073-.108.006-.148-.06-.108.036-.136-.091-.18-.152-.057-.008-.091.086-.016-.002-.067-.084-.014-.01-.066.117-.047.091-.29-.125.047-.116-.13-.068.027-.144-.065-.088.037-.033-.1.065-.09.044-.117.073.005.034-.082-.252-.069.002-.273.091-.05.103.125.096-.086.016-.204-.197-.182.078-.15.093-.043.045-.142.064.039.011-.091-.005-.159-.238-.172-.018-.262.255-.035-.026-.064.165-.166-.011-.145zM16.772 3.702l.188-.066.412.276.357.07.047.065h.348l.06-.091.134.074.096-.154.331.125.03.082.188.122.213-.01.188.067-.067.106-.161.098-.13.218.075.194-.073.05-.039.13.159.171-.056.13.054.026.067-.058.055.14-.104.211.014.097-.083.08-.056.245-.197.333-.093-.029-.062.17-.06-.014.018-.058-.201.017v.132l.116-.07.048.168.104-.012.116.185-.039.19-.094.047-.061.138.147.066.002.077-.239.089.02.09.278-.03-.026.106.122.003-.02.1.12-.006-.003.477.237.174.037.112.05-.005-.01.135.058-.056.088.028-.055-.074.064-.1.176-.002-.02.155.124.066.052-.034.09.033.14-.107.066.12L20 8.76l.041.035-.014.238.13.137.188.086.042.182.097.006.14.11-.036.108.07.088.006.143.296.066.336.364.043.24-.096.001-.002.091-.23.099-.023-.07-.075-.007-.001.141-.186-.025-.128.061.072.121-.042.16.202.058.226-.028.38.25.093.402-.115.041-.02.246-.447.043-.183.07.213.168-.06.582.111.014.136.124.005.08-.094.184-.607-.094-.118.277-.003.259-.082.2.035.283-.04.165-.246.362.102.133-.05.06-.065-.023-.157-.352-.104-.07-.184.06-.17-.02.078-.09-.172-.184-.003-.173-.323.095-.19-.008.019.16-.07-.04-.4.143-.276.124.02.068-.335-.065-.112-.153.051.174-.078.123-.072-.01-.056.083.059-.013.018.094.177.176-.251.023-.024-.051-.136-.013-.093-.111-.123-.002.1.28-.046.17.116-.05.043.146-.075.056-.076.182-.259.027-.054-.056-.232-.029-.032-.067-.356.006-.01.165.16.124.04.092-.05.298-.348-.053.343.193-.067.21.11-.03.06.1.014.188.13.001.08.13-.068.144-.1.02-.062-.157-.13.081.03.198.094.127-.213.097.005.067-.098-.003-.046.091.06.105-.298-.119.017-.21-.05-.118-.177-.006-.418-.381-.062.09.032.27-.27-.003.003-.11-.104-.009-.048.065-.375.042-.078.06-.344-.044.045-.269-.367-.216v-.056l-.313-.027.014-.369-.05-.034.058-.041-.053-.213.04-.047-.056-.03-.017.077-.11.026-.053-.047.01-.218-.15-.271-.093-.031-.233.127-.102-.004-.224-.153-.036-.124.055-.102-.16-.168-.076.086-.206-.001-.075.19-.38-.068-.209-.144-.056-.145-.1-.028-.202-.364-.28.018-.028-.11-.104-.032.045-.345-.15.032-.143-.063-.012-.2.041-.034-.059-.019.06-.099-.058-.053-.181.035-.06-.06-.06-.155.027-.171.128-.177.098-.052.22.01-.001.045.336-.041.18-.14.036-.103-.157-.017-.162-.156-.184-.022-.45-.498-.074-.327-.236-.175.117-.032-.067-.015-.038-.098.081-.086-.091-.031-.02-.269-.134-.069-.05.044-.031-.146-.067-.047.017-.105-.07-.077.027-.076.077-.004.016-.169-.15-.116-.105.016-.086-.189-.122-.036-.156-.197-.089-.01.016-.108-.086-.09-.003-.21-.155-.18-.004-.072-.022.038-.16-.041-.03.045-.064-.042.035-.07-.064-.082-.02-.196.1-.068-.032-.031.081-.191.108-.011-.036-.09.05-.078-.06-.044.14-.074-.003-.081-.053-.027.058-.035-.063-.001-.072-.102.04-.096-.192-.031-.013-.107.148-.107-.026-.097-.054-.063-.112.037-.104-.095-.012-.127.024.065.232.044.063-.057-.215-.392.124-.136.02-.121-.17-.094-.135-.265.307-.148.075-.105.171.031.388-.144.056.063.006.172.189-.056.46.12-.182.205.016.142.223-.06.401.15.136-.174.292-.167.248-.387.804-.435.256-.276-.123-.448.258-.399-.026-.097.264-.191.488.004.51-.072.32-.105.23.086.241-.032.14.11h.084l.362-.252.064.013.04.124.405-.121.07.122h.18l.178-.169.122-.017.41-.281.236-.002.298-.15.18.077zm48.271 36.734l.46-.112.505-.22.691-.072.832-.27.343.023.37.144.756.17.253-.008.208-.1.046-.131-.041-.15-.127.02.063-.077-.133-.063.06-.025-.007-.081.033.043.044-.073-.068-.264-.084.005-.053-.282.177-.05-.04-.264.133-.016-.01-.207.047-.017-.034-.209-.345.06-.072-.468.123-.087-.02-.17-.151.006-.055-.213-.235.107-.082-.4.27-.038-.014-.099.135-.05.034.088.193-.042-.058-.399-.198.014-.048-.246-.06-.003-.04-.28.193-.04-.107-.617.12-.003.01.044.188-.025-.001.317.374-.047.029.053.248-.063.125-.185.228-.083.38.011.265-.105.146.07.241-.08.244.172.984.226.02.142.986-.495.208.342.346-.027.045.251.817-.207.095.066.004.061-.073.045.008.1.043-.034.038.036-.062.095.416-.095.07.275-.17.064.038.099.118.03.043.218-.112.058.008.04.115-.039.061.278.131-.085.06.087-.058.05.104.161-.067.3H75.5l.019.143.429-.003.214-.09-.042.163.058.05.374.002.063.12.278-.038-.005-.154.263.02.016.068.44.044.334-.041.013-.066.328-.081.104-.024.02.075-.042.182-.066.014.005.245.448-.061.083.514.079.005.064.383.42-.044-.092.155-.106-.028-.013.053-.184.028.035.218.21-.032.005.076-.114.024.015.11.099.045.349-.165.352.597.281-.222.11.156.079-.055.117.183.11-.116.291.479.04-.038.386.336.128-.233.078.035-.017.077.285.012-.015.248-.044.003-.209.498.045.138-.214.106-.138-.302-.157.039.073.274-.226.142.011.06-.232.101-.056-.105-.429.027-.025-.071-.096.016.198.911-.424-.038.022.043-.187.01.187.216.06-.02.05.08.058-.067.018.093.067-.043.023.063.043-.017.189.273.1-.025.061.3-.144.086.519.24.107-.085.131.146-.185.257.271.207-.224.129-.033-.036-.386.306.227.352-.163.106-.241.04-.45.378-.227.411-.234.609-.296.39-.11-.004.16-.108.027-.106.22-.197.044-.113-.11-.239-.207-.2-.302-.168-.557.019-.222.119-.853.28-.208.14-.383.455-.579.977-.149.163-.112-.025-.185.115-.048-.005.01-.07.087.031.09-.061.06-.15.103-.009.227-.17.23-.386.005-.237-.14-.201-.252-.146-.185.01-.235.092-.461-.08-.514.061-.29.118-.79.452-.725.768-.777.369-.503.65-.976 1.596-.31.24-.712.256v-.189l.233-.174-.012-.1.164-.085.42-.077.41-.193.054-.255.366-.502.045-.218.107-.022.205-.32-.042-.03-.086.044-.072.177-.1-.154-.198-.018-.062-.34.099-.143-.005-.13-.053-.08-.27-.098-.107-.191-.069-.024.054-.149-.153.088.118.34.131.113.01.327-.114.194-.328.206-.137.312-.155.014-.098-1.402-.18.023-.415-.25-.288.041-.05-.235.074-.02-.03-.209-.724.113-.043-.243-.142.005-.05-.278.23-.064-.05-.441-.338.042-.017-.103-.255.028-.044-.285.178-.025-.01-.102.428-.059-.002-.068.075-.005.002-.167.08-.003-.044-.332.327-.049-.066-.419-.276.024-.093-.637-.264.04-.021-.162-.333.04-.02-.153-.103-.005-.05-.237-.121.016-.077-.654-.178.015-.157-1.098.21-.037-.02-.127-.042-.124-.154.023-.054-.26.174-.052.024-.128-.547.105.02.177-.108.022.016.082-.146.03-.091-.074-.155.02-.123.124-.072-.058-.108-.63-.072.002-.099-.57-.093-.1-.459-.231z"/><path d="M33.189 6.596l.136-.02.338.418.056.3.203-.104.419-.357.258.02.041.066.165.022.002.086.55.016-.147.069.017.037.103-.039-.063.063.223.899.1.042.191-.202-.002.26.085.173.096-.1.018-.192.043-.019-.029-.193-.08-.103.336-.622.16-.033.295-.207.325-.009.038.143.126-.011.162-.123.426-.533.32-.014.05.049-.07.163.11.047-.036.09.157.126.03.206.227.053.039.312-.07.289.111.176v.114l.197.061.109.438-.018.205.21-.053.002.078.19-.028.024.468-.234.425-.139.02.003-.052-.337.107.147.715.126.444.047.013.029-.256.09-.022.348.234.248.356.267.238-.248.375.015.262.054.057-.189-.073-.15.01-.008.304.131.044.133.132.115.28.17.135.046.098-.12.26.152.1.074-.033.04.128-.224-.043-.07.038.015.12.117.07-.067.048.022.088-.21.027.194.045.133-.08.22.035.006.172.134.18-.114.258-.243.173-.005.112-.127.076-.092-.044-.046.03-.03.037.05.07-.095.096.017.048-.088-.016.02.047-.071.028.258.225.06.156-.019.2-.072.113-.147-.013.04.09-.038.103.243.12.022.236-.144.105-.15-.092-.037.147.253.03.02.084-.16.2-.147-.01.085.13.11-.025.053-.083.373-.069.092.074.083.136.006.18.109.027.041.072.103-.05-.119.244.055.092.25.069.116-.028-.09.23.063.14-.125.047.197.366-.077.032-.062.186-.163.18.257.24-.179.215-.01.07.101.008-.148.104.254.291-.013.234-.093.072.114.223-.04.064.154.171-.028.05.119.21-.048.104-.295.159.128.069-.235.215.072.034-.074.079-.059-.035-.112.144-.093-.033-.03.093-.269.067-.04.132-.177-.127-.085.07.027.078-.078.116-.068-.095-.11.095-.07-.018.132.353-.126.281.048.127.255.003-.021.349.133.054-.056.112-.4-.09-.026.076-.103-.058-.144.304-.134-.068-.078.12-.07-.105-.268-.008-.024.313h-.117l-.056-.105-.153.118-.352-.027-.157.065-.085-.079-.472.022-.144-.05-.005-.129.112-.175-.158-.082-.052-.16-.136-.125.253-.29.05-.186-.208-.147.002-.171-.127-.055.144-.174-.043-.14-.072.008.03-.174-.317-.216.012-.115-.125-.061-.08.017-.074.212-.309.08-.017.069-.165-.006-.11.376-.056.013-.088-.102-.156.037-.3-.076-.114.03-.011.224-.157.062-.232-.36-.234.089-.08-.12h-.252l-.088.267-.154.082-.238-.111-.373-.063-.1-.097-.009.127-.107.092-.045-.037-.367.017-.224.138-.196.014-.624-.069-.143.075-.163.011-.09.098-.192.042-.078-.033.002.07-.101.02-.034.128-.107.017-.309-.315-.16-.031.138-.264-.323-.055-.055.096-.197-.347.021-.097-.075-.206.075-.133-.157.02-.14-.164-.058.063-.072-.016-.003-.237.053-.01.01-.095.086-.03-.135-.356-.005-.16.06-.008.022-.064.072.005.186.119.166-.267.142.093.07-.09-.068-.334-.282-.078.074-.138-.022-.085.092-.011-.088-.067.036-.18.262-.114-.086-.103-.007-.184-.147.046.032.122-.1.014-.087-.37-.077.016.02-.36-.295.096-.077.159-.053.003-.155-.11-.053-.138-.2-.036-.001-.118-.11-.01-.002.043-.175-.154.087.01-.023-.05.091-.033-.19-.192-.094-.072-.27-.005.012-.308-.371-.22.044-.23.181-.302.04-.284-.172.013-.044-.187-.272-.155-.078-.25.192-.039-.08-.161.072-.152-.213-.156.112-.124.01-.14-.056-.053.048-.069.179-.04.17-.391-.063-.202.037-.145-.15-.062.003-.187-.05-.049.045-.244-.05-.098.098-.15-.03-.104.043-.1-.043-.035.052-.094-.208-.18.02-.115.092-.036-.003-.077-.213-.462.146-.068-.014-.186.29-.022.026-.076.255-.007-.06-.13.033-.173.23-.154-.006-.378.078-.04-.024-.078.227-.395.31-.295-.012-.084-.128-.068.08-.08-.122-.384.291-.06.143-.21-.003-.221-.146-.068.072-.64.152-.004-.024.168.226.145.065.118.168-.001-.077-.234h-.102l-.008-.414.24-.036.142-.17.108.035-.034-.159.4.334.123.015.215-.479.189-.027.078-.064-.127-.29.076-.267-.104-.077.17-.117.332.119.056.1-.018.23.128-.026.068-.114.112.001-.195.303.523-.064.174-.115.165.014.152-.24.14-.022.084-.138.022-.186.46-.306.054.052-.056.469z"/></g><defs><clipPath id="a"><path fill="#fff" d="M0 0h98v64H0z"/></clipPath></defs></svg>