<svg width="41" height="40" viewBox="0 0 41 40" fill="none" xmlns="http://www.w3.org/2000/svg"><g clip-path="url(#clip0_11_19339)" fill="#F7A41D"><path d="M12.526 7.451L7.82 13.203l-2.353-3.66 7.06-2.092z"/><path d="M12.526 7.451l-3.399 2.876-1.307 2.876H6.252v13.333h2.353l-2.876 1.307-2.092 4.445H.5V7.45h12.026z"/><path d="M8.604 26.536l-4.967 5.752-2.092-2.876 7.06-2.876zM15.14 7.451l1.57 3.66-6.537 2.092L15.14 7.45z"/><path d="M15.14 7.451h14.38v5.752H10.173l4.968-3.137V7.45zM30.827 26.535l-4.968 5.752-1.83-3.399 6.798-2.353z"/><path d="M30.827 26.535l-4.183 2.353-.784 3.399H11.48v-5.752h19.347z"/><path d="M39.715 1.7l-25.62 30.587-12.81 6.014 25.62-30.85 12.81-5.752zm-2.353 5.75l-.26 4.707-4.707 1.307 4.967-6.013z"/><path d="M40.5 7.451v24.837H28.212l3.66-3.137 1.308-2.615h1.568V13.464h-2.353l2.615-2.353 2.353-3.66H40.5z"/><path d="M33.18 26.535l1.307 3.922-6.275 1.83 4.968-5.752z"/></g><defs><clipPath id="clip0_11_19339"><path fill="#fff" transform="translate(.5)" d="M0 0h40v40H0z"/></clipPath></defs></svg>