<svg xmlns="http://www.w3.org/2000/svg" width="12" height="12" fill="none"><g clip-path="url(#a)"><path fill="#7E8596" d="M9.5 2h-.55A2.505 2.505 0 006.5 0h-1a2.505 2.505 0 00-2.45 2H2.5A2.503 2.503 0 000 4.5v5A2.503 2.503 0 002.5 12h7A2.503 2.503 0 0012 9.5v-5A2.503 2.503 0 009.5 2zm-4-1h1a1.5 1.5 0 011.408 1H4.092A1.5 1.5 0 015.5 1zm-3 2h7A1.5 1.5 0 0111 4.5V6H1V4.5A1.5 1.5 0 012.5 3zm7 8h-7A1.5 1.5 0 011 9.5V7h4.5v.5a.5.5 0 101 0V7H11v2.5A1.5 1.5 0 019.5 11z"/></g><defs><clipPath id="a"><path fill="#fff" d="M0 0h12v12H0z"/></clipPath></defs></svg>