<svg xmlns="http://www.w3.org/2000/svg" width="923" height="280" fill="none"><g clip-path="url(#a)"><mask id="c" width="1439" height="1373" x="0" y="8" maskUnits="userSpaceOnUse" style="mask-type:alpha"><path fill="url(#b)" d="M0 1380.02h1371.28v1438.62H0z" transform="rotate(-90 0 1380.02)"/></mask><g stroke="#8262FF" stroke-width="1.402" mask="url(#c)"><circle cx="724.656" cy="553.656" r="290.895" opacity=".7" transform="rotate(-90 724.656 553.656)"/><circle cx="724.656" cy="553.656" r="358.186" opacity=".6" transform="rotate(-90 724.656 553.656)"/><circle cx="724.656" cy="553.656" r="425.477" stroke-opacity=".7" opacity=".5" transform="rotate(-90 724.656 553.656)"/><circle cx="724.657" cy="553.657" r="492.769" stroke-opacity=".4" opacity=".4" transform="rotate(-90 724.657 553.657)"/><circle cx="724.656" cy="553.657" r="560.06" stroke-opacity=".5" opacity=".3" transform="rotate(-90 724.656 553.657)"/><circle cx="724.656" cy="553.657" r="627.351" stroke-opacity=".5" opacity=".2" transform="rotate(-90 724.656 553.657)"/><circle cx="724.656" cy="553.656" r="694.643" stroke-opacity=".7" opacity=".1" transform="rotate(-90 724.656 553.656)"/></g></g><defs><linearGradient id="b" x1="1324.02" x2="930.576" y1="2099.02" y2="2094.48" gradientUnits="userSpaceOnUse"><stop stop-color="#fff" stop-opacity="0"/><stop offset=".531" stop-color="#fff"/><stop offset=".975" stop-color="#fff" stop-opacity=".2"/></linearGradient><clipPath id="a"><path fill="#fff" d="M0 280V0h923v280z"/></clipPath></defs></svg>