<svg xmlns="http://www.w3.org/2000/svg" width="129" height="32" fill="none"><path fill="#1C1F29" fill-rule="evenodd" d="M16.1.125C9.175 3.475.475 20.85 7.725 28.475c6.7 8.375 21.35.325 17.1-10.125-5.375-9-8.75-9.475-8.725-18.225z" clip-rule="evenodd"/><path fill="url(#a)" fill-rule="evenodd" d="M16.1.05C9.2 3.4.475 20.725 7.75 28.375c2.675 3.1 7 4.125 9.425 2.275 6.6-4.7 1.85-13.275 2.6-19.625-2.75-2.55-3.725-8.2-3.675-10.975z" clip-rule="evenodd"/><path fill="url(#b)" fill-rule="evenodd" d="M14.175 1.075C8.6 5.05 7.125 19.825 8.15 24.625 10.2 36.65 26.95 31.7 25.55 20.5c-1.5-7.3-12.2-9.8-11.375-19.425z" clip-rule="evenodd"/><path fill="url(#c)" fill-rule="evenodd" d="M19.7 12.45c2.6 3.35 3.175 5.65 1.7 6.975-6.925 4.85-15.325 1.85-13.5-9.325-2.375 5.65-6.775 14.1 2.925 15.3 5.2.9 13.5.5 14.725-4.025-.05-3.975-2.7-5.725-5.85-8.925z" clip-rule="evenodd"/><path fill="url(#d)" fill-rule="evenodd" d="M9.525 9.1C8.8 14.4 18.3 28.575 24.1 26.85c-4.425 8.9-14.225-5.3-16-10.425.375-2.75.55-4.1 1.425-7.325z" clip-rule="evenodd"/><path fill="url(#e)" fill-rule="evenodd" d="M15.1 12.425c.2 1.975.975 5.125 0 7.2s-5.425 5.875-4.2 9.2c2.85 6.2 9.275-1.1 9.225-4.75.275-2.95-1.65-9.675-.45-13.125l-.55-.7-3.4-1c-.55.8-.75 1.875-.625 3.175z" clip-rule="evenodd"/><path fill="url(#f)" fill-rule="evenodd" d="M16.325 2.7C9 6.85 12 13.35 12.325 20.4L17.1 6.55c-.35-1.425-.575-2.375-.775-3.85z" clip-rule="evenodd"/><path fill="#330A4C" fill-opacity=".316" fill-rule="evenodd" d="M17.075 6.525c-3.7 2.925-3.525 7.825-4.65 13.5 2.025-5.325 1.025-9.55 4.65-13.5z" clip-rule="evenodd"/><path fill="#fff" fill-rule="evenodd" d="M11.45 29.925c2 .275 3.025.55 3.125.75.075 1.05-2.775.3-3.125-.75z" clip-rule="evenodd"/><path fill="#EDEDED" fill-opacity=".603" fill-rule="evenodd" d="M12.45 2.7c-1.725 1.925-3.6 5.45-4.55 7.425-.25 1.625-.125 3.925.15 5.875.225-4.55 1.875-9.8 4.4-13.3z" clip-rule="evenodd"/><path fill="#1C1F29" d="M47.614 22.216c-.996 0-1.92-.162-2.772-.486a6.658 6.658 0 01-2.196-1.368 6.423 6.423 0 01-1.44-2.07 6.569 6.569 0 01-.504-2.592c0-.936.168-1.8.504-2.592a6.292 6.292 0 011.458-2.07A6.658 6.658 0 0144.86 9.67a7.539 7.539 0 012.736-.486c.996 0 1.908.162 2.736.486.84.324 1.566.78 2.178 1.368a6.292 6.292 0 011.458 2.07c.348.78.522 1.644.522 2.592a6.5 6.5 0 01-.522 2.61 6.292 6.292 0 01-1.458 2.07 6.608 6.608 0 01-2.178 1.35c-.828.324-1.734.486-2.718.486zm-.018-2.484c.564 0 1.08-.096 1.548-.288a3.672 3.672 0 002.088-2.106 4.238 4.238 0 00.306-1.638c0-.6-.102-1.146-.306-1.638a3.672 3.672 0 00-.828-1.278 3.527 3.527 0 00-1.242-.828 4.178 4.178 0 00-1.566-.288c-.564 0-1.086.096-1.566.288a3.757 3.757 0 00-1.242.828c-.36.36-.642.786-.846 1.278a4.471 4.471 0 00-.288 1.638c0 .588.096 1.134.288 1.638.204.492.48.918.828 1.278.36.36.78.636 1.26.828.48.192 1.002.288 1.566.288zM55.944 22v-9.684h2.681v2.736l-.377-.792c.288-.684.75-1.2 1.386-1.548.636-.36 1.41-.54 2.322-.54v2.592a3.287 3.287 0 00-.325-.018 2.47 2.47 0 00-.306-.018c-.768 0-1.392.222-1.872.666-.468.432-.702 1.11-.702 2.034V22h-2.807zm11.625 3.636c-.912 0-1.794-.114-2.646-.342-.84-.216-1.542-.546-2.106-.99l1.116-2.016c.408.336.924.6 1.548.792.636.204 1.26.306 1.872.306.996 0 1.716-.222 2.16-.666.456-.444.684-1.104.684-1.98v-1.458l.18-2.43-.036-2.448v-2.088h2.664v8.064c0 1.8-.468 3.126-1.404 3.978-.936.852-2.28 1.278-4.032 1.278zm-.432-4.104c-.9 0-1.716-.192-2.448-.576a4.763 4.763 0 01-1.746-1.638c-.432-.708-.648-1.53-.648-2.466 0-.948.216-1.77.648-2.466a4.573 4.573 0 011.746-1.638c.732-.384 1.548-.576 2.448-.576.816 0 1.536.168 2.16.504.624.324 1.11.834 1.458 1.53.348.684.522 1.566.522 2.646 0 1.068-.174 1.95-.522 2.646-.348.684-.834 1.194-1.458 1.53-.624.336-1.344.504-2.16.504zm.558-2.304a2.9 2.9 0 001.314-.288c.384-.204.684-.486.9-.846.216-.36.324-.774.324-1.242 0-.48-.108-.894-.324-1.242a2.145 2.145 0 00-.9-.828 2.758 2.758 0 00-1.314-.306c-.492 0-.93.102-1.314.306-.384.192-.69.468-.918.828-.216.348-.324.762-.324 1.242 0 .468.108.882.324 1.242.228.36.534.642.918.846a2.9 2.9 0 001.314.288zM81.018 22v-1.89l-.18-.414v-3.384c0-.6-.186-1.068-.558-1.404-.36-.336-.918-.504-1.674-.504a4.81 4.81 0 00-1.53.252 3.904 3.904 0 00-1.26.648l-1.008-1.962c.528-.372 1.164-.66 1.908-.864a8.54 8.54 0 012.268-.306c1.476 0 2.622.348 3.438 1.044.816.696 1.224 1.782 1.224 3.258V22h-2.628zm-2.952.144c-.756 0-1.404-.126-1.944-.378-.54-.264-.954-.618-1.242-1.062a2.686 2.686 0 01-.432-1.494c0-.576.138-1.08.414-1.512.288-.432.738-.768 1.35-1.008.612-.252 1.41-.378 2.394-.378h2.574v1.638h-2.268c-.66 0-1.116.108-1.368.324-.24.216-.36.486-.36.81 0 .36.138.648.414.864.288.204.678.306 1.17.306.468 0 .888-.108 1.26-.324.372-.228.642-.558.81-.99l.432 1.296c-.204.624-.576 1.098-1.116 1.422-.54.324-1.236.486-2.088.486zm13.468-9.972c.768 0 1.452.156 2.052.468.612.3 1.092.768 1.44 1.404.348.624.522 1.428.522 2.412V22H92.74v-5.112c0-.78-.174-1.356-.522-1.728-.336-.372-.816-.558-1.44-.558-.444 0-.846.096-1.206.288-.348.18-.624.462-.828.846-.192.384-.288.876-.288 1.476V22h-2.808v-9.684h2.682v2.682l-.504-.81a3.587 3.587 0 011.494-1.494c.648-.348 1.386-.522 2.214-.522zM97.553 22v-9.684h2.808V22h-2.808zm1.404-11.034c-.516 0-.936-.15-1.26-.45a1.46 1.46 0 01-.486-1.116c0-.444.162-.816.486-1.116.324-.3.744-.45 1.26-.45s.936.144 1.26.432c.324.276.486.636.486 1.08 0 .468-.162.858-.486 1.17-.312.3-.732.45-1.26.45zM101.761 22v-1.692l5.724-6.768.486.936h-6.084v-2.16h8.352v1.692l-5.724 6.768-.504-.936h6.39V22h-8.64zm14.582.144c-1.104 0-2.076-.216-2.916-.648-.828-.432-1.47-1.02-1.926-1.764-.456-.756-.684-1.614-.684-2.574 0-.972.222-1.83.666-2.574a4.764 4.764 0 011.854-1.764c.78-.432 1.662-.648 2.646-.648.948 0 1.8.204 2.556.612a4.422 4.422 0 011.818 1.728c.444.744.666 1.638.666 2.682 0 .108-.006.234-.018.378a42.22 42.22 0 01-.036.378h-7.866v-1.638h6.39l-1.08.486c0-.504-.102-.942-.306-1.314a2.171 2.171 0 00-.846-.864c-.36-.216-.78-.324-1.26-.324s-.906.108-1.278.324c-.36.204-.642.498-.846.882-.204.372-.306.816-.306 1.332v.432c0 .528.114.996.342 1.404.24.396.57.702.99.918.432.204.936.306 1.512.306.516 0 .966-.078 1.35-.234.396-.156.756-.39 1.08-.702l1.494 1.62a4.437 4.437 0 01-1.674 1.17c-.672.264-1.446.396-2.322.396zm6.01-.144v-9.684h2.682v2.736l-.378-.792c.288-.684.75-1.2 1.386-1.548.636-.36 1.41-.54 2.322-.54v2.592a3.287 3.287 0 00-.324-.018 2.47 2.47 0 00-.306-.018c-.768 0-1.392.222-1.872.666-.468.432-.702 1.11-.702 2.034V22h-2.808z"/><defs><linearGradient id="a" x1="15.141" x2="3.567" y1="2.003" y2="27.37" gradientUnits="userSpaceOnUse"><stop stop-color="#8D67AF" stop-opacity=".672"/><stop offset="1" stop-color="#9F8DAF"/></linearGradient><linearGradient id="b" x1="16.74" x2="16.74" y1="10.674" y2="31.048" gradientUnits="userSpaceOnUse"><stop stop-color="#26053D" stop-opacity=".762"/><stop offset="1" stop-color="#B7B4B4" stop-opacity=".278"/></linearGradient><linearGradient id="c" x1="9.177" x2="14.395" y1="11.25" y2="25.072" gradientUnits="userSpaceOnUse"><stop stop-color="#91739F" stop-opacity=".46"/><stop offset="1" stop-color="#32054F" stop-opacity=".54"/></linearGradient><linearGradient id="d" x1="20.877" x2="6.576" y1="29.016" y2="17.17" gradientUnits="userSpaceOnUse"><stop stop-color="#463D49" stop-opacity=".331"/><stop offset="1" stop-color="#340A50" stop-opacity=".821"/></linearGradient><linearGradient id="e" x1="17.312" x2="7.258" y1="10.464" y2="25.761" gradientUnits="userSpaceOnUse"><stop stop-color="#715383" stop-opacity=".145"/><stop offset="1" stop-color="#F4F4F4" stop-opacity=".234"/></linearGradient><linearGradient id="f" x1="18.932" x2="11.943" y1="14.222" y2="13.796" gradientUnits="userSpaceOnUse"><stop stop-color="#A5A1A8" stop-opacity=".356"/><stop offset="1" stop-color="#370C50" stop-opacity=".582"/></linearGradient></defs></svg>