<svg xmlns="http://www.w3.org/2000/svg" width="20" height="20" fill="none"><path fill="#F6D2A2" fill-rule="evenodd" d="M3.297 10.734c.031.547.578.297.828.125.235-.171.313-.03.328-.359.016-.219.032-.422.032-.64-.36-.032-.75.046-1.047.265-.14.11-.438.469-.14.61z" clip-rule="evenodd"/><path fill="#000" d="M3.594 11.125c-.11 0-.313-.047-.344-.36-.094-.062-.125-.14-.125-.187-.016-.187.187-.406.297-.484.25-.188.578-.281.922-.281h.203v.046c.015.172 0 .344-.016.5 0 .047 0 .094-.015.141-.016.234-.063.266-.172.313a.475.475 0 00-.172.093c-.078.047-.344.219-.578.219zm.75-1.219a1.44 1.44 0 00-.86.266c-.11.078-.265.265-.25.39 0 .047.031.094.094.126l.031.015v.031c.016.25.14.282.235.282.156 0 .375-.11.515-.204.094-.062.157-.078.203-.093.079-.031.094-.031.11-.219 0-.047 0-.094.015-.14.016-.141.016-.297.016-.438-.047-.016-.078-.016-.11-.016z"/><path fill="#C6B198" fill-rule="evenodd" d="M3.297 10.734c.078-.03.172-.046.219-.125l-.22.125z" clip-rule="evenodd"/><path fill="#000" d="M3.297 10.781c-.016 0-.047-.016-.047-.031-.016-.031 0-.063.031-.063.016 0 .031-.015.031-.015.063-.032.125-.047.157-.094a.068.068 0 01.078-.016c.015.016.03.047.015.079a.363.363 0 01-.203.124l-.031.016h-.031z"/><path fill="#6AD7E5" fill-rule="evenodd" d="M4.578 4.125C2.453 3.531 4.031.828 5.734 1.937L4.578 4.125z" clip-rule="evenodd"/><path fill="#000" d="M4.61 4.188l-.047-.016c-1.094-.313-1.079-1.094-1.047-1.328.078-.594.64-1.219 1.39-1.219.297 0 .578.094.86.281l.047.032-1.204 2.25zm.296-2.454c-.703 0-1.218.579-1.297 1.125-.078.563.266 1 .938 1.204l1.11-2.11a1.442 1.442 0 00-.75-.219z"/><path fill="#6AD7E5" fill-rule="evenodd" d="M14 1.734c1.672-1.172 3.203 1.485 1.25 2.157L14 1.734z" clip-rule="evenodd"/><path fill="#000" d="M15.234 3.953L13.938 1.72l.046-.032c.297-.203.594-.312.891-.312.719 0 1.234.594 1.344 1.172.047.234.093 1.031-.938 1.375l-.047.031zm-1.156-2.187l1.203 2.078c.61-.219.922-.688.828-1.25-.093-.531-.578-1.078-1.234-1.078-.266-.016-.531.062-.797.25z"/><path fill="#F6D2A2" fill-rule="evenodd" d="M14.375 17.547c.422.265 1.203 1.062.563 1.453-.61.563-.954-.625-1.5-.781.234-.313.53-.61.937-.672z" clip-rule="evenodd"/><path fill="#000" d="M14.61 19.203c-.25 0-.47-.25-.657-.484-.172-.188-.344-.39-.531-.453l-.078-.016.047-.063c.187-.265.5-.609.968-.687h.016l.016.016c.265.172.843.656.828 1.109 0 .172-.094.313-.266.422a.466.466 0 01-.344.156zm-1.094-1.015c.187.078.343.28.5.453.187.234.375.437.578.437.094 0 .187-.047.281-.14h.016c.14-.094.218-.204.218-.344 0-.36-.453-.813-.765-1.016-.281.078-.563.266-.828.61zm1.421.859c-.015 0-.03-.016-.046-.031a1.086 1.086 0 01-.079-.203c-.046-.125-.093-.25-.187-.344-.016-.016-.016-.047 0-.078.016-.016.047-.016.078 0 .11.109.172.25.219.39l.078.188c.016.031 0 .062-.016.078h-.046z"/><path fill="#F6D2A2" fill-rule="evenodd" d="M6.75 18.453c-.5.078-.781.532-1.203.766-.39.234-.547-.078-.578-.14-.063-.032-.063.03-.156-.063-.36-.578.375-1 .765-1.281.547-.125.89.343 1.172.718z" clip-rule="evenodd"/><path fill="#000" d="M5.281 19.344c-.203 0-.312-.172-.343-.235h-.016c-.047 0-.078-.015-.14-.078v-.015c-.344-.547.25-.97.64-1.25l.14-.094h.032c.062-.016.11-.016.172-.016.468 0 .765.407 1.015.735l.078.109-.093.016c-.297.047-.516.234-.735.422a2.85 2.85 0 01-.437.328.911.911 0 01-.313.078zm-.343-.328c.015 0 .03 0 .062.015h.016l.015.016c.032.047.11.187.266.187a.465.465 0 00.234-.078c.157-.078.297-.203.422-.312.203-.172.422-.36.703-.438-.234-.312-.515-.656-.906-.656-.047 0-.094 0-.14.016l-.126.093c-.406.282-.906.641-.609 1.11.016.031.031.047.063.047zm.03.109c-.03 0-.062-.031-.046-.063.016-.156.094-.265.172-.39.047-.063.078-.125.11-.188.015-.03.046-.03.062-.03.03.015.03.046.03.062a.887.887 0 01-.124.203c-.078.11-.14.203-.156.328 0 .062-.016.078-.047.078z"/><path fill="#000" fill-rule="evenodd" d="M4.672 3.39c-.282-.14-.485-.343-.313-.671.156-.297.453-.266.735-.125l-.422.797zm10.14-.28c.282-.141.485-.344.313-.672-.156-.297-.453-.266-.735-.126l.422.797z" clip-rule="evenodd"/><path fill="#F6D2A2" fill-rule="evenodd" d="M16.734 10.656c-.03.547-.578.297-.828.125-.234-.172-.312-.031-.328-.36-.015-.218-.031-.421-.031-.64.36-.031.75.047 1.047.266.156.125.437.469.14.61z" clip-rule="evenodd"/><path fill="#000" d="M16.453 11.047c-.235 0-.5-.172-.578-.219-.079-.047-.125-.078-.172-.094-.125-.046-.156-.078-.172-.312 0-.047 0-.094-.016-.14a2.63 2.63 0 01-.015-.5v-.048h.203c.344 0 .672.094.922.282.109.078.312.296.297.484 0 .063-.032.14-.125.188-.032.312-.235.359-.344.359zm-.86-1.203c0 .14 0 .297.016.437 0 .047 0 .094.016.14.015.188.03.188.109.22.047.015.11.046.203.093.14.094.36.204.516.204.094 0 .219-.032.234-.282v-.031l.031-.016c.063-.03.094-.062.094-.125.016-.125-.14-.312-.25-.39a1.475 1.475 0 00-.86-.266c-.03.016-.062.016-.109.016z"/><path fill="#C6B198" fill-rule="evenodd" d="M16.734 10.656c-.078-.031-.172-.047-.218-.125l.218.125z" clip-rule="evenodd"/><path fill="#000" d="M16.734 10.719h-.015l-.032-.016c-.078-.031-.156-.047-.203-.125-.015-.015-.015-.062.016-.078.016-.016.063-.016.078.016.031.046.094.062.156.093.016 0 .032.016.032.016.03.016.047.047.03.063a.119.119 0 01-.062.03z"/><path fill="#6AD7E5" fill-rule="evenodd" d="M9.813.625c2.124 0 4.109.297 5.156 2.344.937 2.281.594 4.75.75 7.172.125 2.078.39 4.468-.563 6.39-1.015 2.016-3.547 2.532-5.625 2.453-1.64-.062-3.61-.593-4.547-2.093-1.078-1.75-.578-4.36-.5-6.313.094-2.312-.625-4.64.141-6.89.766-2.36 2.89-2.891 5.188-3.063z" clip-rule="evenodd"/><path fill="#000" d="M9.89 19.047H9.5c-.64-.016-1.61-.125-2.563-.516-.921-.375-1.593-.906-2.03-1.61-.876-1.42-.72-3.374-.579-5.108.031-.438.063-.844.078-1.235.031-.812-.031-1.656-.11-2.453-.124-1.469-.25-2.984.235-4.453.375-1.094 1.047-1.875 2.063-2.375.797-.39 1.78-.61 3.187-.719C11.875.563 13.953.86 15 2.938c.687 1.671.687 3.468.703 5.203 0 .656 0 1.328.047 1.984.016.203.031.406.031.61.125 1.906.266 4.062-.61 5.812-.437.89-1.202 1.547-2.25 1.969-.843.343-1.905.53-3.03.53zM9.813.672c-2.203.172-4.359.656-5.156 3.031-.484 1.453-.36 2.953-.234 4.406.062.813.14 1.641.11 2.47-.016.39-.048.796-.079 1.234-.14 1.718-.297 3.656.563 5.046.359.579 1.515 1.954 4.5 2.063h.39c3.453 0 4.735-1.531 5.203-2.438.86-1.718.72-3.875.61-5.765-.016-.203-.032-.406-.032-.61a42.114 42.114 0 01-.046-1.984c-.016-1.719-.016-3.516-.688-5.172a3.78 3.78 0 00-2.14-1.906c-1-.328-2.126-.375-3-.375z"/><path fill="#fff" fill-rule="evenodd" d="M10.188 3.469c.375 2.218 4 1.625 3.484-.61-.469-2-3.61-1.437-3.484.61z" clip-rule="evenodd"/><path fill="#000" d="M11.906 4.922c-.703 0-1.594-.375-1.781-1.438-.031-.5.125-.953.453-1.296.36-.391.906-.61 1.469-.61.656 0 1.437.344 1.656 1.297.125.531.031 1-.265 1.375-.329.406-.907.672-1.532.672zm-1.672-1.453c.079.437.282.781.61 1.031.281.219.672.328 1.062.328.578 0 1.14-.25 1.453-.64.282-.344.36-.797.25-1.297-.203-.891-.937-1.204-1.562-1.204-.531 0-1.047.22-1.39.579a1.566 1.566 0 00-.423 1.203z"/><path fill="#fff" fill-rule="evenodd" d="M5.86 3.828c.5 1.922 3.578 1.438 3.468-.5-.14-2.312-3.953-1.875-3.469.5z" clip-rule="evenodd"/><path fill="#000" d="M7.5 5.11c-.672 0-1.453-.329-1.703-1.266-.11-.547 0-1.047.312-1.422.344-.422.906-.672 1.516-.672.812 0 1.672.484 1.734 1.578.031.453-.11.86-.422 1.188-.328.359-.875.593-1.437.593zm.125-3.25c-.578 0-1.11.234-1.438.624-.297.36-.39.813-.281 1.329C6.125 4.686 6.875 5 7.5 5c.531 0 1.047-.203 1.375-.563a1.43 1.43 0 00.39-1.109c-.03-.672-.484-1.469-1.64-1.469z"/><path fill="#fff" fill-rule="evenodd" d="M10.625 6.125c0 .281.063.61.016.922-.079.14-.22.156-.344.203a.543.543 0 01-.39-.297c-.048-.344.015-.687.03-1.031l.688.203z" clip-rule="evenodd"/><path fill="#000" d="M10.297 7.313a.567.567 0 01-.438-.329c-.03-.25-.015-.484 0-.718.016-.11.016-.22.016-.329v-.062l.797.25v.031c0 .094.015.188.015.297a2.79 2.79 0 010 .625v.016c-.062.125-.171.156-.28.203-.032-.016-.063 0-.11.016zm-.344-.375a.47.47 0 00.328.265c.031-.016.063-.016.078-.031.094-.031.172-.063.22-.14.03-.188.015-.391 0-.595 0-.093-.017-.187-.017-.265l-.593-.188c0 .094-.016.188-.016.266-.016.25-.031.469 0 .688z"/><path fill="#000" fill-rule="evenodd" d="M7.234 3.516c0 .312-.234.562-.515.562-.282 0-.516-.25-.516-.562 0-.313.234-.563.516-.563.281 0 .515.25.515.563z" clip-rule="evenodd"/><path fill="#fff" fill-rule="evenodd" d="M7.063 3.64c0 .079-.063.141-.125.141-.063 0-.125-.062-.125-.14 0-.079.062-.141.125-.141.078 0 .125.063.125.14z" clip-rule="evenodd"/><path fill="#000" fill-rule="evenodd" d="M11.594 3.375c0 .313-.235.563-.516.563s-.515-.25-.515-.563c0-.313.234-.563.515-.563s.516.25.516.563z" clip-rule="evenodd"/><path fill="#fff" fill-rule="evenodd" d="M11.437 3.5c0 .078-.046.14-.125.14-.062 0-.125-.062-.125-.14 0-.078.047-.14.125-.14.063 0 .125.062.125.14zM9.125 6.094c-.235.547.125 1.656.75.843-.047-.343.015-.687.031-1.03l-.781.187z" clip-rule="evenodd"/><path fill="#000" d="M9.453 7.281c-.11 0-.219-.062-.297-.187-.172-.25-.203-.719-.078-1.016l.016-.031.859-.219v.063l-.016.343c-.015.235-.03.454 0 .688v.016l-.015.015c-.157.219-.313.328-.469.328zm-.281-1.14c-.094.265-.063.687.078.89.062.094.125.14.203.14.11 0 .234-.093.36-.25a2.52 2.52 0 01.015-.687l.016-.265-.672.172z"/><path fill="#F6D2A2" fill-rule="evenodd" d="M9.203 5.031c-.422.032-.765.547-.547.938.297.531.938-.047 1.344 0 .469.015.844.5 1.219.093.422-.453-.188-.89-.64-1.093l-1.376.062z" clip-rule="evenodd"/><path fill="#231F20" d="M10.89 6.281c-.14 0-.28-.062-.421-.125a1.159 1.159 0 00-.47-.125h-.046c-.125 0-.266.047-.422.11a1.535 1.535 0 01-.5.109A.446.446 0 018.61 6c-.11-.188-.093-.406.016-.61a.769.769 0 01.578-.406l1.39-.062h.016c.344.14.735.406.813.719a.515.515 0 01-.14.453.49.49 0 01-.391.187zm-.874-.343c.171 0 .343.078.5.14.14.063.265.11.39.11.11 0 .203-.047.297-.141.11-.11.14-.234.125-.36-.062-.265-.437-.515-.734-.64l-1.36.062c-.203.016-.39.157-.5.344a.55.55 0 00-.015.516c.078.14.172.203.328.203.14 0 .297-.063.453-.11.172-.062.312-.109.469-.109 0-.031.015-.031.047-.016z"/><path fill="#000" fill-rule="evenodd" d="M9.156 5.016c-.031-.735 1.375-.829 1.531-.22.172.626-1.468.766-1.53.22z" clip-rule="evenodd"/></svg>