<svg width="21" height="20" viewBox="0 0 21 20" fill="none" xmlns="http://www.w3.org/2000/svg"><g clip-path="url(#clip0_6569_2101)"><path d="M7.467.658a9.887 9.887 0 00.677 18.89c1.656.428 3.391.447 5.056.055a8.926 8.926 0 004.047-2.103 8.975 8.975 0 002.5-4.103c.483-1.707.57-3.502.252-5.247h-9.3v3.858h5.385a4.643 4.643 0 01-1.978 3.05 5.648 5.648 0 01-2.176.86c-.78.144-1.58.144-2.36 0a5.805 5.805 0 01-2.195-.959 6.14 6.14 0 01-2.266-3.034 5.986 5.986 0 010-3.848 6.133 6.133 0 011.435-2.33 5.808 5.808 0 015.851-1.528 5.356 5.356 0 012.132 1.25 596.87 596.87 0 001.818-1.817c.313-.327.654-.638.961-.972A9.566 9.566 0 0014.125.717a10 10 0 00-6.658-.06z" fill="#7E8596"/><path d="M7.468.658a10 10 0 016.657.058 9.566 9.566 0 013.18 1.971c-.312.335-.642.647-.96.972a974.47 974.47 0 01-1.818 1.81 5.357 5.357 0 00-2.131-1.25A5.808 5.808 0 006.543 5.74a6.133 6.133 0 00-1.435 2.33L1.87 5.561A9.927 9.927 0 017.468.658z" fill="#E33629"/><path d="M1.01 8.047a9.833 9.833 0 01.86-2.485l3.239 2.515a5.986 5.986 0 000 3.848c-1.08.833-2.16 1.67-3.24 2.512a9.895 9.895 0 01-.859-6.39z" fill="#F8BD00"/><path d="M10.698 8.148h9.3c.318 1.746.232 3.54-.252 5.247a8.975 8.975 0 01-2.5 4.103c-1.045-.815-2.095-1.625-3.14-2.44a4.646 4.646 0 001.978-3.053h-5.386c-.002-1.285 0-2.57 0-3.857z" fill="#587DBD"/><path d="M1.867 14.438c1.08-.834 2.16-1.671 3.24-2.513a6.141 6.141 0 002.268 3.034c.66.467 1.409.79 2.2.95.78.145 1.58.145 2.36 0a5.651 5.651 0 002.176-.859c1.045.816 2.095 1.625 3.14 2.44a8.926 8.926 0 01-4.046 2.105c-1.665.392-3.4.373-5.057-.054a9.843 9.843 0 01-3.593-1.811 9.958 9.958 0 01-2.688-3.293z" fill="#319F43"/></g><defs><clipPath id="clip0_6569_2101"><path fill="#fff" transform="translate(.5)" d="M0 0h20v20H0z"/></clipPath></defs></svg>