<svg width="32" height="32" viewBox="0 0 32 32" fill="none" xmlns="http://www.w3.org/2000/svg"><path d="M16 2.667C8.64 2.667 2.665 8.64 2.665 16s5.973 13.333 13.333 13.333S29.333 23.36 29.333 16 23.359 2.667 15.999 2.667zm0 24C10.12 26.667 5.332 21.88 5.332 16S10.119 5.333 15.999 5.333c5.88 0 10.667 4.787 10.667 10.667s-4.787 10.667-10.667 10.667zm.413-11.814c-2.36-.6-3.12-1.253-3.12-2.226 0-1.12 1.053-1.907 2.8-1.907 1.84 0 2.533.88 2.586 2.187h2.28c-.066-1.787-1.16-3.427-3.32-3.96v-2.28h-3.106V8.92c-2.014.427-3.627 1.733-3.627 3.747 0 2.386 1.987 3.586 4.88 4.28 2.6.613 3.12 1.533 3.12 2.493 0 .707-.52 1.853-2.8 1.853-2.133 0-2.973-.96-3.093-2.186h-2.294c.134 2.266 1.814 3.546 3.814 3.96v2.266h3.12v-2.226c2.026-.387 3.626-1.547 3.64-3.694-.014-2.933-2.534-3.946-4.88-4.56z" fill="#7E8596"/></svg>