<svg width="20" height="20" viewBox="0 0 20 20" fill="none" xmlns="http://www.w3.org/2000/svg"><path d="M18.524 0H1.476A1.476 1.476 0 000 1.476v17.048A1.476 1.476 0 001.476 20h17.048A1.476 1.476 0 0020 18.524V1.476A1.476 1.476 0 0018.524 0zM5.96 17.038H2.954V7.486h3.007v9.552zM4.456 6.162a1.726 1.726 0 111.736-1.724 1.702 1.702 0 01-1.736 1.724zm12.588 10.884H14.04v-5.218c0-1.54-.654-2.014-1.499-2.014-.891 0-1.766.672-1.766 2.053v5.179H7.767V7.493h2.891v1.324h.04c.29-.588 1.306-1.592 2.858-1.592 1.677 0 3.49.996 3.49 3.912l-.002 5.909z" fill="#2867B2"/></svg>