<svg xmlns="http://www.w3.org/2000/svg" width="12" height="12" fill="none"><g fill="#7E8596" clip-path="url(#a)"><path d="M6 3a2 2 0 100 4 2 2 0 000-4zm0 3a1 1 0 110-2 1 1 0 010 2z"/><path d="M6 12a2.635 2.635 0 01-2.155-1.1C1.939 8.272.973 6.296.973 5.027a5.028 5.028 0 0110.055 0c0 1.269-.967 3.245-2.872 5.873A2.635 2.635 0 016 12zM6 1.09a3.942 3.942 0 00-3.937 3.938c0 1.005.947 2.863 2.665 5.233a1.573 1.573 0 002.545 0C8.99 7.89 9.937 6.033 9.937 5.028A3.942 3.942 0 006 1.09z"/></g><defs><clipPath id="a"><path fill="#fff" d="M0 0h12v12H0z"/></clipPath></defs></svg>