<svg width="60" height="60" viewBox="0 0 60 60" fill="none" xmlns="http://www.w3.org/2000/svg">
<path d="M49.8573 25.4263C50.3606 27.3462 48.2172 29.3936 48.2172 29.3936C48.2172 29.3936 44.3098 31.8849 45.0721 21.1954C45.8344 10.506 28.3255 0 28.3255 0C28.3255 0 28.4253 1.01901 28.3207 8.06559C28.1892 16.9334 22.8988 13.8932 22.8988 13.8932C17.6033 19.357 18.0848 31.6955 18.0848 31.6955C11.529 37.2793 11.2993 25.6695 11.2993 25.6695C11.2993 25.6695 -1.1824 37.8101 12.1659 50.8163C12.1659 50.8163 14.1233 52.7007 10.995 52.1009C8.76395 51.6736 8.26004 50.814 8.26004 50.814C8.26004 50.814 8.68572 56.1976 24.4256 59.5674C24.731 59.6272 29.6229 60.5548 35.1482 59.4928C47.2732 56.87 49.39 51.9965 49.39 51.9965C49.39 51.9965 49.1332 52.4363 47.1214 52.6328C44.9594 52.8441 46.8154 50.8362 46.8154 50.8362C61.0612 42.2209 49.354 23.5064 49.8573 25.4263Z" fill="#FF4C1F"/>
<path d="M44.6719 43.1573C47.5097 38.8772 45.3378 35.6867 45.3378 35.6867C40.8918 37.8874 39.5631 36.3482 39.1692 35.1008C39.0134 34.6069 38.9871 34.0825 39.0775 33.574C41.9629 17.3279 30.8047 8.54598 31.0839 10.7156C31.1685 11.3715 31.0513 12.2324 30.8449 13.1164C30.3572 15.2094 29.4252 17.1806 28.1553 18.9415C26.4064 21.3671 23.2454 26.5699 21.5249 34.3971C19.062 45.6016 11.9792 37.4888 11.9792 37.4888C11.9792 37.4888 7.82915 51.1462 24.7404 59.6239C25.7363 59.7907 28.8878 60.2285 32.6876 59.8495C43.7992 54.8151 47.7891 44.9812 47.7891 44.9812C47.7891 44.9812 41.834 47.4373 44.6719 43.1573Z" fill="#FF9C45"/>
<path d="M40.7969 40.2454C40.7987 40.2411 40.7996 40.2394 40.7996 40.2394L40.7969 40.2454Z" fill="#FFDD56"/>
<path d="M40.7969 40.2454C40.7393 40.3876 39.5478 43.1724 35.1276 43.8802C30.5916 44.6061 32.5851 29.3842 32.5851 29.3842C21.4314 34.4707 23.5028 46.4239 23.5028 46.4239C23.5028 46.4239 21.7208 48.0794 19.439 46.4215C18.6638 45.8586 20.3606 56.026 27.6492 59.9399C29.0021 60.0217 30.6912 60.0385 32.5383 59.8634C37.5563 56.5052 40.229 45.9782 40.229 45.9782L37.9273 47.3464L40.7969 40.2454Z" fill="#FFDD56"/>
<path d="M8.77456 24.1859C8.77456 24.1859 8.1242 18.6755 11.3109 16.2434C11.8087 15.8632 12.1444 15.5549 12.3901 14.9902C12.5902 14.5313 12.9003 13.802 12.7497 13.256C12.3731 11.8886 16.9984 19.4533 8.77456 24.1859Z" fill="#FF4C1F"/>
<path d="M32.5726 59.8609C34.5993 57.811 37.3049 49.6172 37.3049 49.6172C37.3049 49.6172 36.7188 51.2958 34.5322 51.0736C31.5247 50.7675 29.8754 43.0532 29.8754 43.0532C29.8754 43.0532 27.3724 49.6112 26.8468 50.5827C25.7398 52.6291 23.6967 50.5808 23.6967 50.5808C23.1542 53.9153 27.4647 58.695 28.7018 59.9876C29.8488 60.0189 31.1648 59.9957 32.5726 59.8609Z" fill="#FCFBCC"/>
</svg>
