<svg xmlns="http://www.w3.org/2000/svg" width="18" height="18" fill="none"><g fill="#B6B8C6" clip-path="url(#a)"><path d="M14 .429H4A3.576 3.576 0 00.428 4v10A3.576 3.576 0 004 17.571h10A3.576 3.576 0 0017.57 14V4A3.575 3.575 0 0014 .429zM4 1.857h10A2.143 2.143 0 0116.143 4v10a2.108 2.108 0 01-.215.918L9.383 8.373a3.572 3.572 0 00-5.051 0l-2.475 2.474V4A2.143 2.143 0 014 1.857zm0 14.286A2.143 2.143 0 011.857 14v-1.133l3.484-3.484a2.143 2.143 0 013.032 0l6.545 6.546c-.286.14-.6.213-.918.214H4z"/><path d="M11.857 7.928a2.5 2.5 0 100-5 2.5 2.5 0 000 5zm0-3.571a1.072 1.072 0 110 2.143 1.072 1.072 0 010-2.143z"/></g><defs><clipPath id="a"><path fill="#fff" d="M.428.429h17.143v17.143H.428z"/></clipPath></defs></svg>