<svg width="32" height="32" viewBox="0 0 32 32" fill="none" xmlns="http://www.w3.org/2000/svg"><path d="M26.507 23.96a5.946 5.946 0 00.934-3.187c0-3.32-2.68-6-6-6s-6 2.68-6 6 2.68 6 5.986 6a5.912 5.912 0 003.187-.933l4.16 4.16 1.893-1.893-4.16-4.147zm-5.066.147a3.335 3.335 0 113.333-3.333 3.335 3.335 0 01-3.333 3.333zm-.48-11.334a7.85 7.85 0 00-2.8.6l-.734-1.106-5.066 8.24-4.014-4.694-4.84 7.747L1.334 22l6.667-10.667L12 16l5.333-8.667 3.627 5.44zm3.453.667a7.898 7.898 0 00-2.733-.653L28.507 2l2.16 1.573-6.253 9.867z" fill="#7E8596"/></svg>