<svg xmlns="http://www.w3.org/2000/svg" width="129" height="32" fill="none"><g clip-path="url(#a)"><path fill="#1C1F29" d="M16.217 14.602c-3.305 0-6.308.398-8.532 1.046v5.531c2.224.648 5.227 1.045 8.532 1.045 3.783 0 7.17-.52 9.445-1.34v-4.94c-2.275-.82-5.662-1.342-9.445-1.342zm12.852 4.495l-.387-.803a1.4 1.4 0 00.004-.091c0-.91-.947-1.749-2.539-2.42v4.84c.743-.313 1.346-.663 1.777-1.04-.127.51-.561 1.542-.907 2.268-.568 1.038-.774 1.941-.748 1.986.017.028.211-.271.497-.756.666-.948 1.927-2.758 2.179-3.22.285-.522.124-.764.124-.764zm-25.074-.841c0 .175.036.348.104.517l-.232.413s-.186.241.141.75c.289.449 1.735 2.205 2.498 3.125.328.471.55.761.57.733.03-.044-.204-.93-.855-1.94a18.486 18.486 0 01-.885-1.791c.608.385 1.404.734 2.35 1.034v-5.682c-2.279.724-3.69 1.73-3.69 2.841z"/><path fill="url(#b)" d="M15.806 6.196l-.758 1.264-.369.033-.984-1.092a.37.37 0 00-.383-.132.453.453 0 00-.307.275l-.497 1.407a1.751 1.751 0 00-.341.113l-1.173-.89a.45.45 0 00-.397-.047.473.473 0 00-.26.332l-.242 1.489-.316.172-1.293-.61a.37.37 0 00-.41.036c-.118.072-.187.223-.195.368l.049 1.504-.27.23-1.392-.332c-.15-.05-.29.004-.403.118a.453.453 0 00-.11.402l.335 1.458c-.08.092-.155.188-.223.289l-1.452-.06a.371.371 0 00-.355.197c-.071.13-.098.298-.024.436l.594 1.353-.178.326-1.404.247a.412.412 0 00-.33.256.535.535 0 00.038.43l.85 1.207-.015.064-2.383 2.523s-.348.278.166.956c.464.58 2.859 2.912 4.124 4.145.27.36.583.687.932.972.056-.067-.25-1.198-1.294-2.511-.807-1.19-1.856-3.02-1.626-3.226 0 0 .28-.355.856-.613-.022-.018-.022-.018 0 0 0 0 11.865 5.472 22.863.087 1.26-.234 2.023.443 2.023.443.262.163-.421 2.042-.973 3.288-.765 1.41-.875 2.515-.81 2.551.282-.326.521-.688.711-1.075.978-1.346 2.798-3.923 3.136-4.552.392-.716.001-.93.001-.93l-2.54-1.865-.064-.263.824-1.208c.094-.112.1-.278.047-.418a.412.412 0 00-.313-.262l-1.427-.247-.151-.317.582-1.374a.41.41 0 00-.037-.43.367.367 0 00-.346-.177l-1.443.044-.232-.29.327-1.454a.473.473 0 00-.097-.405.412.412 0 00-.404-.13l-1.396.35a3.157 3.157 0 01-.269-.246l.035-1.49a.475.475 0 00-.178-.378.37.37 0 00-.415-.026l-1.29.61-.326-.179-.232-1.467a.411.411 0 00-.256-.33.37.37 0 00-.41.037l-1.164.866-.339-.094-.495-1.404a.433.433 0 00-.314-.282.432.432 0 00-.4.138l-.98 1.098-.355-.051-.75-1.257a.412.412 0 00-.35-.217c-.146-.008-.282.086-.353.217z"/><path fill="#000" d="M12.21 22.605l-.07-.062 3.886-.319c-3.17-4.181-5.71-.85-5.98-.478v.859h2.163zm8.09-.046c.046-.038.07-.061.07-.061l-3.735-.274c3.172-4.353 5.558-.895 5.829-.523v.858H20.3z"/><path fill="url(#c)" d="M26.276 18.407s-.422 1.69-3.067 3.468l-.736.175s-2.397-4.371-5.792.554c0 0 1.057-.612 3.89.138 0 0-1.303 1.996-3.926 1.93 0 0 2.513 3.024 6.345-1.34 0 0 4.05-1.566 4.379-4.925h-1.093z"/><path fill="#000" d="M18.4 16.24s1.185-1.297 2.37 0c0 0 .932 1.732 0 2.597 0 0-1.524 1.212-2.37 0 0 0-1.017-.952 0-2.596z"/><path fill="#fff" d="M19.774 16.722c0 .506-.298.916-.666.916-.367 0-.665-.41-.665-.916 0-.505.298-.915.665-.915.368 0 .666.41.666.915z"/><path fill="#000" d="M13.109 15.886s2.033-.9 2.588 1.11c0 0 .582 2.342-1.67 2.475 0 0-2.87-.553-.918-3.585z"/><path fill="#fff" d="M14.13 16.756c0 .52-.307.944-.686.944-.379 0-.686-.423-.686-.944 0-.522.307-.944.686-.944.38 0 .686.422.686.944z"/><path fill="url(#d)" d="M10.059 23.599c3.714 4.763 5.473.938 5.473.938-2.085-.234-3.564-1.622-3.564-1.622 2.502-.32 3.949-.346 3.949-.346-3.35-4.418-6.067-.417-6.067-.417-.678-.248-1.375-1.192-1.89-2.066l-2.079-.612c2.392 4.066 4.178 4.125 4.178 4.125z"/></g><path fill="#1C1F29" d="M47.614 22.216c-.996 0-1.92-.162-2.772-.486a6.658 6.658 0 01-2.196-1.368 6.423 6.423 0 01-1.44-2.07 6.569 6.569 0 01-.504-2.592c0-.936.168-1.8.504-2.592a6.292 6.292 0 011.458-2.07A6.658 6.658 0 0144.86 9.67a7.539 7.539 0 012.736-.486c.996 0 1.908.162 2.736.486.84.324 1.566.78 2.178 1.368a6.292 6.292 0 011.458 2.07c.348.78.522 1.644.522 2.592a6.5 6.5 0 01-.522 2.61 6.292 6.292 0 01-1.458 2.07 6.608 6.608 0 01-2.178 1.35c-.828.324-1.734.486-2.718.486zm-.018-2.484c.564 0 1.08-.096 1.548-.288a3.672 3.672 0 002.088-2.106 4.238 4.238 0 00.306-1.638c0-.6-.102-1.146-.306-1.638a3.672 3.672 0 00-.828-1.278 3.527 3.527 0 00-1.242-.828 4.178 4.178 0 00-1.566-.288c-.564 0-1.086.096-1.566.288a3.757 3.757 0 00-1.242.828c-.36.36-.642.786-.846 1.278a4.471 4.471 0 00-.288 1.638c0 .588.096 1.134.288 1.638.204.492.48.918.828 1.278.36.36.78.636 1.26.828.48.192 1.002.288 1.566.288zM55.944 22v-9.684h2.681v2.736l-.377-.792c.288-.684.75-1.2 1.386-1.548.636-.36 1.41-.54 2.322-.54v2.592a3.287 3.287 0 00-.325-.018 2.47 2.47 0 00-.306-.018c-.768 0-1.392.222-1.872.666-.468.432-.702 1.11-.702 2.034V22h-2.807zm11.625 3.636c-.912 0-1.794-.114-2.646-.342-.84-.216-1.542-.546-2.106-.99l1.116-2.016c.408.336.924.6 1.548.792.636.204 1.26.306 1.872.306.996 0 1.716-.222 2.16-.666.456-.444.684-1.104.684-1.98v-1.458l.18-2.43-.036-2.448v-2.088h2.664v8.064c0 1.8-.468 3.126-1.404 3.978-.936.852-2.28 1.278-4.032 1.278zm-.432-4.104c-.9 0-1.716-.192-2.448-.576a4.763 4.763 0 01-1.746-1.638c-.432-.708-.648-1.53-.648-2.466 0-.948.216-1.77.648-2.466a4.573 4.573 0 011.746-1.638c.732-.384 1.548-.576 2.448-.576.816 0 1.536.168 2.16.504.624.324 1.11.834 1.458 1.53.348.684.522 1.566.522 2.646 0 1.068-.174 1.95-.522 2.646-.348.684-.834 1.194-1.458 1.53-.624.336-1.344.504-2.16.504zm.558-2.304a2.9 2.9 0 001.314-.288c.384-.204.684-.486.9-.846.216-.36.324-.774.324-1.242 0-.48-.108-.894-.324-1.242a2.145 2.145 0 00-.9-.828 2.758 2.758 0 00-1.314-.306c-.492 0-.93.102-1.314.306-.384.192-.69.468-.918.828-.216.348-.324.762-.324 1.242 0 .468.108.882.324 1.242.228.36.534.642.918.846a2.9 2.9 0 001.314.288zM81.018 22v-1.89l-.18-.414v-3.384c0-.6-.186-1.068-.558-1.404-.36-.336-.918-.504-1.674-.504a4.81 4.81 0 00-1.53.252 3.904 3.904 0 00-1.26.648l-1.008-1.962c.528-.372 1.164-.66 1.908-.864a8.54 8.54 0 012.268-.306c1.476 0 2.622.348 3.438 1.044.816.696 1.224 1.782 1.224 3.258V22h-2.628zm-2.952.144c-.756 0-1.404-.126-1.944-.378-.54-.264-.954-.618-1.242-1.062a2.686 2.686 0 01-.432-1.494c0-.576.138-1.08.414-1.512.288-.432.738-.768 1.35-1.008.612-.252 1.41-.378 2.394-.378h2.574v1.638h-2.268c-.66 0-1.116.108-1.368.324-.24.216-.36.486-.36.81 0 .36.138.648.414.864.288.204.678.306 1.17.306.468 0 .888-.108 1.26-.324.372-.228.642-.558.81-.99l.432 1.296c-.204.624-.576 1.098-1.116 1.422-.54.324-1.236.486-2.088.486zm13.468-9.972c.768 0 1.452.156 2.052.468.612.3 1.092.768 1.44 1.404.348.624.522 1.428.522 2.412V22H92.74v-5.112c0-.78-.174-1.356-.522-1.728-.336-.372-.816-.558-1.44-.558-.444 0-.846.096-1.206.288-.348.18-.624.462-.828.846-.192.384-.288.876-.288 1.476V22h-2.808v-9.684h2.682v2.682l-.504-.81a3.587 3.587 0 011.494-1.494c.648-.348 1.386-.522 2.214-.522zM97.553 22v-9.684h2.808V22h-2.808zm1.404-11.034c-.516 0-.936-.15-1.26-.45a1.46 1.46 0 01-.486-1.116c0-.444.162-.816.486-1.116.324-.3.744-.45 1.26-.45s.936.144 1.26.432c.324.276.486.636.486 1.08 0 .468-.162.858-.486 1.17-.312.3-.732.45-1.26.45zM101.761 22v-1.692l5.724-6.768.486.936h-6.084v-2.16h8.352v1.692l-5.724 6.768-.504-.936h6.39V22h-8.64zm14.582.144c-1.104 0-2.076-.216-2.916-.648-.828-.432-1.47-1.02-1.926-1.764-.456-.756-.684-1.614-.684-2.574 0-.972.222-1.83.666-2.574a4.764 4.764 0 011.854-1.764c.78-.432 1.662-.648 2.646-.648.948 0 1.8.204 2.556.612a4.422 4.422 0 011.818 1.728c.444.744.666 1.638.666 2.682 0 .108-.006.234-.018.378a42.22 42.22 0 01-.036.378h-7.866v-1.638h6.39l-1.08.486c0-.504-.102-.942-.306-1.314a2.171 2.171 0 00-.846-.864c-.36-.216-.78-.324-1.26-.324s-.906.108-1.278.324c-.36.204-.642.498-.846.882-.204.372-.306.816-.306 1.332v.432c0 .528.114.996.342 1.404.24.396.57.702.99.918.432.204.936.306 1.512.306.516 0 .966-.078 1.35-.234.396-.156.756-.39 1.08-.702l1.494 1.62a4.437 4.437 0 01-1.674 1.17c-.672.264-1.446.396-2.322.396zm6.01-.144v-9.684h2.682v2.736l-.378-.792c.288-.684.75-1.2 1.386-1.548.636-.36 1.41-.54 2.322-.54v2.592a3.287 3.287 0 00-.324-.018 2.47 2.47 0 00-.306-.018c-.768 0-1.392.222-1.872.666-.468.432-.702 1.11-.702 2.034V22h-2.808z"/><defs><linearGradient id="b" x1="16.887" x2="15.092" y1="26.58" y2="6.072" gradientUnits="userSpaceOnUse"><stop stop-color="#F74C00"/><stop offset=".33" stop-color="#F74C00"/><stop offset="1" stop-color="#F49600"/></linearGradient><linearGradient id="c" x1="22.007" x2="22.007" y1="25.692" y2="18.407" gradientUnits="userSpaceOnUse"><stop stop-color="#CC3A00"/><stop offset=".15" stop-color="#CC3A00"/><stop offset=".74" stop-color="#F74C00"/><stop offset="1" stop-color="#F74C00"/></linearGradient><linearGradient id="d" x1="10.899" x2="10.899" y1="25.99" y2="19.474" gradientUnits="userSpaceOnUse"><stop stop-color="#CC3A00"/><stop offset=".15" stop-color="#CC3A00"/><stop offset=".74" stop-color="#F74C00"/><stop offset="1" stop-color="#F74C00"/></linearGradient><clipPath id="a"><path fill="#fff" d="M0 0h32v32H0z"/></clipPath></defs></svg>