<svg xmlns="http://www.w3.org/2000/svg" width="20" height="20" fill="none"><g clip-path="url(#a)"><path fill="#1C1F29" d="M10.135 9.127c-2.066 0-3.943.248-5.332.653v3.457c1.39.405 3.266.653 5.332.653 2.365 0 4.482-.325 5.903-.838V9.965c-1.421-.513-3.538-.838-5.903-.838zm8.033 2.809l-.242-.502a.914.914 0 00.002-.057c0-.569-.591-1.093-1.586-1.513v3.025c.464-.195.84-.414 1.11-.65-.08.32-.35.964-.567 1.418-.355.649-.484 1.213-.467 1.241.01.018.132-.17.31-.472.416-.593 1.204-1.724 1.362-2.013.178-.326.078-.477.078-.477zM2.497 11.41c0 .11.022.217.064.323l-.145.258s-.116.151.089.47c.18.28 1.084 1.377 1.561 1.952.205.294.344.476.356.458.02-.027-.127-.58-.534-1.212a11.48 11.48 0 01-.553-1.12c.38.24.877.46 1.468.647V9.634c-1.424.452-2.306 1.081-2.306 1.776z"/><path fill="url(#b)" d="M9.878 3.872l-.473.79-.23.02-.616-.681a.232.232 0 00-.24-.083.283.283 0 00-.191.172l-.31.88a1.14 1.14 0 00-.214.07l-.733-.556a.28.28 0 00-.248-.03.296.296 0 00-.163.208l-.15.93-.198.108-.808-.381a.232.232 0 00-.257.022c-.073.045-.117.14-.122.23l.031.94-.168.144-.87-.208c-.094-.03-.181.003-.253.074a.283.283 0 00-.068.251l.209.912c-.05.057-.097.117-.14.18l-.907-.037a.232.232 0 00-.222.123c-.044.081-.06.186-.014.273l.37.845-.11.204-.878.154a.257.257 0 00-.206.16.334.334 0 00.024.27l.53.754-.009.04-1.49 1.576s-.217.174.105.598c.29.362 1.786 1.82 2.577 2.59.168.226.364.43.583.608.035-.042-.156-.749-.81-1.57-.504-.743-1.159-1.887-1.015-2.016 0 0 .174-.222.535-.383-.014-.011-.014-.011 0 0 0 0 7.415 3.42 14.289.055.788-.147 1.264.276 1.264.276.164.102-.263 1.276-.608 2.056-.478.881-.547 1.572-.506 1.594.176-.204.326-.43.445-.672.61-.841 1.748-2.452 1.96-2.845.244-.448 0-.581 0-.581l-1.587-1.166-.04-.164.515-.756c.058-.07.062-.173.029-.26a.258.258 0 00-.196-.164l-.891-.155-.095-.198.364-.858a.257.257 0 00-.024-.27.23.23 0 00-.216-.11l-.902.027-.145-.18.205-.91a.295.295 0 00-.061-.253.257.257 0 00-.253-.081l-.872.218a1.993 1.993 0 01-.168-.153l.022-.932a.295.295 0 00-.111-.235.232.232 0 00-.26-.016l-.806.38-.204-.111-.144-.917a.258.258 0 00-.16-.206.231.231 0 00-.257.022l-.727.542-.212-.059-.31-.877a.27.27 0 00-.196-.177.27.27 0 00-.25.087l-.612.686-.222-.032-.47-.785a.258.258 0 00-.218-.136c-.09-.005-.176.054-.22.135z"/><path fill="#000" d="M7.63 14.128c-.028-.024-.043-.039-.043-.039l2.43-.199c-1.982-2.613-3.57-.531-3.738-.299v.537H7.63zm5.058-.028c.028-.024.043-.039.043-.039l-2.334-.17c1.982-2.722 3.474-.56 3.643-.328v.537h-1.352z"/><path fill="url(#c)" d="M16.422 11.505s-.264 1.056-1.916 2.167l-.46.11s-1.498-2.733-3.62.345c0 0 .66-.382 2.431.087 0 0-.815 1.247-2.454 1.206 0 0 1.571 1.89 3.966-.838 0 0 2.532-.978 2.736-3.077h-.683z"/><path fill="#000" d="M11.5 10.15s.74-.81 1.482 0c0 0 .582 1.082 0 1.623 0 0-.953.758-1.482 0 0 0-.636-.595 0-1.623z"/><path fill="#fff" d="M12.359 10.451c0 .316-.187.573-.416.573-.23 0-.416-.256-.416-.572 0-.316.186-.573.416-.573.23 0 .416.257.416.572z"/><path fill="#000" d="M8.193 9.929s1.27-.563 1.618.693c0 0 .363 1.464-1.044 1.547 0 0-1.795-.346-.574-2.24z"/><path fill="#fff" d="M8.831 10.472c0 .326-.192.59-.428.59-.237 0-.43-.264-.43-.59 0-.326.193-.59.43-.59.236 0 .428.264.428.59z"/><path fill="url(#d)" d="M6.286 14.75c2.322 2.977 3.421.586 3.421.586-1.303-.147-2.227-1.014-2.227-1.014 1.564-.2 2.468-.216 2.468-.216-2.094-2.762-3.792-.26-3.792-.26-.424-.156-.86-.746-1.181-1.292l-1.3-.383c1.495 2.542 2.611 2.578 2.611 2.578z"/></g><defs><linearGradient id="b" x1="10.554" x2="9.432" y1="16.612" y2="3.795" gradientUnits="userSpaceOnUse"><stop stop-color="#F74C00"/><stop offset=".33" stop-color="#F74C00"/><stop offset="1" stop-color="#F49600"/></linearGradient><linearGradient id="c" x1="13.754" x2="13.754" y1="16.058" y2="11.505" gradientUnits="userSpaceOnUse"><stop stop-color="#CC3A00"/><stop offset=".15" stop-color="#CC3A00"/><stop offset=".74" stop-color="#F74C00"/><stop offset="1" stop-color="#F74C00"/></linearGradient><linearGradient id="d" x1="6.812" x2="6.812" y1="16.244" y2="12.171" gradientUnits="userSpaceOnUse"><stop stop-color="#CC3A00"/><stop offset=".15" stop-color="#CC3A00"/><stop offset=".74" stop-color="#F74C00"/><stop offset="1" stop-color="#F74C00"/></linearGradient><clipPath id="a"><path fill="#fff" d="M0 0h20v20H0z"/></clipPath></defs></svg>