<svg xmlns="http://www.w3.org/2000/svg" width="20" height="20" fill="none"><g clip-path="url(#a)"><path fill="#4D515C" d="M.833 20a.833.833 0 00.59-.244l5.515-5.515 1.04 1.076a4.308 4.308 0 003.004 1.345c.38.001.758-.063 1.116-.189a3.025 3.025 0 002.03-2.602c.09-.845.027-1.7-.186-2.522l-.178-.869a.833.833 0 01.22-.785l1.322-1.324a.283.283 0 01.197-.083.142.142 0 01.14.054 2.564 2.564 0 003.308.36 2.5 2.5 0 00.316-3.804l-4.1-4.102a2.571 2.571 0 00-3.282-.334 2.5 2.5 0 00-.317 3.804l.064.064a.257.257 0 010 .361l-1.334 1.334a.834.834 0 01-.795.217l-.68-.174a7.193 7.193 0 00-2.569-.194 3.22 3.22 0 00-2.713 2.155 3.333 3.333 0 00.774 3.5l1.465 1.517-5.536 5.532A.834.834 0 00.834 20zm4.28-11.416A1.547 1.547 0 016.426 7.53a5.58 5.58 0 011.979.15l.685.175a2.508 2.508 0 002.386-.654L12.81 5.87a1.925 1.925 0 000-2.718l-.064-.064a.834.834 0 01.112-1.273.903.903 0 011.13.158l4.104 4.104a.834.834 0 01-.112 1.273.904.904 0 01-1.14-.167 1.843 1.843 0 00-1.32-.56 2 2 0 00-1.39.57l-1.32 1.322a2.5 2.5 0 00-.667 2.333l.183.882c.168.643.22 1.31.15 1.971a1.38 1.38 0 01-.928 1.204 2.333 2.333 0 01-2.376-.75l-3.666-3.792a1.689 1.689 0 01-.393-1.78z"/></g><defs><clipPath id="a"><path fill="#fff" d="M0 0h20v20H0z"/></clipPath></defs></svg>