<svg xmlns="http://www.w3.org/2000/svg" width="109" height="35" fill="none"><path fill="#13161B" d="M0 3.695A3.695 3.695 0 013.695 0H39.72v34.178H3.695A3.695 3.695 0 010 30.483V3.695z"/><path fill="#6D96FF" d="M109 3.695A3.695 3.695 0 00105.305 0H39.72v34.178h65.585A3.695 3.695 0 00109 30.483V3.695z"/><path fill="#fff" d="M15.477 18.705v-6.193h2.067v10.581h-2.026v-1.832h-.11a3.303 3.303 0 01-1.171 1.412c-.533.372-1.196.558-1.99.558-.68 0-1.282-.15-1.806-.448-.519-.303-.927-.75-1.226-1.343-.294-.592-.44-1.325-.44-2.197v-6.73h2.059v6.482c0 .72.2 1.295.6 1.722.399.427.918.64 1.556.64.386 0 .77-.096 1.15-.289a2.43 2.43 0 00.958-.875c.257-.39.384-.886.379-1.488zm9.573 4.581c-.987 0-1.86-.17-2.617-.51-.753-.34-1.343-.808-1.77-1.405a3.38 3.38 0 01-.634-2.039 3.593 3.593 0 011.391-2.907c.432-.34.914-.556 1.447-.647v-.083a2.847 2.847 0 01-1.688-1.13c-.422-.583-.631-1.253-.627-2.011a3.3 3.3 0 01.572-1.93c.39-.569.925-1.016 1.605-1.342.68-.326 1.453-.49 2.321-.49.86 0 1.626.166 2.301.497.68.326 1.215.773 1.605 1.343a3.34 3.34 0 01.593 1.922 3.351 3.351 0 01-.648 2.011 2.87 2.87 0 01-1.667 1.13v.083a3.084 3.084 0 011.426.647c.427.335.767.756 1.02 1.26a3.61 3.61 0 01.392 1.647 3.454 3.454 0 01-.647 2.04c-.427.596-1.02 1.065-1.778 1.404-.753.34-1.618.51-2.597.51zm0-1.743c.584 0 1.089-.096 1.516-.289.427-.197.758-.47.992-.82a2.23 2.23 0 00.358-1.24 2.323 2.323 0 00-.386-1.302 2.576 2.576 0 00-1.012-.888c-.427-.216-.916-.324-1.468-.324-.555 0-1.049.108-1.48.324a2.565 2.565 0 00-1.02.888 2.27 2.27 0 00-.365 1.302c-.005.473.108.887.337 1.24.235.35.567.623 1 .82.43.193.94.29 1.528.29zm0-6.564c.469 0 .884-.095 1.247-.283.363-.188.648-.45.854-.785.212-.335.32-.728.324-1.178a2.182 2.182 0 00-.317-1.158 2.013 2.013 0 00-.847-.764c-.363-.184-.783-.276-1.26-.276-.487 0-.914.092-1.282.276a2.013 2.013 0 00-.847.764 2.13 2.13 0 00-.296 1.158c-.005.45.096.842.303 1.178.206.335.491.597.854.785.367.188.79.283 1.267.283zm32.496-2.467l-3.837 10.58h-2.204l-3.844-10.58h2.211l2.68 8.142h.11l2.673-8.142h2.211zm1.936 10.581V12.512h2.06v10.58h-2.06zm1.04-12.214a1.31 1.31 0 01-.923-.358 1.165 1.165 0 01-.379-.868c0-.34.126-.63.379-.868.257-.243.565-.365.923-.365.358 0 .664.122.916.365.257.239.386.528.386.868 0 .335-.129.625-.386.868a1.285 1.285 0 01-.916.358zm8.351 12.427c-1.043 0-1.94-.222-2.694-.668a4.532 4.532 0 01-1.736-1.894c-.404-.818-.606-1.775-.606-2.873 0-1.084.202-2.039.606-2.865.41-.827.978-1.472 1.709-1.936.734-.464 1.593-.696 2.576-.696.597 0 1.176.099 1.736.296.56.198 1.063.508 1.509.93.445.423.796.972 1.054 1.647.257.67.385 1.485.385 2.445v.73h-8.41V16.88h6.392c0-.542-.11-1.022-.33-1.44a2.5 2.5 0 00-.93-.998c-.396-.244-.86-.365-1.392-.365-.579 0-1.084.142-1.516.427a2.87 2.87 0 00-.992 1.102c-.23.45-.344.939-.344 1.467v1.206c0 .707.124 1.309.372 1.804a2.69 2.69 0 001.054 1.137c.45.257.976.386 1.577.386.39 0 .747-.055 1.068-.166a2.214 2.214 0 001.37-1.343l1.95.352a3.53 3.53 0 01-.84 1.508c-.4.427-.902.76-1.509.999-.601.234-1.288.351-2.06.351zm9.1-.213l-3.114-10.581h2.129l2.073 7.77h.103l2.08-7.77h2.13l2.066 7.736h.103l2.06-7.736h2.128l-3.106 10.58h-2.101l-2.15-7.639h-.158l-2.15 7.64h-2.093zm21.642-7.998l-1.867.33a2.207 2.207 0 00-.372-.681 1.839 1.839 0 00-.675-.53c-.285-.138-.64-.207-1.068-.207-.583 0-1.07.13-1.46.392-.39.258-.586.59-.586 1 0 .353.131.638.393.853.262.216.684.393 1.267.53l1.681.387c.974.225 1.7.571 2.177 1.04.478.468.716 1.077.716 1.825 0 .634-.183 1.199-.55 1.695-.363.491-.87.877-1.523 1.157-.648.28-1.398.42-2.252.42-1.185 0-2.152-.252-2.9-.757-.75-.51-1.208-1.233-1.378-2.17l1.99-.303c.124.518.38.911.765 1.177.386.262.889.393 1.509.393.675 0 1.214-.14 1.618-.42.405-.285.607-.631.607-1.04 0-.33-.124-.609-.372-.834-.244-.225-.618-.395-1.123-.51l-1.791-.392c-.988-.225-1.718-.583-2.19-1.075-.47-.491-.703-1.113-.703-1.867 0-.624.174-1.17.523-1.64.35-.468.831-.833 1.447-1.094.615-.267 1.32-.4 2.115-.4 1.143 0 2.043.248 2.7.744.657.492 1.09 1.15 1.302 1.977z"/><path fill="#E4EAF1" fill-rule="evenodd" d="M105.305.924H3.695a2.771 2.771 0 00-2.771 2.77v26.79a2.77 2.77 0 002.77 2.77h101.611a2.77 2.77 0 002.771-2.77V3.693a2.77 2.77 0 00-2.771-2.77zM3.695 0A3.695 3.695 0 000 3.695v26.788a3.695 3.695 0 003.695 3.695h101.61A3.695 3.695 0 00109 30.483V3.695A3.695 3.695 0 00105.305 0H3.695z" clip-rule="evenodd"/></svg>