<svg xmlns="http://www.w3.org/2000/svg" width="49" height="23" fill="none"><path fill="#FDD901" d="M31.746 21.474h5.484V16.59h-5.484v4.884z"/><path fill="#0068FF" d="M31.746 16.59h5.484v-4.884h-5.484v4.884z"/><path fill="#000" d="M1.204 10.971h9.768V1.203H1.204v9.768zm10.503 0h36.026V1.203H11.707v9.768zm19.304 10.503v-9.768H11.707v9.768h19.304zm.735-9.768v9.768h5.484v-9.768h-5.484zm5.852 10.504H10.972V11.706H.469V.468h48v11.238H37.965V22.21h-.367z"/><path fill="#000" d="M17.322 6.95v.277c0 .166-.017.325-.05.477a.94.94 0 01-.553.682c-.154.07-.351.106-.591.106-.002 0-.002 0-.002.002a1.48 1.48 0 01-.602-.106.909.909 0 01-.366-.286c-.089-.12-.15-.26-.182-.421a2.39 2.39 0 01-.05-.504V5.005c0-.179.016-.348.05-.507.032-.16.093-.299.182-.418a.925.925 0 01.366-.286 1.46 1.46 0 01.594-.106l.004-.003c.244 0 .443.035.598.105a.944.944 0 01.551.691c.034.154.051.315.051.481v.268h-.776v-.264c0-.07-.006-.14-.015-.208a.574.574 0 00-.059-.184.348.348 0 00-.127-.132.416.416 0 00-.22-.05.43.43 0 00-.226.052.382.382 0 00-.13.137.576.576 0 00-.058.197c-.01.073-.013.15-.013.23v2.166c0 .076.003.151.011.225a.547.547 0 00.057.196.332.332 0 00.127.14c.055.033.13.051.229.051.089 0 .16-.016.216-.046a.35.35 0 00.13-.124.527.527 0 00.063-.18c.01-.068.015-.14.015-.213V6.95h.776zm2.123-3.258c0-.002.002-.004.004-.004.244 0 .443.036.599.106.144.063.27.161.365.286.09.12.15.26.184.42.032.16.049.328.049.505v2.172c0 .179-.017.349-.05.507-.033.161-.094.3-.183.42a.912.912 0 01-.367.284 1.47 1.47 0 01-.597.106l-.004-.002v.002a1.46 1.46 0 01-.598-.106.91.91 0 01-.365-.286 1.041 1.041 0 01-.184-.421 2.404 2.404 0 01-.051-.504V5.005c0-.179.017-.349.051-.508.032-.159.095-.298.186-.418a.93.93 0 01.367-.285c.155-.07.354-.106.595-.106l-.001.004zm0 4.094c.002 0 .006 0 .008.002s.004.002.006.002a.428.428 0 00.22-.056.333.333 0 00.124-.137.591.591 0 00.057-.195c.01-.073.013-.15.013-.228V5.008c0-.075-.003-.15-.011-.225a.573.573 0 00-.055-.196.355.355 0 00-.127-.14.44.44 0 00-.23-.051.037.037 0 01-.016-.004.428.428 0 00-.22.055.353.353 0 00-.123.138.59.59 0 00-.056.195c-.01.073-.014.15-.014.228v2.166c0 .076.004.151.014.225a.546.546 0 00.055.196.332.332 0 00.126.14c.07.038.15.055.229.051zm2.96-2.833l.05 3.48h-.731v-4.68h1.002l.653 2.843.655-2.843h.998v4.68H24.3l.045-3.44-.632 2.856h-.668l-.64-2.896zm3.794 3.48v-4.68h2.098v.707h-1.324v1.238h1.098v.707h-1.098V7.73h1.324v.704h-2.098v-.001zm6.388-1.658a.607.607 0 00-.027-.18.376.376 0 00-.22-.241.494.494 0 00-.193-.034h-.414v1.406h.416a.753.753 0 00.19-.022.308.308 0 00.14-.073.333.333 0 00.085-.148.88.88 0 00.023-.242v-.466zm-.055-1.899a.707.707 0 00-.023-.186.321.321 0 00-.199-.233.516.516 0 00-.193-.033h-.384v1.23h.33c.088 0 .162-.01.224-.03a.35.35 0 00.148-.09.336.336 0 00.08-.154.841.841 0 00.02-.222l-.003-.282zm.827 2.353c0 .216-.025.398-.072.55a.885.885 0 01-.223.373.903.903 0 01-.375.211c-.15.045-.328.066-.532.066H30.96V3.752h1.18c.2 0 .375.024.52.072a.848.848 0 01.577.543c.048.132.07.282.07.45v.273c0 .245-.035.438-.107.581a.53.53 0 01-.352.284c.156.04.29.138.375.275a1 1 0 01.136.545v.454zm1.574-3.48h1.043l.849 4.684h-.784l-.127-.827h-.926l-.125.827h-.778l.848-4.684zm.16 3.189h.72l-.36-2.37-.36 2.37zm4.945.012v.277c0 .166-.017.325-.05.477a.94.94 0 01-.553.682 1.43 1.43 0 01-.591.106l-.002.001a1.48 1.48 0 01-.602-.105.91.91 0 01-.366-.286 1.02 1.02 0 01-.181-.421 2.39 2.39 0 01-.051-.504V5.005c0-.18.016-.349.05-.508.033-.159.093-.298.182-.418a.925.925 0 01.366-.286 1.46 1.46 0 01.594-.105l.004-.004c.244 0 .443.036.598.106.144.063.27.16.368.284.089.118.15.253.183.407.034.154.051.314.051.48v.269h-.776v-.265c0-.07-.005-.14-.015-.207a.574.574 0 00-.059-.184.348.348 0 00-.127-.132.416.416 0 00-.22-.05.431.431 0 00-.226.052.382.382 0 00-.13.137.576.576 0 00-.058.197c-.01.073-.013.15-.013.23v2.165c0 .077.004.152.011.225.008.074.027.14.057.197a.331.331 0 00.127.14c.055.033.13.05.229.05a.44.44 0 00.216-.046.35.35 0 00.13-.123.527.527 0 00.063-.18c.01-.068.015-.14.015-.213V6.95h.776zm1.043 1.483v-4.68h.772v1.966h.284l.727-1.967h.826l-.83 2.287.894 2.394h-.825l-.77-2.006h-.306v2.006h-.772zM15.572 14.28h1.043l.849 4.684h-.784l-.127-.828h-.926l-.125.828h-.778l.848-4.684zm.16 3.188h.72l-.36-2.37-.36 2.37zm2.656 1.496v-4.68h.773v3.981h1.265v.699h-2.038zm2.883 0v-4.68h.774v4.68h-.774zm4.382-4.684l-.858 4.684h-1.043l-.858-4.684h.778l.6 3.88.6-3.88h.781zm.841 4.684v-4.68h2.098v.707h-1.323v1.238h1.098v.707h-1.099v1.324h1.324v.704h-2.098zM5.795 8.547L3.793 5.892a1.5 1.5 0 01-.128-1.61 1.5 1.5 0 011.479-.792c.36.035.696.2.944.463a1.5 1.5 0 011.567-.395 1.498 1.498 0 011.024 1.29 1.5 1.5 0 01-.297 1.044L6.088 8.935l-.293-.388zM4.379 5.45l1.709 2.266L7.797 5.45a.771.771 0 00-1.238-.919l-.47.644-.472-.644a.776.776 0 00-.865-.277.768.768 0 00-.373 1.196z"/></svg>