<svg width="40" height="40" viewBox="0 0 40 40" fill="none" xmlns="http://www.w3.org/2000/svg"><g clip-path="url(#clip0_5573_2556)"><path d="M0 16C0 8.458 0 4.686 2.343 2.343S8.458 0 16 0h8c7.543 0 11.314 0 13.657 2.343S40 8.458 40 16v8c0 7.543 0 11.314-2.343 13.657S31.543 40 24 40h-8c-7.542 0-11.314 0-13.657-2.343S0 31.543 0 24v-8z" fill="#3B5998"/><path d="M22.085 31.76V20.878h3.004l.398-3.75h-3.402l.005-1.876c0-.978.093-1.502 1.498-1.502h1.878V10h-3.004c-3.609 0-4.879 1.819-4.879 4.878v2.251h-2.249v3.75h2.25v10.88h4.501z" fill="#fff"/></g><defs><clipPath id="clip0_5573_2556"><path fill="#fff" d="M0 0h40v40H0z"/></clipPath></defs></svg>