<svg width="20" height="20" viewBox="0 0 20 20" fill="none" xmlns="http://www.w3.org/2000/svg"><g clip-path="url(#clip0_60_294)"><path fill-rule="evenodd" clip-rule="evenodd" d="M12.906 15.34H4.51c0 1.183.937 2.136 2.1 2.136h6.296c1.16 0 2.095-.958 2.095-2.137V6.552c0-.04-.034-.08-.074-.08H12.98c-.04 0-.074.035-.074.08v8.787zm0-12.84c1.16 0 2.095.957 2.095 2.141H6.606v8.787c0 .04-.035.08-.08.08H4.58a.082.082 0 01-.08-.08V4.641c0-1.184.937-2.142 2.1-2.142h6.306z" fill="#0DAB40"/></g><defs><clipPath id="clip0_60_294"><path fill="#fff" d="M0 0h20.002v20.002H0z"/></clipPath></defs></svg>