<svg width="40" height="40" viewBox="0 0 40 40" fill="none" xmlns="http://www.w3.org/2000/svg"><g clip-path="url(#clip0_5573_2553)"><path d="M0 16C0 8.458 0 4.686 2.343 2.343S8.458 0 16 0h8c7.543 0 11.314 0 13.657 2.343S40 8.458 40 16v8c0 7.543 0 11.314-2.343 13.657S31.543 40 24 40h-8c-7.542 0-11.314 0-13.657-2.343S0 31.543 0 24v-8z" fill="#2867B2"/><path d="M14.5 30h-4.25V16.625h4.25V30zm-2.125-15.25C11 14.75 10 13.75 10 12.375S11.125 10 12.375 10c1.375 0 2.375 1 2.375 2.375s-1 2.375-2.375 2.375zM30 30h-4.25v-7.25c0-2.125-.875-2.75-2.125-2.75s-2.5 1-2.5 2.875V30h-4.25V16.625h4V18.5c.375-.875 1.875-2.25 4-2.25 2.375 0 4.875 1.375 4.875 5.5V30H30z" fill="#fff"/></g><defs><clipPath id="clip0_5573_2553"><path fill="#fff" d="M0 0h40v40H0z"/></clipPath></defs></svg>