<svg width="21" height="20" viewBox="0 0 21 20" fill="none" xmlns="http://www.w3.org/2000/svg"><g clip-path="url(#clip0_60_437)"><path d="M20.003 13.235V9.343c0-.862-.223-1.421-.585-1.77C19.054 7.218 18.47 7 17.576 7a4.728 4.728 0 00-1.296.192l-.004.001h0a16.05 16.05 0 00-1.111.36v.504c.431-.154.787-.268 1.064-.341h0c.413-.108.8-.167 1.156-.168h0c.43 0 .832.076 1.16.277.343.211.56.532.65.922l.119.509-.514.096c-.964.18-1.733.37-2.317.568l3.52 3.315zm0 0h-.72m.72 0h-.72m0 0v-.803l-.959-.198c-.15.35-.413.642-.745.83h-.001c-.356.203-.76.307-1.17.303v0h-.004a1.89 1.89 0 01-.866-.192h0l-.005-.002a1.342 1.342 0 01-.554-.506h0c-.128-.21-.2-.468-.2-.793v0c-.001-.53.152-.91.42-1.187l-.354-.343.354.343c.31-.32.73-.58 1.284-.767l2.8 3.315zm-.873-1.97l.437.244c-.224.4-.509.731-.86.98v.001c-.353.25-.741.395-1.159.395-.332 0-.65-.098-.903-.333a1.176 1.176 0 01-.371-.885c0-.41.14-.782.442-1.065.263-.245.612-.418 1.01-.542.38-.117.93-.249 1.64-.394l.648-.134-.05.661c-.035.463-.17.912-.398 1.317l-.436-.245zm0 0a2.45 2.45 0 01-.713.817l.713-.817zM4.267 12.537c.309-.304.46-.692.46-1.126 0-.433-.15-.82-.46-1.126a1.57 1.57 0 00-1.135-.45c-.435 0-.825.146-1.135.45h0c-.309.305-.46.693-.46 1.126 0 .434.15.822.46 1.126m2.27 0l-.351-.356.35.356s0 0 0 0zm0 0c-.31.305-.7.451-1.135.451a1.57 1.57 0 01-1.135-.45m0 0s0 0 0 0l.351-.357-.351.356s0 0 0 0zm12.281-.664c0 .403.091.754.274 1.053l1.77-3.48c-.613.207-1.108.505-1.482.892-.375.388-.562.9-.562 1.535zm-.984.8l.033-.013.15.498c-.3.137-.647.209-1.05.209-.609 0-.974-.156-1.193-.382-.221-.228-.376-.615-.376-1.253V9.367l-.538.098V9.01l.169-.04.379-.095V7.408c.247-.063.49-.128.728-.192V8.69l.636-.18c.44-.124.905-.265 1.395-.423v.513c-.584.184-1.14.346-1.669.486l-.372.099v2.358c0 .298.06.614.262.862.219.268.529.365.834.365.204 0 .408-.032.601-.094h0l.011-.004zm-3.749.49c-.284.132-.62.203-1.02.203h0c-.59 0-.943-.153-1.154-.374-.215-.225-.367-.608-.367-1.242V9.945l-.547.052-.048.005V9.6a4.36 4.36 0 00.158-.016l.437-.056V8.143c.227-.028.439-.056.634-.084v1.4l.566-.074c.214-.029.406-.056.577-.081v.427c-.2.03-.434.063-.706.098l-.437.056V11.582c0 .315.059.643.258.9.219.283.535.393.856.393v-.5a1.302 1.302 0 00.488-.095l.163.473-.032.013-.011.004h0c-.196.07-.402.105-.609.105l.794.29zm-7.52-3.45h0a2.316 2.316 0 011.107-.258c.424 0 .79.09 1.106.258h.002a1.92 1.92 0 010 3.395h-.001a2.316 2.316 0 01-1.107.258c-.425 0-.79-.089-1.106-.257h-.002a1.92 1.92 0 010-3.396z" fill="#000" stroke="#000"/></g><defs><clipPath id="clip0_60_437"><path fill="#fff" transform="translate(.501)" d="M0 0h20.002v20.002H0z"/></clipPath></defs></svg>