<svg width="20" height="20" viewBox="0 0 20 20" fill="none" xmlns="http://www.w3.org/2000/svg"><g clip-path="url(#clip0_60_308)"><path d="M18.415 4.488a10.95 10.95 0 011.2 2.842 11.31 11.31 0 01.382 3.088 11.39 11.39 0 01-.464 3.076 11.148 11.148 0 01-1.275 2.804 10.69 10.69 0 01-1.279 1.625 10.32 10.32 0 01-1.554 1.326c-.209.136-.328.098-.384.048-.107-.098.065-.433.065-.433h-.004c.4-.855.636-2.071.636-3.22 0-.316-.02-.627-.052-.932-.133-2.262-1.753-4.086-4.251-6.142-1.015-.837-1.799-1.575-2.351-2.286a5.56 5.56 0 01-.348-.492l.217.303a3.973 3.973 0 01-.722-2.306C8.231 1.701 9.787.01 11.709 0a5.786 5.786 0 011.79.294l.526.19c1.774.751 3.321 2.232 4.39 4.004z" fill="#F4732A"/><path d="M10.836 12.215c.246.201.469.432.665.688.196.255.363.534.5.83a4.486 4.486 0 01.409 1.91c.002.423-.054.843-.167 1.247-.113.405-.282.79-.5 1.142a4.216 4.216 0 01-.79.938 4 4 0 01-1.01.654H9.94s-2.964 1.424-6.42-1.281h.004a7.955 7.955 0 01-1.403-1.384 8.279 8.279 0 01-.392-.537c-.304-.48-.571-.986-.8-1.512a11.194 11.194 0 01-.865-3.331 11.412 11.412 0 01.413-4.412c.26-.869.622-1.699 1.079-2.47a10.58 10.58 0 011.63-2.099A10.105 10.105 0 015.26 1.005c.504-.255.272.262.272.262v.004c-.119.292-.223.591-.308.9-.934 3.382.77 6.126 4.048 8.67l1.564 1.373z" fill="#092540"/></g><defs><clipPath id="clip0_60_308"><path fill="#fff" transform="translate(.001)" d="M0 0h20.002v20.002H0z"/></clipPath></defs></svg>