<svg width="40" height="40" viewBox="0 0 40 40" fill="none" xmlns="http://www.w3.org/2000/svg"><rect width="40" height="40" rx="8" fill="#F5F5F9"/><g clip-path="url(#clip0_6046_61357)" fill="#DCDBF0"><path d="M25 11.786H15a3.576 3.576 0 00-3.571 3.571v10A3.576 3.576 0 0015 28.93h10a3.575 3.575 0 003.571-3.572v-10A3.575 3.575 0 0025 11.786zm-10 1.428h10a2.143 2.143 0 012.143 2.143v10a2.108 2.108 0 01-.214.918l-6.545-6.545a3.572 3.572 0 00-5.052 0l-2.475 2.474v-6.847A2.143 2.143 0 0115 13.214zM15 27.5a2.143 2.143 0 01-2.143-2.143v-1.133l3.484-3.484a2.142 2.142 0 013.032 0l6.545 6.546c-.286.14-.6.213-.918.214H15z"/><path d="M22.857 19.285a2.5 2.5 0 100-5 2.5 2.5 0 000 5zm0-3.571a1.072 1.072 0 110 2.143 1.072 1.072 0 010-2.143z"/></g><defs><clipPath id="clip0_6046_61357"><path fill="#fff" transform="translate(11.429 11.786)" d="M0 0h17.143v17.143H0z"/></clipPath></defs></svg>