<svg width="192" height="192" viewBox="0 0 192 192" fill="none" xmlns="http://www.w3.org/2000/svg">
<path d="M95.9999 192C149.019 192 192 149.019 192 95.9999C192 42.9806 149.019 0 95.9999 0C42.9806 0 0 42.9806 0 95.9999C0 149.019 42.9806 192 95.9999 192Z" fill="#FF1654"/>
<path d="M98.29 28.5328C114.895 37.6937 131.594 46.8548 148.103 56.1113C151.538 58.1152 152.016 62.2185 151.634 65.8448C151.252 68.6122 150.298 71.0933 147.721 72.5247C134.934 80.0635 122.052 87.6977 109.264 95.2364C107.451 96.0953 107.642 97.7175 106.878 99.3398C105.543 103.825 101.534 106.878 97.0494 107.642C90.3695 108.596 83.785 103.347 83.2124 96.5724C82.6399 90.7513 86.6478 85.1211 92.278 83.6897C95.8089 82.64 99.0534 83.5943 102.203 85.2166C113.844 78.3458 125.392 71.3796 136.938 64.4134C122.815 56.3975 108.691 48.5725 94.5683 40.7474C78.5365 49.8131 62.4093 58.7832 46.3775 67.8488C46.3775 86.7434 46.3775 105.733 46.3775 124.628C62.4093 133.693 78.5365 142.759 94.5683 151.92C109.455 143.523 124.437 135.126 139.228 126.632C139.133 120.906 139.228 115.086 139.133 109.36C135.507 106.592 132.931 103.157 133.025 98.481C133.025 91.1331 139.992 85.1211 147.245 86.4571C153.924 87.6023 158.791 94.473 157.169 101.152C156.405 104.589 154.211 107.069 151.538 109.169C151.347 116.326 151.634 123.578 151.443 130.735C151.252 133.502 149.343 134.935 147.149 136.175C130.831 145.336 114.608 154.593 98.29 163.848C95.9997 165.185 93.9957 165.567 91.61 164.23C74.3377 154.593 57.0654 144.668 39.7931 135.03C37.0256 133.407 34.0673 131.976 34.0673 128.254C34.0673 106.592 33.8766 85.0257 34.3537 63.3637C34.5445 61.2643 35.7851 59.7374 37.5982 58.6878C55.4431 48.6679 73.3834 38.648 91.2283 28.6282C93.9003 27.0059 95.8089 27.1968 98.29 28.5328Z" fill="white"/>
</svg>
