<svg xmlns="http://www.w3.org/2000/svg" width="564" height="564" fill="none"><path fill="#000" d="M524 260.4v-69.143H402.999l-65.564 65.565a12.224 12.224 0 0 1-8.644 3.581c-6.752 0-12.221-5.473-12.221-12.222V126.434h-69.143v121.741c0 6.752-5.473 12.222-12.222 12.222-3.242 0-6.35-1.288-8.643-3.582l-65.561-65.564H40v69.143h116.679c11.932 0 21.606 9.673 21.606 21.605 0 11.933-9.674 21.606-21.606 21.606H40v68.996l121.001.147 65.561-65.565a12.222 12.222 0 0 1 8.643-3.581c6.752 0 12.222 5.473 12.222 12.222v121.741h69.143V315.824c0-6.752 5.473-12.222 12.221-12.222 3.242 0 6.351 1.288 8.644 3.581l65.564 65.565H524v-69.143H407.321c-11.932 0-21.606-9.673-21.606-21.606 0-11.932 9.674-21.605 21.606-21.605H524v.006Z"/></svg>