<svg xmlns="http://www.w3.org/2000/svg" width="20" height="20" fill="none"><g clip-path="url(#a)"><path fill="#fff" d="M10 0C4.486 0 0 4.469 0 9.961c0 5.493 4.486 9.961 10 9.961s10-4.468 10-9.96C20 4.468 15.514 0 10 0z"/><path fill="#91DC47" d="M9.634 10.14c-.099.214-.196.429-.291.644-.363.819-.765 1.816-.912 2.454-.053.227-.085.51-.085.822 0 .123.007.253.018.385a4.805 4.805 0 001.645.293 4.824 4.824 0 001.507-.245 2.828 2.828 0 01-.314-.331c-.642-.816-1-2.012-1.568-4.022zm-2.37-4.053A4.755 4.755 0 005.23 9.978a4.754 4.754 0 001.977 3.852c.294-1.217 1.029-2.332 2.131-4.565a17.926 17.926 0 00-.223-.581c-.306-.763-.746-1.65-1.14-2.051-.2-.21-.444-.39-.713-.546"/><path fill="#63B132" d="M14.171 15.437c-.633-.079-1.155-.174-1.612-.335a5.736 5.736 0 01-2.55.595c-3.17 0-5.74-2.56-5.741-5.719 0-1.714.758-3.25 1.957-4.299a4.222 4.222 0 00-.997-.121c-1.684.015-3.463.944-4.203 3.452-.07.365-.053.641-.053.968 0 4.972 4.047 9.002 9.037 9.002a9.032 9.032 0 007.392-3.826c-.885.22-1.735.324-2.463.327-.273 0-.53-.015-.767-.044"/><path fill="#90B4FE" d="M12.473 13.693c.056.027.182.072.358.122a4.754 4.754 0 001.957-3.837c-.005-2.628-2.14-4.755-4.779-4.76a4.808 4.808 0 00-1.5.243c.97 1.102 1.437 2.676 1.888 4.398v.002c.002.002.145.478.392 1.111.244.632.593 1.414.973 1.984.25.382.524.656.711.737"/><path fill="#5881D8" d="M2.665 4.736a4.602 4.602 0 012.486-.717c1.05.003 1.876.327 2.272.549.096.055.187.114.276.175a5.737 5.737 0 012.31-.484c3.171 0 5.742 2.56 5.742 5.72a5.693 5.693 0 01-1.708 4.069c.27.03.543.045.816.045 1.001 0 2.083-.22 2.894-.9.529-.443.972-1.093 1.218-2.067.047-.376.075-.758.075-1.148 0-4.971-4.045-9.002-9.037-9.002a9.034 9.034 0 00-7.344 3.76z"/></g><defs><clipPath id="a"><path fill="#fff" d="M0 0h20v20H0z"/></clipPath></defs></svg>