<svg xmlns="http://www.w3.org/2000/svg" width="20" height="20" fill="none"><path fill="#1C1F29" fill-rule="evenodd" d="M10.062.078C5.734 2.172.296 13.031 4.828 17.797 9.015 23.03 18.17 18 15.515 11.469c-3.36-5.625-5.469-5.922-5.453-11.39z" clip-rule="evenodd"/><path fill="url(#a)" fill-rule="evenodd" d="M10.063.031C5.751 2.125.297 12.953 4.844 17.734c1.672 1.938 4.375 2.578 5.891 1.422 4.125-2.937 1.156-8.297 1.625-12.265-1.719-1.594-2.328-5.125-2.297-6.86z" clip-rule="evenodd"/><path fill="url(#b)" fill-rule="evenodd" d="M8.86.672C5.374 3.156 4.452 12.39 5.092 15.39c1.282 7.515 11.75 4.421 10.875-2.579C15.031 8.25 8.343 6.689 8.86.672z" clip-rule="evenodd"/><path fill="url(#c)" fill-rule="evenodd" d="M12.312 7.781c1.625 2.094 1.984 3.532 1.063 4.36-4.329 3.03-9.579 1.156-8.438-5.829-1.484 3.532-4.234 8.813 1.828 9.563 3.25.563 8.438.313 9.203-2.516-.031-2.484-1.687-3.578-3.656-5.578z" clip-rule="evenodd"/><path fill="url(#d)" fill-rule="evenodd" d="M5.953 5.688C5.5 9 11.437 17.858 15.063 16.78c-2.766 5.563-8.891-3.312-10-6.515.234-1.72.343-2.563.89-4.579z" clip-rule="evenodd"/><path fill="url(#e)" fill-rule="evenodd" d="M9.438 7.766c.125 1.234.61 3.203 0 4.5-.61 1.296-3.39 3.671-2.625 5.75 1.781 3.875 5.797-.688 5.766-2.97.171-1.843-1.032-6.046-.282-8.202l-.343-.438-2.125-.625c-.344.5-.47 1.172-.391 1.985z" clip-rule="evenodd"/><path fill="url(#f)" fill-rule="evenodd" d="M10.203 1.688C5.625 4.28 7.5 8.343 7.703 12.75l2.985-8.656c-.22-.89-.36-1.485-.485-2.407z" clip-rule="evenodd"/><path fill="#330A4C" fill-opacity=".316" fill-rule="evenodd" d="M10.672 4.078c-2.313 1.828-2.203 4.89-2.906 8.438 1.265-3.329.64-5.97 2.906-8.438z" clip-rule="evenodd"/><path fill="#fff" fill-rule="evenodd" d="M7.156 18.703c1.25.172 1.89.344 1.953.469.047.656-1.734.187-1.953-.469z" clip-rule="evenodd"/><path fill="#EDEDED" fill-opacity=".603" fill-rule="evenodd" d="M7.782 1.688c-1.079 1.203-2.25 3.406-2.844 4.64-.156 1.016-.078 2.453.094 3.672.14-2.844 1.171-6.125 2.75-8.313z" clip-rule="evenodd"/><defs><linearGradient id="a" x1="9.464" x2="2.23" y1="1.252" y2="17.107" gradientUnits="userSpaceOnUse"><stop stop-color="#8D67AF" stop-opacity=".672"/><stop offset="1" stop-color="#9F8DAF"/></linearGradient><linearGradient id="b" x1="10.462" x2="10.462" y1="6.671" y2="19.405" gradientUnits="userSpaceOnUse"><stop stop-color="#26053D" stop-opacity=".762"/><stop offset="1" stop-color="#B7B4B4" stop-opacity=".278"/></linearGradient><linearGradient id="c" x1="5.735" x2="8.996" y1="7.031" y2="15.67" gradientUnits="userSpaceOnUse"><stop stop-color="#91739F" stop-opacity=".46"/><stop offset="1" stop-color="#32054F" stop-opacity=".54"/></linearGradient><linearGradient id="d" x1="13.048" x2="4.11" y1="18.135" y2="10.731" gradientUnits="userSpaceOnUse"><stop stop-color="#463D49" stop-opacity=".331"/><stop offset="1" stop-color="#340A50" stop-opacity=".821"/></linearGradient><linearGradient id="e" x1="10.82" x2="4.537" y1="6.54" y2="16.101" gradientUnits="userSpaceOnUse"><stop stop-color="#715383" stop-opacity=".145"/><stop offset="1" stop-color="#F4F4F4" stop-opacity=".234"/></linearGradient><linearGradient id="f" x1="11.833" x2="7.465" y1="8.889" y2="8.622" gradientUnits="userSpaceOnUse"><stop stop-color="#A5A1A8" stop-opacity=".356"/><stop offset="1" stop-color="#370C50" stop-opacity=".582"/></linearGradient></defs></svg>