<svg xmlns="http://www.w3.org/2000/svg" width="20" height="20" fill="none"><path fill="#A90533" d="M3.234 16.234C1.72 14.61.813 12.375.828 9.704c-.015-2.36.735-4.392 2.016-5.938H.156v12.453l3.078.015zm14.125 0a12.632 12.632 0 001.782-2.484l-2.97-1.484c-1.046 1.687-2.562 3.25-4.671 3.265-3.063-.015-4.266-2.64-4.266-6.015h11.454a5.52 5.52 0 000-.735c.078-2.015-.454-3.703-1.422-5.015h2.578v12.453l-2.485.015zM7.422 6.625c.125-1.531 1.328-2.547 2.75-2.563 1.422 0 2.453 1.032 2.484 2.563H7.422z"/></svg>