<svg xmlns="http://www.w3.org/2000/svg" width="20" height="20" fill="none"><path fill="#1C1F29" d="M3.906 17.256v-2.432h.878c.486 0 1.258-.032 1.723-.074l.825-.063-1.1-.296c-.613-.159-1.385-.392-1.712-.519l-.614-.222V8.692h.984c.528 0 1.3-.032 1.702-.074l.74-.064-1.3-.349c-.72-.18-1.48-.422-1.713-.518l-.413-.19v-4.8l.328-.074c.18-.032.624-.063.983-.063 1.776 0 5.995-.582 8.067-1.11 1.449-.381 2.453-.762 2.802-1.079.18-.158.19-.063.19 2.273v2.442l-.253.19-.254.202.507.444v5.297l-.253.19-.254.2.507.445v5.297l-.275.211c-.296.233-1.438.624-2.738.952-2.03.507-6.988 1.173-8.68 1.173h-.677v-2.431z"/><path fill="#DE3423" d="M3.906 17.277v-2.421l1.85-.074c1.925-.074 3.352-.233 5.445-.592 2.38-.413 4.726-1.153 4.97-1.576.063-.105.105.709.105 2.284v2.453l-.275.211c-.296.233-1.438.624-2.738.952-2.03.507-6.988 1.174-8.68 1.174h-.677v-2.411zm0-6.132V8.723l1.85-.063a37.816 37.816 0 005.763-.655c2.368-.445 4.525-1.163 4.683-1.555.032-.074.064.952.064 2.284.01 2.115-.01 2.453-.17 2.622-.37.412-3.224 1.152-6.163 1.607-1.787.275-4.747.592-5.572.592h-.455v-2.41zm0-6.09V2.687l.328-.064a7.5 7.5 0 01.983-.063c1.776 0 5.995-.582 8.067-1.11 1.449-.38 2.453-.762 2.802-1.079.18-.158.19-.063.19 2.263 0 2.273-.01 2.442-.2 2.611-.286.265-2.242.867-3.765 1.174-2.463.486-6.554 1.004-7.95 1.004h-.455V5.055z"/></svg>