<svg xmlns="http://www.w3.org/2000/svg" width="20" height="20" fill="none"><g fill="#F7A41D" clip-path="url(#a)"><path d="M6.013 3.726L3.66 6.6 2.483 4.77l3.53-1.045z"/><path d="M6.013 3.726l-1.7 1.438L3.66 6.6h-.784v6.667h1.176l-1.438.654-1.045 2.222H0V3.726h6.013z"/><path d="M4.052 13.268l-2.484 2.876-1.046-1.438 3.53-1.438zM7.32 3.726l.784 1.83L4.836 6.6 7.32 3.726z"/><path d="M7.32 3.726h7.19V6.6H4.837L7.32 5.033V3.726zm7.843 9.542l-2.483 2.875-.915-1.699 3.398-1.176z"/><path d="M15.164 13.268l-2.092 1.176-.392 1.7H5.49v-2.876h9.674z"/><path d="M19.608.85L6.798 16.144.393 19.15l12.81-15.425L19.608.85zm-1.176 2.875L18.3 6.08l-2.353.653 2.484-3.007z"/><path d="M20 3.726v12.418h-6.144l1.83-1.569.654-1.307h.784V6.732h-1.176l1.307-1.176 1.177-1.83H20z"/><path d="M16.34 13.268l.654 1.96-3.138.915 2.484-2.875z"/></g><defs><clipPath id="a"><path fill="#fff" d="M0 0h20v20H0z"/></clipPath></defs></svg>