<svg width="16" height="24" viewBox="0 0 16 24" fill="none" xmlns="http://www.w3.org/2000/svg"><g id="Black logo" fill-rule="evenodd" clip-rule="evenodd" fill="#000"><path id="Rectangle 2 (Stroke)" d="M.35 4.875A4.125 4.125 0 014.475.75H8.6V9H4.475A4.125 4.125 0 01.35 4.875zM4.475 1.65a3.225 3.225 0 100 6.45H7.7V1.65H4.475z"/><path id="Rectangle 5 (Stroke)" d="M15.95 4.875A4.125 4.125 0 0011.825.75H7.7V9h4.125a4.125 4.125 0 004.125-4.125zM11.825 1.65a3.225 3.225 0 010 6.45H8.6V1.65h3.225z"/><path id="Rectangle 6 (Stroke)" d="M15.95 12.225a4.125 4.125 0 10-8.25 0 4.125 4.125 0 008.25 0zM11.825 9a3.225 3.225 0 110 6.45 3.225 3.225 0 010-6.45z"/><path id="Rectangle 3 (Stroke)" d="M.35 12.225A4.125 4.125 0 014.475 8.1H8.6v8.25H4.475A4.125 4.125 0 01.35 12.225zM4.475 9a3.225 3.225 0 000 6.45H7.7V9H4.475z"/><path id="Rectangle 4 (Stroke)" d="M.35 19.575a4.125 4.125 0 014.125-4.125H8.6v4.125a4.125 4.125 0 01-8.25 0zm4.125-3.225A3.225 3.225 0 107.7 19.575V16.35H4.475z"/></g></svg>