<svg width="24" height="24" viewBox="0 0 24 24" fill="none" xmlns="http://www.w3.org/2000/svg"><g id="figma-original" clip-path="url(#clip0_5527_109)"><path id="Vector" d="M8.531 24.188c2.231 0 4.031-1.8 4.031-4.032v-4.031h-4.03A4.025 4.025 0 004.5 20.156c0 2.232 1.8 4.032 4.031 4.032z" fill="#0ACF83"/><path id="Vector_2" d="M4.5 12.094c0-2.231 1.8-4.031 4.031-4.031h4.031v8.062h-4.03A4.025 4.025 0 014.5 12.094z" fill="#A259FF"/><path id="Vector_3" d="M4.5 4.031C4.5 1.8 6.3 0 8.531 0h4.031v8.063h-4.03A4.025 4.025 0 014.5 4.03z" fill="#F24E1E"/><path id="Vector_4" d="M12.563 0h4.03c2.232 0 4.032 1.8 4.032 4.031 0 2.232-1.8 4.032-4.031 4.032h-4.032V0z" fill="#FF7262"/><path id="Vector_5" d="M20.625 12.094c0 2.231-1.8 4.031-4.031 4.031a4.025 4.025 0 01-4.032-4.031c0-2.231 1.8-4.031 4.032-4.031 2.231 0 4.031 1.8 4.031 4.03z" fill="#1ABCFE"/></g><defs><clipPath id="clip0_5527_109"><path fill="#fff" d="M0 0h24v24H0z"/></clipPath></defs></svg>