<svg width="24" height="24" viewBox="0 0 24 24" fill="none" xmlns="http://www.w3.org/2000/svg"><g id="html5-original"><path id="Vector" d="M3.57 21.352L1.692.312h20.613l-1.878 21.037-8.44 2.34-8.419-2.337z" fill="#E44D26"/><path id="Vector_2" d="M12 21.9l6.82-1.891 1.606-17.977H12V21.9z" fill="#F16529"/><path id="Vector_3" d="M12 9.835H8.585L8.35 7.193H12v-2.58H5.53l.061.692.634 7.11H12v-2.58zm0 6.702l-.011.003-2.874-.776-.184-2.058h-2.59l.361 4.052 5.286 1.467.012-.003v-2.685z" fill="#EBEBEB"/><path id="Vector_4" d="M11.991 9.835v2.58h3.178l-.3 3.348-2.878.776v2.685l5.29-1.466.04-.436.605-6.794.063-.693h-5.998zm0-5.223v2.58h6.233l.052-.58.118-1.307.061-.693h-6.464z" fill="#fff"/></g></svg>