<svg width="24" height="24" viewBox="0 0 24 24" fill="none" xmlns="http://www.w3.org/2000/svg"><g id="jira-original"><path id="Vector" d="M20.254 3h-8.666a3.907 3.907 0 003.91 3.909h1.593v1.542A3.908 3.908 0 0021 12.361V3.745A.746.746 0 0020.254 3z" fill="#2684FF"/><path id="Vector_2" d="M15.96 7.32H7.294a3.907 3.907 0 003.908 3.909h1.595v1.542a3.908 3.908 0 003.909 3.91V8.065a.747.747 0 00-.746-.746z" fill="url(#paint0_linear_5527_204)"/><path id="Vector_3" d="M11.666 11.64H3a3.907 3.907 0 003.909 3.909h1.594v1.543A3.907 3.907 0 0012.412 21v-8.614a.747.747 0 00-.746-.746z" fill="url(#paint1_linear_5527_204)"/></g><defs><linearGradient id="paint0_linear_5527_204" x1="16.525" y1="7.33" x2="12.838" y2="11.132" gradientUnits="userSpaceOnUse"><stop offset=".176" stop-color="#0052CC"/><stop offset="1" stop-color="#2684FF"/></linearGradient><linearGradient id="paint1_linear_5527_204" x1="12.481" y1="11.673" x2="8.218" y2="15.82" gradientUnits="userSpaceOnUse"><stop offset=".176" stop-color="#0052CC"/><stop offset="1" stop-color="#2684FF"/></linearGradient></defs></svg>