<svg width="24" height="24" viewBox="0 0 24 24" fill="none" xmlns="http://www.w3.org/2000/svg"><g id="sketch-original"><path id="Vector" d="M5.554 2.41L12 1.733l6.446.677 4.991 6.645L12 22.268.562 9.055 5.554 2.41z" fill="#FDB300"/><path id="Vector_2" d="M5.196 9.054L12 22.268.562 9.054h4.634zm13.608 0L12 22.268 23.438 9.054h-4.634z" fill="#EA6C00"/><path id="Vector_3" d="M5.196 9.054h13.608L12 22.268 5.196 9.054z" fill="#FDAD00"/><path id="Vector_4" d="M12 1.733l-6.446.677-.358 6.645L12 1.733zm0 0l6.446.677.358 6.645L12 1.733z" fill="#FDD231"/><path id="Vector_5" d="M23.438 9.054L18.445 2.41l.358 6.645h4.634z" fill="#FDAD00"/><path id="Vector_6" d="M12 1.733L5.196 9.055h13.608L12 1.733z" fill="#FEEEB7"/><path id="Vector_7" d="M.563 9.054l4.99-6.645-.357 6.645H.563z" fill="#FDAD00"/></g></svg>