<svg xmlns="http://www.w3.org/2000/svg" width="111" height="41" fill="none"><g filter="url(#a)"><rect width="105.317" height="35.987" x="5" fill="#fff" rx="5.329" shape-rendering="crispEdges"/><path fill="#1C1F29" d="M21.766 25.112c-1.011 0-1.918-.223-2.719-.67a4.926 4.926 0 01-1.872-1.872c-.46-.801-.69-1.733-.69-2.797s.23-1.99.69-2.779a4.926 4.926 0 011.872-1.871c.801-.447 1.707-.67 2.719-.67.88 0 1.675.197 2.384.591.71.394 1.274.985 1.694 1.773.434.788.65 1.773.65 2.956 0 1.182-.21 2.167-.63 2.955-.407.788-.965 1.386-1.675 1.793-.709.394-1.517.59-2.423.59zm.158-1.655c.656 0 1.247-.151 1.773-.453a3.198 3.198 0 001.26-1.28c.316-.566.473-1.216.473-1.951 0-.75-.157-1.393-.472-1.931a3.198 3.198 0 00-1.261-1.28 3.493 3.493 0 00-1.773-.454c-.67 0-1.268.151-1.793.453a3.375 3.375 0 00-1.261 1.28c-.316.54-.473 1.183-.473 1.931 0 .736.157 1.386.473 1.951.315.552.735.979 1.26 1.28.526.303 1.124.454 1.794.454zm3.566 1.537v-2.818l.118-2.423-.197-2.424v-6.954h1.891v14.619H25.49zm9.272.118c-1.05 0-1.983-.23-2.797-.69a5.133 5.133 0 01-1.931-1.891c-.473-.814-.71-1.734-.71-2.758 0-1.038.237-1.957.71-2.759a4.989 4.989 0 011.93-1.871c.815-.46 1.748-.69 2.798-.69 1.038 0 1.964.23 2.778.69a4.816 4.816 0 011.931 1.871c.473.788.71 1.708.71 2.759 0 1.037-.237 1.957-.71 2.758a4.951 4.951 0 01-1.93 1.891c-.815.46-1.741.69-2.779.69zm0-1.655c.67 0 1.268-.151 1.793-.453a3.199 3.199 0 001.261-1.28c.302-.566.453-1.216.453-1.951 0-.75-.15-1.393-.453-1.931a3.199 3.199 0 00-1.26-1.28c-.526-.303-1.124-.454-1.794-.454-.67 0-1.267.151-1.793.453a3.375 3.375 0 00-1.26 1.28c-.316.54-.473 1.183-.473 1.931 0 .736.157 1.386.473 1.951.315.552.735.979 1.26 1.28.526.303 1.123.454 1.793.454zM46.6 25.112c-.893 0-1.681-.164-2.364-.493a3.612 3.612 0 01-1.577-1.497c-.367-.683-.551-1.537-.551-2.561v-6.01h1.891v5.793c0 1.024.243 1.793.73 2.305.498.512 1.194.768 2.087.768.657 0 1.229-.13 1.715-.394a2.79 2.79 0 001.123-1.182c.262-.525.394-1.156.394-1.891v-5.4h1.891v10.443h-1.793v-2.818l.296.749a3.653 3.653 0 01-1.537 1.616c-.683.38-1.451.57-2.305.57zm11.935 0c-1.051 0-1.865-.282-2.444-.847-.577-.565-.866-1.373-.866-2.424v-9.575h1.891v9.496c0 .565.138.999.414 1.3.289.303.696.454 1.221.454.591 0 1.084-.164 1.478-.493l.591 1.36a2.75 2.75 0 01-1.044.552 4.294 4.294 0 01-1.241.177zm-5.084-9.004V14.55h6.66v1.557h-6.66zm9.065 8.886V14.55h1.891v10.443h-1.891zm.945-12.452c-.367 0-.676-.118-.926-.355a1.18 1.18 0 01-.354-.867c0-.354.118-.65.354-.886.25-.237.559-.355.926-.355.368 0 .67.118.907.355.25.223.374.505.374.847 0 .354-.118.657-.355.906-.236.237-.545.355-.926.355zm6.705 12.452l-4.57-10.443h1.97l4.058 9.458h-.946l4.138-9.458h1.852l-4.571 10.443h-1.931zm7.676 0V14.55h1.891v10.443h-1.891zm.946-12.452c-.368 0-.677-.118-.926-.355a1.18 1.18 0 01-.355-.867c0-.354.118-.65.355-.886.25-.237.558-.355.926-.355.367 0 .67.118.906.355.25.223.374.505.374.847 0 .354-.118.657-.354.906-.237.237-.545.355-.926.355zm7.551 12.57c-1.05 0-1.865-.282-2.443-.847-.578-.565-.867-1.373-.867-2.424v-9.575h1.892v9.496c0 .565.138.999.414 1.3.289.303.696.454 1.221.454.591 0 1.084-.164 1.478-.493l.59 1.36c-.288.25-.636.433-1.043.552a4.294 4.294 0 01-1.242.177zm-5.083-9.004V14.55h6.66v1.557h-6.66zm9.325 12.826c-.499 0-.985-.085-1.458-.256a3.326 3.326 0 01-1.221-.71l.808-1.418c.262.25.551.44.867.572.315.13.65.197 1.004.197.46 0 .84-.119 1.143-.355.302-.236.585-.657.847-1.261l.65-1.438.197-.237 4.099-9.477h1.852l-5.064 11.487c-.302.735-.644 1.313-1.025 1.734-.367.42-.774.716-1.221.886-.447.184-.94.276-1.478.276zm2.483-3.605L88.295 14.55h1.97l4.059 9.3-1.261 1.478z"/></g><defs><filter id="a" width="109.98" height="40.65" x=".337" y="0" color-interpolation-filters="sRGB" filterUnits="userSpaceOnUse"><feFlood flood-opacity="0" result="BackgroundImageFix"/><feColorMatrix in="SourceAlpha" result="hardAlpha" values="0 0 0 0 0 0 0 0 0 0 0 0 0 0 0 0 0 0 127 0"/><feOffset dx="-4.663" dy="4.663"/><feComposite in2="hardAlpha" operator="out"/><feColorMatrix values="0 0 0 0 0.509804 0 0 0 0 0.384314 0 0 0 0 1 0 0 0 1 0"/><feBlend in2="BackgroundImageFix" result="effect1_dropShadow_6372_54892"/><feBlend in="SourceGraphic" in2="effect1_dropShadow_6372_54892" result="shape"/></filter></defs></svg>