<svg xmlns="http://www.w3.org/2000/svg" width="157" height="18" fill="none"><path fill="#1D1B1E" d="M7.977 1h2.406v11.344c0 1.026-.203 1.903-.61 2.633a4.066 4.066 0 01-1.695 1.671c-.729.38-1.583.57-2.562.57-.901 0-1.711-.163-2.43-.491a3.997 3.997 0 01-1.695-1.43C.979 14.667.773 13.9.773 13h2.399c0 .443.101.825.305 1.148.208.323.492.576.851.758.365.177.781.266 1.25.266.51 0 .943-.107 1.297-.32.36-.22.633-.54.82-.961.188-.422.282-.938.282-1.547V1zm14.646 4.203c-.083-.74-.427-1.312-1.031-1.719-.604-.411-1.365-.617-2.281-.617-.657 0-1.224.104-1.704.313-.479.203-.851.484-1.117.843-.26.355-.39.758-.39 1.211 0 .38.088.709.265.985.183.276.42.508.711.695.297.182.615.336.953.461.339.12.664.219.977.297l1.562.406c.51.125 1.034.294 1.57.508a6.297 6.297 0 011.493.844c.458.349.828.78 1.11 1.297.286.515.429 1.132.429 1.851 0 .906-.235 1.711-.703 2.414-.464.703-1.138 1.258-2.024 1.664-.88.407-1.945.61-3.195.61-1.198 0-2.234-.19-3.11-.57-.874-.38-1.56-.92-2.054-1.618-.495-.703-.768-1.536-.82-2.5h2.421c.047.578.235 1.06.563 1.445.333.38.758.665 1.273.852a5.16 5.16 0 001.711.273c.683 0 1.29-.106 1.82-.32.537-.219.96-.52 1.266-.906.308-.39.461-.847.461-1.367 0-.474-.135-.862-.406-1.164-.266-.303-.628-.553-1.086-.75a10.607 10.607 0 00-1.539-.524l-1.89-.515c-1.282-.35-2.298-.862-3.048-1.54-.744-.677-1.117-1.572-1.117-2.687 0-.922.25-1.727.75-2.414.5-.688 1.177-1.221 2.032-1.602.854-.385 1.817-.578 2.89-.578 1.084 0 2.04.19 2.867.57.834.38 1.49.904 1.97 1.57.478.662.728 1.423.75 2.282h-2.329zM41.953 9c0 1.708-.312 3.177-.937 4.406-.625 1.224-1.482 2.167-2.57 2.828-1.084.657-2.316.985-3.696.985-1.385 0-2.622-.328-3.71-.985-1.084-.661-1.938-1.606-2.563-2.836-.625-1.229-.938-2.695-.938-4.398 0-1.708.313-3.174.938-4.398.625-1.23 1.479-2.172 2.562-2.829 1.089-.661 2.326-.992 3.711-.992 1.38 0 2.612.331 3.695.992 1.089.657 1.946 1.6 2.57 2.829.626 1.224.938 2.69.938 4.398zm-2.39 0c0-1.302-.211-2.398-.633-3.29-.417-.895-.99-1.572-1.72-2.03-.723-.464-1.543-.696-2.46-.696-.922 0-1.745.232-2.469.696-.724.458-1.297 1.135-1.718 2.03-.417.892-.625 1.988-.625 3.29s.208 2.401.625 3.297c.421.89.994 1.568 1.718 2.031.724.459 1.547.688 2.469.688.917 0 1.737-.23 2.46-.688.73-.463 1.303-1.14 1.72-2.031.422-.896.633-1.995.633-3.297zm18.314-8v16h-2.219L47.525 5.266h-.148V17h-2.414V1h2.234l8.14 11.75h.15V1h2.39zm10.404 8.227v2.023h-7.094V9.227h7.094zM76.996 5v1.875h-6.555V5h6.555zM72.2 2.125h2.336v11.352c0 .453.068.794.203 1.023.136.224.31.378.524.46.219.08.455.118.71.118.188 0 .352-.013.493-.039l.328-.062.422 1.93a3.926 3.926 0 01-.578.155c-.25.058-.563.089-.938.094a4.11 4.11 0 01-1.718-.328 2.947 2.947 0 01-1.29-1.062c-.328-.48-.492-1.081-.492-1.805V2.125zm12.306 15.117c-1.125 0-2.107-.258-2.945-.773-.839-.516-1.49-1.237-1.954-2.164-.463-.927-.695-2.01-.695-3.25 0-1.245.232-2.334.695-3.266.464-.932 1.115-1.656 1.954-2.172.838-.515 1.82-.773 2.945-.773 1.125 0 2.107.258 2.945.773.839.516 1.49 1.24 1.953 2.172.464.932.696 2.02.696 3.266 0 1.24-.232 2.323-.696 3.25-.463.927-1.114 1.648-1.953 2.164-.838.515-1.82.773-2.945.773zm.008-1.96c.729 0 1.333-.194 1.812-.579.48-.385.834-.898 1.063-1.539.234-.64.351-1.346.351-2.117a6.1 6.1 0 00-.351-2.11c-.23-.645-.584-1.164-1.063-1.554-.479-.39-1.083-.586-1.812-.586-.735 0-1.344.195-1.828.586-.48.39-.836.909-1.07 1.554a6.224 6.224 0 00-.344 2.11c0 .77.114 1.476.343 2.117.235.64.591 1.154 1.07 1.54.485.384 1.094.577 1.829.577zm15.263-6.055v2.023h-7.093V9.227h7.093zM103.078 17V1h5.703c1.245 0 2.276.227 3.094.68.818.453 1.43 1.073 1.836 1.86.406.78.609 1.66.609 2.64 0 .984-.205 1.87-.617 2.656-.406.781-1.021 1.401-1.844 1.86-.817.452-1.846.679-3.086.679h-3.921V9.328h3.703c.786 0 1.424-.135 1.914-.406a2.553 2.553 0 001.078-1.125c.229-.474.344-1.013.344-1.617 0-.604-.115-1.14-.344-1.61a2.464 2.464 0 00-1.086-1.101c-.49-.266-1.135-.399-1.938-.399h-3.031V17h-2.414zm13.885 0V5h2.258v1.906h.125a2.897 2.897 0 011.156-1.523 3.307 3.307 0 011.891-.563 9.988 9.988 0 01.992.055v2.234a4.218 4.218 0 00-.5-.086 4.774 4.774 0 00-.719-.054c-.552 0-1.044.117-1.477.351a2.61 2.61 0 00-1.39 2.352V17h-2.336zm13.068.242c-1.125 0-2.107-.258-2.945-.773-.839-.516-1.49-1.237-1.953-2.164-.464-.927-.695-2.01-.695-3.25 0-1.245.231-2.334.695-3.266.463-.932 1.114-1.656 1.953-2.172.838-.515 1.82-.773 2.945-.773 1.125 0 2.107.258 2.946.773.838.516 1.489 1.24 1.953 2.172.463.932.695 2.02.695 3.266 0 1.24-.232 2.323-.695 3.25-.464.927-1.115 1.648-1.953 2.164-.839.515-1.821.773-2.946.773zm.008-1.96c.729 0 1.333-.194 1.813-.579.479-.385.833-.898 1.062-1.539a6.13 6.13 0 00.352-2.117 6.11 6.11 0 00-.352-2.11c-.229-.645-.583-1.164-1.062-1.554-.48-.39-1.084-.586-1.813-.586-.734 0-1.344.195-1.828.586-.479.39-.836.909-1.07 1.554a6.202 6.202 0 00-.344 2.11c0 .77.114 1.476.344 2.117.234.64.591 1.154 1.07 1.54.484.384 1.094.577 1.828.577zM143.834 5v1.875h-6.555V5h6.555zm-4.797-2.875h2.336v11.352c0 .453.068.794.203 1.023.136.224.31.378.524.46.218.08.455.118.711.118.187 0 .351-.013.492-.039l.328-.062.422 1.93a3.945 3.945 0 01-.578.155 4.58 4.58 0 01-.938.094 4.116 4.116 0 01-1.719-.328 2.948 2.948 0 01-1.289-1.062c-.328-.48-.492-1.081-.492-1.805V2.125zm12.307 15.117c-1.125 0-2.107-.258-2.946-.773-.838-.516-1.489-1.237-1.953-2.164-.463-.927-.695-2.01-.695-3.25 0-1.245.232-2.334.695-3.266.464-.932 1.115-1.656 1.953-2.172.839-.515 1.821-.773 2.946-.773 1.125 0 2.107.258 2.945.773.839.516 1.49 1.24 1.953 2.172.464.932.696 2.02.696 3.266 0 1.24-.232 2.323-.696 3.25-.463.927-1.114 1.648-1.953 2.164-.838.515-1.82.773-2.945.773zm.008-1.96c.729 0 1.333-.194 1.812-.579.479-.385.833-.898 1.063-1.539a6.13 6.13 0 00.351-2.117 6.11 6.11 0 00-.351-2.11c-.23-.645-.584-1.164-1.063-1.554-.479-.39-1.083-.586-1.812-.586-.735 0-1.344.195-1.829.586-.479.39-.835.909-1.07 1.554a6.227 6.227 0 00-.344 2.11c0 .77.115 1.476.344 2.117.235.64.591 1.154 1.07 1.54.485.384 1.094.577 1.829.577z"/></svg>