<svg xmlns="http://www.w3.org/2000/svg" width="924" height="304" fill="none"><g clip-path="url(#a)"><path fill="#EA4335" d="M395.484 159.976c0 43.717-34.2 75.931-76.17 75.931-41.971 0-76.17-32.214-76.17-75.931 0-44.024 34.199-75.93 76.17-75.93 41.97 0 76.17 31.906 76.17 75.93zm-33.344 0c0-27.318-19.821-46.01-42.826-46.01s-42.826 18.692-42.826 46.01c0 27.045 19.821 46.01 42.826 46.01s42.826-18.999 42.826-46.01z"/><path fill="#FBBC05" d="M559.806 159.976c0 43.717-34.2 75.931-76.17 75.931-41.971 0-76.17-32.214-76.17-75.931 0-43.99 34.199-75.93 76.17-75.93 41.97 0 76.17 31.906 76.17 75.93zm-33.344 0c0-27.318-19.821-46.01-42.826-46.01s-42.827 18.692-42.827 46.01c0 27.045 19.822 46.01 42.827 46.01s42.826-18.999 42.826-46.01z"/><path fill="#4285F4" d="M717.28 88.633v136.319c0 56.075-33.069 78.977-72.164 78.977-36.801 0-58.951-24.614-67.304-44.744l29.031-12.084c5.169 12.358 17.835 26.942 38.239 26.942 25.024 0 40.532-15.44 40.532-44.504v-10.921h-1.164c-7.463 9.209-21.841 17.254-39.985 17.254-37.965 0-72.746-33.069-72.746-75.622 0-42.86 34.781-76.204 72.746-76.204 18.11 0 32.488 8.045 39.985 16.98h1.164V88.667h31.666v-.034zm-29.304 71.617c0-26.736-17.835-46.284-40.532-46.284-23.005 0-42.279 19.548-42.279 46.284 0 26.463 19.274 45.736 42.279 45.736 22.697 0 40.532-19.273 40.532-45.736z"/><path fill="#34A853" d="M769.487 8.732V231.25h-32.522V8.731h32.522z"/><path fill="#EA4335" d="M896.22 184.967l25.88 17.254c-8.353 12.358-28.482 33.651-63.263 33.651-43.135 0-75.349-33.343-75.349-75.93 0-45.154 32.488-75.93 71.617-75.93 39.403 0 58.677 31.358 64.976 48.303l3.457 8.627-101.503 42.039c7.771 15.234 19.856 23.005 36.802 23.005 16.98 0 28.756-8.353 37.383-21.019zm-79.662-27.319l67.851-28.174c-3.731-9.483-14.96-16.09-28.174-16.09-16.946 0-40.533 14.96-39.677 44.264z"/><path fill="#4285F4" d="M120.04 140.223V108.01h108.555c1.061 5.614 1.609 12.255 1.609 19.444 0 24.169-6.607 54.055-27.901 75.349-20.711 21.567-47.174 33.069-82.229 33.069-64.976 0-119.613-52.925-119.613-117.9C.461 52.996 55.098.071 120.074.071c35.945 0 61.552 14.104 80.791 32.488l-22.731 22.73c-13.796-12.94-32.488-23.004-58.094-23.004-47.448 0-84.558 38.239-84.558 85.687 0 47.447 37.11 85.686 84.558 85.686 30.776 0 48.303-12.358 59.532-23.587 9.106-9.106 15.097-22.114 17.459-39.882l-76.991.034z"/></g><defs><clipPath id="a"><path fill="#fff" d="M.461.07h923.077v303.86H.461z"/></clipPath></defs></svg>