<svg xmlns="http://www.w3.org/2000/svg" width="145" height="54" fill="none"><g clip-path="url(#a)"><path fill="#fff" d="M.759 6.924L19.124 23.45a6.607 6.607 0 008.844-.01L46.203 6.924C49.923 3.457 39.572.02 23.56 0h-.16C7.4.02-2.96 3.457.759 6.924zM0 20.63l19.124 17.213a6.607 6.607 0 008.844-.01L46.96 20.63v-7.51L27.008 31.202a5.143 5.143 0 01-6.904.01L0 13.12v7.51zm19.124 31.677L1.102 36.074A3.288 3.288 0 010 33.608v-6.024l20.104 18.092a5.143 5.143 0 006.904-.01L46.96 27.594v6.034c0 .93-.394 1.83-1.092 2.456l-17.9 16.213a6.607 6.607 0 01-8.844.01zm73.688-38.419a.454.454 0 00-.351-.158.46.46 0 00-.218.053c-.066.035-.13.079-.192.131a3.33 3.33 0 01-.534.421 2.64 2.64 0 01-.56.272 3 3 0 01-.643.149 6.1 6.1 0 01-.769.044 3.31 3.31 0 01-1.353-.28 3.239 3.239 0 01-1.102-.842 4.17 4.17 0 01-.744-1.35c-.178-.538-.267-1.149-.267-1.832 0-.678.083-1.283.25-1.815.168-.532.401-.979.702-1.341a3.06 3.06 0 011.094-.842 3.327 3.327 0 011.395-.289c.457 0 .833.05 1.128.15.3.098.549.21.743.332.2.123.368.234.502.333a.7.7 0 00.409.15c.134 0 .24-.03.317-.088a.809.809 0 00.192-.202l.844-1.21A5.12 5.12 0 0092.862 5a4.787 4.787 0 00-.953-.534 5.882 5.882 0 00-1.119-.342A6.217 6.217 0 0089.529 4c-.596 0-1.159.073-1.688.22a5.43 5.43 0 00-1.453.622 5.498 5.498 0 00-1.203.981c-.35.386-.651.818-.902 1.298a6.649 6.649 0 00-.576 1.578 8.134 8.134 0 00-.192 1.797c0 .94.136 1.808.409 2.603a6.083 6.083 0 001.17 2.06 5.351 5.351 0 001.845 1.359c.724.321 1.54.482 2.448.482 1.002 0 1.865-.17 2.59-.508a4.762 4.762 0 001.828-1.49l-.994-1.114zM78.027 4.14L73.15 16.86h-2.272L66 4.14h2.021c.218 0 .393.056.527.167a.933.933 0 01.309.412l2.623 7.328c.1.275.197.576.292.903.1.322.192.66.276 1.017.072-.357.15-.696.233-1.017.09-.327.184-.628.284-.903l2.607-7.328a.965.965 0 01.292-.395A.798.798 0 0176 4.14h2.03zm3.645 12.72H79.15V4.14h2.523v12.72zm22.126-10.598h-3.542V16.86h-2.514V6.262H94.2V4.14h9.598v2.122zm12.405 6.82c.3-.795.451-1.657.451-2.586 0-.924-.151-1.78-.451-2.569a6.025 6.025 0 00-1.262-2.06 5.664 5.664 0 00-1.954-1.367c-.763-.333-1.61-.5-2.54-.5-.93 0-1.776.167-2.539.5a5.816 5.816 0 00-1.963 1.358 6.12 6.12 0 00-1.27 2.06 7.302 7.302 0 00-.442 2.578c0 .929.147 1.79.442 2.586a6.121 6.121 0 001.27 2.06 5.922 5.922 0 001.963 1.367c.763.327 1.609.491 2.539.491.93 0 1.777-.164 2.54-.49a5.824 5.824 0 001.954-1.368 6.025 6.025 0 001.262-2.06zm-2.364-4.375c.167.526.25 1.122.25 1.789 0 .672-.083 1.274-.25 1.805-.167.526-.41.973-.727 1.342a3.134 3.134 0 01-1.144.85c-.446.193-.953.29-1.521.29a3.85 3.85 0 01-1.528-.29 3.209 3.209 0 01-1.153-.85 3.847 3.847 0 01-.718-1.342c-.167-.531-.251-1.133-.251-1.805 0-.667.084-1.263.251-1.789.167-.531.406-.981.718-1.35a3.078 3.078 0 011.153-.85c.451-.199.96-.298 1.528-.298.568 0 1.075.1 1.521.298a3.01 3.01 0 011.144.85c.317.369.56.819.727 1.35zm8.437 1.455c.407 0 .757-.052 1.053-.157.295-.111.537-.26.726-.447a1.78 1.78 0 00.418-.675c.089-.257.134-.538.134-.842 0-.602-.192-1.07-.577-1.402-.378-.334-.958-.5-1.737-.5h-1.303v4.023h1.286zm5.872 6.698h-2.263c-.424 0-.73-.17-.919-.509l-2.306-3.9a.975.975 0 00-.317-.334c-.111-.07-.278-.105-.501-.105h-.852v4.848h-2.506V4.14h3.809c.846 0 1.57.094 2.172.28.601.182 1.094.436 1.478.763.384.328.666.72.844 1.175.178.45.267.947.267 1.49 0 .421-.058.821-.175 1.201a3.546 3.546 0 01-1.295 1.85 4.05 4.05 0 01-1.086.578c.162.094.312.208.451.342.139.129.265.284.376.465l2.823 4.576zm1.185 0h2.523V4.14h-2.523v12.72zm11.456-4.83l-1.311-3.892a15.108 15.108 0 01-.251-.72 15.869 15.869 0 01-.242-.893c-.078.327-.162.63-.251.911-.083.275-.164.515-.242.72l-1.303 3.874h3.6zm4.21 4.83h-1.946a.864.864 0 01-.535-.158 1.025 1.025 0 01-.301-.42l-.818-2.429h-4.828l-.819 2.428c-.056.146-.153.28-.292.403a.79.79 0 01-.526.176h-1.963l4.736-12.72h2.564L145 16.86zm-19.381 16.584c.088 0 .164.036.23.107l.632.68a5.009 5.009 0 01-1.758 1.302c-.684.311-1.514.467-2.489.467-.843 0-1.61-.145-2.3-.434a5.129 5.129 0 01-1.766-1.229 5.597 5.597 0 01-1.134-1.9c-.268-.737-.402-1.548-.402-2.433 0-.885.139-1.696.419-2.433a5.59 5.59 0 011.174-1.9 5.27 5.27 0 011.824-1.229c.707-.295 1.487-.442 2.341-.442.838 0 1.578.134 2.218.401a5.597 5.597 0 011.693 1.09l-.526.729a.464.464 0 01-.131.139.37.37 0 01-.206.05c-.098 0-.219-.053-.361-.156a5.06 5.06 0 00-.559-.36 4.19 4.19 0 00-.862-.353c-.346-.11-.77-.164-1.274-.164-.608 0-1.164.107-1.667.32-.504.207-.94.51-1.307.909a4.259 4.259 0 00-.846 1.458c-.202.573-.304 1.22-.304 1.941 0 .732.104 1.384.312 1.958.214.573.502 1.06.863 1.458a3.72 3.72 0 001.29.9 4.145 4.145 0 001.61.312c.35 0 .665-.019.945-.057.284-.044.545-.11.78-.197.241-.087.463-.196.665-.328a4.83 4.83 0 00.617-.483.425.425 0 01.279-.123zm-45.37-9.313V35.87h-1.397v-8.625c0-.115.003-.238.008-.369l.033-.401-4.042 7.339c-.126.246-.317.369-.575.369h-.23c-.257 0-.449-.123-.575-.369l-4.124-7.372c.033.29.05.557.05.803v8.625H68V24.13h1.175c.142 0 .252.014.328.041.077.027.151.104.222.23l4.067 7.224c.065.131.128.267.189.41.065.142.126.286.18.434.055-.148.113-.292.173-.434a4.14 4.14 0 01.197-.418l3.992-7.217c.066-.125.137-.202.214-.229.082-.027.195-.04.337-.04h1.175zM90.52 34.575l-.008 1.294h-7.254V24.13h7.254v1.294h-5.66v3.9h4.584v1.244h-4.584v4.006h5.668zm6.37-9.109h3.811v-1.335h-9.217v1.335h3.82V35.87h1.585V25.466zm8.819 4.35c.46 0 .865-.055 1.216-.164.356-.115.652-.273.887-.475.241-.208.422-.453.542-.737a2.38 2.38 0 00.181-.942c0-.7-.23-1.226-.69-1.581-.46-.355-1.15-.533-2.07-.533h-1.742v4.432h1.676zm5.438 6.053h-1.413c-.29 0-.503-.112-.64-.336l-3.056-4.194a.852.852 0 00-.304-.278c-.104-.06-.269-.09-.493-.09h-1.208v4.898h-1.585V24.13h3.327c.745 0 1.388.076 1.93.23.543.147.989.363 1.339.646.356.284.619.628.789 1.033.17.398.255.846.255 1.343 0 .415-.066.803-.197 1.163a3.12 3.12 0 01-.575.975 3.384 3.384 0 01-.912.729 4.464 4.464 0 01-1.216.459c.202.114.378.28.526.5l3.433 4.66zm1.602 0h1.593V24.13h-1.593v11.74zm21.437-9.715a.627.627 0 00.164-.188l.386-.754a4.234 4.234 0 00-1.429-.9 4.933 4.933 0 00-1.791-.312c-.586 0-1.106.09-1.561.27-.449.18-.83.42-1.142.721a3.15 3.15 0 00-.706 1.032 3.15 3.15 0 00-.239 1.204c0 .52.08.956.239 1.31.164.35.377.643.64.877.263.235.564.426.904.574.34.147.685.278 1.035.393.351.11.696.218 1.035.328.34.103.641.232.904.384.263.153.474.345.632.574.165.224.247.513.247.868 0 .322-.055.615-.164.877-.11.262-.269.488-.477.68a2.16 2.16 0 01-.747.434 3.046 3.046 0 01-1.011.155 3.69 3.69 0 01-.813-.082 3.744 3.744 0 01-.649-.22 3.366 3.366 0 01-.501-.287c-.148-.104-.28-.2-.395-.287a3.225 3.225 0 00-.312-.213.432.432 0 00-.238-.09.38.38 0 00-.214.065.578.578 0 00-.156.148l-.46.753c.444.47.978.844 1.602 1.122.624.273 1.32.41 2.087.41.624 0 1.18-.096 1.667-.287a3.544 3.544 0 001.241-.786c.339-.333.597-.724.772-1.171a3.99 3.99 0 00.263-1.45c0-.486-.082-.896-.246-1.229a2.53 2.53 0 00-.641-.844 3.456 3.456 0 00-.904-.565c-.334-.153-.679-.29-1.035-.41-.35-.12-.696-.234-1.035-.343a5.326 5.326 0 01-.904-.402 2.188 2.188 0 01-.641-.549c-.158-.218-.238-.491-.238-.819a1.8 1.8 0 01.14-.712c.093-.224.23-.418.411-.582.186-.164.413-.292.682-.385.273-.098.588-.147.944-.147a2.9 2.9 0 01.961.139c.269.093.496.197.682.311.192.11.351.21.477.303s.235.14.328.14c.082 0 .151-.02.206-.058z"/></g><defs><clipPath id="a"><path fill="#fff" d="M0 0h145v54H0z"/></clipPath></defs></svg>